<svg xmlns="http://www.w3.org/2000/svg" width="386.191" height="443.648" viewBox="0 0 386.191 443.648"><defs><style>.a{fill:#fff;}.b{fill:#211715;}.c{fill:#4d4544;}</style></defs><path class="a" d="M2.422,361.527a205.975,205.975,0,0,1,24.834-48.81c3.818-5.532,8.028-11.156,9.094-17.792.577-3.587.188-7.249-.085-10.872-1.967-26.12-3.114-57.324.379-65.831,5.522-13.447,8.623-40.574,9.859-54.814.189-2.179,2.325-6.679,3.7-8.74q.883-1.388,1.686-2.865c5.032-9.24,7.742-20.842,9.81-30.944.684-3.345,1.206-6.787,2.761-9.827s4.41-5.672,7.817-5.895c5.164-.338,9.008,4.655,11.157,9.363a57.649,57.649,0,0,1-2.768,52.362L193.318,291.585c-16.968,22-27.237,32.287-58.2,52.578-4.216,2.762-19.576,11.215-23.434,14.529-12.69,10.9-21.657,28.687-27.237,44.3Z"/><path class="a" d="M222.9,84.953a81.67,81.67,0,0,1,8.641-6.063c2.99-1.935,7.346-2.344,10.863-1.781,4.941.791,8.059,6.221,7.937,11.223s-2.533,9.678-5.292,13.852c-7.047,10.659-15.883,21.779-21.595,25.533"/><path class="b" d="M224.6,86.65a71.347,71.347,0,0,1,7.016-4.953,13.383,13.383,0,0,1,6.944-2.4c2.106-.1,4.34,0,6.065,1.339a9.167,9.167,0,0,1,3.061,5.158c1.223,5.126-1.666,10.48-4.354,14.64a163.162,163.162,0,0,1-10.477,14.439c-3.112,3.822-6.667,8.139-10.609,10.773-2.557,1.707-.156,5.867,2.422,4.144,4.35-2.9,7.887-7.027,11.182-11.035a162.063,162.063,0,0,0,11.975-16.443c3.3-5.242,6.036-11.677,4.45-17.959a14.069,14.069,0,0,0-3.89-6.79,11.983,11.983,0,0,0-7.861-3.055,17.759,17.759,0,0,0-9.877,2.116,71.456,71.456,0,0,0-9.441,6.633,2.419,2.419,0,0,0,0,3.394,2.453,2.453,0,0,0,3.394,0Z"/><path class="a" d="M104.074,2.406h96.445A24.052,24.052,0,0,1,224.57,26.458V267.335a24.049,24.049,0,0,1-24.049,24.049H104.074a24.052,24.052,0,0,1-24.052-24.052V26.458A24.052,24.052,0,0,1,104.074,2.406Z"/><path class="b" d="M197.348,2.406c0,.054-2.545.852-2.545,3.33V9.507a9.8,9.8,0,0,1-9.78,9.8c-9.319.013-23.291.032-32.727.051-9.436-.019-23.408-.038-32.727-.051a9.8,9.8,0,0,1-9.78-9.8V5.736a3.853,3.853,0,0,0-2.314-3.33"/><path class="b" d="M195.65.709c.953-.748-.105-.088-.361.076A6.672,6.672,0,0,0,193.527,2.4C192.31,4.01,192.4,5.867,192.4,7.789a10.543,10.543,0,0,1-.72,4.917,7.559,7.559,0,0,1-3.028,3.239,8.574,8.574,0,0,1-4.476.961l-5.7.008-12.693.018q-11.745.02-23.489.006l-12.81-.019-6.041-.009a32.878,32.878,0,0,1-4.964-.073A7.477,7.477,0,0,1,112.2,9.858c-.088-2.151.366-4.534-.554-6.551a5.775,5.775,0,0,0-1.559-2.028,8.2,8.2,0,0,0-.938-.686c-.255-.158-.769-.551.027.116a2.467,2.467,0,0,0-3.394,0,2.42,2.42,0,0,0,0,3.394,9.669,9.669,0,0,0,1.086.724c.081.051.331.252-.011-.02a1.827,1.827,0,0,1,.328.316c-.2-.3.221.5.166.308a9.541,9.541,0,0,1,.042,2.363,25.822,25.822,0,0,0,.1,3.1,12.262,12.262,0,0,0,6.317,9.357c3.622,1.913,7.77,1.459,11.727,1.464l13.066.019q12.256.02,24.512,0l13.2-.02,6.112-.009a22,22,0,0,0,5.786-.429,12.289,12.289,0,0,0,8.655-8.914c.512-2.212.055-4.446.327-6.627a.922.922,0,0,1,.522-.808,15.418,15.418,0,0,0,1.333-.827,2.414,2.414,0,0,0,0-3.394,2.462,2.462,0,0,0-3.395,0Z"/><path class="b" d="M200.519,288.984H104.944a24.387,24.387,0,0,1-7.972-1.191A21.928,21.928,0,0,1,84.46,276.519c-2.927-6.081-2.038-13.858-2.038-20.452V27.492a22.473,22.473,0,0,1,6.618-16.6,21.787,21.787,0,0,1,15.038-6.085c.861-.006,1.722,0,2.583,0h88.167c4.6,0,9.1-.226,13.516,1.452A21.907,21.907,0,0,1,222.17,26.7c.005,1.928,0,3.856,0,5.784V252.65c0,5.027.085,10.063,0,15.09a21.878,21.878,0,0,1-21.648,21.244c-3.088.026-3.095,4.826,0,4.8a26.751,26.751,0,0,0,26.24-23.256,52.488,52.488,0,0,0,.211-6.6V43.9c0-5.779.033-11.56,0-17.34a26.82,26.82,0,0,0-17.35-24.93c-4.72-1.78-9.579-1.623-14.5-1.623H106.363c-1.031,0-2.067-.021-3.1.014A26.7,26.7,0,0,0,85.919,7.236a27.065,27.065,0,0,0-8.3,19.979V265.672a29.116,29.116,0,0,0,3.489,14.784,26.977,26.977,0,0,0,23.715,13.328h95.693C203.607,293.784,203.612,288.984,200.519,288.984Z"/><path class="b" d="M126.553,282l17.77,0,26.4-.006h7.318c3.088,0,3.093-4.8,0-4.8q-8.986,0-17.972,0l-26.341.006h-7.173c-3.088,0-3.093,4.8,0,4.8Z"/><path class="c" d="M137.329,13.6q9.469,0,18.94-.01c3.088,0,3.093-4.8,0-4.8q-9.471,0-18.94.01c-3.089,0-3.094,4.8,0,4.8Z"/><path class="c" d="M167.263,14c3.6,0,3.609-5.6,0-5.6s-3.609,5.6,0,5.6Z"/><path class="a" d="M50.207,154.668q.883-1.388,1.686-2.865c5.032-9.24,7.742-20.842,9.81-30.944.684-3.345,1.206-6.787,2.761-9.827s4.41-5.672,7.817-5.895c5.164-.338,9.008,4.655,11.157,9.363a57.649,57.649,0,0,1-2.768,52.362"/><path class="b" d="M52.279,155.879c4.576-7.259,7.293-15.581,9.376-23.853,1.024-4.065,1.9-8.168,2.711-12.28.74-3.736,1.5-7.863,4.452-10.543a5.729,5.729,0,0,1,7.687-.277c2.744,2.114,4.405,5.5,5.656,8.643a55.41,55.41,0,0,1,3.811,23.039A54.593,54.593,0,0,1,78.6,165.651c-1.565,2.671,2.582,5.089,4.144,2.423a60.209,60.209,0,0,0,4.626-50.262c-2.552-7.021-7.612-16.607-16.623-14.871-4.154.8-7.306,4.364-8.912,8.089-1.856,4.3-2.391,9.109-3.388,13.66-2.175,9.931-4.838,20.084-10.311,28.766-1.652,2.621,2.5,5.033,4.145,2.423Z"/><path class="b" d="M48.134,153.456a25.844,25.844,0,0,0-3.858,8.722c-.523,2.684-.56,5.527-.839,8.246-.671,6.518-1.472,13.024-2.484,19.5a181.481,181.481,0,0,1-4.047,19.87c-1.206,4.41-3.179,8.554-3.853,13.094A125.106,125.106,0,0,0,32,240.576c-.041,7.614.21,15.229.576,22.834.393,8.155,1.075,16.285,1.569,24.433a25.076,25.076,0,0,1-1.766,12.013,63.344,63.344,0,0,1-6.236,10.264,212.623,212.623,0,0,0-23.86,44.854q-1.134,2.94-2.176,5.915a2.423,2.423,0,0,0,1.676,2.952,2.447,2.447,0,0,0,2.952-1.676A204.336,204.336,0,0,1,27.308,316.91c4.342-6.533,9.848-12.991,11.286-20.934.8-4.446.291-8.915-.037-13.379q-.438-5.947-.789-11.9c-.462-7.87-.813-15.749-.932-23.632a192.707,192.707,0,0,1,.463-19.422q.075-.883.17-1.764c.032-.3.066-.6.1-.9.015-.125.03-.25.046-.375.1-.785-.034.229.029-.209.147-1.006.316-2.009.544-3,.468-2.038,1.352-3.934,2.013-5.912a130.587,130.587,0,0,0,4.4-18.424c1.229-6.867,2.179-13.785,2.986-20.714q.528-4.545.964-9.1c.122-1.275.181-2.569.351-3.838-.054.406.059-.229.087-.346.082-.341.184-.678.293-1.012a20.966,20.966,0,0,1,.846-2.176,29.3,29.3,0,0,1,2.15-4c1.7-2.591-2.457-5-4.145-2.423Z"/><path class="b" d="M86.766,403.626c4.069-11.342,9.317-22.429,16.474-32.168a70.894,70.894,0,0,1,5.694-6.817q1.463-1.542,3.025-2.984c.468-.43.94-.858,1.426-1.268.117-.1.237-.194.355-.293.389-.328-.337.246.068-.052,3.387-2.493,7.06-4.61,10.674-6.751,3.57-2.115,7.185-4.159,10.716-6.34,5.015-3.1,9.874-6.5,14.69-9.9a200.967,200.967,0,0,0,24.14-19.545c7.843-7.593,14.7-16.086,21.362-24.713a2.414,2.414,0,0,0-.861-3.284,2.463,2.463,0,0,0-3.284.861,228.35,228.35,0,0,1-18.691,21.85,181.756,181.756,0,0,1-22.993,19.195c-5.208,3.737-10.507,7.372-15.9,10.835-3.292,2.113-6.723,4.02-10.093,6-3.775,2.224-7.6,4.423-11.194,6.931a53.412,53.412,0,0,0-10.835,10.664c-8.656,10.823-14.741,23.508-19.4,36.5a2.422,2.422,0,0,0,1.676,2.952,2.449,2.449,0,0,0,2.953-1.676Z"/><path class="a" d="M237.448,188.919l4.374-4c3.294-3.008,6.706-6.191,8.206-10.392,2.192-6.137-.5-13.431-5.716-17.343s-12.07-5.532-17.525-1.966c-2.669,1.744-8.071,8.162-10.5,11.776-2.711,4.034-4.941,8.836-5.314,13.682a13.1,13.1,0,0,0,5.457,12.181c4.025,2.8,9.562,2.534,14.019.485A53.5,53.5,0,0,0,237.448,188.919Z"/><path class="b" d="M239.145,190.616c3.872-3.536,8.16-6.928,11.122-11.311a16.82,16.82,0,0,0,2.44-13.356c-2.155-9.257-12.007-16.3-21.5-14.909-4.206.617-7.26,3.109-10.056,6.119a66.3,66.3,0,0,0-7.64,9.714c-4.984,7.936-8.029,19.873.2,26.891a15.97,15.97,0,0,0,15.388,2.67,25.315,25.315,0,0,0,5.772-2.85,34.437,34.437,0,0,0,4.281-2.968c2.338-2.027-1.069-5.41-3.394-3.394-.4.346.4-.257-.029.025-.207.136-.405.289-.609.431q-.927.644-1.877,1.255a35.267,35.267,0,0,1-3.816,2.256c-3.12,1.5-7.283,1.971-10.46.385a10.373,10.373,0,0,1-5.543-7.945c-.553-4.156.975-8.46,2.916-12.067a50.433,50.433,0,0,1,6.228-8.781c1.134-1.325,2.3-2.627,3.552-3.846.488-.476.987-.94,1.513-1.375.059-.049.38-.279.046-.039.107-.077.214-.157.327-.226a13.1,13.1,0,0,1,1.391-.785c6.73-3.1,15.4,2.088,17.993,8.475a12.284,12.284,0,0,1-1.04,11.563c-2.681,4.161-6.975,7.371-10.592,10.674C233.466,189.31,236.868,192.7,239.145,190.616Z"/><path class="a" d="M232.2,231.213l4.817-2.235c3.627-1.683,7.4-3.482,9.818-6.668,3.529-4.654,3.192-11.616-.206-16.367s-8.824-7.984-14.448-6.409c-2.752.771-9.1,4.8-12.153,7.232-3.406,2.717-6.608,6.22-8.234,10.261a11.746,11.746,0,0,0,1.377,11.884c2.684,3.482,7.489,4.746,11.852,4.2A47.915,47.915,0,0,0,232.2,231.213Z"/><path class="b" d="M233.411,233.285c4.244-1.969,8.764-3.7,12.463-6.629a15.338,15.338,0,0,0,5.827-11.193c.561-8.308-5.912-17.144-14.282-18.512-3.931-.642-7.254.557-10.628,2.455a60.575,60.575,0,0,0-9.1,6.182c-6.828,5.693-12.82,15.746-6.849,24.195,5.168,7.312,15.183,6.68,22.566,3.5a2.417,2.417,0,0,0,.861-3.284,2.464,2.464,0,0,0-3.284-.861c.852-.366-.271.059-.561.15-.661.206-1.326.4-1.994.581a28.162,28.162,0,0,1-3.852.9,14.061,14.061,0,0,1-4.24-.22,9.707,9.707,0,0,1-4.1-1.892,8.992,8.992,0,0,1-2.77-9c.877-3.665,3.368-6.767,6.064-9.3a45.645,45.645,0,0,1,7.442-5.479c2.313-1.431,4.528-2.968,7.071-3.294,6.418-.824,12.4,5.815,12.847,11.835a10.839,10.839,0,0,1-4.1,9.6c-3.425,2.725-7.869,4.3-11.8,6.125a2.42,2.42,0,0,0-.861,3.284A2.456,2.456,0,0,0,233.411,233.285Z"/><path class="a" d="M314.584,441.281c-19.621-18.579-37.888-17.123-58.166-24.839-18.638-7.092-29.126-24.623-38.354-42.3-3.809-7.3-7.695-14.861-8.273-23.072s4.373-20.668,11.078-27.372l.5-.5c-15.693-23.23-26.611-42.493-42.92-70.1-2.91-4.926-7.79-13.733-8.78-19.312-1.7-9.6,1.959-14.044,7.854-15.207,1.757-.346,10.163.062,16.661,8.779,15.775,21.162,29.224,40.081,40.947,55.89-3.062-13.372,9.337-14.022,15.467-13,5.28.876,9.089,3.877,12.594,7.921,3.086,3.56,6.028,7.049,9,10.6-1.832-9.316,1.634-14.122,8.509-16.232,3.672-1.126,9.28-.774,12.552,2.35,1.917,1.83,3.736,3.585,5.494,5.31,4-5.313,11.772-6.508,18.114-4.558,6.279,1.931,11.458,6.334,16.3,10.772,13.025,11.939,25.394,25.512,31.048,42.252,7.387,21.872,4.463,53.128,19.6,70.561"/><path class="b" d="M237.586,355.658a105.172,105.172,0,0,0-11.448-29.4c-2.417-4.214-5.316-8.158-7.977-12.22q-4.309-6.577-8.468-13.253c-5.57-8.929-10.953-17.973-16.3-27.038q-4.347-7.372-8.68-14.755c-2.656-4.514-5.4-8.986-7.836-13.626-2.017-3.844-4.107-7.919-4.9-12.228a16.977,16.977,0,0,1-.105-6.342,7.365,7.365,0,0,1,1.9-3.823,7.168,7.168,0,0,1,3.366-1.85,5.5,5.5,0,0,0,1.054-.246c-.081.141-.662.032-.113.026.49-.005.971-.013,1.46.027.152.012.3.03.455.045.389.038-.6-.108.05.008.286.05.571.1.855.159a18.544,18.544,0,0,1,2.4.685,18.325,18.325,0,0,1,4.963,2.8,30.154,30.154,0,0,1,5.325,5.933q2.769,3.723,5.522,7.458,5.324,7.222,10.6,14.477c6.311,8.659,12.588,17.342,18.93,25.978,9.866,13.435,19.755,27.051,31.128,39.271q1.614,1.733,3.282,3.413c2.18,2.195,5.575-1.2,3.394-3.394-11.418-11.488-21.1-24.7-30.7-37.7-6.426-8.695-12.763-17.456-19.124-26.2q-5.256-7.222-10.538-14.425-2.847-3.877-5.709-7.745c-1.873-2.529-3.659-5.18-5.723-7.557-4.412-5.084-12.452-9.765-19.4-7.452a11.75,11.75,0,0,0-7.68,7.6c-1.4,4.253-.749,9.26.656,13.422a80.953,80.953,0,0,0,6.409,13.593c2.754,4.894,5.68,9.7,8.526,14.537,5.661,9.629,11.307,19.268,17.109,28.813q8.4,13.82,17.361,27.286a103.452,103.452,0,0,1,7.011,11.763,110.026,110.026,0,0,1,6.111,15.128c.854,2.668,1.593,5.37,2.194,8.105.663,3.016,5.291,1.74,4.629-1.276Z"/><path class="b" d="M237.092,278.384c.322-3.393,2.669-5,5.833-5.709a18.342,18.342,0,0,1,4.791-.337c.688.031,1.376.087,2.058.178-.566-.075.108.021.187.035.261.049.522.093.781.147a17.461,17.461,0,0,1,2.22.625c4.805,1.713,8.047,5.94,11.242,9.68,3.575,4.183,7.093,8.412,10.614,12.64,4.454,5.347,8.92,10.684,13.456,15.961a2.421,2.421,0,0,0,3.394,0,2.448,2.448,0,0,0,0-3.394c-8.3-9.659-16.32-19.557-24.606-29.229-3.81-4.446-7.76-8.76-13.544-10.524a23.666,23.666,0,0,0-12.12-.352,12.909,12.909,0,0,0-6.022,3.172,11.1,11.1,0,0,0-3.084,7.107,2.418,2.418,0,0,0,2.4,2.4,2.452,2.452,0,0,0,2.4-2.4Z"/><path class="b" d="M274.137,283.14a8.5,8.5,0,0,1,4.66-7.267,12.76,12.76,0,0,1,9.925-.929c1.907.62,3.171,1.949,4.582,3.306q2.5,2.406,4.976,4.847,4.749,4.7,9.307,9.585c3.722,4.006,7.321,8.122,10.844,12.3a2.42,2.42,0,0,0,3.394,0,2.452,2.452,0,0,0,0-3.4q-10-11.86-21.03-22.755c-3.449-3.391-6.767-7.529-11.644-8.763a17.865,17.865,0,0,0-12.777,1.656c-4.385,2.349-6.68,6.542-7.037,11.412a2.421,2.421,0,0,0,2.4,2.4,2.446,2.446,0,0,0,2.4-2.4Z"/><path class="b" d="M300.562,281.73c3.073-3.826,8.092-5.086,12.83-4.434,5.407.744,10.2,4.018,14.285,7.451a142.034,142.034,0,0,1,24.055,25.34,77.9,77.9,0,0,1,8.562,14.959,76.942,76.942,0,0,1,4.3,14.522c2.095,10.206,3.015,20.608,4.922,30.847,2.029,10.886,5.239,21.944,12.594,30.5a2.421,2.421,0,0,0,3.394,0,2.449,2.449,0,0,0,0-3.395c-6.45-7.5-9.219-17.427-11.084-26.939-2.053-10.47-2.971-21.127-5.057-31.591a75.422,75.422,0,0,0-13.129-30.818,146.5,146.5,0,0,0-24.842-26.543c-5.2-4.417-11.077-8.325-18-9.13-5.883-.684-12.408,1.088-16.224,5.84a2.473,2.473,0,0,0,0,3.394,2.417,2.417,0,0,0,3.394,0Z"/><path class="b" d="M316.281,439.584a71.883,71.883,0,0,0-15.865-11.47A84.489,84.489,0,0,0,285,422.06c-10.353-3.033-21.451-4.6-31.221-9.354-9.844-4.794-17.351-12.954-23.357-21.947-3.169-4.747-5.983-9.721-8.667-14.754-2.978-5.586-6.1-11.221-8.009-17.282a29.374,29.374,0,0,1-1.591-9.765,30.9,30.9,0,0,1,1.553-8.151,38.362,38.362,0,0,1,8.855-15.414c2.173-2.2-1.219-5.6-3.394-3.394a42.833,42.833,0,0,0-9.1,14.707c-1.92,4.942-3.162,10.382-2.562,15.7.793,7.025,3.643,13.5,6.821,19.743,2.733,5.368,5.565,10.7,8.673,15.862,5.914,9.819,13.065,19.172,22.7,25.6,9.53,6.354,21.028,8.636,31.951,11.434a100.773,100.773,0,0,1,17.395,5.773,67.071,67.071,0,0,1,17.831,12.164c2.249,2.116,5.649-1.272,3.394-3.394Z"/></svg>