<svg xmlns="http://www.w3.org/2000/svg" width="432.735" height="315.721" viewBox="0 0 432.735 315.721"><defs><style>.a{fill:#211715;}.b{fill:#d9d9d9;}.c{fill:#fff;}.d{fill:#231815;}.e{fill:#ad7b59;}.f{fill:#bcb9b8;}.g{fill:#211916;}.h{fill:#6dbf6b;}.i{fill:#89705d;}</style></defs><path class="a" d="M1.932,293.286l30.561,0,44.686,0,48.844-.006,42.914,0,26.991,0H197.6c2.574,0,2.578-4,0-4H173.251l-41.51,0-48.662.006-45.727.006-32.843,0H1.932c-2.574,0-2.578,4,0,4Z"/><path class="a" d="M250.076,201.316q-12.66,0-25.322.052-21.6.059-43.2.126-25.8.078-51.609.154-25.539.073-51.079.136-20.515.048-41.029.071l-3.86,0c-2.574,0-2.578,4,0,4q19.6-.007,39.206-.061,25.185-.056,50.369-.131,26.008-.074,52.017-.154,22.365-.067,44.729-.132,13.982-.039,27.961-.063h1.818c2.574,0,2.578-4,0-4Z"/><path class="a" d="M186.9,268.4c-4.914,0-9.829-.019-14.743-.029l-30.875-.068q-16.969-.036-33.938-.071-12.182-.024-24.362-.043c-1.014,0-2.034.03-3.047,0-1.783-.055-1.817-1.3-1.651-2.841a7.567,7.567,0,0,1,1.3-2.618q4.742-8.189,9.491-16.373,1.052-1.812,2.1-3.624c.317-.546.968-2.181,1.432-2.427a2.2,2.2,0,0,1,.86-.029h105.82c2.574,0,2.578-4,0-4H94.734c-2.384,0-4.415.017-5.865,2.453-3.132,5.261-6.145,10.6-9.216,15.894q-2.1,3.613-4.188,7.229c-.237.409-.487.813-.7,1.237a7.045,7.045,0,0,0-.5,3.292c.02,2.056.617,3.887,2.468,5,1.6.96,3.5.809,5.283.81l4.248.006,12.054.02q16.587.031,33.175.068l33.522.073q10.209.023,20.418.043l1.456,0c2.574,0,2.578-4,0-4Z"/><path class="a" d="M92.182,259.763c3.112-5.389,6.249-10.763,9.361-16.152,1.29-2.233-2.165-4.25-3.454-2.019-3.112,5.389-6.249,10.764-9.361,16.153-1.289,2.233,2.166,4.249,3.454,2.018Z"/><path class="a" d="M102.261,259.365c2.853-4.941,5.729-9.868,8.583-14.809,1.289-2.233-2.166-4.25-3.454-2.019-2.854,4.941-5.73,9.868-8.583,14.81-1.29,2.233,2.165,4.249,3.454,2.018Z"/><path class="a" d="M111.452,259.365c1.323-2.292,2.658-4.579,3.982-6.871a2,2,0,0,0-3.454-2.019c-1.324,2.293-2.658,4.579-3.982,6.872a2,2,0,1,0,3.454,2.018Z"/><path class="a" d="M120.575,259.365c1.324-2.292,2.658-4.579,3.982-6.871a2,2,0,0,0-3.454-2.019c-1.324,2.293-2.658,4.579-3.982,6.872a2,2,0,1,0,3.454,2.018Z"/><path class="a" d="M129.563,259.365c1.324-2.292,2.658-4.579,3.982-6.871a2,2,0,0,0-3.453-2.019c-1.324,2.293-2.659,4.579-3.983,6.872a2,2,0,1,0,3.454,2.018Z"/><path class="a" d="M143.587,243.855H94.274c-2.574,0-2.578,4,0,4h49.313c2.574,0,2.578-4,0-4Z"/><path class="a" d="M157.409,252q-27.684-.051-55.367-.144-6.047-.017-12.093-.029c-2.574,0-2.578,4,0,4q27.6.051,55.208.144,6.126.016,12.252.029c2.574,0,2.578-4,0-4Z"/><path class="a" d="M166.412,265.4h.011v-4c-8.244.032-16.489,0-24.732,0H83.523c-2.574,0-2.578,4,0,4H157.44c2.994,0,5.989.012,8.983,0,2.573-.01,2.578-3.992,0-4h-.011c-2.574,0-2.578,4,0,4Z"/><path class="b" d="M361.517,3.356c0,6.986.262,13.97.265,20.956,0,3.308-.065,6.615-.244,9.918q-.137,2.5-.358,5c-.085.947-.217,1.894-.282,2.841-.03.446.081-.42-.041.27-1.4,7.9-3.612,15.655-5.31,23.494-.8,3.716-1.836,7.641-1.863,11.467-.018,2.574,3.982,2.577,4,0a19.961,19.961,0,0,1,.42-3.813c.323-1.929.714-3.846,1.122-5.759.95-4.458,2.01-8.892,3.058-13.328.819-3.464,1.7-6.93,2.333-10.436a104.944,104.944,0,0,0,1.157-17.529c.067-7.694-.253-15.386-.257-23.08,0-2.574-4-2.579-4,0Z"/><path class="b" d="M335.083,89.106c-1.073-.7-.825-2.695-.817-3.767a20.1,20.1,0,0,1,.322-4.833,3.311,3.311,0,0,1,.481-1.192c.123-.195-.006-.018-.034.018a2.566,2.566,0,0,1,.245-.267c.056-.054.289-.237,0-.023a2.389,2.389,0,0,1,.292-.184c.285-.151-.188.025.242-.108.2-.063.41-.113.619-.156.387-.079.126-.021.039-.011.131-.015.268-.027.4-.033.282-.011.562-.022.845-.023,3.159,0,6.315.24,9.479.224,2.169-.011,4.337-.047,6.5-.073.232,0,.972-.123,1.147.01.035.027-.074-.033-.077-.037a6.827,6.827,0,0,1-.006,1.731c.054,3.415.1,6.831.1,10.247l2-2c-3.479.019-6.971.367-10.444.547-1.926.1-3.853.2-5.781.224-.925.012-1.852.033-2.777.024a7.052,7.052,0,0,1-2.777-.318c-2.315-1.093-4.348,2.355-2.019,3.454,2.121,1,4.5.866,6.794.846,1.974-.018,3.946-.1,5.918-.2,3.688-.185,7.393-.56,11.086-.58a2.03,2.03,0,0,0,2-2c0-3.678-.049-7.356-.113-11.033-.036-2.05-.516-4.026-2.707-4.713a10.222,10.222,0,0,0-3.186-.194c-1.378.017-2.755.037-4.132.05-2.417.023-4.837.037-7.253-.054-1.462-.054-2.933-.213-4.4-.145-3.065.141-5.389,1.619-6.276,4.654a24.147,24.147,0,0,0-.531,7.068c.039,2.493.587,4.863,2.8,6.3C335.23,93.966,337.237,90.5,335.083,89.106Z"/><path class="b" d="M331.534,120.091c2.29-9.279,4.694-18.545,6.682-27.895.534-2.511-3.321-3.584-3.857-1.064-1.988,9.35-4.392,18.616-6.682,27.9-.617,2.5,3.24,3.565,3.857,1.063Z"/><path class="b" d="M354.086,91.017a92.171,92.171,0,0,0,.968,10.911q.8,6.456,1.8,12.886c.723,4.7,1.654,9.354,2.465,14.035a115.837,115.837,0,0,1,1.521,19.824,87.675,87.675,0,0,1-.184,9.849,6.218,6.218,0,0,1-.637,2.37.878.878,0,0,1-.36.352,1.338,1.338,0,0,1-.61.162c-2.547.213-2.57,4.215,0,4,5.142-.429,5.666-5.464,5.756-9.668a152.769,152.769,0,0,0-.594-20.962c-.722-6.16-2.079-12.215-3.074-18.331q-.981-6.031-1.772-12.092a106.762,106.762,0,0,1-1.278-13.336c-.011-2.573-4.011-2.579-4,0Z"/><path class="b" d="M343.993,92.052v24.327c0,2.574,4,2.578,4,0V92.052c0-2.574-4-2.578-4,0Z"/><path class="b" d="M336.474,30.725c.311,5.351.536,10.706,1.139,16.034.621,5.482.917,11.018,1.922,16.452.468,2.527,4.324,1.457,3.857-1.064-.959-5.184-1.21-10.473-1.815-15.7s-.8-10.476-1.1-15.719c-.148-2.558-4.149-2.576-4,0Z"/><path class="b" d="M350.111,47.246c-1.06,5.32-1.148,10.788-1.811,16.162a2.011,2.011,0,0,0,2,2,2.049,2.049,0,0,0,2-2c.623-5.043.706-10.268,1.668-15.1a2.051,2.051,0,0,0-1.4-2.46,2.018,2.018,0,0,0-2.46,1.4Z"/><path class="b" d="M324.3,4.3a45.4,45.4,0,0,0,.31,6.088c.253,2.847.566,5.689.9,8.528.716,6.155,1.19,12.35,1.975,18.493,1.141,8.926,3.113,17.734,4.794,26.567a79.686,79.686,0,0,1,1.753,11.769c.1,2.566,4.1,2.579,4,0a74.743,74.743,0,0,0-1.465-10.523c-.731-4-1.552-7.986-2.336-11.977-.9-4.574-1.74-9.172-2.449-13.779-.923-5.993-1.272-12.087-1.985-18.111-.382-3.229-.756-6.458-1.065-9.695A52.234,52.234,0,0,1,328.3,4.3c.12-2.573-3.88-2.567-4,0Z"/><path class="b" d="M326.3,6.3c1.767-.015,3.526-.17,5.283-.352,1.878-.194,3.816-.293,5.669-.661,1.5-.3,2.9-.988,4.4-1.258,1.2-.216,2.447.743,3.581,1.073a17.519,17.519,0,0,0,4.5.377q2.442.053,4.883.063c2.964.012,5.934,0,8.893-.189,2.557-.16,2.575-4.161,0-4-2.959.184-5.929.2-8.893.189q-2.343-.009-4.685-.059A12.643,12.643,0,0,1,345.565,1a8.579,8.579,0,0,0-3.814-.985,25.74,25.74,0,0,0-4.735,1.223,34.581,34.581,0,0,1-5.432.716c-1.757.182-3.516.337-5.283.352-2.573.022-2.579,4.022,0,4Z"/><path class="b" d="M364.27,152.008q27.6-.051,55.193-.1,5.636-.006,11.27-.008c2.574,0,2.578-4,0-4q-25.175,0-50.349.079l-16.114.031c-2.574,0-2.579,4,0,4Z"/><path class="b" d="M410.865,71.149h-4.486a2.029,2.029,0,0,0-2,2c0,6.219.01,12.439-.008,18.659a2.03,2.03,0,0,0,2,2c1.548,0,3.1.07,4.643.074,2.574.008,2.578-3.992,0-4-1.548,0-3.1-.069-4.643-.074l2,2c.018-6.22.008-12.44.008-18.659l-2,2h4.486c2.573,0,2.578-4,0-4Z"/><path class="b" d="M430.733,12.981q-24.215,0-48.429-.057L364.787,12.9c-2.574,0-2.578,4,0,4q28.866.038,57.734.075,4.105,0,8.212.006c2.574,0,2.578-4,0-4Z"/><path class="b" d="M415.061,22.861q-21.992-.029-43.983-.094-3.4-.007-6.809-.011c-2.574,0-2.578,4,0,4,12.639,0,25.277.057,37.916.083q6.438.014,12.876.022c2.574,0,2.578-4,0-4Z"/><path class="b" d="M430.733,22.866q-3.441,0-6.882,0a2,2,0,0,0,0,4q3.441,0,6.882,0a2,2,0,0,0,0-4Z"/><path class="b" d="M417.376,139.966c0-4.3-.021-8.595-.034-12.893q-.037-13.522-.079-27.046-.046-16.1-.094-32.2-.04-13.965-.078-27.929c-.013-4.882.07-9.774-.031-14.655,0-.147,0-.295,0-.442.015-2.575-3.985-2.578-4,0-.023,4.124.013,8.249.023,12.373q.035,13.389.074,26.779.047,16.091.094,32.181.042,14.082.083,28.165.021,7.572.04,15.144c0,.173,0,.347,0,.52,0,2.574,4,2.578,4,0Z"/><path class="b" d="M425.643,149.328c0-4.964-.021-9.927-.033-14.891q-.039-15.777-.079-31.554-.048-18.873-.1-37.745-.039-16.311-.077-32.623c-.013-5.678.07-11.365-.031-17.043,0-.155,0-.31,0-.464.014-2.575-3.986-2.578-4,0-.028,4.789.012,9.58.023,14.37q.033,15.644.073,31.288.046,18.864.094,37.729.042,16.43.083,32.858.021,8.768.041,17.534v.541c0,2.574,4,2.578,4,0Z"/><path class="b" d="M424.006,141.945c2.242,0,4.485-.012,6.727-.012a2,2,0,0,0,0-4c-2.242,0-4.485.008-6.727.012a2,2,0,0,0,0,4Z"/><path class="b" d="M363.707,142.086q25.835-.059,51.669-.141c2.573,0,2.578-4,0-4q-25.834.051-51.669.141c-2.574.006-2.579,4.006,0,4Z"/><path class="b" d="M387.322,30.262c-.162,5.59.815,11.007,4.316,15.533a21.468,21.468,0,0,0,17.431,8.432c2.572-.033,2.579-4.034,0-4a17.46,17.46,0,0,1-14.457-7.086c-2.826-3.82-3.423-8.269-3.29-12.879.075-2.575-3.926-2.573-4,0Z"/><path class="b" d="M395.314,61.563c-.958,2.649-2.068,5.246-3.123,7.857a2,2,0,0,0,.2,1.541,2,2,0,0,0,2.736.718,2.335,2.335,0,0,0,.919-1.2c1.055-2.611,2.166-5.209,3.123-7.858a2.011,2.011,0,0,0-1.4-2.46,2.051,2.051,0,0,0-2.46,1.4Z"/><path class="b" d="M387.726,53.6c-1.5,1.657-3.061,3.268-4.54,4.947a2.118,2.118,0,0,0-.586,1.415,2.036,2.036,0,0,0,.586,1.414,2.014,2.014,0,0,0,1.414.586,1.993,1.993,0,0,0,1.414-.586c1.48-1.68,3.036-3.29,4.541-4.947a2.105,2.105,0,0,0,.585-1.414,2.04,2.04,0,0,0-.585-1.415,2,2,0,0,0-2.829,0Z"/><path class="b" d="M382.35,44.229c-1.321.495-2.613,1.062-3.911,1.611l.477-.2c-.487.206-.975.408-1.469.6a2.167,2.167,0,0,0-1.195.919,2,2,0,0,0,.718,2.737,1.959,1.959,0,0,0,1.541.2c1.091-.415,2.159-.89,3.235-1.344l-.478.2c.71-.3,1.423-.592,2.145-.863a2.156,2.156,0,0,0,1.195-.919,2,2,0,0,0-.717-2.737,1.964,1.964,0,0,0-1.541-.2Z"/><path class="b" d="M380.666,34.352c-1.5-.08-3,.06-4.508-.013a2.014,2.014,0,0,0-2,2,2.044,2.044,0,0,0,2,2c1.5.073,3-.067,4.508.013a2,2,0,0,0,2-2,2.045,2.045,0,0,0-2-2Z"/><path class="b" d="M362.9,102.165c2.143-.133,5.024,1.314,3.143,3.708a2.032,2.032,0,0,0,.882,3.343,3.719,3.719,0,0,1,2.691,2.325,3.608,3.608,0,0,1-1.212,3.321,2.018,2.018,0,0,0,.882,3.342c2.138.477,5.555,2.748,3.423,5.13a2.022,2.022,0,0,0,0,2.829c1.162.934,2.812,1.668,3.451,3.088.562,1.248,1.028,3.3-.306,4.213-2.112,1.445-.114,4.912,2.018,3.454,2.686-1.837,3.28-4.819,2.441-7.851a8.071,8.071,0,0,0-2.011-3.645c-.827-.814-1.866-1.365-2.764-2.088v2.829a6.192,6.192,0,0,0,1.032-7.411,9.568,9.568,0,0,0-6.22-4.405l.882,3.343a7.655,7.655,0,0,0,2.241-7.212,7.816,7.816,0,0,0-5.485-5.119l.883,3.343c1.7-2.165,2.506-4.93.893-7.413a7.569,7.569,0,0,0-6.864-3.124c-2.557.159-2.575,4.16,0,4Z"/><path class="c" d="M300.666,173.2a59.748,59.748,0,0,1-5.326-5.289,68.561,68.561,0,0,1-8.911-12.655l-4.295,2.231c-4.6-2.085-8.393-8.285-8.587-13.782a15.845,15.845,0,0,0-1.885,2.359,29.051,29.051,0,0,0-3.861,10.61c-.723,4.218-.726,7.146-3.482,10.661a38.635,38.635,0,0,1-5.734,6.25c-4.126,3.632-1.523,7.753,2.57,9.306-2.67,9.227-1.635,19.8.235,23.121a17.191,17.191,0,0,0,4.373,5.087c2.758,2,13.209,4.664,16.723,4.561.251.29.449.516.449.516,1.527,1.738,1.6,7.434,1.737,9.77l.159,2.764a41.543,41.543,0,0,1,9.7-1.2c10.924-.165,31.23-1.141,38.435,3.775a42.24,42.24,0,0,1-3.028-4.451c-2.375-3.9-4.125-11.273-4.051-14.072.017-.646.073-1.409.155-2.231l-.251-.051c-4.055-.811-10.66-3.115-13.138-5.8-3.884-4.2-7.37-14.976-3.707-13.531a12.6,12.6,0,0,0,2.317-4c1.992-5.869-.99-9.746-5.457-10.02A48.933,48.933,0,0,1,300.666,173.2Z"/><path class="a" d="M294.534,225.509a46.6,46.6,0,0,0-27.3,9.179,36.693,36.693,0,0,0-5.171,4.643,54.645,54.645,0,0,0-4.7,6.38c-1.678,2.5-3.33,5.02-4.986,7.536a74.139,74.139,0,0,1-4.774,6.884c-3.8,4.554-8.523,8.351-11.7,13.411-1.372,2.187,2.087,4.2,3.454,2.019,2.654-4.227,6.554-7.515,9.862-11.2,3.687-4.112,6.5-8.934,9.534-13.526,2.765-4.18,5.354-8.357,9.2-11.638a39.99,39.99,0,0,1,11.607-6.755,42.578,42.578,0,0,1,14.967-2.928c2.573-.012,2.579-4.012,0-4Z"/><path class="a" d="M233.935,264.534c-4.811.006-9.826.131-14.362,1.916-4.867,1.916-8.293,5.471-11.655,9.348-1.771,2.043-3.575,4.278-4.344,6.92a8.26,8.26,0,0,0,.978,6.671c2.278,3.9,5.837,7.075,9.048,10.2,7.959,7.735,17.937,14.81,29.266,16a26.367,26.367,0,0,0,16.521-3.8c2.535-1.563,4.353-4.2,6.1-6.54,2.655-3.56,5.107-7.276,7.487-11.025,1.65-2.6,3.367-5.209,4.775-7.951,1.174-2.287-2.277-4.313-3.454-2.019a139.21,139.21,0,0,1-9.608,15.268,61.857,61.857,0,0,1-5.679,7.4c-.348.37-.714.711-1.088,1.054-.185.17.325-.168-.132.095-.648.374-1.273.779-1.935,1.129a21.886,21.886,0,0,1-7.42,2.368c-10.223,1.3-20.112-4.536-27.642-10.857a102.375,102.375,0,0,1-9.63-9.266,18.531,18.531,0,0,1-3.625-4.951c-.771-1.829.127-3.653,1.14-5.2a44.943,44.943,0,0,1,5.279-6.252,20.531,20.531,0,0,1,5.869-4.364c4.341-2.1,9.393-2.131,14.109-2.137,2.574,0,2.578-4,0-4Z"/><path class="a" d="M327.289,231.06a21.529,21.529,0,0,1,8.118,5.687,56.738,56.738,0,0,1,7.56,10.075,82.479,82.479,0,0,1,9.641,22.153,105.036,105.036,0,0,1,2.194,15.1,2.058,2.058,0,0,0,2,2,2.014,2.014,0,0,0,2-2,128.233,128.233,0,0,0-2.058-15.012,68.219,68.219,0,0,0-3.646-10.983c-3.478-8.382-7.954-16.671-14.133-23.388-2.947-3.2-6.44-6.081-10.612-7.49-2.444-.826-3.493,3.036-1.064,3.857Z"/><path class="a" d="M231.962,259.956a5.258,5.258,0,0,1-.713-2.325c-.1-1.156-.091-2.318-.1-3.477-.011-2.118.005-4.537-1.256-6.348-1.579-2.269-4.784-2.563-7.228-1.653a5.3,5.3,0,0,0-1.932,1.264c-.195.2-.365.417-.544.628-.107.126-.555.586-.445.527.283-.152-.1-.052-.12-.035.181-.137.329.531.141,0a18.293,18.293,0,0,0-1.047-1.931c-1.2-2.349-3.921-4.969-6.607-5.458-2.988-.545-6.358.88-9.088,1.968-5.753,2.295-13,6.231-14.141,12.975a17.417,17.417,0,0,0,12.034,19.135c2.47.743,3.526-3.116,1.063-3.857a13.423,13.423,0,0,1-9.285-13.844c.611-5.591,7.045-8.857,11.693-10.67,1.305-.509,2.636-.95,3.982-1.335a14.36,14.36,0,0,1,1.836-.45,5.472,5.472,0,0,1,.714-.045,1.466,1.466,0,0,1,.445.044,6.476,6.476,0,0,1,2.539,1.786,4.5,4.5,0,0,1,1.1,1.275c.33.6.6,1.225.934,1.819a4.464,4.464,0,0,0,3.165,2.531,3.959,3.959,0,0,0,3.691-1.349c.762-.839,1.059-1.32,2.253-1.423a2.45,2.45,0,0,1,1.121.057c.371.107-.138-.091.185.071.268.134-.1-.162.182.142.2.217-.171-.268,0-.023a2.528,2.528,0,0,1,.173.286c.2.389.009-.071.1.249.071.242.131.484.183.731a1.58,1.58,0,0,1,.057.37c.116,1.12.094,2.252.1,3.376.011,2.357.047,4.948,1.354,7,1.377,2.166,4.841.162,3.454-2.019Z"/><path class="d" d="M294.534,229.509c5.449-.085,10.9-.255,16.347-.155,5.479.1,11.08.324,16.408,1.706,2.494.646,3.558-3.211,1.064-3.857-5.541-1.437-11.383-1.723-17.081-1.842-5.581-.116-11.159.061-16.738.148-2.571.041-2.579,4.041,0,4Z"/><path class="a" d="M269.54,166.176c-1.052,1.5-1.961,5.442,1.085,6.788,4.173,1.323,5.9-3.239,5.2-5.872C275.257,164.936,272.122,163.1,269.54,166.176Z"/><path class="a" d="M261.711,180.974a5.416,5.416,0,0,1-3.006-2.539c-.56-1.286.2-2.405,1.13-3.281a46.913,46.913,0,0,0,6.824-7.646c1.952-2.873,2.405-6.153,2.939-9.5a28.107,28.107,0,0,1,3.791-10.933c2.148-3.329,5.727-5.428,7.85-8.817,1.37-2.188-2.089-4.2-3.454-2.019-2.037,3.252-5.474,5.328-7.642,8.5a30.043,30.043,0,0,0-4.4,12.2,42.921,42.921,0,0,1-.98,5.284,13.671,13.671,0,0,1-2.632,4.681,39.615,39.615,0,0,1-3.487,3.915c-1.486,1.431-3.092,2.674-3.8,4.695-1.513,4.335,2.113,7.842,5.8,9.31a2.012,2.012,0,0,0,2.46-1.4,2.047,2.047,0,0,0-1.4-2.46Z"/><path class="a" d="M259.093,182.823a46.929,46.929,0,0,0-1.536,13.471,27.048,27.048,0,0,0,1.771,10.038,15.231,15.231,0,0,0,6.7,7.226,43.09,43.09,0,0,0,8.634,2.886c2.828.689,5.979,1.519,8.9,1.1a2.012,2.012,0,0,0,1.4-2.46,2.052,2.052,0,0,0-2.46-1.4c.434-.062.149-.019-.093-.023-.2,0-.406,0-.61-.011-.364-.017-1.049-.083-1.207-.1-1.286-.165-2.563-.432-3.827-.718a48.463,48.463,0,0,1-8.028-2.414,12.17,12.17,0,0,1-5.659-5.49,12.65,12.65,0,0,1-.941-3.08,30.969,30.969,0,0,1-.537-4.584,43.2,43.2,0,0,1,1.354-13.377c.667-2.489-3.19-3.551-3.857-1.063Z"/><path class="a" d="M260.008,194.253a9.2,9.2,0,0,0,3.182,1.351,12.814,12.814,0,0,0,3.53.314,2,2,0,0,0,0-4,11.3,11.3,0,0,1-2.088-.078l.532.071a9.554,9.554,0,0,1-2.385-.636l.478.2a7.011,7.011,0,0,1-1.23-.678,2,2,0,0,0-2.938,2.259,2.245,2.245,0,0,0,.919,1.195Z"/><path class="a" d="M272.477,140.9a7.5,7.5,0,0,0-1.385,1.018c-.444.379-.863.786-1.272,1.2a34.467,34.467,0,0,0-2.769,3.2,8.218,8.218,0,0,0-.833,1.24,2.12,2.12,0,0,0-.2,1.541,2,2,0,0,0,3.655.477,8.489,8.489,0,0,1,.872-1.29l-.313.405c.627-.808,1.3-1.58,2-2.323a18.785,18.785,0,0,1,2.051-1.928l-.4.313a4.028,4.028,0,0,1,.614-.406,2.015,2.015,0,0,0,.718-2.736,2.047,2.047,0,0,0-2.737-.718Z"/><path class="e" d="M295.34,167.914a68.561,68.561,0,0,1-8.911-12.655l-4.295,2.231c-5.106-2.317-9.228-9.715-8.529-15.583,1.559-2.18,2.774-4.611,4.577-6.66A31.486,31.486,0,0,1,296.1,124.831c19.482-3.232,48.161,8.542,44.682,27.294,8.022-1.242,11.893,19.811,2.442,36.731,5.162.681,9.718,2.48,12.74,6.2,3.78,4.659,3.951,11.1,1.754,16.364-3.345,8.021-9.267,19.363-3.92,26.046-4.09,3.58-12.83-.073-15.747-1.73-3.708-2.107-5.951-5.364-8.111-8.907-2.375-3.9-4.125-11.273-4.051-14.072.017-.646.073-1.409.155-2.231l-.251-.051c-4.055-.811-10.66-3.115-13.138-5.8-3.884-4.2-7.37-14.976-3.707-13.531a12.6,12.6,0,0,0,2.317-4c1.992-5.869-.99-9.746-5.457-10.02A54.522,54.522,0,0,1,295.34,167.914Z"/><path class="d" d="M281.521,217.593c.2.241-.279-.443-.12-.153.034.061.077.118.112.179.084.141.137.311.227.447-.269-.409-.13-.318-.055-.111.03.081.058.163.085.245q.095.286.169.577c.111.422.2.85.271,1.279.039.227.069.455.106.682.041.254-.056-.46-.013-.089.014.127.03.255.044.382.182,1.635.232,3.277.325,4.918a2,2,0,0,0,4,0c-.1-1.769-.152-3.54-.369-5.3-.255-2.057-.568-4.25-1.954-5.884a2.008,2.008,0,0,0-2.828,0,2.051,2.051,0,0,0,0,2.828Z"/><path class="d" d="M301.368,180.143a9.462,9.462,0,0,1,3.312-1.006,6.253,6.253,0,0,1,2.7.356,3.793,3.793,0,0,1,1.861,1.582,4.91,4.91,0,0,1,.65,2.72c-.052,3.016-1.8,5.482-3.825,7.561a33.306,33.306,0,0,1-3.368,3.149,28.533,28.533,0,0,1-3.53,2.218c-2.242,1.264-.228,4.721,2.019,3.454a31.486,31.486,0,0,0,6.788-5.07c2.265-2.236,4.339-4.629,5.314-7.719a10.655,10.655,0,0,0-.3-7.771,8.014,8.014,0,0,0-5.07-4.148,11.934,11.934,0,0,0-8.577,1.22c-2.3,1.162-.275,4.614,2.019,3.454Z"/><path class="d" d="M305.619,194.589a26.224,26.224,0,0,0,2.538,6.941,16.348,16.348,0,0,0,4.13,5.5,24.767,24.767,0,0,0,6.446,3.429,40.051,40.051,0,0,0,6.529,1.945,2.049,2.049,0,0,0,2.46-1.4,2.019,2.019,0,0,0-1.4-2.46c-3.9-.8-8.225-2.1-11.441-4.527.195.147-.262-.221-.255-.214-.148-.13-.292-.264-.43-.4a9.47,9.47,0,0,1-.74-.859,20.515,20.515,0,0,1-1.848-3.036,22.36,22.36,0,0,1-2.135-5.985,2.019,2.019,0,0,0-2.461-1.4,2.041,2.041,0,0,0-1.4,2.46Z"/><path class="a" d="M281.336,148.863a63.679,63.679,0,0,0,22.033,29.014,2.014,2.014,0,0,0,2.736-.717,2.046,2.046,0,0,0-.717-2.737A62.212,62.212,0,0,1,285.193,147.8c-.877-2.4-4.744-1.362-3.857,1.063Z"/><path class="a" d="M271.523,142.954a18.635,18.635,0,0,0,2.729,9.588,16.483,16.483,0,0,0,6.872,6.675,2.059,2.059,0,0,0,2.737-.718,2.016,2.016,0,0,0-.718-2.736,11.057,11.057,0,0,1-1.654-.948s-.493-.363-.23-.158c-.106-.083-.208-.168-.311-.254-.259-.219-.51-.448-.754-.684a13.653,13.653,0,0,1-2.488-3.2,14.736,14.736,0,0,1-1.623-3.69,16.592,16.592,0,0,1-.468-2.066c-.021-.143-.021-.137,0,.017l-.023-.206c-.014-.17-.032-.341-.043-.511-.025-.371-.031-.742-.026-1.113a2,2,0,0,0-4,0Z"/><path class="a" d="M342.815,190.8c3.637.46,7.463,1.579,10.234,4.088a12.8,12.8,0,0,1,4.085,10.034c-.112,3.833-1.9,7.218-3.362,10.675a52.506,52.506,0,0,0-3.723,11.168c-.71,4.014-.565,8.359,2.023,11.714l.313-2.424c-1.962,1.625-5.279.909-7.486.31a21.96,21.96,0,0,1-7.363-3.34,23.981,23.981,0,0,1-6.387-8.128,33.17,33.17,0,0,1-2.943-9.161c-.635-3.376-.041-6.781.513-10.134a2.062,2.062,0,0,0-1.4-2.461,2.017,2.017,0,0,0-2.46,1.4c-.605,3.664-1.265,7.382-.712,11.085a37.853,37.853,0,0,0,3.258,10.72,27.66,27.66,0,0,0,7.434,9.621,25.382,25.382,0,0,0,8.836,4.214c3.862,1.074,8.267,1.413,11.536-1.294a2,2,0,0,0,.312-2.424c-2.23-2.892-2.136-6.474-1.364-9.891a66.221,66.221,0,0,1,4.173-11.537c1.653-3.821,3.077-7.577,2.763-11.828a16.536,16.536,0,0,0-5.356-11.264c-3.617-3.2-8.226-4.546-12.927-5.14a2.01,2.01,0,0,0-2,2,2.051,2.051,0,0,0,2,2Z"/><path class="a" d="M342.423,154.3a5.137,5.137,0,0,1,1.522,1.368,11.383,11.383,0,0,1,1.407,2.729,25.905,25.905,0,0,1,1.39,7.911,41.971,41.971,0,0,1-4.808,20.738c-1.193,2.278,2.258,4.3,3.454,2.019a45.911,45.911,0,0,0,5.324-23.442c-.263-5-1.387-12.082-6.27-14.777-2.256-1.245-4.276,2.208-2.019,3.454Z"/><path class="a" d="M273.659,145.024c2.2-2.462,3.565-5.5,5.659-8.037a30.611,30.611,0,0,1,7.263-6.316,29.713,29.713,0,0,1,16.046-4.372c9.865-.052,20.543,2.785,28.452,8.851,3.764,2.886,6.85,6.72,7.788,11.453.5,2.523,4.355,1.455,3.857-1.063-2.04-10.3-12.218-16.688-21.387-19.988-10.728-3.862-23.857-5.07-34.29.252a35.1,35.1,0,0,0-9.19,6.849,30.584,30.584,0,0,0-3.772,4.85,35.1,35.1,0,0,1-3.255,4.692c-1.713,1.912,1.107,4.751,2.829,2.829Z"/><path class="a" d="M367.114,312.48l3.177-13.848c.5-2.183,1.041-4.36,1.5-6.551.4-1.928.529-3.854-.563-5.588-2.25-3.573-6.414-3.732-10.182-3.961q-7.053-.43-14.111-.735-14.238-.615-28.492-.721-7.187-.053-14.373.023a111.094,111.094,0,0,0-13.11.413,12.258,12.258,0,0,0-5.96,2.206,11.372,11.372,0,0,0-3.647,5.27,36.239,36.239,0,0,0-1.488,6.33c-.472,2.642-.868,5.3-1.219,7.957a2.009,2.009,0,0,0,2,2,2.052,2.052,0,0,0,2-2,89.047,89.047,0,0,1,2.051-11.61,9.5,9.5,0,0,1,2.051-4.178,7.3,7.3,0,0,1,4.163-1.952,34.094,34.094,0,0,1,5.23-.312q3.22-.066,6.442-.107,6.567-.081,13.134-.055,13.011.053,26.017.529,6.441.236,12.877.576,3.217.17,6.435.366c1.658.1,3.53-.02,5.074.693a2.827,2.827,0,0,1,1.923,3.236c-.339,2.225-1,4.436-1.5,6.63l-3.287,14.325c-.574,2.506,3.281,3.576,3.857,1.064Z"/><path class="c" d="M39.88,60.162c.052,27.8.236,90.453.293,116.773a11.293,11.293,0,0,0,11.25,11.272c36.158.14,148.214-.086,185.217-.15a11.288,11.288,0,0,0,11.275-11.3c-.013-26.958-.056-91.109-.071-116.6a11.288,11.288,0,0,0-11.292-11.285c-38.362,0-148.76-.027-185.376-.033A11.3,11.3,0,0,0,39.88,60.162Z"/><path class="a" d="M37.88,60.162q.03,16.458.076,32.916.052,20.117.106,40.232.048,17.823.092,35.646c.013,5.206-.789,11.11,2.43,15.58a13.385,13.385,0,0,0,8.082,5.371,32.24,32.24,0,0,0,6.359.312q13.05.039,26.1.033,16.9,0,33.8-.013,18.7-.015,37.4-.042,18.236-.025,36.47-.056l31.135-.054,12.193-.022c1.841,0,3.734.113,5.568-.058a13.4,13.4,0,0,0,8.792-4.326,13.661,13.661,0,0,0,3.436-9.13c.01-2.2,0-4.405,0-6.608l-.009-16.124-.024-38.723-.024-37.364-.009-14.641c0-2.748.052-5.429-1.031-8.019a13.24,13.24,0,0,0-6.63-6.937c-4.134-1.878-9.1-1.26-13.542-1.26l-13.353,0-32.866-.006L145.05,46.86l-37.434-.007L74.57,46.847l-13.487,0H55.341A43.8,43.8,0,0,0,49.277,47a13.421,13.421,0,0,0-11.4,13.165c-.034,2.575,3.966,2.577,4,0a9.447,9.447,0,0,1,3.673-7.446c2.093-1.589,4.444-1.873,6.98-1.872H63.6l29.311.006,35.466.006,37.127.007,34.774.006,28.261.005h5.583c2.352,0,4.644-.079,6.785,1.08a9.424,9.424,0,0,1,4.849,6.839,43.153,43.153,0,0,1,.092,6.333l.021,32.839.024,38.793q.011,16.9.02,33.808c0,2.178.07,4.369,0,6.546a9.312,9.312,0,0,1-3.937,7.259c-3.458,2.4-8.184,1.69-12.192,1.7q-13.557.024-27.116.048l-34.135.057q-18.357.027-36.715.049-17.656.019-35.315.027-14.9.006-29.8-.008-5.793-.007-11.587-.022a26.784,26.784,0,0,1-5.552-.2,9.441,9.441,0,0,1-6.536-5.185c-1.069-2.274-.857-4.774-.863-7.215q-.008-3.515-.016-7.03-.021-8.349-.043-16.7-.051-19.415-.1-38.829-.048-18.486-.094-36.973-.015-6.962-.029-13.925C41.875,57.589,37.875,57.584,37.88,60.162Z"/><path class="b" d="M51.191,158.529c36.158.11,149.632-.068,186.634-.118,0-9.966-.087-88.831-.087-100.16-38.363,0-150.178-.021-186.794-.025C50.944,69.116,51.191,146.588,51.191,158.529Z"/><path class="c" d="M46.6,187.109a11.3,11.3,0,0,1-6.428-10.174c-.006-2.825-.014-6.067-.03-9.645,27.229-.045,203.225-.661,206.261-.834l1.5-.086c.009,3.862.011,7.362.012,10.391a11.288,11.288,0,0,1-11.275,11.3c-37,.064-149.059.29-185.217.15A11.245,11.245,0,0,1,46.6,187.109Z"/><path class="c" d="M165.38,190.537c.209,2.2.335,3.877.411,5.4.128,2.6.362,5.3.588,7.905.528,6.084,2.1,9.519,8.463,10.729,1.836.349,2.9,1.094,3.432,2.253s.617,4.768-1.187,4.768c-3.348,0-60.74-.013-66.18-.013-1.762,0-1.922-3.595-1.386-4.755s1.6-1.9,3.432-2.253c6.36-1.21,7.934-4.645,8.462-10.729.227-2.609.461-5.307.589-7.905.076-1.52.2-3.2.411-5.4"/><path class="c" d="M124.877,213.07h37.952"/><path class="a" d="M37.88,60.162q.03,16.458.076,32.916.052,20.117.106,40.232.048,17.823.092,35.646c.013,5.206-.789,11.11,2.43,15.58a13.385,13.385,0,0,0,8.082,5.371,32.24,32.24,0,0,0,6.359.312q13.05.039,26.1.033,16.9,0,33.8-.013,18.7-.015,37.4-.042,18.236-.025,36.47-.056l31.135-.054,12.193-.022c1.841,0,3.734.113,5.568-.058a13.4,13.4,0,0,0,8.792-4.326,13.661,13.661,0,0,0,3.436-9.13c.01-2.2,0-4.405,0-6.608l-.009-16.124-.024-38.723-.024-37.364-.009-14.641c0-2.748.052-5.429-1.031-8.019a13.24,13.24,0,0,0-6.63-6.937c-4.134-1.878-9.1-1.26-13.542-1.26l-13.353,0-32.866-.006L145.05,46.86l-37.434-.007L74.57,46.847l-13.487,0H55.341A43.8,43.8,0,0,0,49.277,47a13.421,13.421,0,0,0-11.4,13.165c-.034,2.575,3.966,2.577,4,0a9.447,9.447,0,0,1,3.673-7.446c2.093-1.589,4.444-1.873,6.98-1.872H63.6l29.311.006,35.466.006,37.127.007,34.774.006,28.261.005h5.583c2.352,0,4.644-.079,6.785,1.08a9.424,9.424,0,0,1,4.849,6.839,43.153,43.153,0,0,1,.092,6.333l.021,32.839.024,38.793q.011,16.9.02,33.808c0,2.178.07,4.369,0,6.546a9.312,9.312,0,0,1-3.937,7.259c-3.458,2.4-8.184,1.69-12.192,1.7q-13.557.024-27.116.048l-34.135.057q-18.357.027-36.715.049-17.656.019-35.315.027-14.9.006-29.8-.008-5.793-.007-11.587-.022a26.784,26.784,0,0,1-5.552-.2,9.441,9.441,0,0,1-6.536-5.185c-1.069-2.274-.857-4.774-.863-7.215q-.008-3.515-.016-7.03-.021-8.349-.043-16.7-.051-19.415-.1-38.829-.048-18.486-.094-36.973-.015-6.962-.029-13.925C41.875,57.589,37.875,57.584,37.88,60.162Z"/><path class="a" d="M40.515,169.293q4.605,0,9.21-.018,8.5-.023,17-.049,11.407-.034,22.814-.074,13.324-.045,26.648-.092,14.253-.051,28.506-.1,14.193-.054,28.386-.11,13.143-.054,26.287-.111,11.106-.048,22.212-.1,8.077-.04,16.157-.09c2.709-.018,5.419-.019,8.127-.071.18,0,.361,0,.541-.014,2.561-.14,2.577-4.14,0-4-1.94.105-3.9.051-5.842.065q-7.18.053-14.361.086-10.45.056-20.9.1-12.734.057-25.466.109-14.026.058-28.052.111-14.329.055-28.66.107l-27.29.1q-11.972.04-23.943.079-9.309.03-18.618.056-5.658.015-11.315.026h-1.44c-2.574,0-2.578,4,0,4Z"/><path class="a" d="M163.38,190.537c.38,4.042.552,8.1.9,12.145.255,2.972.5,6.089,2.019,8.733a10.652,10.652,0,0,0,6.652,4.769c1.1.3,2.831.282,3.473,1.405-.015-.028.162.674.17.774a8.746,8.746,0,0,1-.154,1.574c-.16-.1,1.127-.3.222-.348-.354-.019-.714,0-1.069,0h-3.416l-11.1,0-29.339-.006-20.225,0a1.807,1.807,0,0,0-.447,0c-.017,0-.149-.012-.154,0,.026-.064.514.208.542.2.148-.024-.076.109-.044-.119.025-.184-.151-.833-.155-1.175a2.716,2.716,0,0,1,.121-.9c.657-1.162,2.5-1.125,3.631-1.45a12.154,12.154,0,0,0,3.829-1.786,10.841,10.841,0,0,0,4.046-6.676A74.6,74.6,0,0,0,124,195.934c.1-1.8.242-3.6.411-5.4a2.015,2.015,0,0,0-2-2,2.043,2.043,0,0,0-2,2c-.4,4.2-.577,8.409-.94,12.609-.212,2.459-.444,5.5-2.223,7.32-2.178,2.227-5.573,1.674-7.945,3.521a6.3,6.3,0,0,0-1.25,7.886c1.441,2.417,5.358,1.7,7.775,1.7l11.847,0,30.514.007,12.468,0c2.1,0,4.226.092,6.326,0,3.187-.137,3.9-3.511,3.5-6.125a5.375,5.375,0,0,0-2.2-3.634c-1.417-1.024-3.123-1.136-4.741-1.64a6.353,6.353,0,0,1-4.531-4.608,23.4,23.4,0,0,1-.7-4.436c-.2-2.325-.393-4.652-.517-6.983-.1-1.879-.246-3.753-.422-5.626a2.054,2.054,0,0,0-2-2,2.014,2.014,0,0,0-2,2Z"/><path class="a" d="M124.877,215.07h37.952c2.574,0,2.578-4,0-4H124.877c-2.574,0-2.578,4,0,4Z"/><path class="f" d="M147.213,177.643a3.322,3.322,0,0,1-6.633,0,3.179,3.179,0,0,1,3.223-3.224A3.355,3.355,0,0,1,147.213,177.643Z"/><path class="f" d="M145.213,177.643a4.334,4.334,0,0,1-.028.442l.072-.532a3.5,3.5,0,0,1-.214.811l.2-.478a3.151,3.151,0,0,1-.266.5c-.112.169-.262.228.121-.147-.066.065-.123.14-.19.206-.036.036-.2.146-.209.189.012-.072.469-.334.142-.121a3.41,3.41,0,0,1-.515.27l.478-.2a3.871,3.871,0,0,1-.845.229l.532-.072a4.535,4.535,0,0,1-1.164,0l.532.072a4.008,4.008,0,0,1-.874-.23l.478.2a3.384,3.384,0,0,1-.514-.267c-.36-.233.225.206.117.1-.064-.063-.136-.119-.2-.183s-.1-.113-.156-.17c-.212-.231.331.479.087.1a3.3,3.3,0,0,1-.245-.467l.2.478a3.5,3.5,0,0,1-.217-.8l.072.532a3.518,3.518,0,0,1,0-.876l-.072.532a3.7,3.7,0,0,1,.226-.84l-.2.478a3.673,3.673,0,0,1,.236-.469c.053-.087.115-.168.17-.253-.348.539-.219.275-.092.138.062-.067.127-.131.194-.192.317-.286-.264.171-.127.09a5.953,5.953,0,0,1,.535-.3l-.478.2a3.487,3.487,0,0,1,.851-.233l-.531.071a4.033,4.033,0,0,1,.982,0l-.531-.072a3.788,3.788,0,0,1,.9.254l-.478-.2a4.28,4.28,0,0,1,.551.3c.292.187-.4-.36-.09-.071.074.07.151.136.222.209s.111.134.173.193q-.333-.441-.156-.2c.032.046.064.093.095.141a3.7,3.7,0,0,1,.27.523l-.2-.478a3.421,3.421,0,0,1,.2.716l-.071-.532a3.712,3.712,0,0,1,.029.407,2,2,0,0,0,4,0,5.336,5.336,0,0,0-9.767-2.9,5.165,5.165,0,0,0,5.313,7.954,5.057,5.057,0,0,0,3.118-1.574,5.279,5.279,0,0,0,1.336-3.485,2,2,0,0,0-4,0Z"/><path class="c" d="M138.219,76.1c.493-.447,1.007-.908,1.552-1.395a7.134,7.134,0,0,0,.289,1.283,4.847,4.847,0,0,0,.8,1.8c.268.124,3.214-1.59,5.042-2.516a17.468,17.468,0,0,1,11.213,9.639,1.7,1.7,0,0,1,1.534-.553,1.721,1.721,0,0,1,1.239.9,2.841,2.841,0,0,1,.253,1.074,8.627,8.627,0,0,1-.744,4.235,5.029,5.029,0,0,1-1.2,1.722,2.7,2.7,0,0,1-2.145.715c-.8,5.7-3.676,9.321-6.666,10.6l-.4.325c-.427.349-3.448,2.709-4.26,3.433l-.984.877-.242-.218a47.576,47.576,0,0,1-4.044-3.732c-5.415-1.249-8.21-6.4-8.95-11.274a2.724,2.724,0,0,1-2.024-.728,5.032,5.032,0,0,1-1.2-1.722,8.626,8.626,0,0,1-.743-4.235,2.822,2.822,0,0,1,.253-1.074,1.694,1.694,0,0,1,2.658-.473C133.1,80.9,135.3,78.749,138.219,76.1Z"/><path class="a" d="M102.979,147.623q17.108,0,34.216,0l36.889,0H185.79c2.573,0,2.578-4,0-4q-13.219,0-26.439,0l-39.068.005h-17.3c-2.574,0-2.578,4,0,4Z"/><path class="c" d="M121.726,146.418c-1.309-.453-7.536-2.882-7.993-4.035a7.193,7.193,0,0,1-.25-4.078c1.558-6.3,2.947-11.844,5-18a13.533,13.533,0,0,1,2.895-5.542,20.32,20.32,0,0,1,4.273-2.7l4.388-2.253a33.144,33.144,0,0,1,5.69-3.911c.46,1.562,1.275,5.136,2.5,8.7,2.055,5.949,4.9,12.615,6.315,15.665,1.718-4.188,4-10.692,5.582-16.05a70.814,70.814,0,0,0,1.854-7.984,15.087,15.087,0,0,1,4.735,2.716l6.073,3.118a20.3,20.3,0,0,1,4.273,2.7,13.521,13.521,0,0,1,2.895,5.542c2.049,6.157,3.439,11.7,5,18a7.2,7.2,0,0,1-.25,4.078c-.457,1.153-5.026,2.987-6.62,3.723"/><path class="g" d="M131.866,107.2a48.409,48.409,0,0,0-7.8,3.438,14.533,14.533,0,0,0-4.75,3.444,17.793,17.793,0,0,0-2.764,5.69c-1.522,4.556-2.784,9.192-3.961,13.847-.853,3.373-2.768,8.541.687,11.09a20.052,20.052,0,0,0,3.884,2.079,28.164,28.164,0,0,0,4.033,1.558c2.49.663,3.552-3.194,1.063-3.857a25.3,25.3,0,0,1-5.853-2.52c-.238-.135-.47-.278-.7-.426-.086-.055-.168-.124-.256-.175.064.037.2.078.056.037-.289-.08-.055-.271.037.108a7.25,7.25,0,0,1-.226-1.149c-.149-1.872.678-3.887,1.132-5.682,1.02-4.033,2.1-8.051,3.365-12.016a25.245,25.245,0,0,1,1.992-5.189,8.559,8.559,0,0,1,3.639-3.043,42.9,42.9,0,0,1,7.486-3.377c2.446-.771,1.4-4.634-1.063-3.857Z"/><path class="g" d="M156.071,111.057a51.742,51.742,0,0,1,4.71,2.226,25.321,25.321,0,0,1,4.508,2.569c1.513,1.223,2.146,3.207,2.74,4.983.745,2.23,1.429,4.479,2.07,6.74.627,2.209,1.211,4.43,1.776,6.656.518,2.036,1.548,4.433,1.2,6.559-.014.088-.381,1.092-.029.545a2.334,2.334,0,0,1-.435.419,12.987,12.987,0,0,1-1.667,1.106,42.591,42.591,0,0,1-3.871,2.051,2.018,2.018,0,0,0-.718,2.737,2.045,2.045,0,0,0,2.736.717,23.385,23.385,0,0,0,6.585-4c2.737-2.712,1.019-7.38.226-10.523-1.037-4.109-2.136-8.2-3.422-12.243-1.165-3.656-2.3-7.285-5.632-9.524a50.223,50.223,0,0,0-9.715-4.878,2.015,2.015,0,0,0-2.46,1.4,2.044,2.044,0,0,0,1.4,2.46Z"/><path class="h" d="M140.953,116.345c-.1,1.561-1.839,11.222-2.121,13.6a68.207,68.207,0,0,0,5.229,4.869c.885-.863,4.84-3.513,5.621-4.765-.217-1.931-2.394-12.183-2.539-13.564.418-.626.766-1.878,1.392-2.851-.5-.642-3.71-5.32-4.643-6.173-.8.987-4.328,5.593-4.817,6.312C139.492,114.606,140.627,115.529,140.953,116.345Z"/><path class="g" d="M138.953,116.345c-.018.238-.048.475-.078.711.059-.462-.083.545-.106.7-.142.938-.3,1.874-.449,2.811-.349,2.128-.711,4.253-1.051,6.382-.117.733-.231,1.466-.332,2.2a3.09,3.09,0,0,0,1.093,2.9c1.448,1.486,3.082,2.786,4.617,4.18a2.047,2.047,0,0,0,2.828,0c1.521-1.42,3.441-2.508,4.966-4.009a3.134,3.134,0,0,0,1.135-2.971c-.107-.729-.243-1.454-.378-2.178-.4-2.122-.825-4.238-1.243-6.356-.193-.974-.385-1.948-.569-2.923-.062-.332-.125-.663-.182-1-.024-.138-.043-.278-.071-.415-.1-.484.044.393.01.1l-.273,1.01c.542-.912.847-1.938,1.392-2.852a1.961,1.961,0,0,0,0-2.019c-1.631-2.156-3-4.694-4.956-6.578a2.015,2.015,0,0,0-2.828,0c-1.759,2.187-3.53,4.411-5.13,6.717a1.98,1.98,0,0,0,0,2.019c.537.923,1.4,1.619,1.878,2.574,1.143,2.306,4.594.282,3.454-2.019-.478-.965-1.342-1.652-1.878-2.574v2.019c1.407-2.028,2.957-3.984,4.5-5.907h-2.828c1.7,1.636,2.892,3.868,4.33,5.768v-2.019c-.54.906-.936,1.9-1.391,2.852a3.378,3.378,0,0,0-.1,2.234c.23,1.361.51,2.714.778,4.067.329,1.666.662,3.332.984,5,.143.741.285,1.482.418,2.224.049.272.095.545.142.817.017.1.03.2.048.3.082.473-.053-.445-.008-.068l.273-1.01c.247-.36-.271.282-.342.352-.188.184-.387.359-.585.532-.485.421-.99.821-1.5,1.213-.963.743-1.993,1.432-2.883,2.263h2.828c-.862-.782-1.749-1.537-2.617-2.313-.488-.436-.975-.875-1.449-1.327-.186-.178-.372-.355-.551-.539-.066-.068-.631-.72-.3-.285l.274,1.01c.031-.257-.059.371.029-.221.04-.263.079-.526.119-.789q.131-.847.27-1.693c.225-1.389.458-2.777.688-4.166.369-2.224.846-4.479,1.015-6.73C143.146,113.778,139.145,113.79,138.953,116.345Z"/><path class="i" d="M128.312,74.958c-1.169,2.7-1.758,6.63-.689,9.449a1.617,1.617,0,0,1,1.867.418,115.95,115.95,0,0,1,10.281-10.119,7.884,7.884,0,0,0,1.089,3.083c.268.124,3.21-1.588,5.039-2.514a16.945,16.945,0,0,1,11.184,9.607,2.868,2.868,0,0,1,1.742-.544c.225-3.554-.432-8.177-1.713-10.181-1.2-1.87-4.547-4.862-6.778-5.236l-1.99-.335-.3-.394c-2.047-2.66-5.368-3.062-8.186-3.12s-7.713,1.632-8.325,2.276a7.3,7.3,0,0,1,2.885.9A14.243,14.243,0,0,0,128.312,74.958Z"/><path class="a" d="M133.391,66.517a16.635,16.635,0,0,0-8.306,15.434,2.049,2.049,0,0,0,2,2,2.016,2.016,0,0,0,2-2,12.463,12.463,0,0,1,.284-3.809,15.716,15.716,0,0,1,.579-1.959,10.7,10.7,0,0,1,.668-1.417,12.292,12.292,0,0,1,4.793-4.8,2,2,0,1,0-2.018-3.453Z"/><path class="a" d="M149.349,105.752a11.66,11.66,0,0,0,5.7-4.456,18.7,18.7,0,0,0,3.04-8.517,2,2,0,0,0-2-2,2.062,2.062,0,0,0-2,2c.053-.4-.039.216-.043.238q-.047.28-.1.56-.1.5-.222.99a17.244,17.244,0,0,1-.568,1.832c-.048.13-.1.259-.15.389-.17.44.127-.264-.054.122-.134.286-.268.571-.417.85a13.415,13.415,0,0,1-.854,1.4c-.069.1-.144.191-.209.29-.095.142.258-.307-.032.036-.16.19-.321.38-.491.561a11.818,11.818,0,0,1-1.035.966c-.336.282.373-.258.015-.015-.1.068-.2.139-.3.2-.163.108-.33.211-.5.307-.2.112-.4.209-.606.309-.329.159.441-.145.071-.032-.1.031-.2.074-.305.108a2,2,0,0,0,1.063,3.857Z"/><path class="a" d="M128.451,92.616a18.461,18.461,0,0,0,3.1,8.477,12.721,12.721,0,0,0,7.838,5.23,2,2,0,1,0,1.064-3.857c-.336-.065-.668-.14-1-.235q-.239-.069-.476-.149c-.052-.018-.622-.231-.372-.132s-.224-.1-.276-.13q-.215-.1-.425-.218-.416-.227-.808-.491c-.129-.087-.251-.188-.382-.271s-.084-.061.1.076c-.081-.065-.16-.131-.239-.2q-.354-.3-.682-.632c-.218-.219-.427-.448-.627-.684-.069-.082-.364-.456-.075-.079-.094-.123-.186-.249-.276-.375a14.023,14.023,0,0,1-.97-1.6c-.145-.277-.274-.561-.407-.844-.2-.418.108.3-.042-.1-.056-.146-.114-.291-.168-.438a17.351,17.351,0,0,1-.549-1.785q-.121-.484-.217-.977c-.029-.15-.056-.3-.081-.451-.019-.116-.1-.694-.028-.143a2.055,2.055,0,0,0-2-2c-.965.043-2.148.889-2,2Z"/><path class="a" d="M130.9,83.411a3.751,3.751,0,0,0-5.242.039,5.6,5.6,0,0,0-1.087,4.588c.361,3.122,2.134,7.058,5.834,6.99a2,2,0,0,0,0-4c-.073,0-.478-.028-.154.014s-.106-.043-.144-.052c-.3-.077.073-.019.085.045,0-.019-.269-.148-.308-.174a1.155,1.155,0,0,1-.118-.079q-.18-.127.127.095a1.841,1.841,0,0,0-.2-.194c-.036-.037-.27-.361-.119-.116s-.057-.086-.092-.139a5.789,5.789,0,0,1-.318-.551,1.121,1.121,0,0,1-.154-.317l.078.192c-.029-.071-.058-.143-.085-.216a8.707,8.707,0,0,1-.4-1.417,1.638,1.638,0,0,1-.054-.305q.047.375.021.147c-.007-.052-.012-.1-.016-.155-.022-.231-.035-.464-.037-.7,0-.259.016-.516.026-.775.01-.292.032.041-.023.117a1.614,1.614,0,0,0,.078-.338c.033-.219-.205.313-.016.05-.1.143-.218.316-.045.073.129-.182-.386.284-.065.055.209-.149-.046.02-.144.053.33-.113-.337-.026-.1,0,.142.014.44.068-.073-.026.285.052-.064.014-.105-.067a1.284,1.284,0,0,1,.172.1c.124.081.075.046-.147-.107a2,2,0,1,0,2.828-2.829Z"/><path class="a" d="M158.6,86.24c-.148.134-.259.214-.034.039.149-.116-.415.1-.047.035-.115.021-.4,0-.138.024.447.04-.329-.073-.09-.01.2.052-.4-.258-.085-.037.241.17-.1-.053-.109-.1.01.031.332.32.084.072-.1-.139-.113-.138-.025,0l-.095-.223c.041.008.075.3.085.335.073.25-.02-.377-.016-.117s.033.51.032.767c0,.232-.011.465-.03.7,0,.063-.035.5-.017.2s-.034.166-.04.193a8.558,8.558,0,0,1-.375,1.344c-.015.041-.12.455-.074.193s-.047.089-.082.158a6.152,6.152,0,0,1-.313.554,1.173,1.173,0,0,1-.2.291l.139-.184c-.045.054-.092.106-.141.157-.028.029-.254.236-.252.245-.011-.041.346-.221.069-.054-.1.061-.209.114-.305.18-.183.126.425-.113.023-.013a.977.977,0,0,0-.272.069c.278-.03.34-.04.184-.031a1.635,1.635,0,0,1-.21,0,2,2,0,0,0,0,4c3.7.068,5.475-3.867,5.833-6.99a5.607,5.607,0,0,0-1.086-4.588,3.752,3.752,0,0,0-5.243-.039,2.015,2.015,0,0,0,0,2.829,2.047,2.047,0,0,0,2.829,0Z"/><path class="a" d="M149.8,70.849a9.375,9.375,0,0,1,5.97,5.043c-.089-.19-.044-.122.01.032s.112.307.163.463c.111.334.207.672.293,1.013a20.132,20.132,0,0,1,.421,2.165,26.793,26.793,0,0,1,.177,4.562,2,2,0,1,0,4,0,22,22,0,0,0-1.684-10.412,12.618,12.618,0,0,0-3.34-4.09,11.782,11.782,0,0,0-4.947-2.633,2.052,2.052,0,0,0-2.46,1.4,2.019,2.019,0,0,0,1.4,2.46Z"/><path class="a" d="M145.166,73.41c-.992.492-1.96,1.029-2.936,1.551-.44.235-.879.471-1.326.693-.179.088-.36.172-.541.256q.447-.181.18-.083-.555.155.848.033l.883.514c.326.268.116.2-.018-.107.058.133-.129-.379-.134-.394-.079-.235-.154-.473-.219-.713-.017-.062-.169-.761-.132-.454a2.03,2.03,0,0,0-3.414-1.414c-3.6,3.21-7.021,6.566-10.32,10.08-1.761,1.876,1.062,4.71,2.828,2.829,3.3-3.515,6.725-6.87,10.32-10.081l-3.414-1.414a10,10,0,0,0,1.212,3.925c.786,1.286,2.056,1.32,3.288.781,1.689-.74,3.263-1.729,4.914-2.548a2,2,0,0,0-2.019-3.454Z"/><path class="a" d="M149.455,66.778c-2.4-3.01-6.751-3.962-10.442-3.679a22.741,22.741,0,0,0-5.185,1.076,9.6,9.6,0,0,0-3.712,1.759,2,2,0,0,0-.414,2.185,2.075,2.075,0,0,0,1.828,1.229,5.305,5.305,0,0,1,1.876.622,2,2,0,1,0,2.018-3.453,10.454,10.454,0,0,0-3.894-1.169l1.414,3.414c.149-.141-.352.178-.2.156.068-.01.152-.1.217-.128.2-.1.4-.2.6-.289-.427.192.33-.123.483-.178.314-.115.631-.221.949-.322.7-.222,1.407-.417,2.122-.58a12.822,12.822,0,0,1,1.9-.322c2.847-.218,5.8.232,7.614,2.508a2.013,2.013,0,0,0,2.828,0,2.049,2.049,0,0,0,0-2.829Z"/><path class="g" d="M136.314,86.97c-.3.968-.1,3.2,1.729,3.387,2.422-.014,2.551-2.709,1.736-3.976A1.917,1.917,0,0,0,136.314,86.97Z"/><path class="g" d="M146.785,86.97c-.3.968-.1,3.2,1.729,3.387,2.422-.014,2.551-2.709,1.736-3.976A1.917,1.917,0,0,0,146.785,86.97Z"/><path class="a" d="M148.056,78.211a17.654,17.654,0,0,1,2.46,1.52l.158.119c.118.09.07.052-.144-.112.084.021.192.153.256.206q.281.229.551.469.542.481,1.043,1.005c.333.348.653.711.957,1.085.043.053.3.342.089.107s.04.055.082.112c.157.212.309.426.456.645a17.564,17.564,0,0,1,1.41,2.524,2.009,2.009,0,0,0,2.737.718,2.058,2.058,0,0,0,.717-2.737,19.511,19.511,0,0,0-8.753-9.114,2,2,0,1,0-2.019,3.453Z"/><path class="a" d="M140.961,98.132a6.95,6.95,0,0,0,1.088.544,2.274,2.274,0,0,0,.45.131,5.96,5.96,0,0,0,1.115.117,4.145,4.145,0,0,0,1.887-.462c.2-.1.367-.244.569-.33a1.922,1.922,0,0,0,.955-1.992,1.489,1.489,0,0,0-.237-.744,2.017,2.017,0,0,0-1.2-.919l-.532-.072a2,2,0,0,0-1.009.273c-.238.1-.435.275-.672.377l.478-.2a1.932,1.932,0,0,1-.449.119l.532-.071a3.182,3.182,0,0,1-.774,0l.531.072a2.412,2.412,0,0,1-.585-.152l.477.2a4.689,4.689,0,0,1-.61-.343,2.061,2.061,0,0,0-1.541-.2,2,2,0,0,0-1.4,2.46,2.126,2.126,0,0,0,.919,1.2Z"/><path class="c" d="M143.387,107.529a64.437,64.437,0,0,1-7.581-3.13,37.27,37.27,0,0,1-3.826,3.895c1.044.974,6.33,5.373,7.025,5.93C139.2,114.136,143.253,107.777,143.387,107.529Z"/><path class="g" d="M143.919,105.6a26.056,26.056,0,0,1-3.6-1.344c-.048-.02-.356-.147-.1-.041s-.053-.022-.1-.043l-.537-.23q-.546-.237-1.087-.479c-.566-.253-1.13-.511-1.683-.792a2.039,2.039,0,0,0-2.423.313,34.409,34.409,0,0,1-3.826,3.895,2.015,2.015,0,0,0,0,2.828c2.238,2.077,4.644,4.019,7.025,5.93a2.071,2.071,0,0,0,2.424.313,5.419,5.419,0,0,0,1.392-1.658c.5-.744.988-1.5,1.475-2.249.749-1.158,1.557-2.3,2.232-3.5a2,2,0,1,0-3.453-2.019c-.638,1.135-1.4,2.216-2.106,3.309-.473.732-.946,1.462-1.429,2.187-.173.26-.347.521-.526.778-.063.09-.134.177-.193.269-.11.172.405-.475.233-.3-.155.156.05-.065.356-.263l2.424.313c-2.381-1.911-4.787-3.853-7.026-5.93v2.828a34.326,34.326,0,0,0,3.826-3.895l-2.424.313c1.408.715,2.873,1.323,4.328,1.932a26.7,26.7,0,0,0,3.732,1.4,2,2,0,1,0,1.063-3.857Z"/><path class="c" d="M144.222,107.529a64.447,64.447,0,0,0,7.582-3.13,37.264,37.264,0,0,0,3.825,3.895,86.367,86.367,0,0,1-6.781,6.069C148.654,114.275,144.357,107.777,144.222,107.529Z"/><path class="g" d="M144.754,109.458a26.689,26.689,0,0,0,3.731-1.4c1.456-.609,2.921-1.217,4.328-1.932l-2.424-.313a34.326,34.326,0,0,0,3.826,3.895V106.88c-1.048.981-2.076,1.983-3.129,2.959-.639.593-1.283,1.181-1.941,1.751-.292.253-.589.5-.887.745-.4.331.313-.219-.078.061-.113.082-.226.163-.342.24h2.019c.378.243.5.417.356.265-.059-.061-.171-.219.089.118.3.383.019.019-.048-.072-.18-.25-.354-.5-.529-.756-.523-.759-1.037-1.525-1.55-2.291-.745-1.114-1.565-2.214-2.226-3.38a2,2,0,1,0-3.454,2.019c.7,1.233,1.567,2.4,2.356,3.574.511.763,1.023,1.525,1.546,2.279a5.777,5.777,0,0,0,1.441,1.7,1.968,1.968,0,0,0,2.019,0,32.2,32.2,0,0,0,3.951-3.324c1.089-1.008,2.152-2.044,3.236-3.058a2.015,2.015,0,0,0,0-2.828,34.409,34.409,0,0,1-3.826-3.895,2.026,2.026,0,0,0-2.424-.313c-.533.271-1.077.52-1.622.765-.359.162-.719.32-1.081.477l-.536.23-.271.115c.226-.095.232-.1,0,0a26.008,26.008,0,0,1-3.6,1.344,2.018,2.018,0,0,0-1.4,2.46A2.041,2.041,0,0,0,144.754,109.458Z"/><path class="c" d="M122.935,125.546a.906.906,0,0,0-.09.4c.016,4.636-.155,18.957-.046,25.914a1.874,1.874,0,0,0,1.87,1.849c7.23.015,32.2-.017,39.685,0a1.87,1.87,0,0,0,1.875-1.889c-.05-6.437-.3-22.475-.3-25.871a.9.9,0,0,0-.891-.907c-3.107-.01-11.859-.062-20.654-.126-8.794.064-17.546.116-20.653.126A.9.9,0,0,0,122.935,125.546Z"/><path class="g" d="M121.007,125.014a29.41,29.41,0,0,0-.179,6.106q-.023,3.984-.046,7.969-.021,4.116-.018,8.233c.006,2.284-.572,5.678,1.294,7.367,1.522,1.377,3.8,1.023,5.7,1.024h5.811l15.029-.008q6.615,0,13.231,0c2.141,0,4.634.272,5.875-1.922.988-1.747.5-4.455.479-6.4q-.087-7.518-.189-15.035c-.023-1.826-.046-3.652-.058-5.479a4.468,4.468,0,0,0-.447-2.468c-.855-1.357-2.292-1.361-3.711-1.368-7.455-.034-14.912-.152-22.367-.1q-6.024.042-12.048.077-2.058.012-4.115.022c-1.669.008-2.957.024-4.041,1.5a2.015,2.015,0,0,0,.718,2.736,2.046,2.046,0,0,0,2.736-.718l.194-.264-.718.718c-.294.189-.125.02.179.028.187,0,.376,0,.564,0l1.469-.007,3.772-.021q4.909-.029,9.818-.063c6.615-.045,13.229.032,19.843.069l3.216.017,1.355.007a1.691,1.691,0,0,0,.507,0c-1.62.687-.779-1.711-.926-.676a29.769,29.769,0,0,0,.04,4.347q.078,6.756.171,13.511.037,3.03.069,6.061c0,.368-.027.758.011,1.125.008.077-.076.462.026.355.014-.015.2-.124.026-.057a7.322,7.322,0,0,1-2.038,0q-5.718,0-11.435,0-12.371.006-24.742.007a4.783,4.783,0,0,0-1.1,0,1.34,1.34,0,0,1-.3,0c.176.087.135.305.127-.095-.022-1.118-.024-2.237-.029-3.355-.011-2.7,0-5.407.01-8.11s.03-5.416.046-8.124q.011-1.686.018-3.372a12.944,12.944,0,0,1,.023-2.575C125.43,123.571,121.574,122.5,121.007,125.014Z"/><path class="a" d="M130.572,133.445c6.633,0,13.266.131,19.9.135,2.574,0,2.578-4,0-4-6.634,0-13.267-.132-19.9-.135-2.574,0-2.578,4,0,4Z"/><path class="a" d="M155.755,133.492c.911,0,1.823.007,2.734.007a2.06,2.06,0,0,0,1.414-.586,2.222,2.222,0,0,0,.586-1.414,2.018,2.018,0,0,0-.586-1.414,2.074,2.074,0,0,0-1.414-.586c-.911,0-1.823-.007-2.734-.007a2.06,2.06,0,0,0-1.414.586,2.216,2.216,0,0,0-.586,1.414,2.018,2.018,0,0,0,.586,1.414,2.078,2.078,0,0,0,1.414.586Z"/></svg>