<svg xmlns="http://www.w3.org/2000/svg" width="266.293" height="368.064" viewBox="0 0 266.293 368.064"><defs><style>.a{fill:#89705d;}.b{fill:#211715;}.c{fill:#fff;}.d{fill:none;}.e{fill:#f4b467;}.f{fill:#c6c6c6;}</style></defs><path class="a" d="M122.284,111.676c-13.9-15.112-26.922,3.413-26.922,3.413-2.8,5.266-4.1,11.2-2.214,20.28.968,4.674,3.065,9.253,4.181,13.9s.181,10.373-3.972,12.727c-1.836,4.7,28.227,5.949,32.152-5.473C125.509,156.518,139.41,130.291,122.284,111.676Z"/><path class="b" d="M123.2,155.88c-.227.635.121-.1-.157.373-.142.241-.263.491-.414.729-.084.13-.517.7-.174.277-.2.249-.413.487-.636.715-.182.186-.372.365-.567.538-.1.085-.693.555-.292.256a15.093,15.093,0,0,1-1.666,1.073,14.583,14.583,0,0,1-3.24,1.4,33.017,33.017,0,0,1-4.069,1.052q-1.025.2-2.059.346c.339-.048-.424.052-.582.07q-.608.069-1.218.121-2.135.184-4.281.171c-1.269-.009-2.539-.07-3.8-.2-.121-.013-1.079-.138-.442-.046-.248-.036-.5-.074-.742-.116-.511-.087-1.019-.189-1.521-.316-.481-.121-.944-.28-1.412-.438-.153-.051-.384-.2.213.094-.107-.053-.224-.093-.327-.155a2.5,2.5,0,0,0-.472-.274c-.189-.052.438.448.049.022-.339-.373.291.468.109.139a1.114,1.114,0,0,1,.186.741c0-.36-.211.746-.008.176l-1.1,1.434c3.5-2.086,5.159-5.8,5.53-9.734.405-4.285-1.172-8.43-2.525-12.415a46.162,46.162,0,0,1-2.9-13.616,24.132,24.132,0,0,1,2.759-12c1.431-2.735-2.71-5.164-4.144-2.423a29.066,29.066,0,0,0-3.418,12.852,43.359,43.359,0,0,0,2.4,14.448c1.327,4.058,3.323,8.282,3.066,12.641a8.736,8.736,0,0,1-1.476,4.566c-.88,1.219-2.54,1.694-2.891,3.255-1,4.45,5.363,5.507,8.374,5.882a43.886,43.886,0,0,0,15.342-.905c5.361-1.269,11.157-3.919,13.138-9.461a2.423,2.423,0,0,0-1.676-2.952,2.449,2.449,0,0,0-2.952,1.676Z"/><path class="c" d="M212.907,83.921a6.8,6.8,0,0,1,10.843,1.748,11.422,11.422,0,0,1,1.018,4.316,34.7,34.7,0,0,1-2.989,17.024,20.236,20.236,0,0,1-4.822,6.923,10.839,10.839,0,0,1-8.626,2.873c-3.307,23.592-15.466,38.321-27.855,43.05a50.865,50.865,0,0,0,1.132,11.51c.647,3.693.444,7,5.579,8.849.34.123,6.119,2.377,6.639,2.591,0,0-7.878,25.229-36.251,25.229s-33.982-26.574-33.982-26.574c.989-.337,3.379-1.123,3.719-1.246,5.135-1.854,4.933-5.156,5.58-8.849a51.066,51.066,0,0,0,1.128-11.728c-16.807-7.583-25.757-25.585-28.367-42.75a11.26,11.26,0,0,1-7.079-2.955,20.236,20.236,0,0,1-4.822-6.923,34.7,34.7,0,0,1-2.989-17.024,11.422,11.422,0,0,1,1.018-4.316,6.8,6.8,0,0,1,10.842-1.748s10.35-34,54.856-34C195.309,49.917,212.907,83.921,212.907,83.921Z"/><path class="b" d="M179.888,162.6c16.49-5.486,26.036-22.758,29.609-38.78a93.025,93.025,0,0,0,2.118-20.019c.006-3.088-4.794-3.093-4.8,0-.039,17.782-4.881,37.713-19.321,49.273-.49.393-1.288.974-2.048,1.481s-1.563,1-2.375,1.448a22.532,22.532,0,0,1-4.459,1.969c-2.917.97-1.667,5.607,1.276,4.628Z"/><path class="b" d="M102.976,107.449c.389,19.125,8.032,39.894,24.408,50.937a43,43,0,0,0,16,6.513,2.464,2.464,0,0,0,2.952-1.676,2.423,2.423,0,0,0-1.676-2.953,40.167,40.167,0,0,1-23.571-14.042c-5.755-6.91-9.411-15.47-11.461-24.167a68.862,68.862,0,0,1-1.848-14.612c-.063-3.085-4.863-3.095-4.8,0Z"/><path class="b" d="M88.363,89.985a37.239,37.239,0,0,0,3.752,19.151c2.713,5.478,7.7,10.337,14.2,10.159,3.083-.085,3.095-4.885,0-4.8-5.143.141-8.453-4.29-10.406-8.514a32.545,32.545,0,0,1-2.747-16,2.421,2.421,0,0,0-2.4-2.4,2.447,2.447,0,0,0-2.4,2.4Z"/><path class="d" d="M102.623,83.921a6.8,6.8,0,0,0-10.842,1.748,11.422,11.422,0,0,0-1.018,4.316"/><path class="b" d="M214.6,85.618a4.47,4.47,0,0,1,7.186,1.5,14.7,14.7,0,0,1,.684,5.548,31.38,31.38,0,0,1-.561,6.039c-1.229,6.287-4.856,16-12.7,15.786-3.09-.085-3.088,4.715,0,4.8,8.507.233,13.674-7.609,16.115-14.77a36.851,36.851,0,0,0,1.941-12.3c-.055-4.121-.692-8.315-4.223-10.91a9.311,9.311,0,0,0-11.838.912c-2.265,2.11,1.135,5.5,3.394,3.394Z"/><path class="b" d="M178.071,159.884a99.569,99.569,0,0,0,1.6,14.524,10.481,10.481,0,0,0,1.612,4.4,10.753,10.753,0,0,0,5.268,3.722,2.42,2.42,0,0,0,2.953-1.676,2.452,2.452,0,0,0-1.677-2.952,7.856,7.856,0,0,1-1.018-.467c-.164-.091-.324-.186-.482-.286-.076-.047-.485-.345-.248-.156a5.936,5.936,0,0,1-.679-.657c-.458-.506.1.186-.1-.13-.078-.121-.155-.241-.227-.366-.088-.155-.167-.313-.243-.474.1.213.065.19,0-.015-.1-.307-.2-.61-.275-.923-.161-.647-.266-1.307-.366-1.966a95.6,95.6,0,0,1-1.321-12.576c-.06-3.085-4.86-3.095-4.8,0Z"/><path class="b" d="M131.629,159.884a68.19,68.19,0,0,1-.66,8.4,62.177,62.177,0,0,1-1.03,6.158c-.046.185-.1.37-.153.553-.015.051-.211.609-.109.354s-.136.282-.162.331a5.607,5.607,0,0,1-.357.59c.187-.268-.058.073-.146.166a4.389,4.389,0,0,1-1.5,1.1,32.136,32.136,0,0,1-4.559,1.618,2.456,2.456,0,0,0-1.676,2.952,2.422,2.422,0,0,0,2.952,1.676,36.805,36.805,0,0,0,5.845-2.174,8.992,8.992,0,0,0,4.3-5.225,40.448,40.448,0,0,0,1.158-6.411,78.268,78.268,0,0,0,.891-10.08c.06-3.09-4.74-3.09-4.8,0Z"/><path class="b" d="M143.763,134.169c3.546,3.26,8.992,4.128,13.618,4.125s10.073-.864,13.621-4.125c2.28-2.095-1.122-5.483-3.394-3.394-.093.086-.188.17-.286.251-.32.265.334-.227.07-.058s-.544.367-.83.532a9.767,9.767,0,0,1-1.9.873,24.243,24.243,0,0,1-14.429.045c-.254-.086-.507-.177-.755-.277.28.112-.123-.052-.218-.1-.358-.169-.712-.346-1.055-.545-.262-.152-.51-.321-.764-.485-.469-.3.4.325.005.011-.1-.08-.192-.166-.286-.251-2.27-2.088-5.674,1.3-3.394,3.394Z"/><path class="b" d="M154.6,102.015c.69,2.623,1.239,5.28,1.77,7.939.062.311.121.623.185.933.017.082.063.427.016.04-.052-.417,0,.031,0,.125s0,.2,0,.294c.016.483.068-.409.011-.157-.037.122-.021.087.049-.1a.973.973,0,0,1,.285-.451c.13-.13.411-.316.085-.112.363-.227.1-.035-.056.012a2.274,2.274,0,0,0-.419.1c.1-.065.5-.022.169-.04-.12-.007-.243,0-.363-.008-.09,0-.432-.048-.017.007s.043,0-.056-.017c-.18-.032-.36-.067-.542-.092a2.644,2.644,0,0,0-1.849.242,2.443,2.443,0,0,0-1.1,1.434c-.257,1.128.346,2.77,1.676,2.952a7.806,7.806,0,0,0,4.134-.077,3.973,3.973,0,0,0,2.569-2.384,4.472,4.472,0,0,0,.183-2.045c-.2-1.661-.6-3.309-.946-4.945s-.725-3.293-1.154-4.923a2.4,2.4,0,1,0-4.629,1.276Z"/><path class="b" d="M128.377,91.666c-.889,2.892-.309,9.547,5.162,10.113,7.232-.043,7.617-8.088,5.182-11.871C136.728,86.811,130.867,85.523,128.377,91.666Z"/><path class="b" d="M185.009,91.671c.889,2.9.309,9.559-5.162,10.126-7.232-.044-7.617-8.1-5.183-11.886C176.657,86.81,182.518,85.52,185.009,91.671Z"/><path class="e" d="M155.193,2.4c-36.772-.186-57.809,25.3-60.832,56.062-2.987,2.907-9.616,6.831-9.524,11.662s6.22,8.163,10.437,8.556c8.971,1.641,34.467,2.511,59.924,2.611,25.456-.1,50.953-.97,59.924-2.611,4.217-.393,10.344-3.726,10.436-8.556s-6.536-8.755-9.524-11.662C213.012,27.7,191.973,2.212,155.193,2.4Z"/><path class="b" d="M203.578,58.35c-25.744-6.161-52.44-8.3-78.712-4.372a126.588,126.588,0,0,0-17.415,3.854c-2.954.879-1.7,5.513,1.276,4.628a139.892,139.892,0,0,1,32.323-5.308,198.173,198.173,0,0,1,41.067,1.822c6.783,1.042,13.512,2.408,20.185,4.005,3,.718,4.284-3.909,1.276-4.629Z"/><path class="b" d="M155.193,0c-13.026-.034-26.171,3.15-36.965,10.645A60.708,60.708,0,0,0,96.649,38.463a74.478,74.478,0,0,0-4.688,20l.7-1.7c-3.819,3.655-9.653,6.788-10.19,12.641-.556,6.078,5.888,10.472,11.191,11.451.4.074.8.115,1.2.175.249.038-.233-.035.222.042q.644.108,1.289.2,1.721.246,3.449.434c2.484.27,4.977.466,7.471.636,6.811.463,13.636.722,20.46.919q24.558.709,49.121.148c7.2-.163,14.4-.391,21.59-.784,5.194-.285,10.4-.615,15.555-1.353.4-.057.8-.115,1.2-.185.147-.025.551-.1.177-.038.445-.069.894-.112,1.337-.194a16.907,16.907,0,0,0,3.965-1.332,13.024,13.024,0,0,0,6.338-5.725c2.985-6.143-2.159-11.071-6.541-14.666-.938-.769-1.884-1.53-2.762-2.369l.7,1.7c-1.2-11.966-4.963-23.775-11.981-33.632A58.044,58.044,0,0,0,177.839,3.487,69.675,69.675,0,0,0,155.193,0c-3.088.009-3.094,4.809,0,4.8,11.459-.031,22.876,2.543,32.629,8.716a54.4,54.4,0,0,1,19.765,22.727,65.459,65.459,0,0,1,4.876,14.668q.425,2.017.738,4.057a37.194,37.194,0,0,0,.519,4.132c.355,1.294,2.02,2.314,3.008,3.124,1.07.878,2.145,1.752,3.159,2.7a13.959,13.959,0,0,1,2.569,2.963,3.9,3.9,0,0,1,.668,2.655c-.385,2.3-2.807,3.944-4.851,4.841a12.446,12.446,0,0,1-1.657.578,13.334,13.334,0,0,1-1.494.322c-.522.077-1.042.16-1.564.243q-.3.048-.6.092c-.155.023-.89.121-.447.064-2.31.3-4.632.507-6.953.687-14.68,1.138-29.449,1.355-44.165,1.485-15.911.142-31.858-.127-47.75-.934-2.987-.152-5.973-.33-8.955-.563-1.269-.1-2.538-.209-3.806-.336q-.78-.078-1.56-.166c-.244-.028-.488-.056-.732-.086-.142-.017-.776-.1-.6-.074a20.819,20.819,0,0,1-6.01-1.381c-2.02-.934-4.44-2.583-4.734-4.919a4.234,4.234,0,0,1,.777-2.639,14.577,14.577,0,0,1,2.615-2.947c1.054-.973,2.172-1.871,3.279-2.782,1.076-.885,2.528-1.8,2.806-3.243.514-2.657.679-5.357,1.248-8.024a70.421,70.421,0,0,1,2.1-7.685,57.142,57.142,0,0,1,16.632-25.215A55.114,55.114,0,0,1,145.974,5.319a75.129,75.129,0,0,1,9.219-.519C158.282,4.809,158.286.009,155.193,0Z"/><path class="c" d="M71.688,136.8c.479-3.28,5.607-14.187,7.629-15.673,2.992-2.2,6.978-2.921,10.251-4.593a33.7,33.7,0,0,0,9.4-6.907,26.751,26.751,0,0,0,6.088-11.494c.437-1.548,1.127-5.314,1.577-7.58a46.537,46.537,0,0,0,.138-10.137l.16-.06c3.311-1.248,3.937-5.213,2.741-8.081a11.454,11.454,0,0,0-7.771-6.471c-2.023-.437-7.392-.534-8.458.785l-1.151,1.425-.19-.228c-2.409-2.894-6.5-3.64-10.88.133,0,0-.358.647-.844,1.5a6.025,6.025,0,0,0-4.716-1.28c-2.3.507-5.618,2.6-6.379,4.871-2.693-2.354-6.223-4.779-9.606-3.116-3.777,1.857-5.242,4.327-6.179,8a59.043,59.043,0,0,0-1.957,12.479c-.1,4.31-4.752,20.564-8.241,24.627L37.872,125.8"/><path class="b" d="M95.141,68.29c.359-.4-.383.264-.065.033a1.619,1.619,0,0,1,.225-.116c.136.1-.577.157-.181.089.2-.035.407-.121.61-.167.178-.04,1.053-.147.418-.091a24.738,24.738,0,0,1,3.255-.1c.481.02.959.058,1.437.107.628.064-.445-.1.109.018.259.057.518.1.775.173.309.083.61.186.911.294.456.165.193.083.1.039.148.068.294.138.439.213.291.149.577.311.854.485q.208.132.413.271s.581.44.307.219a8.605,8.605,0,0,1,2.386,2.77c.135.243.262.492.375.747-.181-.409.073.244.113.382.075.254.124.512.182.77.1.444,0,.046,0-.047.014.2.031.4.035.6,0,.266-.015.528-.029.793.028-.53-.032.153-.076.333a6.464,6.464,0,0,1-.234.743c.188-.5-.154.234-.238.375-.04.065-.289.387-.095.149s-.077.075-.13.126l-.286.272c-.251.239.312-.191.009-.009-.118.071-.234.146-.352.216-.057.034-.455.219-.2.11s-.166.047-.231.065c-.227.063-.444.052-.1.04-.137,0-.279,0-.416.006-.55.03.347.127-.188-.021-.31-.085-.618-.158-.923-.262-.661-.227-1.3-.517-1.945-.777a8.556,8.556,0,0,0-4.864-.586A2.422,2.422,0,0,0,95.867,79.5a2.453,2.453,0,0,0,2.953,1.677c-.462.084-.014,0,.121,0,.179.006.355,0,.534.021-.51-.048.364.109.519.155.742.221,1.448.541,2.163.833a8.241,8.241,0,0,0,4.779.664c3.439-.676,5.472-3.99,5.684-7.28a11.3,11.3,0,0,0-3.829-8.636,13.784,13.784,0,0,0-8.55-3.747,21.02,21.02,0,0,0-4.278.075c-1.466.184-3.177.465-4.216,1.634a2.457,2.457,0,0,0,0,3.394,2.423,2.423,0,0,0,3.394,0Z"/><path class="b" d="M82.92,69.62c2.217-1.848,5.162-2.771,7.276-.376,1.973,2.235,2.666,5.6,3.245,8.434a42.517,42.517,0,0,1,1.2,8.412c-.005,2.45-.633,4.589-3.2,5.335-2.96.861-1.7,5.494,1.276,4.628a8.859,8.859,0,0,0,6.316-6.475c.733-2.927.279-5.855-.191-8.779a51.543,51.543,0,0,0-2.078-9.257c-1.062-2.963-2.692-6.093-5.617-7.591-4.089-2.094-8.315-.481-11.62,2.275a2.419,2.419,0,0,0,0,3.394,2.453,2.453,0,0,0,3.394,0Z"/><path class="b" d="M71.09,83.721c.4,1.414.854,2.817,1.19,4.249.331,1.411.394,2.849.615,4.279a14.6,14.6,0,0,0,2.32,6.379,6.846,6.846,0,0,0,6.059,3.046A9.645,9.645,0,0,0,87.917,98.4a10.472,10.472,0,0,0,2.074-7.744c-.277-3.068-.89-6.149-1.4-9.187-.887-5.321-2.415-10.85-7.022-14.123a8.281,8.281,0,0,0-8.305-.907,11.033,11.033,0,0,0-6.3,5.943,2.421,2.421,0,0,0,1.676,2.953A2.452,2.452,0,0,0,71.6,73.656c.463-1.217,2.3-2.31,3.516-2.827a3.756,3.756,0,0,1,4.035.66c3.1,2.312,3.988,6.639,4.639,10.226.428,2.359.749,4.737,1.142,7.1.3,1.835.641,4.033-.157,5.684a4.528,4.528,0,0,1-3.513,2.365,1.988,1.988,0,0,1-2.227-1.133,12.138,12.138,0,0,1-1.564-5.212,49.035,49.035,0,0,0-1.75-8.076c-.842-2.967-5.475-1.706-4.629,1.276Z"/><path class="b" d="M70.981,71.321c-2.426-2.1-5.23-4.176-8.558-4.354-2.905-.155-5.849,1.564-7.81,3.617A14.664,14.664,0,0,0,51.23,77.1a69.356,69.356,0,0,0-1.795,9.426c-.164,1.355-.226,2.7-.3,4.063-.016.29-.046.577-.076.865-.047.435,0-.016.012-.088q-.06.405-.13.809c-.323,1.854-.771,3.688-1.258,5.5a76.982,76.982,0,0,1-4.226,12.264,26.485,26.485,0,0,1-1.349,2.582c-.207.342-.431.669-.661,1,.432-.61-.211.283-.353.488-.858,1.241-1.663,2.522-2.493,3.782-1.7,2.587,2.45,4.994,4.144,2.423l2.14-3.246c.127-.192.268-.38.382-.58.03-.052.067-.1.1-.149-.539.849,0,0,.118-.151a16.108,16.108,0,0,0,1.217-1.92,62.2,62.2,0,0,0,4.537-11.491,65.228,65.228,0,0,0,2.575-10.862c.275-2.134.253-4.285.583-6.419a52.528,52.528,0,0,1,1.8-8.173,8.262,8.262,0,0,1,4.015-4.891c2.7-1.5,5.361.641,7.379,2.385,2.327,2.011,5.736-1.37,3.394-3.394Z"/><path class="b" d="M104.372,89.371a45.1,45.1,0,0,1-2.647,11.248,23.979,23.979,0,0,1-9.03,11.273,31.236,31.236,0,0,1-6.7,3.589A41.134,41.134,0,0,0,79.1,118.4c-2.774,1.672-4.238,4.661-5.651,7.469-.983,1.952-1.878,3.95-2.692,5.979a20.617,20.617,0,0,0-1.383,4.318,2.474,2.474,0,0,0,1.676,2.952A2.42,2.42,0,0,0,74,137.442c.482-3.011,1.946-5.8,3.257-8.479a48.06,48.06,0,0,1,2.434-4.465c.192-.305.394-.6.6-.9.072-.105.148-.208.225-.308-.328.43-.137.171-.058.086a5.571,5.571,0,0,1,1.76-1.223c2.26-1.2,4.772-1.869,7.121-2.877a33.565,33.565,0,0,0,6.457-3.72A29.144,29.144,0,0,0,105.9,103.028a47.947,47.947,0,0,0,3.268-13.657,2.417,2.417,0,0,0-2.4-2.4,2.452,2.452,0,0,0-2.4,2.4Z"/><path class="b" d="M60.492,82.877c.02,4.48,4.842,6.416,8.365,7.718.374.138.748.273,1.12.415.159.061.315.125.473.187.253.1-.677-.307-.3-.124.064.031.129.059.193.09a2.4,2.4,0,1,0,2.423-4.144c-1.328-.649-2.76-1.07-4.126-1.627-.088-.036-.175-.078-.265-.109a3.73,3.73,0,0,0,.352.147c-.044-.02-.089-.038-.133-.057-.193-.085-.384-.171-.574-.262-.378-.179-.75-.37-1.111-.58-.326-.189-.636-.479-.972-.638.12.057.5.4.2.153-.068-.057-.135-.114-.2-.173-.138-.125-.271-.256-.4-.393-.036-.04-.142-.213-.19-.223,0,0,.333.464.251.322-.027-.046-.063-.089-.093-.134-.1-.157-.179-.327-.273-.489-.082-.142.163.4.165.39.007-.032-.043-.116-.053-.149-.025-.09-.053-.178-.073-.269-.009-.039-.014-.079-.025-.118-.071-.274.056.391.052.4a1.245,1.245,0,0,0-.015-.331,2.4,2.4,0,0,0-4.8,0Z"/><path class="f" d="M121.649,177.132c-10.425,2.621-24.643,7.433-29.466,9.127a176.415,176.415,0,0,0-23.893,9.816l-10.507,4.513c1.294-5.395,2.409-10.133,2.842-11.833,1.832-7.207,10.26-40.675,12.288-49.237-11.42-4.467-26.074-10.309-37.939-14.157-2.138,4.847-10.627,24.063-13.558,33.346-1.239,3.923-10.34,30.353-12.35,41.129-1.081,5.791-4.262,13.348-5,19.944C2.833,230.924.224,237.121,6,247.866c4.672,8.692,13.621,15.2,23.647,15.6,8.226.328,16.53-1.486,24.332-3.256,8.317-1.886,23.384-7.885,29.226-9.415l1.8-.543c3.231,25.011,6.416,49.837,7.524,57.33.5,3.4,1.312,54.048,1.263,58.09,1-.011,1.993-.011,1.993-.011H263.89c-2.288-45.032-5.72-83.717-9.247-130.074-.8-10.551-6.812-27.492-12.335-32.646a39.221,39.221,0,0,0-7.534-5.98,456.438,456.438,0,0,0-41.252-20.4l-13.073-4.5c-4.006,6.8-9.939,16.736-12.385,20.2-1.45,2.051-7.972,11.381-10.293,14.63l-1.37,1.92-.215-.3c-4.41-6.035-11.232-17.357-14.825-23.693-1.123-1.981-3.863-6.734-6.163-11l-12.778,3.115Q122.038,177.034,121.649,177.132Z"/><path class="b" d="M63.783,220.326a9.584,9.584,0,0,1,1.179.765l-.486-.375a9.672,9.672,0,0,1,1.7,1.715l-.375-.486a12.387,12.387,0,0,1,1.534,2.692l-.242-.574q.284.686.507,1.394a2.528,2.528,0,0,0,1.1,1.434,2.4,2.4,0,0,0,3.526-2.71,13.44,13.44,0,0,0-6.027-8,2.4,2.4,0,1,0-2.423,4.145Z"/><path class="b" d="M96.194,365.214c-.005-10.818-.282-21.643-.5-32.459-.123-6.151-.252-12.3-.446-18.453a83.177,83.177,0,0,0-.66-9.106c-.262-1.85-.512-3.7-.762-5.554-.079-.582.053.395-.043-.319-.04-.3-.081-.6-.121-.9l-.24-1.8q-.266-2.005-.53-4.013-1.245-9.467-2.465-18.936-2.887-22.324-5.77-44.648c-1.5-11.542-2.973-23.092-4.632-34.613q-.172-1.192-.351-2.386a2.417,2.417,0,0,0-2.952-1.676,2.462,2.462,0,0,0-1.677,2.952c1.6,10.638,2.784,20.192,4.2,30.989q2.9,22.236,5.753,44.478c1.511,11.7,3,23.4,4.6,35.08q.171,1.254.348,2.508c.047.333.094.665.142,1,.024.167.048.333.073.5.112.756-.03-.191-.021-.192s.2,3.443.207,3.651c.215,5.488.327,10.981.446,16.472.257,11.878.492,23.759.592,35.639q.007.9.01,1.792c0,3.089,4.8,3.094,4.8,0Z"/><path class="b" d="M229.819,364.555c-.058-.278-.074-.566-.135-.843-.017-.078.091.73.038.272-.013-.107-.028-.214-.041-.321-.034-.282-.068-.565-.1-.847-.174-1.506-.328-3.014-.479-4.522-.451-4.488-.862-8.98-1.263-13.472-.888-9.949-1.739-19.9-2.443-29.868-.186-2.642-.419-5.3-.443-7.948,0-.117,0-.234.008-.352,0-.036.008-.073.009-.109-.03.708.074-.436.106-.655q.38-2.541.767-5.079.811-5.322,1.648-10.64c2.426-15.483,4.924-30.955,7.191-46.463,1.983-13.561,3.955-27.179,4.918-40.857q.133-1.9.227-3.792c.151-3.088-4.65-3.08-4.8,0-.633,12.948-2.465,25.853-4.3,38.675-2.228,15.619-4.728,31.2-7.182,46.784-1.1,7.012-2.226,14.024-3.244,21.049a33.134,33.134,0,0,0,.118,6.874c.634,9.652,1.466,19.293,2.31,28.929.69,7.877,1.209,15.824,2.328,23.656.038.269.074.539.13.805.635,3.021,5.263,1.743,4.628-1.276Z"/><path class="b" d="M192.31,178.641c13.708,5.852,26.954,12.634,40.047,19.74a29.1,29.1,0,0,1,11.873,11.293,70.027,70.027,0,0,1,6.255,16.319c1.634,6.259,1.979,12.532,2.477,18.964q.921,11.915,1.864,23.827c1.186,15.081,2.371,30.163,3.455,45.253q1.853,25.788,3.208,51.608c.156,3.074,4.957,3.092,4.8,0Q265.1,342.211,263.42,318.8c-1.081-15.36-2.276-30.712-3.483-46.064q-.93-11.827-1.855-23.654c-.55-7.07-.709-14.273-2.216-21.223a82.194,82.194,0,0,0-5.939-17.567,38.025,38.025,0,0,0-3.773-6.537A34.393,34.393,0,0,0,239.9,197.6a62.934,62.934,0,0,0-9.864-5.923q-4.824-2.587-9.686-5.1c-6.639-3.417-13.36-6.674-20.182-9.711q-2.706-1.2-5.43-2.365a2.481,2.481,0,0,0-3.284.861,2.418,2.418,0,0,0,.861,3.284Z"/><path class="d" d="M221.672,258.171a117.227,117.227,0,0,1-1.336,43.949c-2.629,11.127-3.821,46.059-2.013,58.307"/><path class="d" d="M95.5,258.171a117.226,117.226,0,0,0,1.335,43.949c2.629,11.127,3.822,46.059,2.013,58.307"/><path class="d" d="M132.4,196.81a90.839,90.839,0,0,0,22.867,3.224,99.1,99.1,0,0,0,25.981-3.976"/><path class="b" d="M95.784,368.064H263.513c3.088,0,3.093-4.8,0-4.8H95.784c-3.089,0-3.094,4.8,0,4.8Z"/><path class="b" d="M111.124,346.076q18.365,0,36.729.024,20.943.018,41.886.037,7.86.006,15.719.009c3.089,0,3.094-4.8,0-4.8q-16.4,0-32.8-.024-21.492-.019-42.982-.037-9.276-.006-18.553-.009c-3.089,0-3.094,4.8,0,4.8Z"/><path class="d" d="M90.739,340.882c28.705,0,111.46.1,132.888.1"/><path class="b" d="M154.23,208.523c0,6.379.03,12.758.049,19.137q.055,18.171.117,36.343.069,21.051.14,42.1.061,18.37.122,36.741.032,10.085.059,20.168c0,.267,0,.534,0,.8,0,3.089,4.8,3.094,4.8,0,0-5.793-.03-11.586-.049-17.378q-.055-17.721-.116-35.44l-.141-42.051q-.063-18.77-.122-37.539-.033-10.908-.059-21.816c0-.356,0-.712,0-1.068,0-3.088-4.8-3.093-4.8,0Z"/><path class="f" d="M188.915,171.431a49.142,49.142,0,0,0-5.672-4.129c-3.079,5.286-11.375,19.392-14.792,24.408.986.618,1.571.989,1.571.989,2.828,1.795,21.091,7.259,23.267,6.772.128-6.381.128-19.382-.1-23.676A25.841,25.841,0,0,0,188.915,171.431Z"/><path class="f" d="M124.571,173.618a46.9,46.9,0,0,1,7.524-5.977c1.795,4.207,7.509,14.09,9.266,17.189,1.227,2.163,2.83,4.909,4.586,7.826l-.093.043c-2.829,1.795-21.092,7.259-23.267,6.772-.128-6.381-.129-19.382.1-23.676A17.49,17.49,0,0,1,124.571,173.618Z"/><path class="b" d="M129.631,167.928c2.234,5.439,5.351,10.551,8.255,15.651,3.144,5.521,6.354,11,9.731,16.385,2.078,3.312,4.2,6.608,6.5,9.771a2.472,2.472,0,0,0,3.284.861,2.419,2.419,0,0,0,.861-3.284c-7.468-10.26-13.738-21.5-19.848-32.6-.85-1.544-1.689-3.094-2.5-4.659-.339-.656-.673-1.315-.994-1.98q-.235-.483-.46-.973c-.045-.1-.089-.2-.135-.3-.285-.628.172.43-.065-.147a2.478,2.478,0,0,0-2.952-1.676,2.416,2.416,0,0,0-1.677,2.952Z"/><path class="b" d="M181.177,166.079c-3.361,5.769-6.757,11.52-10.239,17.217-2.848,4.66-5.907,9.125-9.041,13.594-2.061,2.936-4.115,5.877-6.2,8.8a2.42,2.42,0,0,0,.862,3.284,2.452,2.452,0,0,0,3.283-.861c3.442-4.823,6.825-9.687,10.227-14.537,3.635-5.181,6.785-10.734,10.015-16.171q2.637-4.438,5.237-8.9c1.558-2.674-2.589-5.093-4.145-2.422Z"/><path class="b" d="M130.769,165.642a41.158,41.158,0,0,0-9.062,7.541,4.646,4.646,0,0,0-1.417,2.612c-.038.443-.041.892-.056,1.336-.043,1.265-.065,2.531-.083,3.8q-.133,9.27.036,18.544a2.433,2.433,0,0,0,1.762,2.314,13.348,13.348,0,0,0,5.271-.563c2.441-.552,4.857-1.222,7.258-1.927,2.5-.733,4.981-1.513,7.435-2.378a26.682,26.682,0,0,0,5.152-2.145c2.625-1.619.217-5.772-2.423-4.145a7.415,7.415,0,0,1-.681.366c-.173.085-.351.161-.526.241-.509.233.515-.206-.044.019-.91.367-1.829.709-2.754,1.036-2.365.834-4.759,1.587-7.164,2.3-2.349.694-4.711,1.352-7.1,1.907-.886.206-1.775.384-2.67.546-.18.033-.687.057.051,0-.145.011-.29.041-.436.045-.332.009-1.082-.114-.1.072l1.762,2.314c-.154-7.871-.306-15.811.1-23.676l-.327,1.212c2.045-2.838,5.442-5.277,8.429-7.221,2.58-1.678.177-5.836-2.423-4.144Z"/><path class="b" d="M182.684,169.786c2.988,1.945,6.383,4.383,8.429,7.221l-.328-1.212c.409,7.865.258,15.805.1,23.676l1.762-2.314c.973-.184.283-.064-.039-.068-.165,0-.33-.036-.494-.049.749.06.216.03.051,0-.894-.161-1.784-.34-2.67-.546-2.385-.555-4.748-1.213-7.1-1.907-2.405-.711-4.8-1.464-7.164-2.3-.926-.327-1.845-.669-2.755-1.036-.463-.186.417.194-.043-.019-.155-.071-.312-.138-.466-.211a7.991,7.991,0,0,1-.742-.4c-2.637-1.626-5.05,2.524-2.423,4.145a26.717,26.717,0,0,0,5.153,2.145c2.453.865,4.938,1.645,7.435,2.378,2.4.705,4.816,1.375,7.258,1.927a13.348,13.348,0,0,0,5.271.563,2.422,2.422,0,0,0,1.762-2.314q.181-9.269.036-18.544c-.018-1.265-.041-2.531-.084-3.8-.015-.444-.017-.893-.056-1.336a4.6,4.6,0,0,0-1.416-2.612,41.187,41.187,0,0,0-9.063-7.541c-2.6-1.69-5,2.464-2.422,4.144Z"/><path class="b" d="M179.206,231.039c6.65.032,13.3.1,19.95.153q4.875.042,9.75.079c.537,0,2.584-.262,2.893.111-.1-.125-.037.656-.039.774q-.017.783-.035,1.568-.04,1.718-.077,3.435a5.607,5.607,0,0,1-.016.888c.013-.012-.032-.09-.017-.1.115-.09-.492.074-.2.012a5.661,5.661,0,0,1-1.114.026q-1.53,0-3.058-.01-4.228-.017-8.455-.04-8.716-.045-17.433-.082c-.55,0-2.2.227-2.542-.078.087.077.007-.113.009-.346,0-.518,0-1.037,0-1.555v-3.785c0-.21-.113-.841,0-1.028-.061.1.133-.01.379-.021,3.075-.15,3.093-4.951,0-4.8-2.447.119-4.756,1.582-5.115,4.158a20.773,20.773,0,0,0-.064,2.845c0,2.49-.568,5.818,1.29,7.791,2.145,2.278,6.037,1.617,8.886,1.629q5.23.021,10.463.05,5.284.029,10.569.054,1.986.007,3.974.015a10.374,10.374,0,0,0,4.239-.472,4.976,4.976,0,0,0,2.454-2.195,8.334,8.334,0,0,0,.565-3.863c.026-1.218.056-2.436.083-3.655a6.373,6.373,0,0,0-.606-3.637c-1.245-2.048-3.38-2.464-5.59-2.478q-2.52-.017-5.039-.037c-8.7-.07-17.406-.163-26.109-.2C176.117,226.223,176.113,231.023,179.206,231.039Z"/><path class="b" d="M210.132,250.35c-.007,3.769-.115,7.539-.158,11.308-.027,2.336-.093,4.682-.035,7.018.017.679.033.814-.582.887a24.268,24.268,0,0,1-2.79,0l-15.195.017-7.507.009-2.786,0c-.671,0-1.007.151-1.173-.421a9.086,9.086,0,0,1,.063-2.376q.038-1.264.083-2.528.084-2.388.177-4.776c.106-2.835.234-5.673.24-8.51.007-3.089-4.793-3.093-4.8,0-.012,5.95-.5,11.89-.555,17.838a5.4,5.4,0,0,0,1.712,4.25,6.131,6.131,0,0,0,4.373,1.323l7.408-.008,16.8-.019c2.527,0,5.566.483,7.6-1.324,2.229-1.975,1.711-5.118,1.727-7.79.029-4.968.18-9.935.19-14.9.005-3.088-4.795-3.093-4.8,0Z"/><path class="b" d="M135.822,226.239c-7.763.037-15.525.117-23.288.182l-5.566.044a18.311,18.311,0,0,0-5.015.275,5.094,5.094,0,0,0-2.785,2.1,5.939,5.939,0,0,0-.7,3.539c.028,1.292.061,2.583.088,3.875a8.347,8.347,0,0,0,.565,3.863c1.712,3.206,5.6,2.672,8.655,2.66q4.936-.019,9.872-.048,5.358-.027,10.715-.054,2.265-.009,4.53-.018a23.566,23.566,0,0,0,3.951-.11A4.942,4.942,0,0,0,141,237.827c.049-1.164,0-2.341,0-3.506,0-1.094.051-2.2,0-3.294-.135-2.867-2.431-4.655-5.179-4.788-3.088-.151-3.08,4.65,0,4.8.554.027.379.007.379.628v3.265a11.171,11.171,0,0,1,0,2.765c-.074.249-.011.076.018.052-.216.182-.715.1-1,.1-5.483.006-10.966.043-16.449.072q-4.486.023-8.973.045c-1.988.008-4.045-.13-6.023.035-.559.046-.376-.135-.385-.618-.022-1.144-.05-2.288-.076-3.431q-.021-.9-.04-1.8a4.757,4.757,0,0,0-.035-.793,3.112,3.112,0,0,1,.829-.078c3,.011,5.993-.044,8.988-.069,7.59-.063,15.181-.14,22.772-.177C138.909,231.023,138.916,226.223,135.822,226.239Z"/><path class="b" d="M100.1,250.35c.008,4.324.134,8.648.175,12.971q.016,1.869.021,3.737a10.951,10.951,0,0,0,.35,3.972,5.2,5.2,0,0,0,3.53,3.173,15.191,15.191,0,0,0,3.736.162l16.448.019,7.93.009a19.06,19.06,0,0,0,3.43-.1,5.145,5.145,0,0,0,3.857-3.241c.611-1.608.31-3.524.256-5.212-.06-1.852-.131-3.705-.2-5.557-.116-3.1-.263-6.2-.27-9.3s-4.807-3.094-4.8,0c.011,5.336.348,10.671.506,16,.016.518.316,2.178-.021,2.5-.4.377-1.944.111-2.488.11l-6.815-.007q-7.761-.009-15.521-.018l-3.1,0c-.461,0-1.661.185-1.939-.115-.319-.344-.085-1.728-.085-2.25,0-1.183-.008-2.367-.018-3.551-.039-4.432-.17-8.866-.178-13.3-.006-3.088-4.806-3.094-4.8,0Z"/><path class="b" d="M69.5,198.147c13.027-6.448,26.9-11.049,40.779-15.3,4.23-1.3,8.481-2.532,12.777-3.592,3-.739,1.727-5.369-1.276-4.628-7.643,1.884-15.166,4.267-22.636,6.736-6.305,2.084-12.612,4.224-18.786,6.672-4.515,1.79-8.929,3.813-13.281,5.967a2.4,2.4,0,1,0,2.423,4.145Z"/><path class="b" d="M50.741,224.3c1.274.926,2.905.013,3.538-1.183a13.488,13.488,0,0,0,.864-2.394c.748-2.473,1.378-4.983,2.012-7.486,1.608-6.346,3.113-12.717,4.633-19.084,2.706-11.335,5.661-22.614,8.486-33.92,1.671-6.686,3.363-13.367,4.953-20.072a2.475,2.475,0,0,0-1.676-2.952c-12.566-4.917-25.1-9.981-37.939-14.157a2.407,2.407,0,0,0-2.71,1.1c-4.922,11.155-10.093,22.369-13.823,33.991-3.4,10.582-7.051,21.077-10.048,31.784-.747,2.668-1.466,5.349-2.038,8.061-.806,3.83-1.884,7.542-2.992,11.3-.646,2.191-1.266,4.393-1.723,6.632-.445,2.181-.641,4.393-.946,6.595A89.615,89.615,0,0,0,0,234.48c-.025,8.383,3.927,16.629,9.839,22.473a31.958,31.958,0,0,0,10.185,6.785A30.719,30.719,0,0,0,32.5,265.9a85.71,85.71,0,0,0,15.489-1.93c3.914-.791,7.817-1.645,11.642-2.8,6.971-2.1,13.768-4.725,20.685-6.99,1.169-.382,2.341-.754,3.53-1.069,2.983-.792,1.717-5.423-1.276-4.629-6.262,1.662-12.323,4.15-18.46,6.211a136.055,136.055,0,0,1-23.48,5.726c-4.418.651-9.248,1.157-13.68.373a25.67,25.67,0,0,1-10.224-4.3c-6.1-4.252-10.854-11.518-11.762-18.957a40.324,40.324,0,0,1,.55-10.652A117.744,117.744,0,0,1,7.583,214.3c1.09-4.217,2.587-8.328,3.54-12.58.582-2.593,1.1-5.186,1.784-7.757,2.957-11.157,6.7-22.1,10.314-33.052,3.6-10.9,8.164-21.455,12.78-31.962l1.045-2.373-2.71,1.1c12.838,4.176,25.373,9.241,37.939,14.158L70.6,138.88c-3.017,12.72-6.275,25.386-9.466,38.062-2.524,10.025-4.922,20.075-7.386,30.114-.8,3.262-1.609,6.525-2.49,9.767-.29,1.068-.583,2.137-.92,3.192a9.791,9.791,0,0,0-.35,1.018c-.039.2.337-.613.086-.214s.722-.665.708-.658l1.211-.328,1.172.317a2.419,2.419,0,0,0-3.284.861,2.454,2.454,0,0,0,.861,3.284Z"/></svg>