<svg xmlns="http://www.w3.org/2000/svg" width="232.24" height="366.002" viewBox="0 0 232.24 366.002"><defs><style>.a{fill:#ad7b59;}.b{fill:#211715;}.c{fill:#fff;}.d{fill:#f4b3b3;}.e{fill:#a0a0a0;}</style></defs><path class="a" d="M82.525,180.96c-8.824,2.31-15.346,4.468-15.346,4.468-17.15,3.639-28.782-8.135-28.685-18.872a110.408,110.408,0,0,1,3.4-23.778c2.642-9.436,4.529-26.044,4.525-49.067-1.128-33.97,7.809-58.6,21.9-72.091C76.8,13.49,95.939,2.415,117.439,2.415a78.049,78.049,0,0,1,31.208,5.977l2.8,1.134,5.67,3.078c5.059,2.747,6.41,4.839,11.058,9.323,10.749,10.371,18.22,29.031,19.41,45.74.344,4.821,1.133,17.363.373,26.044.382,28.685,5.67,44.74,8.4,52.643a52.5,52.5,0,0,1,3.315,17.97c.1,10.736-13.247,24.639-28.588,19.137,0,0-36-7.556-54.222-8C106.934,175.219,93.082,178.2,82.525,180.96Z"/><path class="b" d="M168.159,167.763c-3.873,5.08-10.686,7.923-17.075,8.009-3.086.041-3.095,4.842,0,4.8A27.105,27.105,0,0,0,172.3,170.186a2.414,2.414,0,0,0-.861-3.284,2.46,2.46,0,0,0-3.283.861Z"/><path class="b" d="M52.858,168.3c7.236,9.511,18.906,14.826,30.774,14.976,3.09.039,3.092-4.761,0-4.8-10.01-.126-20.466-4.5-26.629-12.6a2.479,2.479,0,0,0-3.284-.861,2.415,2.415,0,0,0-.861,3.283Z"/><path class="c" d="M71.327,183.738c1-.342,17.436-8.029,17.78-8.153,5.2-1.877,4.992-5.218,5.647-8.955a70.557,70.557,0,0,0,1.069-8.976c-6.417-3.014-12.34-7.971-17.523-14.175a55.548,55.548,0,0,1-10.726-21.293l-.631.06c-3.235.808-5.782-.82-7.585-2.258a20.609,20.609,0,0,1-5.331-7A32.437,32.437,0,0,1,50.719,95.8a10.836,10.836,0,0,1,1.133-4.355,7.656,7.656,0,0,1,5.505-3.66,8.111,8.111,0,0,1,6.488,1.9l1.591,1.144C76.147,80.823,94,64,103.605,54.572c-.669,5.655-4.226,17.625-.452,16.5,15.868-4.533,28.645-13.808,38.707-26.893,2.113,7.036,4.78,17,7.232,21.6,3.36,6.3,12.809,23.2,22.49,26.963a7.8,7.8,0,0,1,7.571-3.174,7.654,7.654,0,0,1,5.5,3.66,10.816,10.816,0,0,1,1.134,4.354,32.441,32.441,0,0,1-3.308,17.2,20.621,20.621,0,0,1-5.331,7c-1.887,1.505-5.3,1.4-7.664,1.816-.458,1.6-.929,2.932-1.177,3.685-1.854,5.034-12.281,22.955-25.362,29.375a75.225,75.225,0,0,0,1.1,9.978c.655,3.737.45,7.078,5.646,8.955.344.124,15.082,7.135,15.608,7.352,0,0-21.667,21.709-50.705,21.709S71.327,183.738,71.327,183.738Z"/><path class="b" d="M174.362,93.164c2.415-2.062,6.64-1.6,8.224,1.276a11.6,11.6,0,0,1,.919,5.348,29.044,29.044,0,0,1-.58,6.384,27.761,27.761,0,0,1-4.784,11.159c-.958,1.256-2.128,2.67-3.7,3.116a40.049,40.049,0,0,1-5.272.778,2.415,2.415,0,0,0-1.676,2.953,2.463,2.463,0,0,0,2.952,1.676c1.642-.237,3.315-.291,4.932-.689a10.061,10.061,0,0,0,4.83-2.928,28.2,28.2,0,0,0,6.155-10.517A34.407,34.407,0,0,0,188.3,99.346c-.126-4.174-1.032-8.163-4.706-10.6a10.568,10.568,0,0,0-12.621,1.028,2.421,2.421,0,0,0,0,3.394,2.45,2.45,0,0,0,3.394,0Z"/><path class="b" d="M168.312,116.6a27.628,27.628,0,0,1-1.339,7.042c-.244.809-.51,1.61-.779,2.411-.09.268-.186.535-.278.8-.028.079-.064.155-.093.233-.153.411.236-.519.028-.066a62,62,0,0,1-3.635,6.719,67.058,67.058,0,0,1-14.409,16.946,26.633,26.633,0,0,1-10.689,5.509c-3.009.692-1.736,5.321,1.276,4.629,8.089-1.86,14.819-7.782,20.1-13.914a73.3,73.3,0,0,0,11.314-17.05,35.636,35.636,0,0,0,3.3-13.261c.1-3.089-4.7-3.086-4.8,0Z"/><path class="b" d="M65.542,87.982a10.63,10.63,0,0,0-11.509-1.646c-3.912,1.838-5.4,5.6-5.732,9.68-.672,8.215,1.813,17.43,7.311,23.692,3.033,3.455,7.282,5.876,11.969,4.852,3.017-.659,1.74-5.287-1.276-4.629-3.312.724-6.408-2.245-8.171-4.713A29.666,29.666,0,0,1,53.006,98c.028-1.821.04-4.07,1.095-5.645a5.589,5.589,0,0,1,8.047-.979,2.462,2.462,0,0,0,3.394,0,2.421,2.421,0,0,0,0-3.394Z"/><path class="b" d="M62.9,109.991a77.046,77.046,0,0,0,6.228,23.427,57.426,57.426,0,0,0,20.622,23.6,38.369,38.369,0,0,0,15.072,5.883,2.48,2.48,0,0,0,2.952-1.677,2.418,2.418,0,0,0-1.676-2.952C96.851,156.9,89,151.516,82.7,144.831a54.456,54.456,0,0,1-13.033-24.117c-.515-2-.942-4.032-1.294-6.072-.323-1.865-.482-3.036-.679-4.651a2.475,2.475,0,0,0-2.4-2.4,2.414,2.414,0,0,0-2.4,2.4Z"/><path class="b" d="M139.734,45.448c2.418,8.135,4.447,16.471,8.588,23.94,3.74,6.747,7.962,13.465,13.339,19.039,2.931,3.038,6.421,5.9,10.561,7.049,2.981.825,4.253-3.8,1.276-4.629-2.92-.808-5.585-2.951-7.873-5.235a61.171,61.171,0,0,1-7.212-8.92c-3.7-5.427-7.264-11.207-9.428-17.416-1.733-4.973-3.123-10.059-4.623-15.1-.878-2.954-5.512-1.7-4.628,1.276Z"/><path class="b" d="M140.134,42.523a76.467,76.467,0,0,1-20.985,19.048,68.232,68.232,0,0,1-12.859,6c-1.121.386-2.252.749-3.392,1.077a2.426,2.426,0,0,0-.528.148c.065-.04.582,0,.246-.052a2.019,2.019,0,0,1,.788.2c.041.024.7.769.477.443-.246-.354.09.42.061.126a3.041,3.041,0,0,1-.09-.386c-.017.57,0-.053,0-.3a16.546,16.546,0,0,1,.126-2.375c.4-3.671,1.544-7.94,2.03-11.885.267-2.167-2.743-3.027-4.1-1.7-10.335,10.148-20.9,20.063-31.462,29.975q-4.044,3.8-8.1,7.578c-2.264,2.112,1.136,5.5,3.394,3.395Q81.685,78.95,97.446,63.88q3.947-3.788,7.856-7.611l-4.1-1.7a1.383,1.383,0,0,1-.042.3c-.026.169-.052.337-.079.505-.073.45-.152.9-.234,1.346-.2,1.08-.41,2.157-.618,3.234-.4,2.067-.779,4.138-1.027,6.229a11.623,11.623,0,0,0,.13,4.671,3.574,3.574,0,0,0,4.311,2.565,47.566,47.566,0,0,0,7.216-2.449,77.234,77.234,0,0,0,7.218-3.3A74.631,74.631,0,0,0,131.2,58.839a82.628,82.628,0,0,0,12.331-12.922,2.481,2.481,0,0,0,0-3.394,2.414,2.414,0,0,0-3.394,0Z"/><path class="b" d="M149.285,6.078A82.947,82.947,0,0,0,114.8.07,78.517,78.517,0,0,0,80.16,10.2,61.4,61.4,0,0,0,60.121,27.418,78.447,78.447,0,0,0,48.2,53.2c-3.594,13.141-4.62,26.929-4.187,40.507.1,3.081,4.9,3.094,4.8,0C48.154,72.956,50.734,50.483,62.3,32.685a53.855,53.855,0,0,1,17-16.406A75.053,75.053,0,0,1,110.467,5.2a78.068,78.068,0,0,1,37.542,5.512,2.417,2.417,0,0,0,2.953-1.677,2.46,2.46,0,0,0-1.677-2.952Z"/><path class="b" d="M190.355,93.711a142.25,142.25,0,0,0,.073-18.5,121.29,121.29,0,0,0-1.587-16.387c-2.328-12.652-7.5-25.351-15.849-35.242-2.162-2.562-4.638-4.864-7.01-7.228a34,34,0,0,0-7.656-5.82c-2.709-1.488-5.134,2.655-2.423,4.145a27.92,27.92,0,0,1,6.22,4.609c2.122,2.079,4.3,4.149,6.3,6.345a59.238,59.238,0,0,1,9.5,14.706,80.358,80.358,0,0,1,5.9,17.791,101.246,101.246,0,0,1,1.737,15.716,147,147,0,0,1-.006,19.867,2.419,2.419,0,0,0,2.4,2.4,2.449,2.449,0,0,0,2.4-2.4Z"/><path class="b" d="M44.016,93.711c0,9.409-.284,18.831-1.136,28.205a120.621,120.621,0,0,1-2.913,18.754A121.736,121.736,0,0,0,36.178,164a21.887,21.887,0,0,0,1.2,9.379,22.728,22.728,0,0,0,5.575,8.25c6.7,6.289,16.061,7.925,24.865,6.115,3.024-.621,1.744-5.249-1.276-4.628-6.75,1.387-14.2.317-19.53-4.283a18.527,18.527,0,0,1-5.005-6.73c-1.168-2.887-1.191-5.168-1.018-8.273a113.739,113.739,0,0,1,3.58-21.773,124.232,124.232,0,0,0,2.943-18.365c.99-9.957,1.3-19.977,1.3-29.979,0-3.089-4.8-3.094-4.8,0Z"/><path class="b" d="M185.555,93.711c.218,15.245,1.761,30.632,5.954,45.334,1.549,5.429,3.738,10.687,4.866,16.229a44.58,44.58,0,0,1,.831,6.763,19.571,19.571,0,0,1-.214,4.942,18.454,18.454,0,0,1-4,7.9,20.977,20.977,0,0,1-9.118,6.435,18.349,18.349,0,0,1-12.152-.168,2.4,2.4,0,0,0-1.276,4.628,23.487,23.487,0,0,0,22.915-4.5,25.329,25.329,0,0,0,6.617-8.436,21.556,21.556,0,0,0,2.039-10.578,56.117,56.117,0,0,0-2.751-14.768c-.707-2.19-1.489-4.355-2.177-6.552a135.629,135.629,0,0,1-4.069-16.783,189.538,189.538,0,0,1-2.663-30.448c-.044-3.086-4.844-3.095-4.8,0Z"/><path class="b" d="M93.373,158.519a69.685,69.685,0,0,1-.854,7.011c-.25,1.466-.388,2.972-.776,4.411a3.88,3.88,0,0,1-1.809,2.6,19.53,19.53,0,0,1-2.515,1.18c-4.109,1.867-8.189,3.8-12.289,5.685q-1.624.747-3.251,1.485c-.374.169-.749.334-1.123.5-.61.274.5-.175-.067.026a2.462,2.462,0,0,0-1.676,2.953,2.421,2.421,0,0,0,2.952,1.676c1.621-.58,3.187-1.395,4.75-2.112q3.814-1.749,7.619-3.52,2.754-1.276,5.508-2.549c.025-.012.444-.187.442-.2,0,.016-1.237.507-.149.081.314-.124.635-.259.941-.4a9.984,9.984,0,0,0,1.418-.756,8.977,8.977,0,0,0,3.5-4.277,24.27,24.27,0,0,0,1.069-5.056c.488-2.9.906-5.81,1.105-8.749a2.4,2.4,0,1,0-4.8,0Z"/><path class="b" d="M140.569,157.142a97.288,97.288,0,0,0,1.632,13.037,9.762,9.762,0,0,0,6.469,7.573c.978.387-.577-.3.1.032.281.136.566.263.848.4q1.306.612,2.61,1.23,3.531,1.668,7.06,3.34c1.6.756,3.18,1.568,4.806,2.26a2.482,2.482,0,0,0,3.284-.861,2.417,2.417,0,0,0-.861-3.284c-3.476-1.48-6.857-3.231-10.272-4.846-1.645-.778-3.284-1.571-4.939-2.326a19.23,19.23,0,0,1-2.434-1.146,3.872,3.872,0,0,1-1.776-2.479,45.413,45.413,0,0,1-.89-5.02,72,72,0,0,1-.836-7.905c-.159-3.073-4.96-3.092-4.8,0Z"/><path class="d" d="M46.975,362.172c.06-.35.72-5,.72-5l.3-1.68c.04-.28.18-1.11.38-2.39-7.22,6.82-16.48,12.27-25.9,9.99-5.28-1.28-9.78-4.92-12.96-9.33-8.61-11.96-7.75-28.11-5.9-42.74,3.84-30.5,10.34-57.44,19.46-86.8,2.37-7.64,5.1-15.52,10.74-21.2.92-.93,3.81-3.37,4.12-3.6,8.688-6.362,23.827-12.425,37.043-17.34,11.413,5.937,28.713,11.117,45.034,11.151,15.462.05,35.817-5.4,46.273-11.507,6.612,2.836,12.912,5.567,19.687,8.332a76.472,76.472,0,0,1,17.01,10.411c13.129,10.291,15.9,28.726,17.687,45.311,2.6,24.116,5.37,44.782,7.971,68.9,1.148,10.64,2.255,21.682-1.2,31.811s-12.836,17.767-23.515,17.069a30.452,30.452,0,0,1-11.947-3.371v1.864c-27.128,0-107.8.1-144.146.1"/><path class="b" d="M47.835,364.554q28.619,0,57.238-.035,31.235-.029,62.469-.056,12.22-.009,24.439-.012c3.089,0,3.094-4.8,0-4.8q-25.326,0-50.652.035-32.166.029-64.334.055-14.58.01-29.16.013c-3.088,0-3.094,4.8,0,4.8Z"/><path class="b" d="M48.611,230.775c.23,4.986,1.1,9.991,1.8,14.926.821,5.816,1.662,11.64,2.733,17.416.729,3.932,1.71,8.176.26,12.057a2.42,2.42,0,0,0,1.676,2.952,2.452,2.452,0,0,0,2.952-1.676c1.432-3.832.908-8.1.22-12.035-.48-2.739-1-5.468-1.442-8.214-1-6.2-1.913-12.441-2.685-18.6-.285-2.265-.606-4.545-.711-6.828-.141-3.075-4.942-3.093-4.8,0Z"/><path class="b" d="M49.289,362.81c.36-2.151.6-4.318.982-6.464.154-.866.282-1.738.418-2.606a2.614,2.614,0,0,0-.242-1.85,2.4,2.4,0,0,0-4.386.574c-.387,2.468-.8,4.927-1.156,7.4-.079.556-.151,1.115-.244,1.67a2.606,2.606,0,0,0,.242,1.849,2.4,2.4,0,0,0,4.386-.573Z"/><path class="b" d="M188.425,359.572c.034.3.08.592.12.888l-.086-.638c.1.893.255,1.782.388,2.671l.044.3a2.474,2.474,0,0,0,2.952,1.676,2.426,2.426,0,0,0,1.434-1.1l.242-.573a2.4,2.4,0,0,0,0-1.276l-.3-1.993-.043-.287.086.638c-.034-.3-.079-.593-.12-.888l.086.638-.006-.05a2.464,2.464,0,0,0-2.4-2.4l-.638.085a2.407,2.407,0,0,0-1.059.617l-.375.486a2.389,2.389,0,0,0-.328,1.212Z"/><path class="b" d="M188.226,295.813c0-4.278-.106-8.553.291-12.819.318-3.406,1.024-6.735,1.516-10.114,1.319-9.07,2.156-18.214,2.954-27.342q.829-9.474,1.5-18.962a2.4,2.4,0,1,0-4.8,0c-.762,10.791-1.647,21.576-2.766,32.335-.415,4-.878,8.21-1.416,12.023-.485,3.442-1.193,6.839-1.6,10.293a124.117,124.117,0,0,0-.477,14.586c0,3.088,4.8,3.093,4.8,0Z"/><path class="c" d="M41.639,298.323C44.6,295.229,50.6,289.736,52,285.694c2.231-6.438,3.2-8.444,5.379-14.074,1.054-2.722,2.375-6.27,4.5-8.273,1.172-1.106,3.756-3.452,5.6-3.881a11.028,11.028,0,0,1,6.073-3.836c1.523-1.675,7.529-3.13,9.341-3.3a10.076,10.076,0,0,1,2.512.035c7.718-2.907,9.877-3.632,14.929-6.287,3.426-1.8,6.188-3.856,9.925-2.847a5.613,5.613,0,0,1,2.785,2.207c1,2.458-.15,4.548-1.889,6.145-6.494,5.965-11.393,7.48-16.046,9.946q.219.353.476.751a22.279,22.279,0,0,1,2.905,5.585,33.663,33.663,0,0,1,.766,10.177,68.176,68.176,0,0,1-1.519,8.312,4.938,4.938,0,0,1-2.084,3.072c-.158.7-.248,1.109-.248,1.109-1.318,5.928-5.437,10.117-12.817,13.678a71.311,71.311,0,0,1-8.93,2.9c-6,5.116-8.681,11.294-11.609,15.715"/><path class="b" d="M43.336,300.02c3.889-4.05,8.825-8.062,10.885-13.439,2.158-5.631,4.1-11.359,6.5-16.9a15.591,15.591,0,0,1,5.067-6.567,9.26,9.26,0,0,1,1.787-1.144,4.946,4.946,0,0,0,1.82-1.078,10.416,10.416,0,0,1,3.511-2.6c.421-.174.864-.214,1.289-.35a3.529,3.529,0,0,0,1.188-.749c.514-.4-.435.245.2-.141a13.364,13.364,0,0,1,3.175-1.325,32.97,32.97,0,0,1,3.405-.867c.224-.044.448-.083.673-.123.655-.118-.485.032.063-.009a9.638,9.638,0,0,1,2.141,0,6.462,6.462,0,0,1,3.123,1.852,20.518,20.518,0,0,1,3.051,3.238c.907,1.317,1.7,2.718,2.557,4.068a20.256,20.256,0,0,1,2.411,4.618c.937,2.931,5.573,1.678,4.629-1.276-1.1-3.446-3.3-6.613-5.3-9.6a20.458,20.458,0,0,0-6.991-6.714c-2.746-1.4-5.772-1.132-8.678-.45-2.676.627-6,1.447-7.983,3.472l1.059-.617a12.383,12.383,0,0,0-7.132,4.453l1.059-.617a12.694,12.694,0,0,0-4.4,2.528,19.6,19.6,0,0,0-3.219,3.04c-2.289,2.872-3.434,6.439-4.762,9.814-1.09,2.771-2.229,5.522-3.267,8.313-.555,1.5-1.1,3.422-1.7,4.652a17.651,17.651,0,0,1-2.337,3.489c-2.232,2.707-4.79,5.111-7.216,7.638-2.14,2.228,1.25,5.627,3.394,3.394Z"/><path class="b" d="M71.316,305.987a41.545,41.545,0,0,0-6.817,8.24c-1.57,2.426-2.932,4.981-4.522,7.4a2.417,2.417,0,0,0,.861,3.283,2.455,2.455,0,0,0,3.284-.861c1.547-2.349,2.877-4.832,4.4-7.2.425-.662.863-1.317,1.317-1.959.489-.693.789-1.094,1.179-1.578a34.665,34.665,0,0,1,3.7-3.927,2.418,2.418,0,0,0,0-3.394,2.455,2.455,0,0,0-3.395,0Z"/><path class="b" d="M93.092,289.9c-1.093,4.73-4.309,8.05-8.55,10.558q-.957.567-1.946,1.076c-.345.179-.691.355-1.041.523-.1.048-.815.358-.211.11-.937.385-1.9.707-2.863,1.024a66.491,66.491,0,0,1-6.751,1.926c-3.018.652-1.74,5.28,1.276,4.629,10.208-2.206,22.124-7.363,24.714-18.57.7-3.006-3.932-4.289-4.628-1.276Z"/><path class="b" d="M87.492,254.137c3.044-1.144,6.1-2.264,9.081-3.568,2.874-1.257,5.557-2.848,8.361-4.241a7.379,7.379,0,0,1,4.261-.885,2.46,2.46,0,0,1,1.315.664c.431.359.453.409.5,1.014.106,1.377-1.172,2.436-2.1,3.261a40,40,0,0,1-4.454,3.467,72.528,72.528,0,0,1-8.711,4.675,2.423,2.423,0,0,0-.861,3.284,2.45,2.45,0,0,0,3.283.861,70.574,70.574,0,0,0,9.033-4.891,48.909,48.909,0,0,0,5.286-4.163,9.171,9.171,0,0,0,3.221-5.3c.689-4.488-3.049-7.69-7.308-7.75-4.17-.058-7.827,2.755-11.411,4.53a115.611,115.611,0,0,1-10.773,4.41,2.467,2.467,0,0,0-1.677,2.952,2.42,2.42,0,0,0,2.953,1.676Z"/><path class="b" d="M80.486,264.587a30.485,30.485,0,0,1,6.389,9.367c1.829,4.381.775,9.177-.406,13.58-.8,2.987,3.828,4.261,4.629,1.276,1.429-5.328,2.468-11.1.3-16.381a35.488,35.488,0,0,0-7.52-11.236c-2.173-2.2-5.567,1.193-3.394,3.394Z"/><path class="b" d="M72.262,271.39a31.614,31.614,0,0,1,5.29,7.458c.009.019.195.524.257.733.053.178.1.358.139.54.028.129.043.3.016.072a13.188,13.188,0,0,1-.05,2.857,59.042,59.042,0,0,1-1.076,5.83,2.46,2.46,0,0,0,1.676,2.952,2.423,2.423,0,0,0,2.952-1.676c.823-4.03,2.273-8.754.646-12.755-1.439-3.536-3.977-6.548-6.456-9.405a2.421,2.421,0,0,0-3.394,0,2.447,2.447,0,0,0,0,3.394Z"/><path class="b" d="M96.177,268.5C97.4,273.4,97,278.326,96,283.214c-.425,2.066-.474,3.785-2.47,4.658-.184.08-.381.129-.565.2.535-.214.38-.014.1-.053-.169-.024-.346-.012-.517-.032.421.049-.131-.037-.208-.057a8.632,8.632,0,0,1-.934-.3c-.092-.045-.52-.2-.264-.136-.218-.056-.168-.311-.046.034-.618-1.75-3.447-2.6-4.387-.573-.578,1.247-1.409,2.849-2.9,3.137-1.386.267-2.036-.777-2.756-1.885a2.431,2.431,0,0,0-4.144,0,2.668,2.668,0,0,1-2.8,1.093c-1.385-.328-1.176-1.737-1.2-3.057a13.43,13.43,0,0,0-.981-5.587,25.255,25.255,0,0,0-3.586-5.559,2.415,2.415,0,0,0-3.394,0,2.457,2.457,0,0,0,0,3.394c1.282,1.6,2.934,3.86,3.16,5.818.255,2.207-.271,4.856,1.018,7.031a6.521,6.521,0,0,0,5.906,2.808,7.605,7.605,0,0,0,6.017-3.518H76.909c1.651,2.541,3.8,4.55,7.049,4.252s5.583-2.667,6.9-5.5l-4.387-.573c.96,2.716,3.925,4.06,6.692,4.014,3.036-.051,5.785-2.512,6.727-5.281a34.617,34.617,0,0,0,1.157-5.278,44.321,44.321,0,0,0,.713-5.512,33.825,33.825,0,0,0-.952-9.525c-.751-3-5.382-1.726-4.629,1.276Z"/><path class="c" d="M156.166,319.138A89.778,89.778,0,0,1,131.8,308.07a78.054,78.054,0,0,1-17.426-15.593,6.424,6.424,0,0,1-1.529-5.114c.282-1.9,3.077-4.443,4.25-2.923-2.755-2.222-4.418-3.535-4.182-6.128.306-3.363,3.227-5.1,6.08-3.363-6.709-3.932-7.886-6.57-6.8-9.641,1.193-3.37,4.585-3.752,9.457-.765a4.977,4.977,0,0,1,.56-7.387c2.434-1.682,6.437-.881,9.248.706,1.771,1,10.961,6.361,19.338,11.309,2.324-4.335,5.1-9.5,5.1-9.5l5.515,3.447c5.187,3.032,7.5,7.473,10.676,12.576,4.61,7.412,2.912,15.58,8.195,21.964"/><path class="e" d="M92.618,234.657h77.389a8.751,8.751,0,0,1,8.751,8.751V278.5a8.75,8.75,0,0,1-8.75,8.75H92.618a8.75,8.75,0,0,1-8.75-8.75V243.407a8.75,8.75,0,0,1,8.75-8.75Z" transform="translate(-145.779 353.476) rotate(-81.753)"/><path class="b" d="M106.505,307.706l27.8,4.029c3.895.565,8.739,1.933,12.539.534a11.233,11.233,0,0,0,7.262-8.636c.1-.6.175-1.212.263-1.818l3.883-26.786,5.073-35L164.9,229.17c.1-.672.2-1.344.292-2.016a11.381,11.381,0,0,0-3.236-10.012c-3.283-3.132-7.836-3.231-12.067-3.844l-17.536-2.541c-3.64-.528-7.279-1.072-10.922-1.584a11.311,11.311,0,0,0-13,9.691l-3.444,23.763-5.155,35.564-1.823,12.576c-.391,2.7-1.044,5.535-.524,8.244a11.183,11.183,0,0,0,9.016,8.695,2.473,2.473,0,0,0,2.952-1.676,2.42,2.42,0,0,0-1.676-2.953,6.7,6.7,0,0,1-4.509-2.59,6.487,6.487,0,0,1-1.048-2.263,5.52,5.52,0,0,1-.171-1.192c-.008-.233.08-1.607,0-.922.057-.483.14-.965.21-1.446l1.385-9.559,4.812-33.194,4.138-28.55c.314-2.166.383-4.886,1.616-6.743a6.425,6.425,0,0,1,4.119-2.724,6.106,6.106,0,0,1,1.209-.1c.221,0,1.255.083.585,0,.088.01.176.025.264.038q2.151.31,4.3.624l29.477,4.272a7.174,7.174,0,0,1,5.279,2.824,6.571,6.571,0,0,1,.993,2.29,5.509,5.509,0,0,1,.139,1.2c0,.245-.087,1.447,0,.752-.016.136-.039.272-.059.408l-1.095,7.553-4.629,31.935-4.425,30.527c-.294,2.031-.561,4.068-.883,6.095a6.342,6.342,0,0,1-6.57,5.8c-.17,0-1.155-.091-.413,0-.1-.013-.21-.031-.315-.046l-1.582-.229-30.2-4.378-2.619-.38a2.48,2.48,0,0,0-2.952,1.677A2.417,2.417,0,0,0,106.505,307.706Z"/><path class="b" d="M128.89,220.925q-3.409-.5-6.819-.992a2.632,2.632,0,0,0-1.849.242,2.4,2.4,0,0,0-.861,3.283,2.3,2.3,0,0,0,1.434,1.1q3.409.495,6.819.992a2.635,2.635,0,0,0,1.85-.242,2.4,2.4,0,0,0,.861-3.283,2.308,2.308,0,0,0-1.435-1.1Z"/><path class="c" d="M156.166,319.138C141.226,315,124.779,304.549,115,292.521c-1.211-1.49-2.43-3.258-2.149-5.158s3.077-4.443,4.25-2.923c-2.62-2.475-4.33-3.661-4.067-6.252.3-2.94,3.3-4.616,6.254-3.078-6.093-4.1-8.064-7.317-7.087-9.8,1.5-3.823,4.585-3.752,9.457-.765a4.977,4.977,0,0,1,.56-7.387c2.434-1.682,6.107-.8,8.873.867,7.185,4.326,18.471,10.954,27.669,16.464l4.767,2.763"/><path class="b" d="M160.022,271.857q-9.9-5.928-19.877-11.731c-2.245-1.313-4.49-2.627-6.746-3.923-3.08-1.77-6.936-3.117-10.485-2a7.089,7.089,0,0,0-4.651,4.564,7.62,7.62,0,0,0,1.7,7.474l2.908-3.77c-2.547-1.525-5.7-2.929-8.721-2.105a6.625,6.625,0,0,0-4.508,5.176c-1.151,5.518,4.019,9.035,8.148,11.48l2.423-4.144a6.277,6.277,0,0,0-9.359,3.577,7.052,7.052,0,0,0,.473,5.53,15.3,15.3,0,0,0,4.079,4.153c2.365,1.907,5.533-1.075,3.394-3.395-3.307-3.586-8.017,1.381-8.37,4.824-.488,4.757,3.684,8.506,6.728,11.593a83.71,83.71,0,0,0,23.473,16.623,92.334,92.334,0,0,0,14.9,5.67c2.98.834,4.251-3.8,1.276-4.628a81.277,81.277,0,0,1-39.128-24.147c-1.156-1.319-2.69-2.793-2.484-4.71a1.805,1.805,0,0,1,.592-1.15c.115-.127.525-.4.534-.437.058-.257.155.1-.079-.01-.213-.1-.653-.033-.837-.233l3.394-3.395a19.542,19.542,0,0,1-2.908-2.562,2.016,2.016,0,0,1-.581-1.7c.193-1.639,1.164-2.195,2.479-1.456,2.7,1.516,5.084-2.568,2.423-4.144a22.1,22.1,0,0,1-5.064-3.772,2.1,2.1,0,0,1-.461-.609c-.077-.128-.149-.259-.223-.388-.32-.556.054.225-.051-.1-.066-.2-.194-.958-.147-.405a5.508,5.508,0,0,1,0-.852c.024-.344-.088.4,0,.065.033-.127.055-.258.093-.385a3.074,3.074,0,0,1,.255-.693c.032-.062.346-.537.25-.4-.132.181.287-.256.089-.1a1.342,1.342,0,0,1,.468-.244,3.621,3.621,0,0,1,1.729.1,12.783,12.783,0,0,1,3.293,1.519c2.469,1.479,4.569-1.761,2.909-3.769a2.65,2.65,0,0,1-.106-3.4c-.158.209.48-.459.242-.262-.105.087.458-.27.541-.305a4.822,4.822,0,0,1,2.3-.231c2.2.2,4.047,1.349,5.909,2.428q7.866,4.556,15.69,9.186,4.842,2.854,9.668,5.738c2.657,1.591,5.073-2.557,2.423-4.145Z"/><path class="b" d="M154.431,282.578c-9.159-5.519-18.111-11.407-27.071-17.242-1.552-1.011-3.108-2.017-4.643-3.054-2.566-1.735-4.971,2.422-2.422,4.145,8.334,5.634,16.872,11,25.38,16.362,2.1,1.326,4.2,2.651,6.333,3.934,2.653,1.6,5.068-2.55,2.423-4.145Z"/><path class="b" d="M145.293,289.1c-8.736-5.431-17.318-11.116-25.887-16.806-2.58-1.714-4.987,2.442-2.422,4.145,8.568,5.69,17.15,11.375,25.886,16.806,2.631,1.635,5.044-2.515,2.423-4.145Z"/><path class="b" d="M137.839,296.282a151.237,151.237,0,0,1-19.285-13.756,2.468,2.468,0,0,0-3.394,0,2.419,2.419,0,0,0,0,3.394,158.759,158.759,0,0,0,20.257,14.507c2.669,1.567,5.087-2.58,2.422-4.145Z"/><path class="b" d="M160.2,265.187a20.561,20.561,0,0,1,6.411,6.294,43.345,43.345,0,0,1,5.028,8.669,83.163,83.163,0,0,1,2.454,9.638,23.857,23.857,0,0,0,4.493,9.564,2.417,2.417,0,0,0,3.4,0,2.458,2.458,0,0,0,0-3.394c-2.072-2.572-2.911-5.8-3.609-8.964a49.34,49.34,0,0,0-2.987-10.233,53.268,53.268,0,0,0-5.37-8.759,25.073,25.073,0,0,0-7.392-6.959c-2.657-1.59-5.074,2.558-2.423,4.144Z"/><path class="b" d="M19.592,318.659l19.68-21.81H35.878c6.285,7.762,12.711,15.407,19.073,23.105q2.49,3.014,4.957,6.045a30.365,30.365,0,0,1,2.3,2.94,2.657,2.657,0,0,1,.153,2.855,41.843,41.843,0,0,1-4.556,6.828q-2.475,3.368-5.216,6.524A63.356,63.356,0,0,1,41.221,355.91c-3.922,2.74-8.465,5.04-13.327,5.283-9.607.48-16.933-7.317-20.162-15.7-3.52-9.142-3.3-19.223-2.358-28.82,1.075-10.976,2.87-21.915,4.933-32.744,2.082-10.922,4.581-21.762,7.418-32.512,2.814-10.661,5.733-21.4,9.379-31.807a42.866,42.866,0,0,1,6.519-12.778,31.278,31.278,0,0,1,4.063-4.074c.561-.484,1.163-.936,1.7-1.442.158-.147.365-.16-.243.181.182-.1.362-.263.535-.385q.693-.492,1.4-.96c8.363-5.527,17.881-9.345,27.184-12.963q3.663-1.425,7.349-2.79l-1.849-.242A105.829,105.829,0,0,0,112.4,195.265c12.739,1.172,25.655-.8,37.871-4.43A79.317,79.317,0,0,0,167.5,183.8h-2.423c4.9,2.1,9.793,4.213,14.708,6.275a101.163,101.163,0,0,1,13.19,6.319,62.543,62.543,0,0,1,10.393,7.55,34.931,34.931,0,0,1,7.022,9.309c3.817,7.186,5.55,15.35,6.742,23.335,1.44,9.645,2.254,19.4,3.392,29.081,1.2,10.255,2.461,20.5,3.661,30.76q.951,8.136,1.845,16.277c.555,5.09,1.139,10.189,1.3,15.311.276,8.845-.649,18.707-6.682,25.683a21.7,21.7,0,0,1-8.924,6.349,20.641,20.641,0,0,1-11.583.564c-8.751-1.942-15.865-8.092-22.436-13.845a273.457,273.457,0,0,1-20.416-20.173q-1.91-2.064-3.806-4.14v3.394c10.39-9.975,21.4-19.295,32-29.037h-3.394c7.825,6.867,15.028,14.409,22.519,21.63,2.224,2.145,5.623-1.245,3.394-3.394-7.491-7.221-14.694-14.763-22.519-21.63a2.463,2.463,0,0,0-3.394,0c-10.606,9.742-21.611,19.062-32,29.037a2.444,2.444,0,0,0,0,3.394,309.027,309.027,0,0,0,24.763,24.785c8.639,7.508,18.444,15.415,30.514,15.37,10.7-.04,19.795-7.579,23.76-17.192,4.991-12.1,2.828-25.964,1.437-38.554-1.455-13.17-3.068-26.321-4.632-39.478q-1.194-10.041-2.319-20.089c-.631-5.695-1.2-11.4-2.11-17.058-1.671-10.373-4.58-20.909-11.219-29.268-3.395-4.273-7.876-7.575-12.407-10.557a99.412,99.412,0,0,0-16.594-8.27q-4.5-1.886-8.976-3.82-2.181-.936-4.364-1.874a3.078,3.078,0,0,0-2.863-.189c-.521.26-1.018.581-1.534.855a77.011,77.011,0,0,1-13.795,5.473c-10.663,3.247-21.907,5.26-33.082,4.774a100.29,100.29,0,0,1-35.14-8.216q-1.806-.784-3.577-1.645c-.588-.287-1.163-.609-1.756-.885a3.571,3.571,0,0,0-3.056.208q-4.326,1.618-8.624,3.315c-5.712,2.269-11.39,4.658-16.891,7.4A61.448,61.448,0,0,0,35.17,198.61a36.838,36.838,0,0,0-9.406,11.782c-2.715,5.43-4.435,11.29-6.2,17.077q-2.9,9.513-5.516,19.111c-3.391,12.507-6.337,25.135-8.71,37.876q-1.791,9.618-3.156,19.31c-.861,6.115-1.7,12.253-2.037,18.424-.616,11.232.518,23.387,7.3,32.783,3.379,4.684,8.014,8.617,13.645,10.234,5.78,1.66,11.778.548,17.124-1.968a49.763,49.763,0,0,0,14.539-11.121,116.009,116.009,0,0,0,12.23-15.407c1.859-2.793,3.406-5.841,1.908-9.168a16.374,16.374,0,0,0-2.392-3.465q-1.593-1.968-3.2-3.925c-3.62-4.422-7.281-8.808-10.934-13.2q-5.586-6.717-11.095-13.5a2.412,2.412,0,0,0-3.394,0L16.2,315.264c-2.065,2.289,1.319,5.694,3.394,3.395Z"/><path class="b" d="M107.343,134.88c3.048,2.985,7.882,3.847,11.971,3.844s8.925-.858,11.975-3.844c2.211-2.164-1.184-5.557-3.394-3.394-.1.1-.6.525-.309.292.274-.218-.376.251-.526.343q-.4.246-.82.455c-.188.094-.378.184-.571.268.324-.141-.023.006-.17.058a18.023,18.023,0,0,1-6.185,1.022,17.61,17.61,0,0,1-6.076-.98c-.023-.008-.724-.294-.28-.1-.161-.07-.321-.145-.478-.223-.311-.153-.616-.318-.911-.5-.226-.14-.438-.3-.658-.445.61.415-.025-.044-.174-.19-2.209-2.162-5.607,1.229-3.394,3.394Z"/><path class="b" d="M118.769,112.3a49.175,49.175,0,0,1,1.156,5.292l-.085-.638a3.242,3.242,0,0,1,.02.73l.085-.638a1.774,1.774,0,0,1-.08.329l.242-.573a1.356,1.356,0,0,1-.116.211l.375-.486a1.119,1.119,0,0,1-.173.171l.486-.376a3.357,3.357,0,0,1-.419.222l.573-.242a3.042,3.042,0,0,1-.706.206l.638-.086a2.775,2.775,0,0,1-.663,0l.638.086c-.25-.035-.495-.1-.746-.129a2.649,2.649,0,0,0-1.849.242,2.4,2.4,0,0,0-.861,3.283,2.3,2.3,0,0,0,1.434,1.1c.542.073,1.067.212,1.617.236a5.123,5.123,0,0,0,2.348-.553,3.319,3.319,0,0,0,1.86-2.2,5.636,5.636,0,0,0-.025-2.4c-.288-1.7-.682-3.394-1.121-5.067a2.4,2.4,0,0,0-4.628,1.276Z"/><path class="b" d="M90.642,98.011c-.884,2.871-.308,9.477,5.132,10.04,7.191-.043,7.573-8.03,5.153-11.785C98.945,93.191,93.118,91.912,90.642,98.011Z"/><path class="b" d="M146.99,98.011c.884,2.872.308,9.478-5.133,10.04-7.19-.044-7.573-8.031-5.153-11.786C138.686,93.191,144.513,91.912,146.99,98.011Z"/></svg>