<?xml version="1.0" encoding="utf-8"?>
<!-- Generator: Adobe Illustrator 25.0.1, SVG Export Plug-In . SVG Version: 6.00 Build 0)  -->
<svg version="1.1" id="レイヤー_1" xmlns="http://www.w3.org/2000/svg" xmlns:xlink="http://www.w3.org/1999/xlink" x="0px"
	 y="0px" viewBox="0 0 183.25 299.72" style="enable-background:new 0 0 183.25 299.72;" xml:space="preserve">
<style type="text/css">
	.st0{fill:#AD7B59;}
	.st1{fill:#FFFFFF;}
	.st2{fill:#211715;}
	.st3{fill:#F4B3B3;}
</style>
<path class="st0" d="M131.38,154.32c12.65,3.64,22.68-8.26,22.05-16.91c-0.36-4.94-1.58-9.79-3.61-14.31
	c-2.61-6.23-7.71-18.89-9.51-42c0.16-7.04-1.13-17.1-1.66-20.97c-1.83-13.41-8.82-28.06-18.03-35.86c-3.98-3.37-5.18-4.99-9.4-6.94
	l-4.73-2.19l-2.31-0.77c-8.18-2.8-16.85-3.89-25.47-3.19c-17.33,1.12-32.18,11.04-38.6,18.04c-10.65,11.6-16.57,31.93-13.9,59.25
	c1.2,18.56,0.55,32.04-1.09,39.79c-1.2,6.37-1.71,12.86-1.5,19.34c0.48,8.66,10.47,17.54,24.1,13.72c0,0,26.76,6.82,45.01,4.68
	C112.19,163.71,131.38,154.32,131.38,154.32z"/>
<path class="st1" d="M126.5,77.98l-3.27-3.69c-6.36-1.5-14-11.78-16.7-16.14c-1.9-3.06-4.18-9.84-5.95-14.58
	c-6.74,10.05-15.65,17.44-27.04,21.5c-2.71,1-0.67-7.92-0.45-12.09c-6.87,7.68-19.97,20.62-27.01,27.18l-5.14,5.02
	c-1.52-1.78-3.91-2.58-6.2-2.07c-1.83,0.38-3.39,1.57-4.25,3.24c-0.48,1.13-0.71,2.34-0.69,3.57c-0.09,4.8,1.14,9.54,3.56,13.69
	c1.15,2.1,2.74,3.93,4.66,5.36c1.62,1.13,3.93,2.39,6.7,1.25c1.38,4.18,3.34,8.15,5.81,11.79c2.07,2.17,3.97,4.16,3.97,4.16
	c3.95,4.31,8.73,7.77,14.05,10.18c-0.11,2.15-0.36,4.3-0.73,6.42c-0.53,3.02-0.36,5.72-4.56,7.23c-0.31,0.11-18,5.66-17.25,5.6
	c0,7.52,16.27,18.48,37.99,18.48c24.85,0,41.17-11.35,41.17-18.12l-0.36-0.15c-0.42-0.17-12.33-5.84-12.61-5.94
	c-4.2-1.52-4.03-4.21-4.56-7.23c-0.48-2.7-0.78-5.42-0.89-8.16c10.49-5.62,18.21-21.07,19.46-25.3c0.16-0.62,0.47-1.71,0.76-3.03
	c1.89-0.46,4.64-0.55,6.08-1.86c1.72-1.67,3.06-3.69,3.93-5.92c1.87-4.43,2.48-9.28,1.77-14.03c-0.13-1.22-0.52-2.39-1.14-3.45
	c-1.06-1.54-2.76-2.52-4.63-2.66c-1.77-0.14-3.52,0.44-4.85,1.62L126.5,77.98z"/>
<path class="st2" d="M129.57,81.78c1.63-1.57,4.6-1.66,5.99,0.31c0.7,1.3,1.06,2.76,1.03,4.23c0.13,1.64,0.09,3.29-0.11,4.92
	c-0.39,3.29-1.52,6.44-3.3,9.23c-0.56,1.04-1.41,1.88-2.46,2.42c-1.35,0.39-2.73,0.69-4.12,0.87c-3.02,0.63-1.74,5.26,1.28,4.63
	c1.82-0.24,3.61-0.7,5.33-1.36c1.83-1.07,3.34-2.62,4.35-4.49c2.34-3.91,3.67-8.34,3.87-12.88c0.24-4.22-0.1-9.45-3.78-12.17
	c-3.53-2.51-8.36-2.14-11.46,0.89C123.94,80.53,127.34,83.93,129.57,81.78L129.57,81.78z"/>
<path class="st2" d="M125.2,100.45c0.03,3-0.49,5.98-1.53,8.8c-0.12,0.34-0.26,0.68-0.39,1.02c-0.24,0.6,0.05-0.09-0.11,0.27
	c-0.11,0.24-0.22,0.49-0.33,0.73c-0.49,1.06-1.01,2.11-1.56,3.14c-2.71,5.32-6.3,10.16-10.61,14.29c-2.3,2.23-5.07,3.92-8.1,4.94
	c-2.95,0.89-1.69,5.52,1.28,4.63c6.66-2,11.78-7.16,15.89-12.55c3.45-4.46,6.26-9.38,8.34-14.62c1.31-3.39,1.96-7,1.91-10.64
	C129.91,97.37,125.11,97.36,125.2,100.45L125.2,100.45z"/>
<path class="st2" d="M41.27,82.24c-3.65-2.59-8.66-2.06-11.7,1.23c-2.96,3.34-2.4,8.62-1.59,12.68c0.85,4.31,2.72,8.34,5.46,11.77
	c2.75,3.37,6.99,6.04,11.46,4.79c2.97-0.82,1.71-5.46-1.28-4.63c-2.7,0.75-5.24-1.59-6.78-3.56c-2.76-3.75-4.36-8.22-4.61-12.87
	c-0.07-1.41-0.2-3.12,0.5-4.4c1.26-2.3,4.24-2.26,6.13-0.87c1.15,0.66,2.61,0.28,3.28-0.86C42.77,84.38,42.39,82.93,41.27,82.24
	L41.27,82.24z"/>
<path class="st2" d="M41.07,106.3c1.5,6.22,4.12,12.11,7.72,17.4c0.69,1.12,2.13,1.49,3.28,0.86c1.13-0.68,1.52-2.14,0.86-3.28
	c-3.4-4.92-5.86-10.43-7.24-16.25c-0.35-1.28-1.67-2.03-2.95-1.68S40.71,105.02,41.07,106.3L41.07,106.3z"/>
<path class="st2" d="M98.45,44.71c1.44,3.89,2.79,7.83,4.47,11.62c1.18,2.53,2.63,4.91,4.34,7.11c2.05,2.83,4.35,5.47,6.87,7.89
	c2.41,2.25,5.21,4.44,8.46,5.26c3,0.76,4.27-3.87,1.28-4.63c-2.53-0.64-4.87-2.59-6.84-4.5c-2.19-2.14-4.19-4.46-5.98-6.94
	c-1.56-2.06-2.9-4.28-3.98-6.62c-1.52-3.41-2.69-6.98-3.98-10.48c-0.38-1.26-1.68-1.99-2.95-1.68
	C98.85,42.12,98.11,43.43,98.45,44.71z"/>
<path class="st2" d="M98.48,42.4c-3.71,5.61-8.43,10.47-13.92,14.35c-2.76,1.91-5.71,3.55-8.79,4.89c-0.7,0.3-1.42,0.58-2.13,0.85
	c-0.15,0.06-0.8,0.18-0.88,0.31c0.32-0.53,1.57,0.44,1.82,0.73s0.05,0.39,0.03,0.02c-0.01-0.11-0.05-0.24-0.07-0.35
	c0,0.03,0.04,0.43,0.03,0.14c-0.02-0.57-0.03-1.13,0-1.69c0.14-2.9,0.74-5.77,0.92-8.67c-0.03-1.34-1.13-2.4-2.47-2.37
	c-0.61,0.01-1.19,0.25-1.63,0.67c-8.51,9.5-17.69,18.49-27.01,27.18c-2.26,2.11,1.14,5.5,3.39,3.39c9.32-8.7,18.5-17.69,27.01-27.18
	l-4.1-1.7c-0.18,2.95-0.8,5.85-0.92,8.8c-0.11,2.58,0.66,6.51,4.2,5.66c1.89-0.56,3.71-1.3,5.45-2.22c1.78-0.83,3.52-1.76,5.2-2.79
	c3.33-2.05,6.43-4.44,9.26-7.13c3.28-3.17,6.22-6.69,8.75-10.49C104.35,42.25,100.2,39.84,98.48,42.4L98.48,42.4z"/>
<path class="st2" d="M104.82,12.06c-9.09-3.03-18.73-4.09-28.26-3.09c-9.69,1.11-18.99,4.43-27.19,9.7
	c-6.19,3.77-11.5,8.82-15.57,14.82c-4.18,6.6-7.09,13.93-8.58,21.6c-2.16,11-2.63,22.26-1.4,33.4c0.03,1.31,1.09,2.37,2.4,2.4
	c1.32-0.01,2.39-1.08,2.4-2.4c-1.61-16.69-0.77-35.05,7.73-49.97C43.81,25.44,58.67,16.9,73.4,14.24
	c10.1-1.69,20.46-0.85,30.15,2.46c2.94,0.97,4.2-3.66,1.28-4.63V12.06z"/>
<path class="st2" d="M142.71,81.1c0.02-5.01-0.28-10.01-0.91-14.98c-0.41-4.47-1.12-8.9-2.13-13.27
	c-2.56-10.09-7.37-20.15-14.63-27.71c-1.9-1.98-4.04-3.73-6.11-5.54c-1.95-1.75-4.13-3.21-6.49-4.34c-1.15-0.63-2.59-0.25-3.28,0.86
	c-0.66,1.15-0.27,2.61,0.86,3.28c3.99,1.87,7.32,4.95,10.48,7.98c3.4,3.35,6.27,7.2,8.52,11.42c2.43,4.41,4.32,9.1,5.66,13.96
	c0.66,2.38,1.18,4.8,1.55,7.24c0.04,0.29,0.08,0.58,0.12,0.87c0.02,0.12,0.08,0.57,0.01,0.1c0.05,0.37,0.1,0.74,0.15,1.12
	c0.12,0.95,0.24,1.9,0.35,2.85c0.71,5.36,1.06,10.76,1.05,16.17C137.85,84.19,142.65,84.19,142.71,81.1z"/>
<path class="st2" d="M23.82,88.47c0.48,7.55,0.75,15.12,0.56,22.68c-0.07,2.93-0.22,5.86-0.48,8.78c-0.17,2.18-0.45,4.35-0.85,6.5
	c-1.23,6.23-1.86,12.55-1.89,18.9c-0.07,2.72,0.44,5.42,1.47,7.93c1.1,2.46,2.75,4.63,4.81,6.36c5.86,4.93,13.66,5.97,20.93,4
	c2.98-0.81,1.71-5.44-1.28-4.63c-5.4,1.47-11.35,1.03-15.9-2.47c-1.87-1.42-3.35-3.29-4.3-5.43c-0.77-2.06-1.09-4.27-0.93-6.47
	c0.09-5.79,0.68-11.57,1.78-17.26c0.83-4.95,1.29-9.94,1.4-14.96c0.26-7.98-0.01-15.98-0.52-23.95c-0.03-1.31-1.09-2.37-2.4-2.4
	C24.9,86.08,23.83,87.15,23.82,88.47L23.82,88.47z"/>
<path class="st2" d="M137.91,81.1c0.98,12.4,3.01,24.85,7.23,36.59c1.59,4.44,3.71,8.7,4.86,13.29c0.43,1.68,0.73,3.38,0.91,5.1
	c0.09,0.73,0.14,1.47,0.14,2.21c0,0.3-0.02,0.6-0.04,0.89c0,0.18-0.02,0.36-0.07,0.53c-1.6,8.48-9.78,14.05-18.25,12.44
	c-0.23-0.04-0.45-0.09-0.68-0.14c-2.98-0.82-4.25,3.81-1.28,4.63c6.48,1.78,13.41,0.09,18.34-4.47c4.19-3.76,7.18-9.48,6.71-15.21
	c-0.31-3.96-1.16-7.86-2.52-11.6c-0.75-2.06-1.65-4.06-2.45-6.1c-1.71-4.37-3.13-8.85-4.26-13.4c-1.97-8.13-3.26-16.41-3.87-24.76
	c-0.03-1.31-1.09-2.37-2.4-2.4C138.99,78.71,137.92,79.78,137.91,81.1z"/>
<path class="st2" d="M52.81,127.87c6.55,6.83,14.85,12.27,24.48,13.08c1.32-0.01,2.39-1.08,2.4-2.4c-0.03-1.31-1.09-2.37-2.4-2.4
	c-8.3-0.69-15.48-5.83-21.08-11.67C54.06,122.25,50.67,125.64,52.81,127.87z"/>
<path class="st3" d="M169.35,198.84c-0.36-4.16-3.17-14.36-6.73-19.11c-3.46-4.65-7.84-8.54-12.87-11.42
	c-8.3-4.51-15.31-8.2-23.32-11.94c-0.73-0.24-1.24-0.33-1.43-0.21c-9.12,5.32-26.89,10.07-40.37,10.02
	c-14.21-0.27-28.16-3.87-40.73-10.51c-11.49,4.18-23.22,8.29-30.94,13.95c-5.28,4.09-8.97,11.54-10.04,19.28
	c-1.97,21.57,1.56,42.64,8.84,63.28c2.22,6.31,4.97,12.67,9.82,17.27c4.22,4,10.39,6.36,15.95,5.14c-1.49,5.97-2.74,8.14-6.06,17.05
	c24.92,0,129.68-0.56,149.23-0.57C178.6,269.64,172.37,219.16,169.35,198.84"/>
<path class="st2" d="M44.12,158.52c10.54,5.36,22,8.67,33.78,9.73c11.22,1.05,22.62-0.7,33.38-3.91c2.73-0.82,5.43-1.74,8.07-2.82
	c1.32-0.54,2.64-1.11,3.92-1.73c0.56-0.27,1.11-0.55,1.65-0.84c0.17-0.09,0.35-0.19,0.52-0.28s0.34-0.19,0.5-0.28
	c-1.02,0.01-1.2,0.07-0.53,0.2c3,0.76,4.27-3.87,1.28-4.63c-1.25-0.36-2.59-0.15-3.67,0.57c-1,0.55-2.02,1.06-3.05,1.54
	c-2.06,0.94-4.17,1.77-6.32,2.49c-5.21,1.78-10.55,3.14-15.98,4.06c-11.29,1.88-22.85,1.29-33.88-1.73
	c-5.97-1.53-11.75-3.71-17.25-6.5C43.8,152.96,41.37,157.1,44.12,158.52L44.12,158.52z"/>
<path class="st2" d="M104.37,135.14c0.2,3.64,0.66,7.26,1.36,10.83c0.56,2.99,2.69,5.45,5.58,6.43c0.88,0.35-0.62-0.31,0-0.01
	c0.22,0.11,0.45,0.21,0.68,0.32c0.71,0.33,1.42,0.67,2.13,1c1.92,0.91,3.84,1.82,5.76,2.73c1.31,0.62,2.61,1.29,3.95,1.85
	c1.15,0.62,2.59,0.25,3.28-0.86c0.66-1.15,0.28-2.61-0.86-3.28c-2.83-1.21-5.58-2.63-8.36-3.95c-1.35-0.64-2.69-1.29-4.05-1.91
	c-0.7-0.28-1.39-0.6-2.04-0.97c-0.61-0.36-1.05-0.96-1.19-1.66c-0.32-1.33-0.56-2.67-0.72-4.02c-0.36-2.15-0.59-4.33-0.7-6.51
	c-0.03-1.31-1.09-2.37-2.4-2.4C105.45,132.75,104.38,133.82,104.37,135.14L104.37,135.14z"/>
<path class="st2" d="M46.13,158.21c5.43-1.99,11.03-3.58,16.54-5.33c2.91-0.92,5.28-2.54,6.29-5.53c0.33-1.21,0.57-2.44,0.7-3.68
	c0.33-2.04,0.61-4.07,0.76-6.13c-0.01-1.32-1.08-2.39-2.4-2.4c-1.32,0.02-2.38,1.08-2.4,2.4c-0.13,1.72-0.36,3.41-0.63,5.11
	c-0.13,1.16-0.35,2.3-0.66,3.42c-0.15,0.46,0.13-0.16-0.12,0.29c-0.07,0.13-0.39,0.61-0.35,0.56c-0.3,0.32-0.66,0.58-1.05,0.77
	c-0.89,0.41-1.81,0.73-2.75,0.97c-5.07,1.6-10.21,3.07-15.2,4.9c-1.26,0.38-1.99,1.68-1.68,2.95
	C43.54,157.8,44.85,158.55,46.13,158.21L46.13,158.21z"/>
<path class="st2" d="M115.08,153.94c10.34,4.41,20.38,9.4,30.27,14.73c3.42,1.7,6.63,3.81,9.55,6.27c3.66,3.07,6.57,6.93,8.52,11.29
	c0.95,2.31,1.74,4.67,2.38,7.09c0.3,1.1,0.56,2.21,0.79,3.33c0.09,0.44,0.17,0.87,0.24,1.31c-0.01-0.04,0.11,0.75,0.06,0.38
	c-0.03-0.25,0.05,0.44,0.05,0.52c0.03,1.31,1.09,2.37,2.4,2.4c1.32-0.01,2.39-1.08,2.4-2.4c-0.48-4.23-1.51-8.38-3.08-12.34
	c-0.8-2.27-1.81-4.46-3.02-6.54c-1.48-2.32-3.23-4.46-5.2-6.38c-2.8-2.89-6-5.36-9.5-7.35c-5-2.76-10.06-5.43-15.17-7.99
	c-6-3.01-12.09-5.83-18.27-8.46c-1.15-0.62-2.59-0.25-3.28,0.86C113.56,151.8,113.94,153.26,115.08,153.94L115.08,153.94z"/>
<path class="st2" d="M5.23,189.54c0.95-6.6,3.69-13.86,9.18-18.03c5.79-4.39,12.96-7.12,19.69-9.68c4.39-1.68,8.82-3.24,13.23-4.86
	c1.26-0.38,1.99-1.68,1.68-2.95c-0.36-1.27-1.68-2.02-2.95-1.68c-8.07,2.96-16.24,5.73-24.04,9.36c-3.44,1.54-6.74,3.4-9.84,5.54
	c-2.98,2.19-5.45,5-7.24,8.24c-2.23,3.95-3.7,8.29-4.33,12.79c-0.31,1.27,0.43,2.56,1.68,2.95C3.55,191.56,4.87,190.82,5.23,189.54
	L5.23,189.54z"/>
<path class="st2" d="M35.01,274.74c-1.46,5.58-3.85,10.87-5.86,16.27c-0.34,1.28,0.41,2.59,1.68,2.95c1.27,0.32,2.58-0.42,2.95-1.68
	c2.01-5.4,4.4-10.69,5.86-16.27c0.35-1.28-0.4-2.6-1.68-2.95C36.68,272.71,35.36,273.46,35.01,274.74L35.01,274.74z"/>
<path class="st2" d="M140.29,195.84c0.5,9.76,0.79,19.54,0.89,29.32c0.05,5.04,0.02,9.99-0.38,15c-0.93,11.54-2.22,23.05-3.52,34.56
	c-0.62,5.51-1.26,11.02-1.95,16.52c0.01,1.32,1.08,2.39,2.4,2.4c1.31-0.03,2.37-1.09,2.4-2.4c1.37-10.88,2.57-21.79,3.71-32.7
	c1.03-9.86,2.21-19.73,2.17-29.65c-0.05-11.02-0.35-22.03-0.92-33.04C144.93,192.76,140.13,192.74,140.29,195.84L140.29,195.84z"/>
<path class="st2" d="M167.02,199.48c1.67,11.26,3.07,22.26,4.51,33.61c1.7,13.44,3.32,26.89,4.86,40.35
	c0.67,5.88,1.32,11.75,1.89,17.64c0.04,1.31,1.09,2.36,2.4,2.4c1.32-0.01,2.39-1.08,2.4-2.4c-1.14-11.7-2.53-23.38-3.93-35.05
	c-1.61-13.43-3.3-26.86-5.07-40.28c-0.78-5.85-1.57-11.71-2.44-17.55c-0.36-1.27-1.68-2.02-2.95-1.68
	C167.44,196.91,166.71,198.21,167.02,199.48L167.02,199.48z"/>
<path class="st2" d="M31.46,294.05c7.56,0,15.11-0.02,22.67-0.06c11.17-0.04,22.33-0.08,33.5-0.14l36.97-0.16
	c11.05-0.05,22.1-0.1,33.16-0.14c7.21-0.03,14.42-0.05,21.64-0.07h1.54c3.09,0,3.09-4.8,0-4.8c-6.6,0-13.2,0.03-19.8,0.06
	c-10.67,0.04-21.35,0.09-32.02,0.14l-36.89,0.16c-11.49,0.05-22.98,0.1-34.46,0.14c-8.11,0.03-16.22,0.05-24.33,0.07h-1.98
	C28.37,289.25,28.37,294.05,31.46,294.05L31.46,294.05z"/>
<path class="st2" d="M63.66,73.28c-0.47,0.53-0.99,1-1.56,1.43l0.49-0.38c-0.74,0.6-1.56,1.1-2.42,1.5l0.57-0.24
	c-0.14,0.06-0.28,0.11-0.42,0.15c-0.6,0.18-1.11,0.57-1.43,1.1c-0.67,1.14-0.29,2.61,0.86,3.28c0.56,0.33,1.23,0.41,1.85,0.24
	c1.02-0.34,1.97-0.83,2.84-1.47c0.96-0.64,1.84-1.39,2.62-2.24c0.44-0.46,0.69-1.07,0.7-1.7c0-1.33-1.07-2.4-2.4-2.4
	c-0.64,0-1.25,0.25-1.7,0.7L63.66,73.28z"/>
<path class="st1" d="M56.8,191.67c1.73-2.49,8.6-12.38,8.79-15.62c-0.28-0.63-0.69-1.18-1.21-1.63c-4.44-4.48-7.12-6.77-10.16-11.55
	c-3.07-3.67-5.41-12.89-7.15-22.1c-0.84-5.19-1.14-10.45-0.88-15.7c-0.09-1.3,0.88-2.43,2.17-2.53c0,0,1.13-0.11,2.39-0.13
	c-0.35-1.44-0.4-2.93-0.13-4.39c0.19-1.05,0.98-1.89,2.01-2.15c1.53-0.39,3.15,0.03,4.3,1.12c1.12,1.52,1.86,3.29,2.17,5.16
	l0.34,0.77c0.46-0.71,1.2-1.18,2.04-1.3c3.71-0.16,5.41,3.94,5.88,5.34c1.13,3.38,5.41,11.7,8.24,19.22
	c0.48,1.07,1.05,2.1,1.68,3.08c2.85,3.39,6.04,6.47,9.52,9.19c2.75,2.21,6.3,5.63,6.96,9.09c0.24,1.94,0.03,3.9-0.61,5.74
	c-1.15,4.24-4.55,8.79-6.19,12.86c-1.3,3.23-4,13.47-5.15,17.87"/>
<path class="st2" d="M47.72,120.22c-4.6,0.7-4,5.98-3.98,9.39c0.05,5.06,0.61,10.11,1.66,15.06c0.83,4.43,2,8.8,3.5,13.05
	c1.32,3.42,3.16,6.63,5.46,9.49c1.31,1.68,2.72,3.28,4.22,4.79c0.83,0.85,1.68,1.68,2.52,2.51c0.96,0.76,1.78,1.69,2.42,2.74
	l-0.33-1.21c-0.03,0.33,0-0.14,0.03-0.21c-0.04,0.13-0.07,0.27-0.1,0.41c-0.09,0.28-0.17,0.55-0.27,0.83
	c-0.05,0.14-0.1,0.27-0.16,0.4c0.1-0.24,0.03-0.07-0.04,0.07c-0.16,0.35-0.32,0.69-0.5,1.04c-0.79,1.58-1.69,3.1-2.62,4.6
	c-1.53,2.47-3.15,4.88-4.81,7.27c-0.66,1.15-0.27,2.61,0.86,3.28c1.15,0.64,2.6,0.26,3.28-0.86c2.15-3.09,4.26-6.22,6.14-9.49
	c1.05-1.71,1.92-3.53,2.6-5.41c0.34-0.81,0.44-1.7,0.29-2.56c-0.46-1.68-2.08-2.96-3.26-4.13c-3.62-3.6-7.4-7.45-9.71-11.68
	c-1.19-2.35-2.12-4.81-2.77-7.36c-0.93-3.22-1.66-6.5-2.32-9.78c-0.76-3.68-1.18-7.43-1.27-11.18c-0.04-1.91-0.03-3.82,0.01-5.73
	c0-0.24,0.02-0.48,0.02-0.72c-0.03,0.75-0.07,0.08,0.04-0.04l-0.09,0.19c0.14-0.23,0.14-0.25,0-0.06c-0.05,0.05-0.12,0.08-0.19,0.07
	c0.21-0.07,0.42-0.11,0.64-0.13c1.27-0.36,2.02-1.68,1.68-2.95C50.29,120.65,48.99,119.91,47.72,120.22L47.72,120.22z"/>
<path class="st2" d="M67.54,145.21c-1.9-5.97-3.44-12.06-5.16-18.08c-0.39-0.98-0.64-2.01-0.73-3.06c-0.02,0.33,0.14-0.14-0.06,0.04
	c0.68-0.6-0.15,0.06-0.12-0.09c0.08-0.39,1.66,0.54,1.62,0.51c0.5,0.4,0.91,0.9,1.2,1.46c0.16,0.27,0.3,0.56,0.44,0.84
	c0.06,0.13,0.12,0.26,0.18,0.39c-0.22-0.51,0,0.02,0.03,0.11c0.49,1.46,1.11,2.88,1.74,4.29c1.85,4.21,3.85,8.35,5.58,12.6
	c1,2.46,1.86,4.97,3.57,7.05c1.64,1.95,3.41,3.79,5.3,5.49c1.84,1.68,3.84,3.18,5.68,4.85c1.82,1.46,3.3,3.32,4.32,5.42
	c0.82,2.08,0.11,4.51-0.57,6.53c-0.85,2.19-1.89,4.3-3.11,6.31c-2,3.66-3.58,7.54-4.7,11.56c-1.15,3.97-2.21,7.96-3.25,11.96
	c-0.78,2.99,3.85,4.27,4.63,1.28c1.95-7.44,3.51-15.22,7.26-21.99c2.58-4.65,5.82-10.21,4.68-15.76c-1.06-5.2-5.86-8.63-9.64-11.86
	c-2.13-1.8-4.13-3.73-6.01-5.79c-1.59-1.94-2.81-4.14-3.62-6.51c-1.92-4.72-4.13-9.31-6.17-13.98c-1.24-2.84-2.12-6.23-4.95-8.26
	c-1.75-1.35-4.1-1.64-6.13-0.76c-2.1,1.16-3.16,3.57-2.59,5.9c0.75,3.47,1.96,6.91,2.92,10.34c0.98,3.51,1.92,7.04,3.03,10.51
	C63.84,149.41,68.48,148.16,67.54,145.21L67.54,145.21z"/>
<path class="st2" d="M59.66,147.14c-2.9-6.88-4.93-14.09-6.04-21.46c-0.24-1.62-0.51-3.25-0.71-4.87c-0.08-0.56-0.1-1.13-0.05-1.7
	c0.02-0.22,0.07-0.44,0.13-0.65c0.1-0.33-0.09-0.09,0.09-0.18c2.47-1.27,3.34,3,3.7,4.51c0.72,3,5.35,1.73,4.63-1.28
	c-0.39-2.06-1.21-4.01-2.41-5.73c-1.38-1.71-3.53-2.62-5.72-2.41c-2.21,0.06-4.14,1.49-4.85,3.58c-0.48,1.85-0.5,3.8-0.07,5.66
	c0.69,4.25,1.26,8.47,2.31,12.65c1.25,4.88,2.87,9.66,4.84,14.3c0.67,1.14,2.14,1.52,3.28,0.86
	C59.92,149.73,60.3,148.28,59.66,147.14L59.66,147.14z"/>
<path class="st2" d="M0.52,188.91c-1.9,21.28,1.57,42.66,8.53,62.79c3,8.66,6.94,18.03,15.3,22.79c3.93,2.33,8.55,3.24,13.08,2.57
	c3.93-0.66,7.51-3.04,10.65-5.37c3.46-2.48,6.62-5.36,9.42-8.57c2.02-2.52,3.84-5.2,5.45-8c3.75-6.12,7.23-12.41,10.59-18.75
	c3.1-5.85,6.1-11.76,8.84-17.8c0.96-2.12,1.91-4.25,2.69-6.44c0.45-1.26,0.98-2.73,0.56-4.07c-0.63-1.98-2.77-3.36-4.36-4.48
	c-2.38-1.68-4.91-3.14-7.44-4.58c-6.03-3.41-12.21-6.55-18.37-9.71c-1.22-0.62-2.43-1.25-3.65-1.88c-1.15-0.63-2.59-0.25-3.28,0.86
	c-3.23,4.87-6.15,9.94-9.02,15.02s-5.72,10.2-8.24,15.46c-0.63,1.15-0.25,2.59,0.86,3.28c1.15,0.66,2.61,0.27,3.28-0.86
	c2.52-5.27,5.37-10.39,8.24-15.47c2.88-5.08,5.8-10.16,9.03-15.02l-3.28,0.86c5.56,2.89,11.16,5.7,16.68,8.66
	c2.85,1.53,5.68,3.09,8.45,4.74c1.16,0.69,2.3,1.4,3.42,2.15c0.47,0.32,0.94,0.64,1.4,0.98c0.13,0.09,0.72,0.55,0.27,0.19
	c0.18,0.14,0.36,0.28,0.53,0.43c0.29,0.25,0.56,0.52,0.84,0.79c0.15,0.15,0.44,0.61-0.01-0.05c0.09,0.11,0.16,0.23,0.22,0.36
	c-0.2-0.48-0.02-0.22-0.17-0.53c-0.11-0.24-0.04-0.36-0.04-0.12c0,0.42,0.18-0.6,0.05-0.31c-0.03,0.12-0.06,0.25-0.08,0.37
	c-0.18,0.65-0.38,1.28-0.61,1.91c-0.14,0.38-0.29,0.76-0.43,1.13c-0.09,0.22-0.18,0.44-0.27,0.67c-0.06,0.15-0.37,0.9-0.17,0.41
	c-2.27,5.35-4.87,10.55-7.52,15.71c-3.2,6.24-6.55,12.4-10.06,18.48c-3.15,5.43-6.23,10.99-10.78,15.39
	c-2.82,2.75-5.94,5.18-9.3,7.23c-3.09,1.86-6.29,2.88-9.92,2.13c-8.62-1.78-13.5-9.61-16.51-17.25c-7.43-18.61-11-38.54-10.5-58.57
	c0.08-2.52,0.24-5.03,0.47-7.54c-0.01-1.32-1.08-2.39-2.4-2.4C1.6,186.53,0.54,187.59,0.52,188.91L0.52,188.91z"/>
<path class="st2" d="M87.09,95.66c0.24,0.71,0.46,1.43,0.67,2.15c0.25,0.75,0.44,1.52,0.58,2.3l-0.08-0.64
	c0.02,0.15,0.02,0.3,0,0.45l0.09-0.64c-0.01,0.07-0.03,0.13-0.05,0.2l0.24-0.57c-0.03,0.06-0.06,0.12-0.1,0.18l0.38-0.49
	c-0.03,0.04-0.06,0.07-0.1,0.1l0.49-0.38c-0.16,0.11-0.32,0.21-0.5,0.28l0.57-0.24c-0.17,0.07-0.35,0.12-0.53,0.15l0.64-0.09
	c-0.33,0.01-0.67-0.01-1-0.06c-1.33,0-2.4,1.07-2.41,2.39c0,0.64,0.25,1.25,0.71,1.71c0.46,0.43,1.07,0.68,1.7,0.7
	c0.28,0.04,0.55,0.06,0.83,0.07c0.76-0.02,1.51-0.24,2.17-0.61c0.8-0.43,1.38-1.18,1.59-2.07c0.13-0.73,0.1-1.47-0.09-2.19
	c-0.33-1.35-0.72-2.68-1.16-3.99c-0.18-0.6-0.57-1.11-1.1-1.43c-1.14-0.67-2.61-0.28-3.28,0.86c0,0,0,0,0,0
	C87,94.37,86.91,95.03,87.09,95.66L87.09,95.66z"/>
<path class="st2" d="M63.31,85.1c-0.56,2.36,0.24,7.65,4.66,7.82c5.79-0.41,5.69-6.87,3.54-9.77C69.75,80.78,64.99,80.05,63.31,85.1
	z"/>
<path class="st2" d="M109.72,82.1c0.86,2.27,0.74,7.62-3.61,8.36c-5.8,0.34-6.52-6.08-4.77-9.23
	C102.78,78.65,107.41,77.31,109.72,82.1z"/>
<path class="st2" d="M85.05,118.45c-0.36,0.47,0.18-0.17,0.26-0.25c0.19-0.19,0.39-0.37,0.59-0.54c-0.41,0.35,0.26-0.17,0.35-0.23
	c0.24-0.15,0.48-0.29,0.73-0.42c0.09-0.04,0.88-0.38,0.41-0.2c0.21-0.08,0.41-0.15,0.62-0.22c0.28-0.09,0.57-0.17,0.86-0.23
	c0.09-0.02,0.99-0.16,0.47-0.1c0.65-0.07,1.3-0.09,1.94-0.07c0.25,0.01,0.49,0.02,0.73,0.04c0.16,0.01,0.32,0.03,0.48,0.05
	c-0.24-0.04-0.21-0.03,0.08,0.01c0.6,0.1,1.2,0.23,1.79,0.4c0.27,0.08,0.54,0.18,0.81,0.27s0.25,0.1-0.02-0.01
	c0.12,0.05,0.23,0.11,0.34,0.17c1.14,0.67,2.61,0.28,3.28-0.86c0.67-1.14,0.28-2.61-0.86-3.28c-5.55-2.79-13.09-2.08-17.01,3.04
	c-0.67,1.15-0.28,2.61,0.86,3.28C82.91,119.93,84.35,119.56,85.05,118.45L85.05,118.45z"/>
</svg>
