<?xml version="1.0" encoding="utf-8"?>
<!-- Generator: Adobe Illustrator 25.0.1, SVG Export Plug-In . SVG Version: 6.00 Build 0)  -->
<svg version="1.1" id="レイヤー_1" xmlns="http://www.w3.org/2000/svg" xmlns:xlink="http://www.w3.org/1999/xlink" x="0px"
	 y="0px" viewBox="0 0 203.71 298.99" style="enable-background:new 0 0 203.71 298.99;" xml:space="preserve">
<style type="text/css">
	.st0{fill:#FFFFFF;}
	.st1{fill:#3F88C9;}
	.st2{fill:#B6B2B2;}
	.st3{fill:#211715;}
</style>
<path class="st0" d="M65.88,153.56c2.51-0.79,5.74-1.99,6.05-2.11c4.63-1.67,4.45-4.64,5.03-7.97c0.28-1.57,0.5-3.03,0.68-4.54
	c-4.88-2.56-9.3-5.94-13.04-9.99c-4.96-5.26-8.85-11.43-11.44-18.18c-2.99,1.62-5.36,0.2-7.22-1.09c-2.07-1.54-3.78-3.51-5.02-5.77
	c-2.61-4.47-3.94-9.57-3.84-14.74c-0.03-1.32,0.23-2.63,0.74-3.85c0.92-1.79,2.6-3.08,4.57-3.49c1.91-0.41,3.91,0,5.52,1.11
	c1.86-1.46,3.3-3.4,4.16-5.61c4.98-4.87-2.49-21.69,7.33-29.8c3.6-2.87,7.89-4.76,12.44-5.47c7.19-1.41,21.65-4.35,27.92-4.29
	c7.67,0.07,13.52,0.09,22.79,3.38c10.88,3.28,16.3,20.42,16.98,28.82c0,0,1.65,4.09,2.98,8.03l0.51,1.08l0.59-0.6
	c1.46-1.44,3.48-2.18,5.53-2.01c2.01,0.15,3.84,1.21,4.99,2.87c0.67,1.14,1.08,2.41,1.23,3.72c0.76,5.12,0.11,10.35-1.9,15.11
	c-0.94,2.41-2.38,4.58-4.23,6.38c-1.34,1.48-3.39,2.1-5.33,1.62l-1.09-0.25c-0.34,1.7-0.75,3.14-0.95,3.91
	c-1.38,4.65-10.03,21.93-21.7,27.64c0.16,2.06,0.43,4.11,0.78,6.15c0.56,3.18,0.38,6.02,4.81,7.62c0.2,0.08,3.65,1.67,6.16,2.93
	c0,0-11.26,20.3-34.37,20.3S65.88,153.56,65.88,153.56z"/>
<path class="st0" d="M37.32,248.93l0.59,0.73l0.24,0.26c8.96-1.25,25.07-4.21,27.93-4.85c2.02-0.46,4.67-1.05,7.71-1.73l-0.02-0.02
	c-7.3-9.94-15.51-19.17-24.53-27.57c-0.58-0.64-1.31-1.12-2.13-1.4c-0.85-0.26-1.76,0.13-2.15,0.92l-1.32,1.91l-0.34-0.3
	c-1.28-1.13-2.76-2-4.37-2.56c-1.59-0.58-3.35-0.35-4.75,0.6c-1.56,1.35-1.71,2.45-0.83,4.32c0.46,0.87,1.06,1.65,1.77,2.32
	l-0.46-0.16c-1.77-0.42-3.63,0.13-4.88,1.46c-0.94,1.09-1.16,2.63-0.58,3.95c0.8,1.59,1.89,3.02,3.21,4.21
	c0.91,0.91,1.81,1.83,2.71,2.75l-1.82-0.01c-1.23-0.03-2.41,0.5-3.19,1.45c-0.77,0.94-0.98,2.22-0.55,3.36
	c0.44,1.11,1.07,2.13,1.88,3.02L37.32,248.93z"/>
<path class="st0" d="M132.79,267.53c0.66-0.03,1.32-0.09,1.97-0.19c3.7-0.57,9.27-1.84,12.44-1.11c1.06,0.24,5.82,2.04,7.59,1.85
	c1.66-0.17,4.24-2.51,4.89-3.12c0.86-4.08,2.3-16.64,3.72-29.99l-1.5-0.52c-0.99-0.37-4.83-1.86-5.81-2.23
	c-2.44-1.05-5.03-1.72-7.67-2c-5.48-0.29-13.04,3.3-18.44,5.16c-6.07,2.09-9.88,3.42-16.07,5.14l-0.75,0.21
	c2.2,6.99,5.57,16.57,8.01,24.01l0.29,0.14C124.96,266.68,128.85,267.59,132.79,267.53z"/>
<path class="st0" d="M120.91,273.42c-11.07,4.78-22.42,8.86-34,12.21l1.81,1.12c1,0.62,31.41,3.41,38.41,3.57
	c17.37,0.41,35.42,2.3,52.65-0.67c7.23-1.26,15.12-3.55,19.16-12.05c2.96-6.22,2.4-15.14,2.07-24
	c-0.69-18.45-4.68-40.22-12.55-62.69c-1.64-4.4-6.07-14.09-12.05-18.06c-0.81-0.54-1.63-1.07-2.47-1.58l-0.2,0.52
	c-2.74,8.03-4.82,16.26-6.23,24.63c-1.06,7.44-5.89,59.4-7.82,68.55c-0.64,0.6-3.23,2.95-4.89,3.12c-1.77,0.18-6.53-1.61-7.59-1.85
	c-3.18-0.73-8.75,0.54-12.45,1.11c-4.75,0.72-9.32-0.51-13.6-2.61c0.67,2.02,1.26,3.88,1.75,5.49
	C123.38,271.77,122.35,272.63,120.91,273.42"/>
<path class="st0" d="M120.91,273.42c-21.78,9.78-62.74,21.64-87.3,23.03c-3.89,0.22-7.86,0.27-11.57-0.9
	c-5.66-1.84-10.44-5.72-13.41-10.88c-2.76-5.03-3.72-9.06-4.41-14.76c-0.94-7.83-2.26-22.47-1.82-30.35
	c1.11-19.63,2.91-36.22,8.29-53.92c1.92-5.4,4.27-9.62,7.51-13l1.23,1.29c3.1,5.2,9.29,17.2,11.05,23.92
	c0.89,3.41,3.01,10.08,4.39,16.85l5.37,34.91c9.17-1.37,23.18-3.96,25.83-4.55c9.48-2.14,33.16-7.37,43.2-10.39
	c1.07-0.31,2.19,0.31,2.49,1.38c0,0,0,0.01,0,0.01c2.28,8.24,8.42,25.14,11.15,34.15C123.38,271.76,122.35,272.62,120.91,273.42"/>
<path class="st1" d="M132.57,151.41c-1.87-2.91-4.17-5.52-6.8-7.76c-6.41,6.46-13.89,11.76-22.11,15.65
	c-0.97,0.41-1.88,0.96-2.69,1.64h-4.04c-0.81-0.68-1.72-1.23-2.69-1.64c-8.23-3.89-15.71-9.19-22.12-15.65
	c-2.73,2.32-5.09,5.04-7,8.06c-2.59,0.68-5.85,1.53-5.85,1.53c-10.88,3.32-25.23,9.1-34.23,14.15c-2.5,1.37-4.78,3.11-6.77,5.15
	c0.67,0.8,1.15,1.39,1.15,1.39c3.1,5.2,9.29,17.2,11.05,23.92c0.88,3.37,2.96,9.93,4.34,16.62c1.3-0.56,2.76-0.62,4.1-0.17
	c1.61,0.56,3.09,1.43,4.37,2.56c0.28,0.25,0.56,0.49,0.83,0.73c0.51-1.43,0.83-2.34,0.83-2.34c0.39-0.8,1.31-1.19,2.15-0.92
	c0.81,0.28,1.55,0.76,2.13,1.4c9.03,8.41,17.25,17.64,24.55,27.59c11.23-2.53,27.59-6.27,35.49-8.66c1.07-0.31,2.19,0.31,2.49,1.38
	c0,0,0,0.01,0,0.01c0.37,1.34,0.84,2.91,1.39,4.64c0.47-0.11,0.76-0.18,0.76-0.18c6.19-1.72,10-3.05,16.07-5.14
	c5.4-1.86,12.96-5.45,18.44-5.16c2.64,0.28,5.23,0.95,7.67,2c0.99,0.37,4.83,1.86,5.81,2.23l1.49,0.6
	c1.77-16.64,3.52-34.5,4.11-38.63c1.41-8.36,3.49-16.6,6.23-24.63l0.21-0.52c-13.34-8.31-29.42-14.23-36.05-16.83
	c0,0-2.09-0.59-4.18-1.18C133.36,152.64,132.97,152.03,132.57,151.41z"/>
<path class="st2" d="M149.91,52.4c-0.58-4.93-1.63-9.79-3.14-14.51c-4.51-13.73-12.23-22.51-26.37-25.64
	C110.89,1.48,89.25-0.43,77.05,6.38c-2.49,1-5.05,1.79-7.67,2.38c-9.86,1.88-19.73,10.99-24.86,21.33
	c-4.84,9.73-7.13,20.54-6.65,31.4c0.31,7.01,1.49,13.95,3.51,20.66c0.32-0.13,0.66-0.24,1-0.31c1.91-0.41,3.91-0.01,5.52,1.11
	c1.86-1.46,3.3-3.4,4.16-5.61c4.98-4.87-2.49-21.69,7.33-29.8c3.6-2.87,7.89-4.76,12.44-5.47c7.19-1.41,21.65-4.35,27.92-4.29
	c7.67,0.07,13.52,0.09,22.79,3.38c10.88,3.28,16.3,20.42,16.98,28.82c0,0,1.65,4.09,2.98,8.03l0.51,1.08l0.59-0.6
	c1.41-1.39,3.34-2.13,5.32-2.01C150.67,70.76,151.04,61.65,149.91,52.4z"/>
<path class="st3" d="M141.92,69.98c-0.44-4.53-1.51-8.98-3.18-13.22c-1.88-4.91-4.39-9.8-8.2-13.5c-2.05-2.06-4.58-3.57-7.36-4.42
	c-2.97-0.85-4.24,3.78-1.28,4.63c5.13,1.48,8.61,6.71,10.96,11.64c1.21,2.6,2.2,5.29,2.94,8.06c0.35,1.26,0.65,2.54,0.9,3.82
	c0.12,0.6,0.22,1.21,0.31,1.82c0.03,0.13,0.05,0.27,0.05,0.4c0.03,0.26,0.05,0.51,0.07,0.77c0.03,1.31,1.09,2.37,2.4,2.4
	C140.84,72.37,141.91,71.3,141.92,69.98L141.92,69.98z"/>
<path class="st3" d="M114.17,38.3c-0.98-2.78-2.02-5.7-4.07-7.9c-0.91-0.92-1.95-1.7-3.08-2.33c-1.21-0.75-2.49-1.36-3.84-1.82
	c-1.28-0.34-2.59,0.4-2.95,1.68c-0.32,1.27,0.42,2.58,1.68,2.95c0.11,0.03,0.21,0.07,0.31,0.11c0.08,0.03,0.59,0.23,0.17,0.06
	s0.06,0.03,0.15,0.07c0.13,0.06,0.26,0.12,0.39,0.19c0.57,0.28,1.12,0.59,1.67,0.91c0.48,0.28,0.95,0.58,1.4,0.91
	c0.35,0.25,0.02,0.04-0.12-0.1c0.08,0.08,0.18,0.15,0.27,0.23c0.19,0.17,0.38,0.35,0.55,0.54c0.08,0.09,0.16,0.18,0.24,0.27
	c0.06,0.07,0.35,0.44,0.08,0.09s0.02,0.03,0.07,0.11c0.09,0.12,0.17,0.24,0.25,0.37c0.29,0.46,0.56,0.94,0.8,1.43
	c0.13,0.27,0.26,0.54,0.38,0.82c0.04,0.1,0.08,0.19,0.12,0.29l-0.12-0.28c0.08,0.15,0.14,0.3,0.19,0.46
	c0.29,0.73,0.56,1.48,0.82,2.22c0.35,1.28,1.67,2.03,2.95,1.68C113.77,40.9,114.52,39.58,114.17,38.3L114.17,38.3L114.17,38.3z"/>
<path class="st3" d="M102.32,37.67c-3.15-3.58-7.16-6.29-11.66-7.86c-1.77-0.6-3.59-1.02-5.44-1.24c-2.07-0.4-4.18-0.51-6.28-0.35
	c-1.31,0.04-2.36,1.09-2.4,2.4c0.01,1.32,1.08,2.39,2.4,2.4c1.72-0.16,3.45-0.09,5.15,0.2c1.74,0.22,3.46,0.61,5.13,1.16
	c3.77,1.32,7.12,3.63,9.71,6.68c0.94,0.93,2.45,0.93,3.39,0C103.24,40.11,103.24,38.61,102.32,37.67L102.32,37.67z"/>
<path class="st3" d="M120.07,8.54c-6.7-5.76-15.7-8.26-24.41-8.52c-4.33-0.15-8.66,0.34-12.84,1.47c-1.99,0.55-3.92,1.28-5.77,2.18
	c-0.41,0.2-0.82,0.4-1.21,0.63c-0.5,0.3,0.31-0.08-0.29,0.14c-0.81,0.29-1.62,0.57-2.44,0.82c-3.8,1.17-7.65,1.82-11.26,3.58
	c-4.49,2.28-8.51,5.37-11.85,9.13c-6.93,7.58-11.24,17.38-13.24,27.4c-2.43,12.19-1.27,24.71,2.08,36.61
	c0.83,2.97,5.47,1.71,4.63-1.28c-2.77-9.87-4.06-20.2-2.69-30.42c1.25-9.29,4.59-18.81,10.36-26.26c2.81-3.69,6.25-6.87,10.15-9.38
	c1.77-1.14,3.66-2.06,5.64-2.76c1.61-0.55,3.28-0.82,4.91-1.27c1.61-0.44,3.21-0.9,4.77-1.48c1.43-0.53,2.73-1.33,4.14-1.91
	c3.59-1.42,7.38-2.22,11.24-2.38c8.5-0.44,18.07,1.38,24.69,7.07c0.95,0.9,2.44,0.9,3.39,0C121,10.99,121,9.48,120.07,8.54z"/>
<path class="st3" d="M125.25,16.17c17.08,6.51,22.16,26.74,22.84,43.23c0.3,4.79-0.01,9.59-0.93,14.3c-0.65,3.01,3.97,4.3,4.63,1.28
	c2.1-9.68,1.33-20.16-0.62-29.8c-1.87-9.2-5.37-18.65-12-25.51c-3.56-3.61-7.88-6.38-12.64-8.12c-1.28-0.34-2.59,0.41-2.95,1.68
	C123.25,14.49,123.99,15.79,125.25,16.17z"/>
<path class="st3" d="M71.01,40.63c-3.48,0.3-6.87,1.3-9.96,2.93c-2.87,1.67-5.25,4.07-6.91,6.94c-3.24,5.47-2.37,11.89-2.47,17.98
	c0,1.48-0.1,2.95-0.31,4.41c-0.11,0.64-0.28,1.27-0.49,1.88c-0.15,0.45-0.05,0.13-0.01,0.04c-0.08,0.16-0.16,0.31-0.24,0.46
	c-0.05,0.09-0.1,0.17-0.16,0.26c-0.33,0.53,0.3-0.33-0.1,0.12c-2.08,2.27,1.3,5.68,3.39,3.39c1.82-1.99,2.3-4.66,2.55-7.26
	c0.28-2.96,0.16-5.95,0.15-8.92c-0.15-2.55,0.07-5.11,0.68-7.59c0.03-0.1,0.27-0.74,0.19-0.56c-0.14,0.33,0.17-0.34,0.2-0.4
	c0.08-0.16,0.16-0.32,0.24-0.48c0.4-0.76,0.84-1.49,1.33-2.19c0.76-1.08,1.67-2.04,2.71-2.86c2.7-1.93,5.88-3.09,9.19-3.36
	c1.31-0.04,2.36-1.09,2.4-2.4C73.4,41.71,72.33,40.64,71.01,40.63L71.01,40.63z"/>
<path class="st3" d="M117.72,137.46c0.22,2.72,0.67,5.4,1.08,8.1c0.17,1.88,0.86,3.68,1.98,5.2c0.64,0.78,1.43,1.43,2.32,1.91
	c0.29,0.16,0.59,0.3,0.9,0.43c0.13,0.06,1.3,0.54,0.53,0.21c0.19,0.08,0.38,0.17,0.57,0.26c1.87,0.86,3.72,1.74,5.57,2.66
	c1.15,0.64,2.59,0.26,3.28-0.86c0.66-1.15,0.27-2.61-0.86-3.28c-1.75-0.87-3.52-1.71-5.3-2.53c-0.53-0.24-1.27-0.54-1.66-0.71
	c-0.41-0.2-0.8-0.42-1.18-0.66c-0.41-0.26,0.19,0.23-0.15-0.13c-0.13-0.14-0.26-0.27-0.4-0.4c-0.38-0.38,0.19,0.38-0.06-0.08
	c-0.08-0.15-0.18-0.29-0.26-0.45c-0.14-0.27-0.15-0.41-0.04-0.05c-0.05-0.16-0.11-0.32-0.17-0.49c-0.2-0.75-0.36-1.51-0.45-2.28
	c-0.34-2.27-0.72-4.53-0.9-6.82c-0.03-1.31-1.09-2.37-2.4-2.4C118.8,135.07,117.73,136.14,117.72,137.46L117.72,137.46z"/>
<path class="st3" d="M145.28,80.18c1.8-1.74,5.1-1.87,6.69,0.28c0.74,1.27,1.13,2.7,1.15,4.17c0.17,1.8,0.16,3.62-0.02,5.42
	c-0.33,3.32-1.35,6.54-2.98,9.45c-1.11,1.95-3.03,4.89-5.62,4.36c-1.27-0.32-2.57,0.42-2.95,1.68c-0.34,1.28,0.41,2.59,1.68,2.95
	c2.09,0.52,4.3,0.16,6.11-1c1.83-1.29,3.36-2.95,4.51-4.86c2.45-4.09,3.86-8.71,4.13-13.47c0.3-4.39,0.06-10.1-3.67-13.06
	c-3.74-2.89-9.03-2.59-12.41,0.71C139.66,78.94,143.06,82.33,145.28,80.18L145.28,80.18z"/>
<path class="st3" d="M140.91,100.42c0.03,3.25-0.53,6.49-1.65,9.54c-0.13,0.37-0.28,0.73-0.42,1.09c-0.24,0.61,0.06-0.11-0.11,0.27
	c-0.12,0.27-0.24,0.55-0.37,0.82c-0.54,1.17-1.11,2.33-1.72,3.46c-2.93,5.74-6.81,10.96-11.46,15.41c-2.48,2.41-5.48,4.23-8.76,5.33
	c-2.95,0.88-1.69,5.52,1.28,4.63c7.17-2.15,12.68-7.75,17.09-13.55c3.66-4.75,6.65-9.99,8.86-15.56c1.42-3.65,2.12-7.53,2.06-11.45
	C145.61,97.33,140.81,97.32,140.91,100.42L140.91,100.42z"/>
<path class="st3" d="M49.33,81.04c-3.78-2.69-8.96-2.22-12.2,1.1c-3.3,3.53-2.72,9.18-1.87,13.56c0.88,4.59,2.85,8.9,5.75,12.58
	c2.76,3.44,7.18,6.61,11.78,5.25c2.96-0.87,1.7-5.51-1.28-4.63c-2.76,0.82-5.58-2.01-7.11-4.02c-2.02-2.74-3.46-5.86-4.23-9.17
	c-0.4-1.64-0.64-3.32-0.7-5.01c-0.05-1.49-0.17-3.32,0.66-4.64c1.5-2.41,4.67-2.43,6.77-0.87c1.15,0.66,2.61,0.28,3.28-0.86
	C50.83,83.18,50.45,81.74,49.33,81.04L49.33,81.04z"/>
<path class="st3" d="M49.35,107.05c4.11,13.73,13.36,26.57,26.12,33.46c3.53,1.95,7.37,3.27,11.35,3.89
	c1.27,0.31,2.56-0.43,2.95-1.68c0.34-1.28-0.4-2.59-1.68-2.95c-13.6-1.98-24.66-13.32-30.6-25.12c-1.43-2.85-2.61-5.82-3.51-8.88
	C53.09,102.82,48.46,104.08,49.35,107.05z"/>
<path class="st3" d="M66.52,155.88c1.85-0.59,3.68-1.24,5.5-1.91c1.8-0.52,3.44-1.49,4.77-2.81c1.16-1.38,1.9-3.06,2.14-4.85
	c0.37-2.19,0.72-4.38,1.01-6.58c0-1.33-1.07-2.4-2.4-2.4c-1.31,0.04-2.36,1.09-2.4,2.4c-0.04,0.3-0.04,0.33-0.01,0.1
	c-0.02,0.16-0.05,0.33-0.07,0.49c-0.04,0.25-0.07,0.5-0.11,0.74c-0.09,0.59-0.2,1.18-0.3,1.77c-0.12,0.73-0.22,1.46-0.34,2.19
	c-0.1,0.64-0.24,1.27-0.44,1.88c-0.22,0.63,0.17-0.27-0.03,0.1c-0.07,0.13-0.13,0.26-0.2,0.39c-0.08,0.15-0.2,0.29-0.28,0.44
	c-0.1,0.15-0.05,0.08,0.15-0.18c-0.07,0.08-0.13,0.16-0.2,0.23c-0.11,0.12-0.22,0.23-0.34,0.34c-0.08,0.07-0.17,0.15-0.25,0.22
	c0.26-0.2,0.28-0.22,0.06-0.06c-0.36,0.23-0.74,0.41-1.11,0.62c-0.15,0.07-0.13,0.06,0.07-0.02c-0.14,0.06-0.29,0.11-0.43,0.17
	l-0.12,0.05l-0.66,0.24c-1.74,0.64-3.5,1.26-5.27,1.82c-1.28,0.35-2.03,1.67-1.68,2.95C63.92,155.48,65.25,156.23,66.52,155.88
	L66.52,155.88L66.52,155.88z"/>
<path class="st3" d="M158.13,263.12c-0.6,0.58-1.23,1.12-1.91,1.62c-0.5,0.37-1.05,0.69-1.63,0.94c-0.5,0.16,0.31,0.05-0.18,0.02
	c-0.19,0-0.38-0.02-0.56-0.06c-2.71-0.52-5.22-1.78-7.99-1.99c-3.7-0.27-7.47,0.69-11.1,1.28c-4.16,0.54-8.38-0.2-12.1-2.12
	c-1.15-0.63-2.59-0.25-3.28,0.86c-0.66,1.15-0.27,2.61,0.86,3.28c3.41,1.72,7.14,2.74,10.95,2.99c3.38,0.14,6.7-0.78,10.03-1.24
	c2.29-0.44,4.66-0.32,6.9,0.33c2.26,0.72,5,1.85,7.41,1.36c2.28-0.47,4.36-2.28,5.99-3.86
	C163.74,264.36,160.35,260.97,158.13,263.12L158.13,263.12z"/>
<path class="st3" d="M114.54,242.84c6.7-1.87,13.33-4.05,19.83-6.53c3.13-1.29,6.34-2.36,9.61-3.21c1.35-0.34,2.73-0.51,4.12-0.49
	c1.92,0.14,3.8,0.57,5.59,1.28c2.55,0.89,5.05,1.92,7.58,2.87c1.28,0.34,2.59-0.41,2.95-1.68c0.32-1.27-0.42-2.58-1.68-2.95
	c-5.73-2.14-11.37-4.97-17.65-4.07c-3.42,0.61-6.75,1.59-9.96,2.92c-3.25,1.23-6.51,2.41-9.8,3.53c-3.93,1.34-7.88,2.58-11.87,3.7
	C110.29,239.04,111.55,243.68,114.54,242.84L114.54,242.84z"/>
<path class="st3" d="M8.38,185c-4.92,16.28-7.01,33.14-8.1,50.06c-0.41,6.94-0.35,13.9,0.2,20.82c0.25,3.4,0.56,6.8,0.92,10.19
	c0.29,3.51,0.79,7.01,1.51,10.46c1.77,7.58,5.95,14.44,12.62,18.61c3.55,2.2,7.59,3.49,11.76,3.74c3.6,0.17,7.22,0.04,10.8-0.39
	c13.88-1.36,27.61-4.49,41.04-8.16c13.26-3.51,26.27-7.88,38.96-13.11c1.35-0.57,2.7-1.15,4.03-1.75c1.14-0.68,1.52-2.14,0.86-3.28
	c-0.69-1.12-2.13-1.5-3.28-0.86c-11.71,5.07-23.75,9.33-36.05,12.74c-13.19,3.96-26.65,6.97-40.28,9c-2.81,0.39-5.63,0.69-8.46,0.89
	c-3.92,0.27-7.98,0.5-11.8-0.6c-6.98-2.01-12.03-7.63-14.46-14.31c-2.22-6.08-2.52-12.84-3.07-19.24
	c-0.69-6.5-0.96-13.04-0.82-19.58c0.68-16.1,2.43-32.34,6.53-47.96c0.53-2.01,1.1-4.01,1.7-6.01C13.9,183.32,9.27,182.05,8.38,185
	L8.38,185z"/>
<path class="st3" d="M35.49,252.67c9.73-1.14,19.42-2.95,29.03-4.84c9.56-1.87,19.06-4.22,28.54-6.48
	c5.64-1.35,11.29-2.69,16.85-4.36c2.95-0.89,1.69-5.52-1.28-4.63c-10.46,3.14-21.2,5.42-31.84,7.83
	c-8.32,1.89-16.61,3.64-25.02,5.11c-3,0.52-6,1.03-9.01,1.51c-2.64,0.42-4.98,0.78-7.27,1.05c-1.31,0.04-2.36,1.09-2.4,2.4
	C33.1,251.59,34.17,252.66,35.49,252.67L35.49,252.67z"/>
<path class="st3" d="M109.9,236.99c0.44-0.08-0.9,0.02-0.46-0.28c0.07,0.32,0.16,0.64,0.27,0.95c0.17,0.61,0.35,1.21,0.54,1.82
	c0.45,1.49,0.93,2.97,1.41,4.46c1.11,3.43,2.27,6.85,3.43,10.27c1.16,3.43,2.33,6.87,3.47,10.31c0.5,1.5,0.99,3,1.46,4.5
	c0.29,0.58,0.48,1.21,0.57,1.85c-0.01,0.1,0.04-0.13,0.03-0.12c-0.11,0.24-0.7,0.48-0.93,0.61c-2.68,1.54-0.26,5.68,2.42,4.14
	c1.64-0.94,3.18-2.28,3.29-4.3c-0.08-1.43-0.41-2.84-0.98-4.16c-0.96-3.01-1.97-6-2.98-9c-2.09-6.18-4.24-12.34-6.18-18.57
	c-0.42-1.34-0.75-2.71-1.2-4.03c-0.72-2.3-3.1-3.65-5.45-3.07c-1.27,0.36-2.02,1.68-1.68,2.95
	C107.32,236.57,108.62,237.31,109.9,236.99L109.9,236.99z"/>
<path class="st3" d="M87.51,288.82c0.87,0.37,1.8,0.59,2.75,0.64c1.87,0.26,3.74,0.47,5.61,0.67c4.96,0.54,9.93,1,14.9,1.43
	c11.43,0.99,22.85,1.4,34.32,1.85c8.96,0.49,17.95,0.38,26.9-0.32c6.89-0.65,14.41-1.52,20.51-5.07
	c6.52-3.79,9.89-10.33,10.81-17.64c0.42-4.11,0.52-8.24,0.29-12.36c-0.13-3.85-0.28-7.69-0.58-11.53
	c-1.39-16.8-4.72-33.39-9.91-49.43c-0.7-2.2-1.43-4.39-2.2-6.57c-0.38-1.26-1.68-2-2.95-1.68c-1.27,0.36-2.02,1.68-1.68,2.95
	c5.57,15.66,9.38,31.89,11.33,48.39c0.85,7.6,1.28,15.25,1.29,22.9c0.01,6.83-0.68,14.01-6.07,18.86
	c-4.54,4.08-11.14,5.17-16.97,5.94c-8.53,1-17.13,1.31-25.71,0.93c-11.83-0.33-23.69-0.72-35.49-1.69
	c-5.02-0.41-10.04-0.87-15.05-1.37c-2.04-0.2-4.09-0.42-6.12-0.65c-0.77-0.09-1.53-0.18-2.29-0.28c0.71,0.09-0.08-0.01-0.35-0.05
	c-0.24-0.04-0.48-0.07-0.71-0.11c-0.52-0.1-0.92-0.34-0.19,0.06C87.22,283.2,84.79,287.34,87.51,288.82L87.51,288.82z"/>
<path class="st3" d="M47.02,214.32c-0.83-0.22-1.69,0.17-2.07,0.94l-1.31,1.92c6.14,5.52,11.94,11.4,17.36,17.63l3.43-3.24
	c-4.77-5.55-9.84-10.84-15.2-15.83c-0.58-0.64-1.31-1.12-2.13-1.4L47.02,214.32z"/>
<path class="st3" d="M62.7,233.12c-3.37-3.71-6.74-7.43-10.28-10.98c-1.69-1.69-3.41-3.34-5.18-4.95c-1.75-1.79-3.76-3.31-5.96-4.5
	c-2.12-1.13-4.6-1.35-6.88-0.63c-2.31,0.8-3.89,2.93-3.99,5.38c0.05,2.46,1.7,4.55,3.38,6.18c1.63,1.59,3.24,3.17,4.83,4.8
	c3.95,4.04,8.01,7.96,11.86,12.1c2.11,2.27,5.5-1.13,3.39-3.39c-3-3.23-6.14-6.34-9.25-9.46c-1.41-1.41-2.81-2.83-4.19-4.27
	s-2.96-2.69-4.25-4.2c-0.54-0.53-0.89-1.21-1.01-1.95c0,0.12-0.09,0.27,0.04,0.06c0.16-0.29,0.4-0.53,0.69-0.7
	c1.35-0.7,3.17,0.26,4.3,0.96c1.65,1.14,3.18,2.44,4.58,3.87c1.49,1.38,2.96,2.8,4.39,4.24c3.49,3.51,6.81,7.17,10.14,10.83
	C61.39,238.8,64.77,235.4,62.7,233.12L62.7,233.12z"/>
<path class="st3" d="M35.28,219.08c-2.7-0.7-5.56,0.19-7.39,2.29c-2.33,2.82-1.4,6.26,0.64,8.9c2.01,2.38,4.15,4.64,6.41,6.77
	c2.23,2.29,4.49,4.56,6.87,6.7c0.95,0.91,2.45,0.91,3.39,0c0.92-0.94,0.92-2.45,0-3.39c-3.74-3.36-7.16-7.05-10.7-10.62
	c-0.79-0.75-1.54-1.55-2.23-2.4c-0.45-0.59-1.13-1.46-1.01-2.26c0.09-0.63,0.49-0.88,0.98-1.13c0.53-0.29,1.16-0.38,1.75-0.24
	C36.97,224.58,38.24,219.95,35.28,219.08L35.28,219.08z"/>
<path class="st3" d="M33.29,231.35c-2.23-0.02-4.32,1.11-5.54,2.98c-1.09,1.97-1.05,4.38,0.1,6.31c1.17,1.9,2.52,3.68,4.03,5.32
	l4.32,5.39c0.94,0.93,2.45,0.93,3.39,0c0.91-0.95,0.91-2.44,0-3.39c-2.24-2.8-4.54-5.57-6.74-8.41c-0.33-0.44-0.63-0.9-0.91-1.38
	c-0.06-0.14-0.24-0.94-0.19-0.5c-0.02-0.15-0.01-0.3-0.02-0.45c-0.02-0.62-0.08,0.18,0.01-0.14c0.01-0.04,0.15-0.47,0.06-0.23
	s0.22-0.2,0.03-0.03s0.71-0.59,0.3-0.29c0.12-0.09,0.25-0.16,0.37-0.24c0.15-0.1,0.26-0.12,0.03-0.04c0,0,0.6-0.16,0.35-0.12
	s0.4,0,0.41,0c1.32-0.01,2.39-1.08,2.4-2.4C35.67,232.43,34.61,231.37,33.29,231.35L33.29,231.35z"/>
<path class="st3" d="M47.02,216.48c-0.23,0.46-0.94-0.13-0.09,0.43c0.57,0.44,1.11,0.94,1.6,1.47c1.22,1.15,2.42,2.31,3.6,3.49
	c2.37,2.36,4.68,4.78,6.94,7.25c4.47,4.91,8.68,10.05,12.62,15.4c0.69,1.11,2.13,1.49,3.28,0.86c1.14-0.68,1.52-2.14,0.86-3.28
	c-4.71-6.42-9.79-12.56-15.22-18.38c-2.7-2.89-5.48-5.7-8.35-8.42c-1.32-1.25-2.69-2.79-4.51-3.26c-1.89-0.53-3.9,0.31-4.86,2.03
	C41.49,216.81,45.62,219.24,47.02,216.48L47.02,216.48z"/>
<path class="st3" d="M171.42,171.15c-1.49,4.15-2.74,8.38-3.74,12.68c-0.94,3.81-1.84,7.66-2.43,11.54c-0.63,4.16-1,8.37-1.43,12.55
	c-1.45,13.86-2.82,27.74-4.42,41.58c-0.2,1.72-0.41,3.45-0.62,5.17c-0.09,0.74-0.18,1.48-0.28,2.22c-0.05,0.36-0.09,0.73-0.14,1.09
	c-0.02,0.13-0.03,0.26-0.05,0.38c-0.08,0.57,0.06-0.41-0.01,0.11c-0.27,2-0.53,4-0.96,5.97c-0.65,3.01,3.98,4.3,4.63,1.28
	c0.94-4.37,1.36-8.89,1.89-13.32c0.82-6.9,1.56-13.81,2.29-20.71c1.21-11.51,2.24-23.04,3.66-34.53c0.09-0.71-0.09,0.54-0.01,0.04
	c0.04-0.26,0.07-0.52,0.12-0.77c0.15-0.93,0.32-1.86,0.5-2.78c0.44-2.27,0.94-4.53,1.47-6.78c1.09-4.9,2.48-9.72,4.16-14.44
	c0.34-1.28-0.4-2.59-1.68-2.95C173.1,169.14,171.8,169.88,171.42,171.15L171.42,171.15z"/>
<path class="st3" d="M37.18,214.07c-0.95-4.6-2.21-9.13-3.5-13.65c-0.79-3.01-1.75-5.98-2.86-8.89c-2.63-6.5-5.75-12.78-9.32-18.81
	c-1.58-2.65-5.73-0.24-4.15,2.42c3.45,5.75,6.44,11.76,8.96,17.98c1.1,2.92,2.04,5.9,2.83,8.92c1.26,4.4,2.47,8.82,3.4,13.31
	C33.17,218.37,37.8,217.09,37.18,214.07L37.18,214.07z"/>
<path class="st3" d="M13,186.28c1.48-4.57,3.94-8.77,7.22-12.29c3.33-3.36,7.59-5.47,11.8-7.52c5.15-2.5,10.44-4.72,15.79-6.75
	c4.16-1.67,8.41-3.12,12.72-4.33l8.39-2.18c2.99-0.78,1.72-5.41-1.28-4.63l-7.78,2.03c-4.25,1.18-8.43,2.58-12.54,4.19
	c-5.65,2.12-11.23,4.43-16.67,7.02c-4.64,2.21-9.33,4.54-13.11,8.08c-4.39,4.11-7.15,9.5-9.16,15.1c-0.34,1.28,0.41,2.59,1.68,2.95
	C11.33,188.28,12.63,187.54,13,186.28z"/>
<path class="st3" d="M190.78,190.27c-1.72-4.79-4.11-9.32-7.09-13.45c-1.67-2.34-3.72-4.38-6.07-6.04
	c-2.76-1.88-5.68-3.56-8.61-5.16c-5.6-3.05-11.39-5.73-17.26-8.21c-4.29-1.82-8.63-3.66-13.03-5.21c-2.8-0.99-5.76-1.64-8.62-2.45
	c-2.98-0.84-4.25,3.79-1.28,4.63c2.71,0.76,5.45,1.48,8.14,2.29c3.51,1.06,6.96,2.66,10.35,4.05c5.4,2.21,10.74,4.61,15.94,7.28
	c2.92,1.5,5.8,3.09,8.61,4.8c2.42,1.33,4.62,3.03,6.52,5.03c3.37,4.08,6,8.72,7.77,13.71c0.38,1.25,1.68,1.99,2.95,1.68
	C190.37,192.86,191.12,191.55,190.78,190.27L190.78,190.27z"/>
<path class="st0" d="M117.24,177.6c7.04-7.08,11.55-15.55,16.66-24.02c-2.11-3.76-4.87-7.12-8.14-9.93
	c-6.41,6.46-13.89,11.76-22.12,15.65c-0.97,0.41-1.88,0.96-2.69,1.64c-0.22,0.36,1.67,0.14,1.87,0.52c1.51,1.96,3.12,3.84,4.82,5.63
	C110.93,170.71,115.04,175.15,117.24,177.6z"/>
<path class="st0" d="M80.65,177.6c-7.04-7.08-11.55-15.55-16.66-24.02c2.11-3.76,4.87-7.12,8.14-9.93
	c6.41,6.46,13.89,11.76,22.12,15.65c0.97,0.41,1.88,0.96,2.69,1.64c0.22,0.36-1.67,0.14-1.87,0.52c-1.51,1.96-3.12,3.84-4.82,5.63
	C86.96,170.71,82.85,175.15,80.65,177.6z"/>
<path class="st3" d="M118.94,179.29c7.06-7.15,11.9-15.97,17.04-24.5c0.44-0.75,0.44-1.67,0-2.42c-2.23-3.93-5.1-7.45-8.51-10.41
	c-0.95-0.91-2.45-0.91-3.39,0c-6.1,6.19-13.23,11.27-21.07,15.01c-1.35,0.51-2.6,1.27-3.69,2.22c-0.89,0.88-0.99,2.28-0.25,3.29
	c0.64,0.74,1.58,1.14,2.56,1.11c0.12,0.02,0.23,0.03,0.35,0.03c-0.21,0.27-0.98-0.92-1.16-0.86c0,0,0.46,0.62,0.45,0.61
	c0.43,0.57,0.89,1.12,1.36,1.66c1.36,1.58,2.76,3.12,4.15,4.66c2.92,3.21,5.87,6.39,8.77,9.61c2.07,2.3,5.46-1.1,3.39-3.39
	c-3.08-3.43-6.22-6.8-9.32-10.21c-1.5-1.66-3.01-3.33-4.44-5.05c-0.41-0.5,0.08,0.14-0.22-0.3c-0.26-0.44-0.63-0.8-1.07-1.06
	c-0.52-0.26-1.1-0.41-1.68-0.44c-0.16-0.02-0.32-0.02-0.47-0.04c-0.72-0.1,0.35,0.12-0.09-0.03l1.06,0.62l-0.06-0.06l0.62,2.34
	l0.01-0.08l-0.62,1.06c0.22-0.27-0.26,0.05,0.05-0.09c0.2-0.09,0.42-0.27,0.61-0.38c0.37-0.21,0.75-0.41,1.13-0.6
	c0.95-0.47,1.92-0.92,2.86-1.4c2.45-1.27,4.84-2.67,7.14-4.19c4.7-3.08,9.06-6.64,13.01-10.63h-3.39c3.11,2.68,5.73,5.87,7.76,9.44
	v-2.42c-4.93,8.19-9.52,16.67-16.29,23.53C113.38,178.1,116.77,181.5,118.94,179.29z"/>
<path class="st3" d="M82.35,175.9c-6.77-6.86-11.36-15.35-16.29-23.53v2.42c2.03-3.57,4.65-6.76,7.76-9.44h-3.39
	c3.95,3.99,8.31,7.55,13.01,10.63c2.25,1.48,4.57,2.85,6.96,4.1c0.97,0.5,1.96,0.97,2.95,1.45c0.42,0.21,0.83,0.42,1.24,0.65
	c0.17,0.1,0.34,0.19,0.5,0.3c0.62,0.43-0.14-0.2,0.16,0.16l-0.62-1.06l0.01,0.08l0.62-2.34l-0.06,0.06l1.06-0.62
	c-0.36,0.13,0.4-0.04,0.02,0.02c-0.15,0.02-0.31,0.02-0.47,0.04c-0.6,0.02-1.19,0.17-1.73,0.42c-0.45,0.25-0.83,0.61-1.11,1.05
	c-0.05,0.07-0.09,0.14-0.14,0.21c-0.11,0.15,0.26-0.32-0.03,0.04c-1.44,1.77-2.99,3.46-4.52,5.15c-3.09,3.42-6.23,6.79-9.32,10.21
	c-2.06,2.29,1.32,5.7,3.39,3.39c2.53-2.81,5.1-5.59,7.65-8.38c1.45-1.59,2.89-3.17,4.31-4.79c1.06-0.98,1.98-2.09,2.73-3.32
	c0.25-0.55-0.69,1-1.04,0.79c-0.12-0.07,0-0.02,0.14,0c0.42,0.01,0.84-0.04,1.24-0.16c1.23-0.3,2.04-1.48,1.9-2.74
	c-0.2-1.71-2.06-2.59-3.44-3.27c-3.64-1.76-7.17-3.75-10.56-5.97c-4.14-2.77-7.99-5.96-11.48-9.51c-0.95-0.91-2.44-0.91-3.39,0
	c-3.41,2.96-6.29,6.49-8.51,10.41c-0.44,0.75-0.44,1.67,0,2.42c5.14,8.54,9.98,17.35,17.04,24.5
	C81.12,181.5,84.52,178.1,82.35,175.9z"/>
<path class="st3" d="M96.15,120.49c0.16-0.19,0.32-0.37,0.5-0.54c0.08-0.08,0.72-0.57,0.26-0.25c0.4-0.29,0.82-0.54,1.25-0.77
	c0.08-0.04,0.88-0.38,0.43-0.21c0.28-0.11,0.57-0.21,0.86-0.3s0.59-0.17,0.89-0.23c0.15-0.03,0.3-0.06,0.46-0.09
	c0.26-0.04,0.31-0.05,0.14-0.03s-0.12,0.02,0.14-0.01c0.17-0.01,0.34-0.03,0.51-0.04c0.34-0.02,0.68-0.03,1.02-0.03
	c0.63,0,1.25,0.03,1.87,0.09c0.12,0.01,0.24,0.02,0.36,0.04c-0.24-0.03-0.21-0.03,0.07,0.02s0.61,0.11,0.91,0.18
	s0.57,0.14,0.85,0.23c0.1,0.03,0.93,0.34,0.39,0.12c1.15,0.63,2.59,0.25,3.28-0.86c0.54-1.03,0.37-2.76-0.86-3.28
	c-2.91-1.2-6.08-1.6-9.19-1.16c-2.89,0.29-5.57,1.62-7.55,3.73c-0.94,0.94-0.94,2.46,0,3.39C93.69,121.43,95.21,121.43,96.15,120.49
	L96.15,120.49L96.15,120.49z"/>
<path class="st3" d="M99.5,96.74c0.26,0.77,0.5,1.56,0.73,2.34c0.27,0.81,0.48,1.65,0.63,2.49l-0.09-0.64
	c0.02,0.16,0.02,0.33,0,0.49l0.09-0.64c-0.01,0.08-0.03,0.15-0.06,0.22l0.24-0.57c-0.03,0.07-0.06,0.13-0.11,0.19l0.38-0.49
	c-0.03,0.04-0.06,0.07-0.1,0.11l0.49-0.38c-0.17,0.12-0.35,0.22-0.54,0.31l0.57-0.24c-0.19,0.08-0.38,0.13-0.58,0.16l0.64-0.09
	c-0.36,0.01-0.73-0.01-1.08-0.06c-1.33,0-2.4,1.07-2.41,2.39c0,0.64,0.25,1.25,0.71,1.71c0.46,0.43,1.07,0.68,1.7,0.7
	c0.3,0.04,0.6,0.07,0.9,0.07c0.79-0.03,1.57-0.25,2.25-0.64c0.83-0.44,1.42-1.21,1.63-2.12c0.14-0.75,0.1-1.53-0.1-2.26
	c-0.35-1.46-0.78-2.91-1.26-4.33c-0.18-0.6-0.57-1.11-1.1-1.43c-1.14-0.67-2.61-0.28-3.28,0.86C99.42,95.44,99.33,96.11,99.5,96.74
	L99.5,96.74z"/>
<path class="st3" d="M74.35,83.88c-0.6,2.36,0.25,7.66,4.93,7.82c6.15-0.42,6.04-6.88,3.77-9.78
	C81.19,79.54,76.14,78.83,74.35,83.88z"/>
<path class="st3" d="M123.42,80.72c0.9,2.26,0.74,7.6-3.88,8.36c-6.15,0.38-6.88-6.02-5-9.18
	C116.07,77.32,120.99,75.96,123.42,80.72z"/>
<path class="st3" d="M74.64,70.56c-0.31,0.32-0.65,0.61-1,0.88l0.49-0.38c-0.88,0.69-1.84,1.27-2.86,1.72l0.57-0.24
	c-0.23,0.1-0.46,0.18-0.7,0.24c-1.28,0.35-2.03,1.67-1.68,2.95c0,0,0,0,0,0c0.17,0.6,0.56,1.12,1.1,1.43
	c0.56,0.31,1.22,0.4,1.85,0.24c0.56-0.15,1.1-0.37,1.62-0.63c0.44-0.21,0.87-0.45,1.28-0.71c0.99-0.59,1.9-1.3,2.72-2.11
	c0.44-0.46,0.69-1.06,0.7-1.7c0-0.64-0.25-1.25-0.7-1.7c-0.45-0.45-1.06-0.7-1.7-0.7C75.7,69.86,75.09,70.11,74.64,70.56
	L74.64,70.56z"/>
<path class="st3" d="M83.78,118.3v2.96c0.01,0.64,0.26,1.24,0.7,1.7c0.47,0.43,1.07,0.67,1.7,0.7c0.64,0,1.25-0.25,1.7-0.7
	c0.44-0.46,0.69-1.06,0.7-1.7v-2.96c-0.01-0.64-0.26-1.24-0.7-1.7c-0.47-0.43-1.07-0.67-1.7-0.7c-0.64,0-1.25,0.25-1.7,0.7
	C84.04,117.06,83.79,117.66,83.78,118.3z"/>
</svg>
