<?xml version="1.0" encoding="iso-8859-1"?>
<!-- Generator: Adobe Illustrator 18.0.0, SVG Export Plug-In . SVG Version: 6.00 Build 0)  -->
<!DOCTYPE svg PUBLIC "-//W3C//DTD SVG 1.1//EN" "http://www.w3.org/Graphics/SVG/1.1/DTD/svg11.dtd">
<svg version="1.1" id="_x34_" xmlns="http://www.w3.org/2000/svg" xmlns:xlink="http://www.w3.org/1999/xlink" x="0px" y="0px"
	 viewBox="0 0 512 512" style="enable-background:new 0 0 512 512;" xml:space="preserve">
<g>
	<g>
		<path style="fill:#F4F4F5;" d="M375.13,21.75v466.996c0,11.649-9.068,21.233-20.496,22.045c-0.738,0.074-1.548,0.147-2.286,0.147
			H22.266c-0.148,0-0.295,0-0.442-0.073c-0.442,0-0.885,0-1.327-0.074C9.585,509.684,1.032,500.763,0.59,489.704v-0.073
			c-0.074-0.295-0.074-0.59-0.074-0.885V22.192C0.516,9.954,10.544,0,22.708,0H353.38C365.251,0.295,374.909,9.88,375.13,21.75z"/>
		<path style="fill:#FFFFFF;" d="M375.13,21.75v4.497c0-1.769-0.221-3.465-0.59-5.087c-1.917-8.11-8.331-14.524-16.442-16.441
			c-1.696-0.442-3.465-0.664-5.234-0.664H22.708c-12.165,0-22.192,9.954-22.192,22.192v-4.055C0.516,9.954,10.544,0,22.708,0H353.38
			C365.251,0.295,374.909,9.88,375.13,21.75z"/>
		<path style="opacity:0.1;fill:#040000;" d="M374.614,484.69v4.055c0,11.502-8.847,20.939-19.98,22.045
			c-0.738,0.074-1.548,0.147-2.286,0.147H21.898c-0.442,0-0.958,0-1.401-0.147C9.143,509.979,0.148,500.542,0,489.04v-4.35
			c0,1.696,0.221,3.318,0.59,4.94v0.073c1.917,8.258,8.405,14.746,16.663,16.589c1.622,0.369,3.318,0.59,5.014,0.59h330.082
			C364.587,506.883,374.614,496.93,374.614,484.69z"/>
		<g>
			<path style="fill:#C0BFBF;" d="M221.612,37.572h-67.584c-2.795,0-5.083-2.287-5.083-5.083l0,0c0-2.795,2.287-5.083,5.083-5.083
				h67.584c2.795,0,5.083,2.287,5.083,5.083l0,0C226.694,35.284,224.407,37.572,221.612,37.572z"/>
			<path style="fill:#8A8182;" d="M226.334,30.479c-0.847-0.69-1.921-1.103-3.093-1.103h-67.884c-2.709,0-4.935,2.216-4.935,4.935
				v0.295c0,0.66,0.138,1.29,0.384,1.871c-1.133-0.896-1.862-2.295-1.862-3.841v-0.296c0-2.719,2.226-4.935,4.935-4.935h67.884
				C223.822,27.406,225.595,28.677,226.334,30.479z"/>
		</g>
		<g>
			<circle style="fill:#C7C6C6;" cx="187.82" cy="463.198" r="24.621"/>
			<path style="fill:#8A8182;" d="M206.358,447.898c-4.096-3.207-9.249-5.117-14.847-5.117c-13.309,0-24.108,10.799-24.108,24.12
				c0,5.586,1.898,10.727,5.093,14.811c-5.658-4.409-9.297-11.292-9.297-19.015c0-13.322,10.799-24.12,24.12-24.12
				C195.054,438.577,201.949,442.228,206.358,447.898z"/>
		</g>
		<rect x="25.299" y="57.113" style="fill:#7CBBA4;" width="325.041" height="364.44"/>
		<rect x="25.299" y="59.74" style="fill:#3D3D3D;" width="325.041" height="43.175"/>
		<g>
			<rect x="41.418" y="69.261" style="fill:#F2F2F2;" width="7.222" height="26.102"/>
			<rect x="52.936" y="76.648" style="fill:#F2F2F2;" width="7.222" height="18.714"/>
			<rect x="64.453" y="83.872" style="fill:#F2F2F2;" width="7.222" height="11.491"/>
		</g>
		<g style="opacity:0.5;">
			<rect x="41.714" y="160.072" style="fill:#FAFAFB;" width="87.109" height="42.547"/>
			<rect x="141.889" y="160.072" style="fill:#FAFAFB;" width="87.109" height="42.547"/>
			<rect x="242.064" y="160.072" style="fill:#FAFAFB;" width="87.109" height="42.547"/>
			<rect x="41.715" y="209.462" style="fill:#FAFAFB;" width="49.776" height="8.089"/>
			<rect x="63.06" y="136.902" style="fill:#FAFAFB;" width="49.776" height="4.044"/>
			<rect x="41.715" y="267.742" style="fill:#FAFAFB;" width="49.776" height="8.089"/>
			<rect x="41.715" y="222.529" style="fill:#FAFAFB;" width="87.731" height="8.089"/>
			<rect x="41.715" y="237.565" style="fill:#FAFAFB;" width="87.731" height="8.089"/>
			<rect x="41.715" y="252.602" style="fill:#FAFAFB;" width="87.731" height="8.089"/>
			<rect x="143.445" y="209.462" style="fill:#FAFAFB;" width="49.776" height="8.089"/>
			<rect x="143.445" y="267.742" style="fill:#FAFAFB;" width="49.776" height="8.089"/>
			<rect x="143.445" y="222.529" style="fill:#FAFAFB;" width="87.731" height="8.089"/>
			<rect x="143.445" y="237.565" style="fill:#FAFAFB;" width="87.731" height="8.089"/>
			<rect x="143.445" y="252.602" style="fill:#FAFAFB;" width="87.731" height="8.089"/>
			<rect x="241.996" y="209.462" style="fill:#FAFAFB;" width="49.776" height="8.089"/>
			<rect x="241.996" y="267.742" style="fill:#FAFAFB;" width="49.776" height="8.089"/>
			<rect x="241.996" y="222.529" style="fill:#FAFAFB;" width="87.731" height="8.089"/>
			<rect x="241.996" y="237.565" style="fill:#FAFAFB;" width="87.731" height="8.089"/>
			<rect x="241.996" y="252.602" style="fill:#FAFAFB;" width="87.731" height="8.089"/>
			<path style="fill:#FAFAFB;" d="M53.358,134.65L53.358,134.65c2.36,2.36,2.36,6.187,0,8.548l0,0c-2.36,2.36-6.187,2.36-8.548,0
				l0,0c-2.36-2.36-2.36-6.187,0-8.548l0,0C47.171,132.29,50.998,132.29,53.358,134.65z"/>
			
				<rect x="306.253" y="136.069" transform="matrix(-0.7071 -0.7071 0.7071 -0.7071 429.4445 455.7294)" style="fill:#FAFAFB;" width="5.709" height="5.709"/>
			
				<rect x="320.097" y="136.069" transform="matrix(-0.7071 -0.7071 0.7071 -0.7071 453.0776 465.5186)" style="fill:#FAFAFB;" width="5.709" height="5.709"/>
			
				<rect x="293.964" y="136.069" transform="matrix(-0.7071 -0.7071 0.7071 -0.7071 408.4668 447.0399)" style="fill:#FAFAFB;" width="5.709" height="5.709"/>
		</g>
		<rect x="25.299" y="417.859" style="opacity:0.2;fill:#FAFAFB;" width="325.041" height="3.694"/>
	</g>
	<path style="opacity:0.04;fill:#040000;" d="M374.614,69.261v420.547c0,11.502-8.847,20.939-19.98,22.045
		c-0.738,0.074-1.548,0.147-2.286,0.147H21.898c-0.442,0-0.958,0-1.401-0.147C9.143,511.042,0.148,501.604,0,490.103v-46.302
		l0.516-0.516l24.773-24.773L175.032,268.77l7.004-7.004l8.184-8.11l21.971-21.971l8.11-8.11l21.75-21.75l40.698-40.698
		l67.609-67.609L374.614,69.261z"/>
</g>
</svg>
