<?xml version="1.0" encoding="iso-8859-1"?>
<!-- Generator: Adobe Illustrator 18.0.0, SVG Export Plug-In . SVG Version: 6.00 Build 0)  -->
<!DOCTYPE svg PUBLIC "-//W3C//DTD SVG 1.1//EN" "http://www.w3.org/Graphics/SVG/1.1/DTD/svg11.dtd">
<svg version="1.1" id="_x34_" xmlns="http://www.w3.org/2000/svg" xmlns:xlink="http://www.w3.org/1999/xlink" x="0px" y="0px"
	 viewBox="0 0 512 512" style="enable-background:new 0 0 512 512;" xml:space="preserve">
<g>
	<path style="fill:none;" d="M266.781,276.035c0,0-5.715,11.476-8.416,10.585c-8.778-2.902-19.779-9.628-28.946-18.655
		l-19.669,19.669c-0.636,5.875-1.151,11.945-1.538,18.108h50.458c24.871,0,45.119-17.839,45.119-39.779v-21.031h-51.336
		L240.8,256.584C248.06,266.494,258.28,274.105,266.781,276.035z"/>
	<path style="fill:none;" d="M253.463,256.584l11.652-11.653h-18.23C248.509,249.029,250.8,252.949,253.463,256.584z"/>
	<path style="fill:none;" d="M253.379,251.829c-0.009,0.025-0.019,0.044-0.028,0.068c-3.429,9.237-5.685,21.875-7.186,35.736
		l19.669-19.669C260.959,263.163,256.574,257.742,253.379,251.829z"/>
	<polygon style="fill:none;" points="269.884,14.356 242.116,42.124 269.884,42.124 	"/>
	<g>
		<g>
			<polygon style="fill:#525252;" points="477.754,18.686 477.754,57.294 436.867,57.294 436.867,0 446.698,4.492 455.227,8.464 
				468.834,14.649 			"/>
			<path style="fill:#616161;" d="M512,61.395v53.519c0,10.742-8.659,19.402-19.337,19.402H241.025
				c-10.742,0-19.402-8.66-19.402-19.402V61.395c0-10.612,8.659-19.337,19.402-19.337h251.638c1.367,0,2.734,0.13,4.037,0.456
				c7.422,1.563,13.282,7.422,14.844,14.845C511.87,58.661,512,60.028,512,61.395z"/>
			<path style="fill:#525252;" d="M171.231,65.237l-5.013,55.667c0,0-8.073,10.418-25.978,11.394
				c-6.771,0.391-15.04-0.587-24.741-4.037c-35.223-12.565-23.504-57.684-23.178-67.319c0.326-9.636-17.514-11.069-25.978-19.597
				c-8.529-8.529,19.206-16.342,49.026,6.705c9.636,7.422,18.425,11.979,26.043,14.78C157.559,68.493,168.496,66.084,171.231,65.237
				z"/>
			<path style="fill:#B5B5B5;" d="M220.621,276.002c-14.932-3.391-35.333-24.202-35.333-44.47v-6.772
				c-1.125-0.095-2.259-0.155-3.407-0.155h-11.95c-1.587,0-3.151,0.102-4.692,0.282v6.645c0,26.204,28.518,48.957,46.965,55.054
				C214.905,287.479,220.621,276.002,220.621,276.002z"/>
			<g>
				<path style="fill:#B5B5B5;" d="M275.858,221.102v-0.065c-0.13-5.663-1.302-11.133-3.32-16.277v-0.065
					c-2.279-5.859-5.664-11.329-9.896-16.146c-2.93-3.32-6.25-6.315-9.896-8.984c-2.148-1.497-4.427-2.929-6.771-4.296
					c-0.065,0-0.13,0-0.13-0.13c-9.701-5.209-21.095-8.269-33.335-8.269h-81.904c-35.027,0-63.479,25-63.479,55.795v43.297
					c0,30.47,27.801,55.21,62.307,55.797h83.076c34.962,0,63.414-25.002,63.414-55.797v-43.297
					C275.923,222.21,275.923,221.689,275.858,221.102z M257.628,265.962c0,21.875-20.248,39.714-45.119,39.714h-81.904
					c-24.936,0-45.184-17.839-45.184-39.714v-43.297c0-21.875,20.248-39.649,45.184-39.649h81.904c4.037,0,8.008,0.391,11.719,1.367
					c8.464,2.019,15.886,6.054,21.616,11.654c0.065,0,0.13,0,0.13,0.13c1.563,1.432,2.995,3.06,4.232,4.816
					c0.911,1.173,1.758,2.41,2.474,3.712c0,0,0,0.065,0.065,0.065c2.865,4.948,4.557,10.483,4.753,16.277v0.065
					c0.13,0.587,0.13,1.108,0.13,1.563V265.962z"/>
			</g>
			<path style="fill:#8B6344;" d="M185.685,235.882c-0.651,0.261-1.302,0.456-1.953,0.587c-3.842,0.652-7.032,3.646-9.701,8.399
				c-1.237,2.019-2.279,4.427-3.255,6.965v0.065c-3.451,9.246-5.729,21.811-7.162,35.68c-0.391,2.928-0.651,5.924-0.911,8.984
				c-0.261,2.995-0.456,6.055-0.651,9.114c-0.325,5.339-0.586,10.809-0.716,16.083c-1.172,35.548,0.781,68.556,0.781,68.556
				s-51.89,0-101.241,0H0c0.065-4.427,0.196-8.789,0.391-13.021v-0.78c7.357-152.286,116.346-228.33,116.346-228.33h70.25
				c0,0,2.539,7.747,5.143,18.686c1.172,4.883,2.409,10.351,3.451,16.146c1.107,6.38,1.953,13.021,2.344,19.467
				C198.771,218.434,196.297,232.431,185.685,235.882z"/>
			<path style="fill:#616161;" d="M396.37,70.837v145.187c0,15.952-12.891,28.844-28.777,28.844H167.65
				c-15.235-0.782-27.41-13.282-27.41-28.844V70.837c0-2.801,0.391-5.404,1.172-8.008c3.45-11.98,14.519-20.77,27.605-20.77h198.576
				c11.198,0,20.899,6.446,25.652,15.82C395.264,61.721,396.37,66.148,396.37,70.837z"/>
			<rect x="245.817" y="73.565" style="fill:#8B8B8B;" width="127.294" height="147.536"/>
			<path style="fill:#595A59;" d="M306.067,119.002H234.02c-6.928,0-12.597-5.669-12.597-12.597l0,0
				c0-6.928,5.669-12.597,12.597-12.597h72.048c6.928,0,12.597,5.669,12.597,12.597l0,0
				C318.664,113.333,312.996,119.002,306.067,119.002z"/>
			<path style="fill:#595A59;" d="M306.067,160.109H234.02c-6.928,0-12.597-5.669-12.597-12.597l0,0
				c0-6.928,5.669-12.597,12.597-12.597h72.048c6.928,0,12.597,5.669,12.597,12.597l0,0
				C318.664,154.44,312.996,160.109,306.067,160.109z"/>
			<path style="fill:#595A59;" d="M306.067,204.752H234.02c-6.928,0-12.597-5.669-12.597-12.597l0,0
				c0-6.928,5.669-12.597,12.597-12.597h72.048c6.928,0,12.597,5.669,12.597,12.597l0,0
				C318.664,199.083,312.996,204.752,306.067,204.752z"/>
			<path style="fill:#8B8B8B;" d="M245.949,220.48c-40.488,0-73.31-32.822-73.31-73.31c0-40.488,32.822-73.31,73.31-73.31V220.48z"
				/>
		</g>
		<path style="opacity:0.06;fill:#040000;" d="M512,61.395v53.519c0,10.742-8.659,19.402-19.337,19.402H396.37v81.708
			c0,15.952-12.891,28.844-28.777,28.844h-91.671v21.095c0,30.795-28.452,55.797-63.414,55.797h-51.174
			c-1.172,35.548,0.781,68.556,0.781,68.556s-51.89,0-101.241,0l102.738-102.737c-0.391,2.928-0.651,5.924-0.911,8.984
			c-0.261,2.995-0.456,6.055-0.651,9.114h50.458c24.871,0,45.119-17.839,45.119-39.714v-21.095h-51.304l25.717-25.782l13.803-13.738
			l45.249-45.249l22.527-22.594l95.446-95.446h27.801V14.323l9.831-9.831l8.529,3.972l13.607,6.185l8.92,4.037v23.373h14.91
			c1.367,0,2.734,0.13,4.037,0.456c7.422,1.563,13.282,7.422,14.844,14.845C511.87,58.661,512,60.028,512,61.395z"/>
	</g>
</g>
</svg>
