<svg xmlns="http://www.w3.org/2000/svg" width="343.864" height="360.775" viewBox="0 0 343.864 360.775"><defs><style>.a{fill:#fff;}.b{fill:#211916;}.c{fill:#ac9d91;}.d{fill:#d6bdac;}.e{fill:#9fc0e5;}</style></defs><path class="a" d="M14.33,310.307c-.052-63.928-.192-184.516-.2-199.147C32.7,98.232,135.934,29.561,177.8,2.467c41.715,27,144.351,95.26,163.461,108.548,0,14.071.2,201.512.2,232.007-.154-.008-.2-.008-.2-.008H14.349C14.349,336.221,14.342,324.7,14.33,310.307Z"/><path class="b" d="M176.592,4.539Q191.8,14.381,206.92,24.355,225.849,36.8,244.73,49.312q19.439,12.875,38.843,25.8Q300.3,86.26,317,97.458c7.186,4.827,14.378,9.647,21.508,14.559q.771.531,1.541,1.066a2.422,2.422,0,0,0,3.284-.861,2.448,2.448,0,0,0-.861-3.283c-6.51-4.525-13.1-8.936-19.679-13.36q-16.14-10.855-32.331-21.635-19.246-12.833-38.53-25.611Q232.81,35.661,213.651,23.045,197.934,12.7,182.165,2.436L179.015.394c-2.6-1.683-5.01,2.471-2.423,4.145Z"/><path class="b" d="M176.592.394q-15.207,9.842-30.327,19.816-18.928,12.444-37.81,24.958-19.44,12.874-38.843,25.8Q52.881,82.114,36.187,93.313C29,98.14,21.808,102.961,14.679,107.872q-.773.533-1.542,1.067a2.462,2.462,0,0,0-.861,3.283,2.42,2.42,0,0,0,3.284.861c6.51-4.525,13.1-8.935,19.679-13.36Q51.379,88.868,67.57,78.089,86.816,65.257,106.1,52.478,125.22,39.8,144.379,27.189,160.1,16.845,175.865,6.581q1.575-1.023,3.15-2.042c2.584-1.673.181-5.83-2.423-4.145Z"/><path class="b" d="M176.592,18.712Q191.8,28.554,206.92,38.528q18.929,12.444,37.81,24.958,19.439,12.873,38.843,25.8Q300.3,100.433,317,111.631c7.186,4.827,14.378,9.647,21.508,14.559q.771.531,1.541,1.066a2.421,2.421,0,0,0,3.284-.861,2.448,2.448,0,0,0-.861-3.283c-6.51-4.525-13.1-8.936-19.679-13.36Q306.651,98.9,290.46,88.117q-19.246-12.833-38.53-25.611Q232.81,49.834,213.651,37.218q-15.717-10.344-31.486-20.609-1.575-1.022-3.15-2.041c-2.6-1.684-5.01,2.47-2.423,4.144Z"/><path class="b" d="M176.592,14.568q-15.21,10.017-30.35,20.141Q127.25,47.368,108.278,60.057,88.849,73.041,69.412,86.015,52.7,97.163,35.946,108.261c-7.086,4.685-14.162,9.394-21.344,13.933q-.73.461-1.465.918c-2.619,1.626-.212,5.78,2.423,4.144,6.55-4.065,12.966-8.355,19.4-12.6q16.2-10.685,32.331-21.467,19.279-12.852,38.54-25.734,19.22-12.843,38.446-25.676,15.8-10.539,31.64-21.025,1.548-1.021,3.1-2.042c2.569-1.692.167-5.85-2.423-4.144Z"/><path class="b" d="M338.865,111.011q0,4.4,0,8.79l.015,16.79.021,23.1q.014,13.746.026,27.491.015,14.947.029,29.9.015,15.363.029,30.726l.027,29.444q.012,13.293.022,26.585.009,10.869.017,21.737,0,7.493.008,14.985v2.464c0,3.088,4.8,3.094,4.8,0q0-6.572,0-13.144l-.015-20.186-.021-25.567q-.013-14.51-.026-29.018-.015-15.238-.029-30.478-.013-15.185-.029-30.37l-.027-28.152q-.01-12.172-.022-24.346-.009-9.277-.017-18.554,0-5.44-.007-10.88,0-.654,0-1.308c0-3.089-4.8-3.094-4.8,0Z"/><path class="b" d="M11.737,111.011q0,4.676.006,9.351.006,8.4.015,16.8.011,11.355.023,22.711.013,13.368.028,26.734l.03,29.182q.015,15.051.031,30.1.015,14.6.028,29.192.014,13.235.025,26.469.009,11.109.017,22.217.006,8.179.008,16.358,0,1.446,0,2.892c0,3.089,4.8,3.094,4.8,0q0-7.322-.006-14.642-.006-10.459-.015-20.92-.012-12.857-.023-25.713-.013-14.291-.028-28.581l-.03-29.892q-.017-14.835-.031-29.671-.015-13.806-.029-27.613l-.024-23.758q-.009-9.186-.017-18.371-.006-5.673-.009-11.347v-1.5c0-3.089-4.8-3.094-4.8,0Z"/><path class="c" d="M323.919,322.562V242.193H275.246c.07,19.846,0,65.141,0,80.369"/><path class="b" d="M326.319,322.562V242.193a2.435,2.435,0,0,0-2.4-2.4H275.246a2.434,2.434,0,0,0-2.4,2.4q.055,15.756.03,31.512,0,17.493-.022,34.986-.006,6.936-.008,13.871c0,3.088,4.8,3.094,4.8,0q0-14.109.019-28.217.013-17.949.009-35.9,0-8.127-.028-16.253l-2.4,2.4h48.673l-2.4-2.4v80.369c0,3.088,4.8,3.094,4.8,0Z"/><path class="a" d="M341.258,209.256V225.7c-30.845-.024-62.336,0-86,0V209.256Z"/><path class="b" d="M338.858,209.256V225.7l2.4-2.4q-34.579-.027-69.159,0-8.421,0-16.844,0l2.4,2.4V209.256l-2.4,2.4h86c3.089,0,3.094-4.8,0-4.8h-86a2.435,2.435,0,0,0-2.4,2.4V225.7a2.435,2.435,0,0,0,2.4,2.4q32.718,0,65.437-.01,10.283,0,20.566.01a2.435,2.435,0,0,0,2.4-2.4V209.256C343.658,206.168,338.858,206.163,338.858,209.256Z"/><path class="b" d="M257.655,342.256V225.7c0-3.089-4.8-3.094-4.8,0V342.256c0,3.089,4.8,3.094,4.8,0Z"/><path class="b" d="M255.255,335.566h86c3.089,0,3.094-4.8,0-4.8h-86c-3.089,0-3.094,4.8,0,4.8Z"/><path class="b" d="M255.255,325.718h86c3.089,0,3.094-4.8,0-4.8h-86c-3.089,0-3.094,4.8,0,4.8Z"/><path class="b" d="M286.577,281.813c.059,3.7,0,7.394,0,11.091a2.4,2.4,0,0,0,4.8,0c0-3.7.055-7.394,0-11.091a2.4,2.4,0,0,0-4.8,0Z"/><path class="b" d="M14.349,345.414h326.91c3.088,0,3.093-4.8,0-4.8H14.349c-3.089,0-3.094,4.8,0,4.8Z"/><path class="d" d="M138.993,209.256H2.4c.2,53.482,0,108.082,0,149.119H138.993Z"/><path class="b" d="M138.993,206.856H2.4a2.434,2.434,0,0,0-2.4,2.4q.114,31.126.086,62.251Q.074,300.526.022,329.545,0,343.96,0,358.375a2.435,2.435,0,0,0,2.4,2.4H138.993a2.435,2.435,0,0,0,2.4-2.4V209.256c0-3.088-4.8-3.093-4.8,0V358.375l2.4-2.4H2.4l2.4,2.4q0-26.683.055-53.367.039-30.262.024-60.526-.018-17.613-.079-35.226l-2.4,2.4H138.993C142.081,211.656,142.086,206.856,138.993,206.856Z"/><path class="b" d="M73.029,357.952v-148.7c0-3.088-4.8-3.093-4.8,0v148.7c0,3.088,4.8,3.093,4.8,0Z"/><path class="b" d="M95.706,357.952v-148.7c0-3.088-4.8-3.093-4.8,0v148.7c0,3.088,4.8,3.093,4.8,0Z"/><path class="b" d="M118.384,357.952v-148.7c0-3.088-4.8-3.093-4.8,0v148.7c0,3.088,4.8,3.093,4.8,0Z"/><path class="b" d="M50.352,357.952v-148.7c0-3.088-4.8-3.093-4.8,0v148.7c0,3.088,4.8,3.093,4.8,0Z"/><path class="b" d="M27.675,357.952v-148.7c0-3.088-4.8-3.093-4.8,0v148.7c0,3.088,4.8,3.093,4.8,0Z"/><path class="e" d="M171.56,133.83H139.671c.046,10.734,0,21.693,0,29.929H171.56Z"/><path class="b" d="M171.56,131.43H139.671a2.435,2.435,0,0,0-2.4,2.4c.042,9.977,0,19.953,0,29.929a2.435,2.435,0,0,0,2.4,2.4H171.56a2.435,2.435,0,0,0,2.4-2.4V133.83c0-3.088-4.8-3.093-4.8,0v29.929l2.4-2.4H139.671l2.4,2.4c0-9.976.042-19.952,0-29.929l-2.4,2.4H171.56C174.649,136.23,174.654,131.43,171.56,131.43Z"/><path class="e" d="M215.936,133.83H184.047c.046,10.734,0,21.693,0,29.929h31.889Z"/><path class="b" d="M215.936,131.43H184.047a2.435,2.435,0,0,0-2.4,2.4c.042,9.977,0,19.953,0,29.929a2.435,2.435,0,0,0,2.4,2.4h31.889a2.435,2.435,0,0,0,2.4-2.4V133.83c0-3.088-4.8-3.093-4.8,0v29.929l2.4-2.4H184.047l2.4,2.4c0-9.976.042-19.952,0-29.929l-2.4,2.4h31.889C219.025,136.23,219.03,131.43,215.936,131.43Z"/><path class="e" d="M171.56,91.451H139.671c.046,10.734,0,21.692,0,29.928H171.56Z"/><path class="b" d="M171.56,89.051H139.671a2.435,2.435,0,0,0-2.4,2.4c.042,9.976,0,19.952,0,29.928a2.435,2.435,0,0,0,2.4,2.4H171.56a2.435,2.435,0,0,0,2.4-2.4V91.451c0-3.089-4.8-3.094-4.8,0v29.928l2.4-2.4H139.671l2.4,2.4c0-9.976.042-19.952,0-29.928l-2.4,2.4H171.56C174.649,93.851,174.654,89.051,171.56,89.051Z"/><path class="e" d="M215.936,91.451H184.047c.046,10.734,0,21.692,0,29.928h31.889Z"/><path class="b" d="M215.936,89.051H184.047a2.435,2.435,0,0,0-2.4,2.4c.042,9.976,0,19.952,0,29.928a2.435,2.435,0,0,0,2.4,2.4h31.889a2.435,2.435,0,0,0,2.4-2.4V91.451c0-3.089-4.8-3.094-4.8,0v29.928l2.4-2.4H184.047l2.4,2.4c0-9.976.042-19.952,0-29.928l-2.4,2.4h31.889C219.025,93.851,219.03,89.051,215.936,89.051Z"/></svg>