<svg xmlns="http://www.w3.org/2000/svg" width="268.106" height="392.983" viewBox="0 0 268.106 392.983"><defs><style>.a{fill:#fff;}.b{fill:#b4b4b4;}.c{fill:#9fc0e5;}.d{fill:#211916;}.e{fill:#ac9d91;}</style></defs><path class="a" d="M265.631,98.088c-.012-45.435-.021-78.934-.02-83.148-25.171,0-74.35-.079-96.733-.079V390.583h96.828C265.706,374.363,265.659,203.874,265.631,98.088Z"/><path class="a" d="M2.57,50.852C2.585,23.406,2.594,5.04,2.593,2.4c26.3,0,137.012.079,166.285.079v388.1H2.4C2.4,368.583,2.519,150.215,2.57,50.852Z"/><path class="b" d="M168.878,390.225V331.69H2.594c.254,14.455,0,47.444,0,58.535"/><path class="c" d="M253.027,390.225V342.418H181.169c.141,14.142,0,36.955,0,47.807"/><path class="c" d="M253.027,390.583V342.418"/><path class="d" d="M255.427,390.583V342.418c0-3.089-4.8-3.094-4.8,0v48.165c0,3.089,4.8,3.094,4.8,0Z"/><path class="c" d="M229.075,390.583V342.418"/><path class="d" d="M231.475,390.583V342.418c0-3.089-4.8-3.094-4.8,0v48.165c0,3.089,4.8,3.094,4.8,0Z"/><path class="c" d="M205.122,390.583V342.418"/><path class="d" d="M207.522,390.583V342.418c0-3.089-4.8-3.094-4.8,0v48.165c0,3.089,4.8,3.094,4.8,0Z"/><path class="c" d="M181.169,390.583V342.418"/><path class="d" d="M183.569,390.583V342.418c0-3.089-4.8-3.094-4.8,0v48.165c0,3.089,4.8,3.094,4.8,0Z"/><path class="d" d="M168.878,344.818h96.635c3.088,0,3.093-4.8,0-4.8H168.878c-3.089,0-3.094,4.8,0,4.8Z"/><path class="d" d="M265.706,388.183H2.6c-3.089,0-3.094,4.8,0,4.8H265.706c3.089,0,3.094-4.8,0-4.8Z"/><path class="c" d="M204.183,158.055h25.831c-.037,13.01,0,26.292,0,36.275H204.183Z"/><path class="d" d="M204.183,160.455h25.831l-2.4-2.4c-.034,12.091,0,24.183,0,36.275l2.4-2.4H204.183l2.4,2.4V158.055c0-3.089-4.8-3.094-4.8,0V194.33a2.435,2.435,0,0,0,2.4,2.4h25.831a2.435,2.435,0,0,0,2.4-2.4c0-12.092-.034-24.184,0-36.275a2.435,2.435,0,0,0-2.4-2.4H204.183C201.094,155.655,201.089,160.455,204.183,160.455Z"/><path class="c" d="M204.183,235.529h25.831c-.037,13.01,0,26.293,0,36.275H204.183Z"/><path class="d" d="M204.183,237.929h25.831l-2.4-2.4c-.034,12.092,0,24.184,0,36.275l2.4-2.4H204.183l2.4,2.4V235.529c0-3.088-4.8-3.093-4.8,0V271.8a2.434,2.434,0,0,0,2.4,2.4h25.831a2.435,2.435,0,0,0,2.4-2.4c0-12.091-.034-24.183,0-36.275a2.435,2.435,0,0,0-2.4-2.4H204.183C201.094,233.129,201.089,237.929,204.183,237.929Z"/><path class="c" d="M204.183,82.112h25.831c-.037,13.01,0,26.292,0,36.275H204.183Z"/><path class="d" d="M204.183,84.512h25.831l-2.4-2.4c-.034,12.091,0,24.183,0,36.275l2.4-2.4H204.183l2.4,2.4V82.112c0-3.089-4.8-3.094-4.8,0v36.275a2.435,2.435,0,0,0,2.4,2.4h25.831a2.435,2.435,0,0,0,2.4-2.4c0-12.092-.034-24.184,0-36.275a2.435,2.435,0,0,0-2.4-2.4H204.183C201.094,79.712,201.089,84.512,204.183,84.512Z"/><path class="d" d="M.194,2.439q0,6.368-.005,12.734l-.015,28.2Q.165,63.376.154,83.382.141,107.474.128,131.565.114,157.919.1,184.272.087,211.065.072,237.857.059,263.264.046,288.672q-.012,22.2-.022,44.4Q.015,350.243.008,367.411,0,377.727,0,388.042v2.541c0,3.089,4.8,3.094,4.8,0q0-8.364,0-16.728.006-15.663.014-31.326L4.84,300.25q.012-24.793.026-49.585l.027-53.245q.015-26.629.029-53.258.012-24.812.026-49.624.01-21.174.022-42.346.007-15.709.016-31.419,0-8.424.007-16.847,0-.744,0-1.487c0-3.088-4.8-3.093-4.8,0Z"/><path class="d" d="M166.478,2.4V390.583c0,3.089,4.8,3.094,4.8,0V2.4c0-3.089-4.8-3.094-4.8,0Z"/><path class="d" d="M263.21,14.861q0,6.278,0,12.555,0,13.833.007,27.665.006,19.506.011,39.011l.012,47.065q.007,25.695.014,51.391.008,25.964.014,51.927.007,24.635.013,49.268.006,21.406.011,42.812,0,16.38.008,32.758,0,9.554,0,19.106v2.164c0,3.089,4.8,3.094,4.8,0q0-7.633,0-15.269,0-14.9-.007-29.79-.006-20.272-.011-40.544l-.012-48.018q-.007-25.878-.014-51.756-.007-25.854-.014-51.706-.007-24.229-.013-48.459l-.012-41.417q0-15.387-.008-30.774l0-16.534V14.861c0-3.089-4.8-3.094-4.8,0Z"/><path class="d" d="M168.878,17.261q17.738,0,35.476.027,20.919.021,41.838.042,9.757.009,19.514.01c3.089,0,3.094-4.8,0-4.8q-18.713,0-37.425-.027-20.646-.021-41.293-.042-9.055-.008-18.11-.01c-3.089,0-3.094,4.8,0,4.8Z"/><path class="d" d="M2.5,4.8q11.879,0,23.756.008,17.859.008,35.719.019l40.254.022,37.36.02q13.521.006,27.04.01h2.252c3.088,0,3.093-4.8,0-4.8q-12.628,0-25.257-.008Q125.377.064,107.13.052L66.831.029,30.154.01Q17.34,0,4.524,0H2.5C-.592,0-.6,4.8,2.5,4.8Z"/><path class="c" d="M56.15,103.134H112.7c-.082,18.711,0,37.813,0,52.169H56.15Z"/><path class="d" d="M56.15,105.534H112.7l-2.4-2.4c-.075,17.39,0,34.78,0,52.169l2.4-2.4H56.15l2.4,2.4V103.134c0-3.088-4.8-3.094-4.8,0V155.3a2.435,2.435,0,0,0,2.4,2.4H112.7a2.435,2.435,0,0,0,2.4-2.4c0-17.389-.075-34.779,0-52.169a2.435,2.435,0,0,0-2.4-2.4H56.15C53.061,100.734,53.056,105.534,56.15,105.534Z"/><path class="d" d="M82.043,103.134c-.074,17.39,0,34.78,0,52.169,0,3.089,4.8,3.094,4.8,0,0-17.389-.074-34.779,0-52.169.013-3.089-4.787-3.093-4.8,0Z"/><path class="e" d="M42.309,129.691h84.475c-.122,9.186,0,18.565,0,25.613H42.309Z"/><path class="d" d="M42.309,132.091h84.475l-2.4-2.4c-.109,8.538,0,17.075,0,25.613l2.4-2.4H42.309l2.4,2.4V129.691c0-3.089-4.8-3.094-4.8,0V155.3a2.435,2.435,0,0,0,2.4,2.4h84.475a2.434,2.434,0,0,0,2.4-2.4c0-8.538-.109-17.075,0-25.613a2.432,2.432,0,0,0-2.4-2.4H42.309C39.221,127.291,39.216,132.091,42.309,132.091Z"/><path class="c" d="M56.15,25.658H112.7c-.082,18.711,0,37.813,0,52.17H56.15Z"/><path class="d" d="M56.15,28.058H112.7l-2.4-2.4c-.075,17.39,0,34.78,0,52.17l2.4-2.4H56.15l2.4,2.4V25.658c0-3.088-4.8-3.093-4.8,0v52.17a2.435,2.435,0,0,0,2.4,2.4H112.7a2.435,2.435,0,0,0,2.4-2.4c0-17.39-.075-34.78,0-52.17a2.435,2.435,0,0,0-2.4-2.4H56.15C53.061,23.258,53.056,28.058,56.15,28.058Z"/><path class="d" d="M82.043,25.658c-.074,17.39,0,34.78,0,52.17,0,3.088,4.8,3.093,4.8,0,0-17.39-.074-34.78,0-52.17.013-3.089-4.787-3.093-4.8,0Z"/><path class="e" d="M42.309,52.215h84.475c-.122,9.186,0,18.565,0,25.613H42.309Z"/><path class="d" d="M42.309,54.615h84.475l-2.4-2.4c-.109,8.538,0,17.075,0,25.613l2.4-2.4H42.309l2.4,2.4V52.215c0-3.089-4.8-3.094-4.8,0V77.828a2.435,2.435,0,0,0,2.4,2.4h84.475a2.434,2.434,0,0,0,2.4-2.4c0-8.538-.109-17.075,0-25.613a2.433,2.433,0,0,0-2.4-2.4H42.309C39.221,49.815,39.216,54.615,42.309,54.615Z"/><path class="c" d="M56.15,180.609H112.7c-.082,18.711,0,37.813,0,52.17H56.15Z"/><path class="d" d="M56.15,183.009H112.7l-2.4-2.4c-.075,17.39,0,34.78,0,52.17l2.4-2.4H56.15l2.4,2.4v-52.17c0-3.088-4.8-3.093-4.8,0v52.17a2.435,2.435,0,0,0,2.4,2.4H112.7a2.435,2.435,0,0,0,2.4-2.4c0-17.39-.075-34.78,0-52.17a2.435,2.435,0,0,0-2.4-2.4H56.15C53.061,178.209,53.056,183.009,56.15,183.009Z"/><path class="d" d="M82.043,180.609c-.074,17.39,0,34.78,0,52.17,0,3.088,4.8,3.093,4.8,0,0-17.39-.074-34.78,0-52.17.013-3.089-4.787-3.093-4.8,0Z"/><path class="e" d="M42.309,207.166h84.475c-.122,9.186,0,18.565,0,25.613H42.309Z"/><path class="d" d="M42.309,209.566h84.475l-2.4-2.4c-.109,8.538,0,17.075,0,25.613l2.4-2.4H42.309l2.4,2.4V207.166c0-3.089-4.8-3.094-4.8,0v25.613a2.435,2.435,0,0,0,2.4,2.4h84.475a2.434,2.434,0,0,0,2.4-2.4c0-8.538-.109-17.075,0-25.613a2.433,2.433,0,0,0-2.4-2.4H42.309C39.221,204.766,39.216,209.566,42.309,209.566Z"/><path class="c" d="M56.15,257.318H112.7c-.082,18.711,0,37.813,0,52.169H56.15Z"/><path class="d" d="M56.15,259.718H112.7l-2.4-2.4c-.075,17.39,0,34.78,0,52.169l2.4-2.4H56.15l2.4,2.4V257.318c0-3.088-4.8-3.094-4.8,0v52.169a2.435,2.435,0,0,0,2.4,2.4H112.7a2.435,2.435,0,0,0,2.4-2.4c0-17.389-.075-34.779,0-52.169a2.435,2.435,0,0,0-2.4-2.4H56.15C53.061,254.918,53.056,259.718,56.15,259.718Z"/><path class="d" d="M82.043,257.318c-.074,17.39,0,34.78,0,52.169,0,3.089,4.8,3.094,4.8,0,0-17.389-.074-34.779,0-52.169.013-3.089-4.787-3.093-4.8,0Z"/><path class="e" d="M42.309,283.875h84.475c-.122,9.186,0,18.564,0,25.613H42.309Z"/><path class="d" d="M42.309,286.275h84.475l-2.4-2.4c-.109,8.538,0,17.075,0,25.613l2.4-2.4H42.309l2.4,2.4V283.875c0-3.089-4.8-3.094-4.8,0v25.613a2.435,2.435,0,0,0,2.4,2.4h84.475a2.435,2.435,0,0,0,2.4-2.4c0-8.538-.109-17.075,0-25.613a2.432,2.432,0,0,0-2.4-2.4H42.309C39.221,281.475,39.216,286.275,42.309,286.275Z"/><path class="d" d="M2.4,332.776H168.781c3.088,0,3.093-4.8,0-4.8H2.4c-3.089,0-3.094,4.8,0,4.8Z"/><path class="d" d="M168.684,332.776h96.829c3.088,0,3.093-4.8,0-4.8H168.684c-3.089,0-3.094,4.8,0,4.8Z"/></svg>