<?xml version="1.0" encoding="utf-8"?>
<!-- Generator: Adobe Illustrator 25.0.1, SVG Export Plug-In . SVG Version: 6.00 Build 0)  -->
<svg version="1.1" id="_x30_2_1_" xmlns="http://www.w3.org/2000/svg" xmlns:xlink="http://www.w3.org/1999/xlink" x="0px" y="0px"
	 viewBox="0 0 841.89 595.28" style="enable-background:new 0 0 841.89 595.28;" xml:space="preserve">
<style type="text/css">
	.st0{fill:#E88B13;stroke:#FFFFFF;stroke-linecap:round;stroke-linejoin:round;stroke-miterlimit:10;}
	.st1{fill:#CCCCCC;stroke:#FFFFFF;stroke-linecap:round;stroke-linejoin:round;stroke-miterlimit:10;}
</style>
<polygon class="st0" points="756.02,133.01 756.11,120.07 767.28,113.15 767.28,97.41 756.21,104.27 756.21,104.15 738.59,104.15 
	689.16,25.7 648.47,25.7 648.47,76.19 635.13,91.13 635.13,114.89 597.04,114.89 597.04,132.96 578.16,150.37 578.16,198.55 
	604.2,198.55 604.2,185.85 616.89,185.85 616.89,170.88 604.2,170.88 604.2,153.62 620.91,153.62 620.91,169.03 637.62,153.62 
	641.32,153.62 673.21,194.31 705.09,153.62 755.89,153.62 772.6,142.55 772.6,133.01 "/>
<polyline class="st1" points="407.92,405.9 427.78,400.68 427.78,416.31 438.85,416.31 438.85,380.83 420.62,380.83 420.62,391.25 
	399.13,391.25 399.13,403.94 407.92,405.9 "/>
<polygon class="st0" points="510.46,394.72 510.46,417.29 545.39,417.29 545.39,384.74 518.92,384.74 "/>
<g>
	<polygon class="st1" points="491.14,375.62 491.14,391.57 491.25,391.57 491.14,391.57 491.14,397.32 466.84,423.8 466.84,443.33 
		477.25,443.33 498.09,417.29 510.46,417.29 510.46,394.72 518.92,384.74 518.92,375.62 	"/>
	<polygon class="st1" points="529.07,360.44 491.14,360.44 491.14,375.62 518.92,375.62 518.92,384.74 545.39,384.74 545.39,365.64 
		560.15,351.76 560.15,326.13 	"/>
</g>
<polygon class="st1" points="274.14,424.12 274.14,424.12 284.88,413.38 295.29,413.38 306.69,401.99 323.94,401.99 329.15,395.15 
	329.15,380.18 288.46,380.18 266.23,400.68 265.89,400.68 265.89,424.12 "/>
<polygon class="st0" points="396.53,431.61 396.53,457.31 396.85,457 407.92,457 407.92,405.9 399.13,403.94 399.13,391.25 
	399.13,380.18 382.53,380.18 382.53,417.96 "/>
<polygon class="st1" points="329.15,380.18 329.15,395.15 323.94,401.99 323.94,409.8 366.26,409.8 366.26,380.18 "/>
<polygon class="st1" points="641.31,249.76 641.31,199.42 610.92,199.42 610.92,213.31 630.02,213.31 630.02,219.38 602.68,219.38 
	602.68,206.8 588.36,206.8 588.36,219.38 577.07,219.38 577.07,249.76 610.06,249.76 "/>
<rect x="577.07" y="249.76" class="st1" width="32.99" height="58.16"/>
<polygon class="st0" points="427.78,400.68 407.92,405.9 407.92,457 424.85,436.82 427.78,436.82 427.78,416.31 "/>
<polygon class="st1" points="274.14,424.12 265.89,424.12 265.89,400.68 240.28,400.68 235.73,409.15 235.73,429.98 240.28,439.1 
	254.61,439.1 263.72,450.16 274.14,450.16 279.67,442.35 274.14,436.17 "/>
<polygon class="st1" points="590.39,351.76 610.06,307.92 577.07,307.92 576.64,307.92 560.15,326.13 560.15,351.76 "/>
<rect x="545.39" y="384.74" class="st0" width="33.42" height="32.55"/>
<polygon class="st0" points="389.04,464.56 389.04,475.23 381.88,480.76 381.88,488.57 386.27,492.97 390.02,491.83 407.92,474.25 
	407.92,457 396.85,457 "/>
<rect x="510.46" y="417.29" class="st0" width="34.94" height="18.67"/>
<polygon class="st1" points="454.69,335.26 454.69,348.72 442.84,380.83 438.85,380.83 438.85,401.82 447.8,401.82 454.79,394.83 
	454.79,391.57 454.79,385.71 471.54,360.44 471.62,348.72 489.84,348.72 489.84,335.26 "/>
<polygon class="st0" points="454.79,391.57 454.79,394.83 447.8,401.82 438.85,401.82 438.85,416.31 427.78,416.31 427.78,436.82 
	432.66,436.82 443.4,436.82 450.56,443.33 466.84,443.33 466.84,423.8 491.14,397.32 491.14,391.57 "/>
<polygon class="st1" points="471.54,360.44 454.79,385.71 454.79,391.57 491.14,391.57 491.14,360.44 "/>
<polygon class="st0" points="578.81,417.29 545.39,417.29 545.39,435.95 566.23,435.95 574.39,454.33 610.23,384.74 578.81,384.74 
	"/>
<g>
	<polygon class="st0" points="510.46,435.95 510.46,450.71 539.12,450.71 545.39,442.68 545.39,435.95 	"/>
	<polygon class="st0" points="566.23,435.95 545.39,435.95 545.39,442.68 545.39,457.98 534.87,474.9 534.87,482.83 559.71,482.83 
		574.39,454.33 	"/>
</g>
<polygon class="st0" points="510.46,466.11 533.24,466.11 533.24,457.65 539.12,450.71 510.46,450.71 "/>
<polygon class="st1" points="498.09,417.29 487.67,430.31 487.67,450.71 510.46,450.71 510.46,435.95 510.46,417.29 "/>
<polygon class="st1" points="641.31,249.76 610.06,249.76 610.06,307.92 651.72,307.92 651.72,249.76 "/>
<polygon class="st1" points="590.39,351.76 560.15,351.76 545.39,365.64 545.39,384.74 578.81,384.74 610.23,384.74 611.79,381.71 
	628,351.76 "/>
<polygon class="st1" points="590.39,351.76 628,351.76 651.72,307.92 610.06,307.92 "/>
<polygon class="st0" points="466.84,443.33 450.56,443.33 443.4,436.82 432.66,436.82 432.66,451.14 432.66,463.51 438.19,463.51 
	438.19,457 443.4,457 443.4,467.74 434.61,467.74 434.61,474.25 452.51,474.25 477.25,443.33 "/>
<polygon class="st1" points="323.94,401.99 306.69,401.99 295.29,413.38 284.88,413.38 274.14,424.12 274.14,424.12 274.14,436.17 
	279.67,442.35 323.94,442.35 323.94,409.8 "/>
<polygon class="st1" points="366.26,417.94 366.26,409.8 323.94,409.8 323.94,442.35 352.58,442.35 352.58,427.38 "/>
<polygon class="st0" points="389.04,464.56 389.04,466.87 389.04,464.56 396.53,457.31 396.53,431.61 382.53,417.96 382.53,449.51 
	370.9,466.76 386.76,466.76 "/>
<polygon class="st0" points="366.26,380.18 366.26,409.8 366.26,417.94 352.58,427.38 352.58,442.35 364.3,442.35 371.46,449.51 
	382.53,449.51 382.53,417.96 382.53,380.18 "/>
<polygon class="st1" points="386.27,492.97 381.88,488.57 381.88,480.76 389.04,475.23 389.04,464.56 386.76,466.76 370.9,466.76 
	363.65,477.51 363.65,496.71 376.35,508.1 383.51,508.1 390.02,501.5 390.02,491.83 "/>
<polygon class="st0" points="427.78,436.82 424.85,436.82 407.92,457 407.92,474.25 390.02,491.83 390.02,501.5 407.27,484.02 
	429.73,484.02 429.73,471 421.59,471 421.59,460.58 432.66,451.14 432.66,436.82 "/>
<polygon class="st1" points="536.17,318.01 522.83,321.91 522.83,343.4 536.17,332.98 "/>
<polygon class="st1" points="289.33,467.63 271.53,495.23 271.53,506.48 286.83,506.48 296.22,491.5 318.57,491.5 323.29,500.62 
	331.53,493.62 315.58,467.63 "/>
<polygon class="st1" points="315.58,467.63 315.58,456.67 301.15,456.67 301.15,453.09 280.65,453.09 267.95,471.32 267.95,491.5 
	271.53,491.5 271.53,495.23 289.33,467.63 "/>
<polygon class="st1" points="348.03,450.49 321.34,450.49 321.34,456.67 315.58,456.67 315.58,467.63 353.89,467.63 353.89,466.44 
	"/>
<polygon class="st1" points="331.53,493.62 342.47,484.34 349.33,484.34 353.89,477.83 353.89,467.63 315.58,467.63 "/>
<polygon class="st1" points="369.67,462.86 372.93,453.26 366.74,453.26 365.48,457 358.28,457 358.28,462.86 363.49,462.86 
	366.42,462.86 "/>
<polygon class="st1" points="186.58,440.5 174.97,440.5 169.33,450.92 169.54,455.05 173.01,455.05 177.14,448.97 177.14,459.38 
	173.67,461.99 173.67,483.04 176.92,483.04 181.04,475.88 186.47,475.88 181.04,481.74 181.04,490.63 189.29,490.63 194.93,484.77 
	194.93,472.51 186.58,463.83 "/>
<path class="st0" d="M210.01,452.77h-7.16l-7.49-5.86c0,0,0.1-3.33,0.14-6.41h-5.34h-3.58v23.33l8.36,8.68v-8.35h4.56l10.52-8.14
	V452.77z"/>
<polygon class="st1" points="199.49,488.25 186.83,503.87 197.97,503.87 202.45,518.61 224.66,489.88 216.85,475.55 199.49,475.55 
	"/>
<path class="st0" d="M232.69,450.57v-17.44h-16.06l-6.43,7.37H195.5c-0.03,3.07-0.14,6.41-0.14,6.41l7.49,5.86h7.16v3.26
	l-10.52,8.14v11.39h17.36l0.32-13.02L232.69,450.57z"/>
<polygon class="st1" points="202.45,518.61 197.97,503.87 186.83,503.87 176.27,516.89 176.27,550.53 184.3,550.53 184.3,536.21 
	188.21,536.21 188.21,563.55 194.71,563.55 210.17,544 "/>
<polygon class="st1" points="246.8,453.96 232.69,453.96 232.69,450.57 217.17,462.53 216.85,475.55 224.66,489.88 252.01,489.88 
	252.22,458.08 "/>
<polygon class="st1" points="202.45,518.61 210.17,544 252,491.07 252.01,489.88 224.66,489.88 "/>
<polygon class="st1" points="69.39,557.25 69.07,565.39 74.28,567.67 106.18,536.42 106.18,529.91 99.01,527.96 "/>
<polygon class="st0" points="487.67,450.71 487.67,430.31 477.25,443.33 452.51,474.25 488,474.09 492.43,462.52 492.55,462.21 
	497.11,462.21 497.11,484.67 504.27,484.67 510.46,479.13 510.46,466.11 510.46,450.71 "/>
</svg>
