<!--?xml version="1.0" encoding="utf-8"?-->
<!-- Generator: Adobe Illustrator 18.0.0, SVG Export Plug-In . SVG Version: 6.00 Build 0)  -->

<svg version="1.1" id="_x32_" xmlns="http://www.w3.org/2000/svg" xmlns:xlink="http://www.w3.org/1999/xlink" x="0px" y="0px" viewBox="0 0 512 512" style="width: 256px; height: 256px; opacity: 1;" xml:space="preserve">
<style type="text/css">
	.st0{fill:#4B4B4B;}
</style>
<g>
	<path class="st0" d="M493.119,60.602c-40.138,17.719-93.777,20.322-143.881-0.445C324.871,50.055,273.523,25.223,256,0
		c-17.522,25.223-68.871,50.055-93.236,60.156C112.658,80.924,59.021,78.32,18.881,60.602c-7.203-3.18-15.096,2.08-15.096,9.957
		c0,73.297,7.586,134.43,20.114,185.442C83.647,499.32,256,512,256,512s172.355-12.68,232.103-256
		c12.526-51.012,20.112-112.144,20.112-185.442C508.215,62.682,500.324,57.422,493.119,60.602z M128.762,256H76.123
		c-10.137-37.256-17.465-81.104-20.396-133.035c10.978,1.566,22.174,2.367,33.43,2.367c32.033-0.002,63.305-6.23,92.947-18.52
		c16.129-6.684,46.719-20.51,73.897-39.258v59.416V256h127.238h52.639C388.76,429.16,279.713,457.049,256,461.07v-51.791V256
		H128.762z" style="fill: rgb(75, 75, 75);"></path>
</g>
</svg>
