<?xml version="1.0" encoding="utf-8"?>
<!-- Generator: Adobe Illustrator 25.1.0, SVG Export Plug-In . SVG Version: 6.00 Build 0)  -->
<svg version="1.1" id="_x34_" xmlns="http://www.w3.org/2000/svg" xmlns:xlink="http://www.w3.org/1999/xlink" x="0px" y="0px"
	 viewBox="0 0 512 512" style="enable-background:new 0 0 512 512;" xml:space="preserve">
<style type="text/css">
	.st0{fill:#C3C2C6;}
	.st1{fill:#B3B2B6;}
	.st2{fill:#C9C8CD;}
	.st3{fill:#2D2D33;}
	.st4{fill:#F4F4F5;}
	.st5{fill:#FFFFFF;}
	.st6{opacity:0.1;fill:#040000;enable-background:new    ;}
	.st7{fill:#C0BFBF;}
	.st8{fill:#8A8182;}
	.st9{fill:#C7C6C6;}
	.st10{fill:#7CBBA4;}
	.st11{fill:#3D3D3D;}
	.st12{fill:#F2F2F2;}
	.st13{opacity:0.5;}
	.st14{fill:#FAFAFB;}
	.st15{opacity:0.2;fill:#FAFAFB;enable-background:new    ;}
	.st16{opacity:4.000000e-02;fill:#040000;enable-background:new    ;}
</style>
<g>
	<g>
		<polygon class="st0" points="339.6,446.2 172.4,446.2 178.3,320.7 333.7,320.7 		"/>
		<polygon class="st1" points="337.5,405.3 174.5,405.3 178.3,325.9 333.7,325.9 		"/>
		<path class="st2" d="M144.6,435.8h222.7c14.1,0,25.6,11.5,25.6,25.6l0,0H119.1l0,0C119.1,447.3,130.6,435.8,144.6,435.8z"/>
	</g>
	<path class="st2" d="M512,226.3v157.4c0,6.3-5.1,11.4-11.3,11.4H11.3C5.1,395.1,0,390,0,383.7V226.3c0-6.3,5.1-11.4,11.3-11.4
		h489.4C506.9,215,512,220.1,512,226.3z"/>
	<path class="st3" d="M512,54.8v286.8H0V54.8h0.4C2.1,46.4,9.7,40,18.6,40h474.9c8.9,0,16.5,6.4,18.2,14.8H512z"/>
	<rect x="30.9" y="69.4" class="st4" width="450.2" height="242.9"/>
	<g>
		<rect x="56.5" y="123.7" class="st1" width="122" height="59.6"/>
		<rect x="196.8" y="123.7" class="st1" width="122" height="59.6"/>
		<rect x="337.1" y="123.7" class="st1" width="122" height="59.6"/>
		<rect x="56.5" y="192.9" class="st1" width="69.7" height="11.3"/>
		<rect x="86.4" y="91.2" class="st1" width="69.7" height="5.7"/>
		<rect x="56.5" y="274.5" class="st1" width="69.7" height="11.3"/>
		<rect x="56.5" y="211.2" class="st1" width="122.9" height="11.3"/>
		<rect x="56.5" y="232.2" class="st1" width="122.9" height="11.3"/>
		<rect x="56.5" y="253.3" class="st1" width="122.9" height="11.3"/>
		<rect x="199" y="192.9" class="st1" width="69.7" height="11.3"/>
		<rect x="199" y="274.5" class="st1" width="69.7" height="11.3"/>
		<rect x="199" y="211.2" class="st1" width="122.9" height="11.3"/>
		<rect x="199" y="232.2" class="st1" width="122.9" height="11.3"/>
		<rect x="199" y="253.3" class="st1" width="122.9" height="11.3"/>
		<rect x="337" y="192.9" class="st1" width="69.7" height="11.3"/>
		<rect x="337" y="274.5" class="st1" width="69.7" height="11.3"/>
		<rect x="337" y="211.2" class="st1" width="122.9" height="11.3"/>
		<rect x="337" y="232.2" class="st1" width="122.9" height="11.3"/>
		<rect x="337" y="253.3" class="st1" width="122.9" height="11.3"/>
		<path class="st1" d="M72.8,88.1L72.8,88.1c3.3,3.3,3.3,8.7,0,12l0,0c-3.3,3.3-8.7,3.3-12,0l0,0c-3.3-3.3-3.3-8.7,0-12l0,0
			C64.1,84.8,69.5,84.8,72.8,88.1z"/>
		<rect x="427.1" y="90.1" transform="matrix(0.7071 -0.7071 0.7071 0.7071 59.7325 332.3602)" class="st1" width="8" height="8"/>
		<rect x="446.5" y="90.1" transform="matrix(0.7071 -0.7071 0.7071 0.7071 65.4125 346.0726)" class="st1" width="8" height="8"/>
		<rect x="409.8" y="90.1" transform="matrix(0.7071 -0.7071 0.7071 0.7071 54.691 320.1878)" class="st1" width="8" height="8"/>
	</g>
</g>
<g>
	<g>
		<path class="st4" d="M205.7,190.8L273,446.5c1.7,6.4-1.9,12.9-8,15c-0.4,0.1-0.8,0.3-1.2,0.4L82.9,509.5c-0.1,0-0.2,0-0.3,0
			c-0.2,0.1-0.5,0.1-0.7,0.2c-6.1,1-12.1-2.7-13.9-8.7l0,0c-0.1-0.2-0.1-0.3-0.2-0.5L0.6,245c-1.8-6.7,2.3-13.6,9-15.4L190.6,182
			C197.2,180.5,203.9,184.3,205.7,190.8z"/>
		<path class="st5" d="M205.7,190.8l0.6,2.5c-0.3-1-0.6-1.9-1.1-2.7c-2.2-4.2-6.7-6.8-11.4-6.6c-1,0-2,0.1-3,0.4L10.1,231.9
			c-6.7,1.8-10.7,8.6-9,15.4L0.6,245c-1.8-6.7,2.3-13.6,9-15.4L190.6,182C197.2,180.5,203.9,184.3,205.7,190.8z"/>
		<path class="st6" d="M272.1,444.4l0.6,2.2c1.7,6.3-1.8,12.7-7.8,15c-0.4,0.1-0.8,0.3-1.2,0.4l-181,47.6c-0.2,0.1-0.5,0.1-0.8,0.1
			c-6.3,1.2-12.6-2.7-14.4-9l-0.6-2.4c0.2,0.9,0.6,1.8,1,2.6l0,0c2.2,4.2,6.7,6.9,11.5,6.7c0.9,0,1.9-0.2,2.8-0.4l180.8-47.6
			C269.8,458,273.9,451.1,272.1,444.4z"/>
		<g>
			<path class="st7" d="M123.9,221.6l-37,9.7c-1.5,0.4-3.1-0.5-3.5-2.1l0,0c-0.4-1.5,0.5-3.1,2.1-3.5l37-9.7
				c1.5-0.4,3.1,0.5,3.5,2.1l0,0C126.3,219.6,125.4,221.2,123.9,221.6z"/>
			<path class="st8" d="M125.4,217c-0.6-0.3-1.2-0.3-1.9-0.2l-37.2,9.8c-1.5,0.4-2.4,1.9-2,3.4l0,0.2c0.1,0.4,0.3,0.7,0.5,1
				c-0.7-0.3-1.4-1-1.6-1.8l0-0.2c-0.4-1.5,0.5-3,2-3.4l37.2-9.8C123.6,215.7,124.8,216.1,125.4,217z"/>
		</g>
		<g>
			<circle class="st9" cx="166.7" cy="459.5" r="13.9"/>
			<path class="st8" d="M174.6,448.5c-2.7-1.2-5.8-1.5-8.9-0.7c-7.3,1.9-11.6,9.4-9.7,16.7c0.8,3.1,2.6,5.6,4.9,7.4
				c-3.7-1.6-6.7-4.8-7.8-9.1c-1.9-7.3,2.4-14.8,9.7-16.7C167.1,445,171.4,446,174.6,448.5z"/>
		</g>
		
			<rect x="42.4" y="233.7" transform="matrix(0.9671 -0.2544 0.2544 0.9671 -81.2939 45.2888)" class="st10" width="184.1" height="206.4"/>
		
			<rect x="19.6" y="238.2" transform="matrix(0.9671 -0.2544 0.2544 0.9671 -60.0276 36.6503)" class="st11" width="184.1" height="24.5"/>
		<g>
			
				<rect x="31.6" y="264.1" transform="matrix(0.9671 -0.2544 0.2544 0.9671 -67.9668 17.4856)" class="st12" width="4.1" height="14.8"/>
			
				<rect x="38.4" y="266.6" transform="matrix(0.9671 -0.2544 0.2544 0.9671 -67.8342 19.2378)" class="st12" width="4.1" height="10.6"/>
			
				<rect x="45.2" y="268.9" transform="matrix(0.9671 -0.2544 0.2544 0.9671 -67.6907 20.9854)" class="st12" width="4.1" height="6.5"/>
		</g>
		<g class="st13">
			
				<rect x="45.3" y="307.9" transform="matrix(0.9671 -0.2544 0.2544 0.9671 -79.096 28.316)" class="st14" width="49.3" height="24.1"/>
			
				<rect x="100.1" y="293.5" transform="matrix(0.9671 -0.2544 0.2544 0.9671 -73.6191 41.7987)" class="st14" width="49.3" height="24.1"/>
			
				<rect x="155" y="279" transform="matrix(0.9671 -0.2544 0.2544 0.9671 -68.1423 55.2815)" class="st14" width="49.3" height="24.1"/>
			
				<rect x="50.2" y="338" transform="matrix(0.9671 -0.2544 0.2544 0.9671 -84.4451 27.562)" class="st14" width="28.2" height="4.6"/>
			
				<rect x="51.2" y="295.2" transform="matrix(0.9671 -0.2544 0.2544 0.9671 -73.2399 26.3573)" class="st14" width="28.2" height="2.3"/>
			
				<rect x="58.6" y="369.9" transform="matrix(0.9671 -0.2544 0.2544 0.9671 -92.2891 30.7484)" class="st14" width="28.2" height="4.6"/>
			
				<rect x="51.8" y="342.4" transform="matrix(0.9671 -0.2544 0.2544 0.9671 -85.1662 30.8307)" class="st14" width="49.7" height="4.6"/>
			
				<rect x="53.9" y="350.6" transform="matrix(0.9671 -0.2544 0.2544 0.9671 -87.1899 31.6527)" class="st14" width="49.7" height="4.6"/>
			
				<rect x="56.1" y="358.9" transform="matrix(0.9671 -0.2544 0.2544 0.9671 -89.2138 32.4748)" class="st14" width="49.7" height="4.6"/>
			
				<rect x="106" y="323.3" transform="matrix(0.9671 -0.2544 0.2544 0.9671 -78.8832 41.2541)" class="st14" width="28.2" height="4.6"/>
			
				<rect x="114.4" y="355.2" transform="matrix(0.9671 -0.2544 0.2544 0.9671 -86.7272 44.4404)" class="st14" width="28.2" height="4.6"/>
			
				<rect x="107.5" y="327.7" transform="matrix(0.9671 -0.2544 0.2544 0.9671 -79.6044 44.5227)" class="st14" width="49.7" height="4.6"/>
			
				<rect x="109.7" y="336" transform="matrix(0.9671 -0.2544 0.2544 0.9671 -81.6281 45.3448)" class="st14" width="49.7" height="4.6"/>
			
				<rect x="111.8" y="344.2" transform="matrix(0.9671 -0.2544 0.2544 0.9671 -83.652 46.1669)" class="st14" width="49.7" height="4.6"/>
			
				<rect x="159.9" y="309.1" transform="matrix(0.9671 -0.2544 0.2544 0.9671 -73.4952 54.5183)" class="st14" width="28.2" height="4.6"/>
			
				<rect x="168.3" y="341" transform="matrix(0.9671 -0.2544 0.2544 0.9671 -81.3392 57.7046)" class="st14" width="28.2" height="4.6"/>
			
				<rect x="161.5" y="313.5" transform="matrix(0.9671 -0.2544 0.2544 0.9671 -74.2164 57.7869)" class="st14" width="49.7" height="4.6"/>
			
				<rect x="163.6" y="321.8" transform="matrix(0.9671 -0.2544 0.2544 0.9671 -76.2401 58.6089)" class="st14" width="49.7" height="4.6"/>
			
				<rect x="165.8" y="330" transform="matrix(0.9671 -0.2544 0.2544 0.9671 -78.2639 59.4311)" class="st14" width="49.7" height="4.6"/>
			<path class="st14" d="M45.7,299L45.7,299c1.6,1,2.2,3,1.2,4.7l0,0c-1,1.6-3,2.2-4.7,1.2l0,0c-1.6-1-2.2-3-1.2-4.7l0,0
				C42,298.6,44.1,298,45.7,299z"/>
			
				<rect x="184.8" y="262.9" transform="matrix(0.504 -0.8637 0.8637 0.504 -135.9642 292.1933)" class="st14" width="3.2" height="3.2"/>
			
				<rect x="192.4" y="260.9" transform="matrix(0.504 -0.8637 0.8637 0.504 -130.4804 297.7529)" class="st14" width="3.2" height="3.2"/>
			
				<rect x="178.1" y="264.6" transform="matrix(0.504 -0.8637 0.8637 0.504 -140.8318 287.2586)" class="st14" width="3.2" height="3.2"/>
		</g>
		
			<rect x="68.4" y="434.7" transform="matrix(0.9671 -0.2544 0.2544 0.9671 -105.5706 55.1503)" class="st15" width="184.1" height="2.1"/>
	</g>
	<path class="st16" d="M212.2,216.9l60.6,230.3c1.7,6.3-1.8,12.7-7.8,15c-0.4,0.1-0.8,0.3-1.2,0.4l-181,47.6
		c-0.2,0.1-0.5,0.1-0.8,0.1c-6.3,1.2-12.6-2.7-14.4-9L61,476l0.2-0.4l10-17.1l60.4-103.6l2.8-4.8l3.3-5.6l8.9-15.2l3.3-5.6l8.8-15
		l16.4-28.2l27.3-46.8L212.2,216.9z"/>
</g>
</svg>
