<?xml version="1.0" encoding="utf-8"?>
<!-- Generator: Adobe Illustrator 25.1.0, SVG Export Plug-In . SVG Version: 6.00 Build 0)  -->
<svg version="1.1" id="_x34_" xmlns="http://www.w3.org/2000/svg" xmlns:xlink="http://www.w3.org/1999/xlink" x="0px" y="0px"
	 viewBox="0 0 512 512" style="enable-background:new 0 0 512 512;" xml:space="preserve">
<style type="text/css">
	.st0{fill:#D76A77;}
	.st1{fill:#CB6072;}
	.st2{fill:#84A987;}
	.st3{fill:#AFAFAF;}
	.st4{fill:#999A9A;}
	.st5{fill:#C3C4C4;}
	.st6{fill:#95A8AD;}
	.st7{fill:#8FB393;}
	.st8{fill:#C0B495;}
	.st9{fill:#B1A48C;}
	.st10{fill:#71B87A;}
	.st11{fill:#108D43;}
	.st12{fill:#604C3F;}
	.st13{fill:none;stroke:#48B0CA;stroke-miterlimit:10;}
	.st14{fill:#595758;}
	.st15{fill:#FFFFFF;}
	.st16{fill:#EAE9E9;}
	.st17{fill:#9F9E9F;}
	.st18{opacity:8.000000e-02;}
	.st19{fill:#231815;}
	.st20{fill:#963343;}
	.st21{fill:#EFE5C2;}
	.st22{fill:#3F3D3C;}
	.st23{opacity:0.5;fill:#80665B;enable-background:new    ;}
	.st24{fill:#8F3636;}
	.st25{fill:#232120;}
	.st26{opacity:0.5;fill:#3F3D3C;enable-background:new    ;}
	.st27{fill:#932323;}
	.st28{opacity:0.5;}
	.st29{opacity:0.1;}
	.st30{opacity:6.000000e-02;fill:#040000;enable-background:new    ;}
	.st31{opacity:6.000000e-02;fill:#FFFFFF;enable-background:new    ;}
	.st32{fill:none;}
	.st33{fill:#525252;}
	.st34{fill:#616161;}
	.st35{fill:#B5B5B5;}
	.st36{fill:#8B6344;}
	.st37{fill:#8B8B8B;}
	.st38{fill:#595A59;}
</style>
<g>
	<g>
		<path class="st0" d="M0,443.9h160.5L74.6,358C28.9,378.9,0,409.6,0,443.9z"/>
		<path class="st1" d="M218.7,329.7c-55.2,0-105.6,10.7-144.1,28.3l85.9,85.9h276.9C437.4,380.8,339.5,329.7,218.7,329.7z"/>
	</g>
	<g>
		<g>
			<g>
				<path class="st2" d="M139.2,261.5c0,20.3-16.5,36.8-36.8,36.8c-20.3,0-36.8-16.5-36.8-36.8c0-20.3,16.5-36.8,36.8-36.8
					C122.8,224.7,139.2,241.2,139.2,261.5z"/>
				<path class="st2" d="M374.5,261.5c0,20.3-16.5,36.8-36.8,36.8c-20.3,0-36.8-16.5-36.8-36.8c0-20.3,16.5-36.8,36.8-36.8
					C358,224.7,374.5,241.2,374.5,261.5z"/>
			</g>
			<g>
				<rect x="64.1" y="172.1" class="st3" width="64.5" height="35.7"/>
				<rect x="75.5" y="172.1" class="st4" width="6.1" height="35.7"/>
				<rect x="88.4" y="172.1" class="st4" width="6.1" height="35.7"/>
				<path class="st5" d="M69.3,211.1c0,6.5-5.2,11.7-11.7,11.7l0,0c-6.5,0-11.7-5.2-11.7-11.7v-42.3c0-6.5,5.2-11.7,11.7-11.7l0,0
					c6.5,0,11.7,5.2,11.7,11.7V211.1z"/>
			</g>
			<path class="st6" d="M273,144.1l-53.4,53.4l-53.4-53.4l-53.4,53.4l-14.1-14.1V375c0,22.6,18.3,40.8,40.8,40.8h160.1
				c22.6,0,40.8-18.3,40.8-40.8V183.4l-14.1,14.1L273,144.1z"/>
			<path class="st7" d="M273,144.1l-53.4,53.4l-53.4-53.4l-53.4,53.4l-14.1-14.1V375c0,22.6,18.3,40.8,40.8,40.8h160.1
				c22.6,0,40.8-18.3,40.8-40.8V183.4l-14.1,14.1L273,144.1z"/>
			<path class="st8" d="M201.3,348.9c0-22.6-18.3-40.8-40.8-40.8H98.7v67c0,22.6,18.3,40.8,40.8,40.8h61.7L201.3,348.9L201.3,348.9z
				"/>
			<g>
				<path class="st9" d="M152.8,303.1h-8.2c-2.7,0-4.9,2.2-4.9,4.9c0,2.7,2.2,4.9,4.9,4.9h8.2c2.7,0,4.9-2.2,4.9-4.9
					C157.7,305.3,155.5,303.1,152.8,303.1z M193.6,317.4c-2.1-2.2-4.4-4.2-6.9-6c-2.2-1.6-5.3-1-6.8,1.2c-1.6,2.2-1,5.3,1.2,6.8
					c2,1.4,3.8,2.9,5.4,4.7c1.9,2,5,2,6.9,0.2C195.4,322.4,195.5,319.3,193.6,317.4z M206.2,358.7v-8.2c0-2.7-2.2-4.9-4.9-4.9
					c-2.7,0-4.9,2.2-4.9,4.9v8.2c0,2.7,2.2,4.9,4.9,4.9C204,363.6,206.2,361.4,206.2,358.7z M206.2,399.5v-8.2
					c0-2.7-2.2-4.9-4.9-4.9c-2.7,0-4.9,2.2-4.9,4.9v8.2c0,2.7,2.2,4.9,4.9,4.9C204,404.4,206.2,402.2,206.2,399.5z"/>
			</g>
			<path class="st10" d="M340.5,183.4l-2.7,2.7l0,0l-11.4,11.4L273,144.1l-41.2,41.2c-2.8,10.7-4.3,21.8-4.3,33.4
				c0,66.1,49.3,120.6,113.1,129L340.5,183.4L340.5,183.4z"/>
			<g>
				<path class="st11" d="M222.5,218.7c0,1.4,0,2.8,0.1,4.2c0.1,2.7,2.4,4.8,5,4.8c2.7-0.1,4.8-2.3,4.8-5.1c0-1.3-0.1-2.6-0.1-3.9
					c0-2.7-2.2-4.9-4.9-4.9C224.7,213.8,222.5,216,222.5,218.7z"/>
				<path class="st11" d="M264.1,316.1c2.1,2,4.2,3.9,6.4,5.7c2.1,1.7,5.2,1.5,6.9-0.6c1.7-2.1,1.5-5.2-0.6-6.9
					c-2-1.7-4-3.5-5.9-5.3c-2-1.9-5.1-1.8-6.9,0.1C262,311.1,262.1,314.2,264.1,316.1z M232.5,269.7c1.1,2.7,2.2,5.3,3.5,7.8
					c1.2,2.4,4.1,3.5,6.5,2.3c2.4-1.2,3.5-4.1,2.3-6.5c-1.2-2.4-2.2-4.8-3.2-7.3c-1-2.5-3.9-3.7-6.4-2.7
					C232.7,264.3,231.5,267.2,232.5,269.7z"/>
				<path class="st11" d="M311.8,345.7c1.3,0.5,2.7,0.9,4,1.4c2.6,0.8,5.3-0.6,6.2-3.1c0.8-2.6-0.6-5.3-3.1-6.2
					c-1.3-0.4-2.5-0.8-3.7-1.3c-2.5-0.9-5.3,0.4-6.3,2.9C307.9,342,309.2,344.8,311.8,345.7z"/>
			</g>
			<path class="st12" d="M299.7,100H139.6c-22.5,0-40.8,18.3-40.8,40.8v42.5l14.1,14.1l53.4-53.4l53.4,53.4l53.4-53.4l53.4,53.4
				l14.1-14.1v-42.5C340.5,118.3,322.2,100,299.7,100z"/>
			<line class="st13" x1="219.6" y1="210" x2="219.6" y2="211.1"/>
			<g>
				<path class="st14" d="M190.3,265c0,18.9-15.4,34.3-34.3,34.3c-19,0-34.3-15.4-34.3-34.3c0-18.9,15.4-34.3,34.3-34.3
					C174.9,230.7,190.3,246,190.3,265z"/>
				<path class="st15" d="M181.9,264.2c0,13.2-10.7,23.9-23.9,23.9c-13.2,0-23.9-10.7-23.9-23.9c0-13.2,10.7-23.9,23.9-23.9
					C171.2,240.3,181.9,251,181.9,264.2z"/>
				<circle class="st0" cx="158" cy="263.2" r="13.5"/>
			</g>
			<g>
				<path class="st14" d="M252.4,265c0,18.9,15.4,34.3,34.3,34.3c18.9,0,34.3-15.4,34.3-34.3c0-18.9-15.4-34.3-34.3-34.3
					C267.7,230.7,252.4,246,252.4,265z"/>
				<path class="st15" d="M260.7,264.2c0,13.2,10.7,23.9,23.9,23.9c13.2,0,23.9-10.7,23.9-23.9c0-13.2-10.7-23.9-23.9-23.9
					C271.4,240.3,260.7,251,260.7,264.2z"/>
				<circle class="st0" cx="284.6" cy="263.2" r="13.5"/>
			</g>
			<g>
				<rect x="158.3" y="338.5" class="st16" width="130.7" height="28.3"/>
				<rect x="182.2" y="338.5" class="st17" width="7.6" height="28.3"/>
				<rect x="207.3" y="338.5" class="st17" width="7.6" height="28.3"/>
				<rect x="234.5" y="338.5" class="st17" width="7.6" height="28.3"/>
				<rect x="258.5" y="338.5" class="st17" width="7.6" height="28.3"/>
			</g>
		</g>
		<g class="st18">
			<path class="st19" d="M340.5,224.8v-41.4l0,0v-42.5c0-22.6-18.3-40.8-40.8-40.8H216v315.8h83.6c22.6,0,40.8-18.3,40.8-40.8v-27.3
				v-49.6c19-1.4,34-17.3,34-36.6C374.5,242.1,359.5,226.2,340.5,224.8z"/>
		</g>
	</g>
</g>
<g>
	<g>
		<g>
			<g>
				<path class="st20" d="M500.3,449.1l-132.8,59.7c-9.3,4.2-20.3,0-24.5-9.3L221.1,228.3c-0.7-1.5-1.1-3.1-1.4-4.7
					c-1.1-6.5,1.4-13.1,6.5-17.2c1.2-1,2.6-1.9,4.1-2.6l132.8-59.7c9.3-4.2,20.3,0,24.5,9.3l121.9,271.2c0.8,1.7,1.3,3.6,1.5,5.4
					c0,0,0,0.1,0,0.1c0.7,6-1.6,12-6.1,16c0,0.1-0.1,0.1-0.1,0.1C503.6,447.3,502.1,448.3,500.3,449.1z"/>
				<path class="st21" d="M430,449.4L380.8,340l52.6-23.7c4.4-2,6.3-7.1,4.4-11.5l-61-135.6c-2-4.4-7.1-6.3-11.5-4.4l-118.8,53.4
					c-4.4,2-6.3,7.1-4.4,11.5l21.9,48.8l39,86.8l52.7,117.3c2,4.4,7.1,6.3,11.5,4.4l58.3-26.2C430,458.9,431.9,453.8,430,449.4z"/>
				<g>
					
						<rect x="346.9" y="182.4" transform="matrix(0.912 -0.4101 0.4101 0.912 -49.0826 165.7547)" class="st22" width="29.8" height="29.8"/>
					<g>
						<path class="st15" d="M370.5,196.3c0.4,0,0.8,0,1.1,0.2c0.4,0.2,0.7,0.6,0.9,1.2l0.3,0.6l0.7-0.3l-4.4-9.8l-0.7,0.3l0.3,0.6
							c0.3,0.6,0.3,1,0.3,1.4c-0.1,0.4-0.3,0.8-0.5,1c-0.3,0.2-1,0.6-2.2,1.2l-10.7,4.8c-1.2,0.5-1.9,0.8-2.3,0.8
							c-0.5,0.1-0.8,0-1.1-0.2c-0.4-0.2-0.7-0.6-1-1.2l-0.3-0.6l-0.6,0.3l4.4,9.8l0.6-0.3l-0.3-0.6c-0.2-0.5-0.3-1-0.2-1.4
							c0.1-0.4,0.3-0.7,0.5-1c0.2-0.2,1-0.6,2.2-1.2l10.7-4.8C369.4,196.6,370.2,196.3,370.5,196.3z"/>
					</g>
				</g>
				<polygon class="st23" points="267,209.1 289,257.9 335.1,360.6 387.9,477.8 391.6,476.2 338.9,358.9 292.7,256.2 270.8,207.4 
									"/>
				<polygon class="st23" points="259.5,212.5 281.5,261.3 327.6,363.9 380.3,481.2 384.1,479.5 331.4,362.2 285.2,259.6 
					263.3,210.8 				"/>
				<path class="st24" d="M269.2,258.3c-1.8-4,0-8.7,4-10.5l12.9-5.8l-5.8-12.9c-1.8-4,0-8.7,4-10.5l19.2-8.6c4-1.8,8.7,0,10.5,4
					l5.8,12.9l12.9-5.8c4-1.8,8.7,0,10.5,4l8.6,19.2c1.8,4,0,8.7-4,10.5l-12.9,5.8l5.8,12.9c1.8,4,0,8.7-4,10.5l-19.2,8.6
					c-4,1.8-8.7,0-10.5-4l-5.8-12.9l-12.9,5.8c-4,1.8-8.7,0-10.5-4L269.2,258.3L269.2,258.3z"/>
				<g>
					<path class="st25" d="M337.1,275.1l-7.5-16.7l16.7-7.5c1.9-0.9,2.8-3.2,1.9-5.1l-8.6-19.2c-0.9-1.9-3.2-2.8-5.1-1.9l-16.7,7.5
						l-7.5-16.7c-0.9-1.9-3.2-2.8-5.1-1.9l-19.2,8.6c-1.9,0.9-2.8,3.2-1.9,5.1l7.5,16.7l-16.7,7.5c-1.9,0.9-2.8,3.2-1.9,5.1
						l8.6,19.2c0.9,1.9,3.2,2.8,5.1,1.9l16.7-7.5l7.5,16.7c0.9,1.9,3.2,2.8,5.1,1.9l19.2-8.6C337.1,279.3,338,277,337.1,275.1z"/>
					<circle class="st26" cx="310.6" cy="251.2" r="13.5"/>
				</g>
				<g>
					<circle class="st27" cx="356" cy="407.4" r="18.5"/>
					<circle class="st25" cx="356" cy="407.4" r="14.7"/>
					<circle class="st27" cx="374" cy="447.3" r="18.5"/>
					<circle class="st25" cx="374" cy="447.3" r="14.7"/>
				</g>
				<g class="st28">
					<path class="st22" d="M339,304.7c0.1-0.1,0.3-0.3,0.3-0.5c0.1-0.2,0.1-0.3,0.1-0.5c0-0.2,0-0.4-0.1-0.6l-0.2-0.6
						c0-0.1-0.1-0.2-0.1-0.3c0-0.1,0-0.2,0.1-0.2c0-0.1,0.1-0.2,0.1-0.2c0.1-0.1,0.1-0.1,0.2-0.1c0.2-0.1,0.3-0.1,0.5,0
						c0.2,0.1,0.3,0.2,0.4,0.5c0.1,0.2,0.2,0.3,0.2,0.6c0,0.2,0.1,0.4,0,0.6l0.9,0.3c0.1-0.3,0.1-0.6,0.1-0.9c0-0.3-0.1-0.6-0.3-0.9
						c-0.1-0.3-0.3-0.5-0.4-0.7c-0.2-0.2-0.3-0.3-0.6-0.4c-0.2-0.1-0.4-0.1-0.6-0.1c-0.2,0-0.4,0.1-0.6,0.2
						c-0.4,0.2-0.7,0.4-0.8,0.8c0,0.2-0.1,0.3-0.1,0.5c0,0.2,0,0.4,0.1,0.6l0.2,0.6c0,0.2,0.1,0.2,0.1,0.3c0,0.1,0,0.1,0,0.2
						c-0.1,0.2-0.1,0.2-0.3,0.3c-0.2,0.1-0.4,0.1-0.5,0c-0.2-0.1-0.3-0.3-0.5-0.6c-0.1-0.2-0.2-0.4-0.2-0.7c0-0.2,0-0.5,0.1-0.7
						l-0.9-0.3c-0.1,0.3-0.2,0.7-0.1,1c0,0.3,0.1,0.7,0.3,1c0.1,0.2,0.3,0.5,0.4,0.7c0.2,0.2,0.4,0.3,0.5,0.5
						c0.2,0.1,0.4,0.2,0.6,0.2c0.2,0,0.5,0,0.7-0.1C338.7,305,338.8,304.9,339,304.7z"/>
					<path class="st22" d="M342.8,308l0.9-0.4l-1.4-3.2l-4.9,2.2l1.4,3.2l0.9-0.4l-1-2.3l1.2-0.5l0.9,1.9l0.9-0.4l-0.9-1.9l1.1-0.5
						L342.8,308L342.8,308z"/>
					<path class="st22" d="M340.5,311.3l4-1.8l-0.4-0.9l-4.9,2.2l1.4,3.1l0.9-0.4L340.5,311.3z"/>
					<path class="st22" d="M346.4,316l0.9-0.4l-1.4-3.2l-4.9,2.2l1.4,3.2l0.9-0.4l-1-2.3l1.2-0.5l0.9,1.9l0.9-0.4l-0.9-1.9l1.1-0.5
						L346.4,316L346.4,316z"/>
					<path class="st22" d="M344.8,320.5c-0.2-0.1-0.3-0.2-0.5-0.5c0-0.1-0.1-0.3-0.1-0.4c0-0.1,0-0.2,0.1-0.3c0-0.1,0.1-0.1,0.1-0.2
						c0.1-0.1,0.1-0.1,0.2-0.2c0.1-0.1,0.2-0.1,0.3-0.2l0,0c0.2-0.1,0.3-0.2,0.5-0.3c0.2-0.1,0.4-0.2,0.6-0.2
						c0.2-0.1,0.3-0.1,0.4-0.1c0.1,0,0.2-0.1,0.3,0c0.1,0,0.2,0,0.2,0c0.1,0,0.2,0.1,0.3,0.2c0.1,0.1,0.2,0.2,0.2,0.3
						c0.1,0.2,0.1,0.4,0,0.7c-0.1,0.2-0.2,0.3-0.3,0.4c0,0-0.1,0.1-0.1,0.1l0.4,0.9c0.3-0.2,0.5-0.4,0.6-0.7
						c0.1-0.1,0.2-0.3,0.3-0.5c0.1-0.4,0.1-0.9-0.1-1.4c-0.1-0.3-0.3-0.5-0.5-0.7c-0.2-0.2-0.4-0.3-0.6-0.4
						c-0.2-0.1-0.3-0.1-0.5-0.1c-0.2,0-0.3,0-0.5,0c-0.2,0-0.4,0.1-0.6,0.2l-1.3,0.6c-0.2,0.1-0.3,0.2-0.5,0.3
						c-0.1,0.1-0.2,0.1-0.2,0.2c-0.1,0.1-0.1,0.1-0.1,0.1c-0.1,0.1-0.2,0.3-0.3,0.5c-0.1,0.3-0.2,0.5-0.1,0.7c0,0.3,0.1,0.5,0.2,0.8
						c0.2,0.5,0.5,0.8,0.9,1c0.4,0.2,0.9,0.2,1.4,0.1l-0.4-0.9C345.2,320.6,345,320.6,344.8,320.5z"/>
					<path class="st22" d="M349.5,320.5l-0.9,0.4l0.6,1.3l-4,1.8l0.4,0.9l4-1.8l0.6,1.3l0.9-0.4L349.5,320.5z"/>
				</g>
				<g class="st28">
					<path class="st22" d="M353.1,336.1c0.2-0.1,0.3-0.3,0.3-0.5c0.1-0.2,0.1-0.3,0.1-0.5c0-0.2,0-0.4-0.1-0.6l-0.2-0.6
						c0-0.1-0.1-0.2-0.1-0.3c0-0.1,0-0.1,0.1-0.2c0-0.1,0.1-0.1,0.1-0.2c0.1,0,0.1-0.1,0.2-0.1c0.2-0.1,0.3-0.1,0.5,0
						c0.2,0.1,0.3,0.2,0.4,0.5c0.1,0.1,0.1,0.3,0.1,0.5c0,0.2,0.1,0.4,0,0.6l0.9,0.3c0.1-0.3,0.2-0.6,0.1-0.9c0-0.3-0.1-0.6-0.3-1
						c-0.1-0.2-0.3-0.5-0.4-0.7c-0.2-0.2-0.3-0.3-0.5-0.4c-0.2-0.1-0.4-0.2-0.6-0.1c-0.2,0-0.4,0.1-0.6,0.2
						c-0.4,0.2-0.7,0.4-0.8,0.8c-0.1,0.2-0.1,0.3-0.1,0.5c0,0.2,0,0.4,0.1,0.6l0.1,0.6c0,0.2,0.1,0.3,0.1,0.3c0,0.1,0,0.2,0,0.2
						c-0.1,0.2-0.1,0.2-0.3,0.3c-0.2,0.1-0.4,0.1-0.5,0c-0.2-0.1-0.3-0.3-0.5-0.6c-0.1-0.2-0.2-0.4-0.2-0.7s0-0.5,0.1-0.7l-0.9-0.3
						c-0.1,0.3-0.1,0.7-0.1,1c0,0.3,0.1,0.7,0.3,1c0.1,0.3,0.3,0.5,0.4,0.7c0.2,0.2,0.3,0.3,0.5,0.4c0.2,0.1,0.4,0.2,0.6,0.2
						c0.3,0,0.5,0,0.7-0.1C352.8,336.4,352.9,336.3,353.1,336.1z"/>
					<path class="st22" d="M356.2,335.5l-0.9,0.4l0.6,1.3l-4,1.8l0.4,0.9l4-1.8l0.6,1.3l0.9-0.4L356.2,335.5z"/>
					<path class="st22" d="M359,341.7l-0.3-0.7l-5.7,0.4l0.4,1l1-0.1l0.8,1.7l-0.7,0.7l0.4,1L359,341.7z M355.4,342.2l2.1-0.2
						l-1.5,1.4L355.4,342.2z"/>
					<path class="st22" d="M358.5,347.9c0.1,0.1,0.2,0.2,0.3,0.2c0.1,0.1,0.3,0.1,0.4,0.2c0.2,0.1,0.3,0.1,0.5,0
						c0.2,0,0.3-0.1,0.5-0.1c0.2-0.1,0.4-0.2,0.5-0.4c0.2-0.2,0.3-0.3,0.3-0.5c0.1-0.2,0.1-0.4,0.1-0.6c0-0.2,0-0.5-0.2-0.7
						l-0.9-1.9l-4.9,2.2l0.4,0.9l2-0.9l0.3,0.7l-1.5,1.8l0.5,1.1L358.5,347.9z M359.2,347.3c-0.2,0-0.3-0.2-0.4-0.4l-0.4-0.9
						l1.3-0.6l0.4,0.9c0.1,0.2,0.1,0.4,0,0.6c0,0.2-0.2,0.3-0.4,0.4C359.5,347.4,359.4,347.4,359.2,347.3z"/>
					<path class="st22" d="M361.9,348.2l-0.9,0.4l0.6,1.3l-4,1.8l0.4,0.9l4-1.8l0.6,1.3l0.9-0.4L361.9,348.2z"/>
				</g>
				<g>
					<path class="st23" d="M401,441.9l-5.3-11.9c-1.7-3.9,0-8.5,3.9-10.2l0,0c3.9-1.7,8.5,0,10.2,3.9l5.3,11.9
						c1.7,3.9,0,8.5-3.9,10.2l0,0C407.3,447.5,402.8,445.8,401,441.9z"/>
					<path class="st21" d="M411.4,431.1l-0.8-1.7l-13,1l1,2.3l2.3-0.2l1.8,4l-1.7,1.6l1,2.3L411.4,431.1z M403.1,432.2l4.7-0.4
						l-3.4,3.2L403.1,432.2z"/>
				</g>
				<g>
					<path class="st23" d="M383.4,402.8l-5.3-11.9c-1.7-3.9,0-8.5,3.9-10.2l0,0c3.9-1.7,8.5,0,10.2,3.9l5.3,11.9
						c1.7,3.9,0,8.5-3.9,10.2l0,0C389.8,408.4,385.2,406.7,383.4,402.8z"/>
					<path class="st21" d="M388.2,398.2c0.3-0.2,0.5-0.5,0.6-0.9c0.1-0.2,0.1-0.3,0.1-0.5c0.1-0.2,0.1-0.4,0.1-0.6
						c0.9,0.7,1.9,0.8,3,0.3c0.5-0.2,0.9-0.5,1.2-0.8c0.3-0.3,0.5-0.7,0.7-1.1c0.1-0.4,0.2-0.9,0.1-1.4c0-0.5-0.2-1-0.4-1.5l-2-4.5
						l-11.2,5l2.1,4.7c0.2,0.5,0.5,1,0.9,1.3c0.4,0.4,0.7,0.6,1.2,0.8c0.4,0.2,0.8,0.3,1.3,0.2c0.5,0,0.9-0.1,1.4-0.4
						C387.6,398.7,388,398.5,388.2,398.2z M390.6,390.2l1,2.2c0.2,0.5,0.3,0.8,0.1,1.2c-0.1,0.4-0.4,0.6-0.8,0.8
						c-0.4,0.2-0.8,0.2-1.1,0c-0.4-0.2-0.6-0.5-0.8-0.9l-1-2.2L390.6,390.2z M385.2,396.7c-0.4-0.2-0.6-0.5-0.8-0.9l-1-2.3l2.8-1.2
						l1,2.3c0.2,0.5,0.3,0.8,0.1,1.2c-0.1,0.4-0.4,0.6-0.8,0.8C385.9,396.8,385.6,396.8,385.2,396.7z"/>
				</g>
				<g>
					<path class="st24" d="M317.4,360.9l-13.9-31c-3.8-8.5,0-18.6,8.5-22.4l0,0c8.5-3.8,18.6,0,22.4,8.5l13.9,31
						c3.8,8.5,0,18.6-8.5,22.4l0,0C331.3,373.2,321.2,369.4,317.4,360.9z"/>
					<g>
						<path class="st25" d="M318.3,334l-4.6-10.3c-1-2.3,0-5.1,2.3-6.1l0,0c2.3-1,5.1,0,6.1,2.3l4.6,10.3c1,2.3,0,5.1-2.3,6.1l0,0
							C322.1,337.3,319.3,336.3,318.3,334z"/>
						<path class="st25" d="M328.8,357.4l-4.6-10.3c-1-2.3,0-5.1,2.3-6.1l0,0c2.3-1,5.1,0,6.1,2.3l4.6,10.3c1,2.3,0,5.1-2.3,6.1l0,0
							C332.6,360.8,329.9,359.7,328.8,357.4z"/>
					</g>
				</g>
			</g>
			<g class="st29">
				<path class="st15" d="M429.7,318c4.4-2,6.3-7.1,4.4-11.5l-61-135.6c-2-4.4-7.1-6.3-11.5-4.4l5.2-2.3c4.4-2,9.5,0,11.5,4.4
					l61,135.6c1.9,4.3,0,9.5-4.4,11.5L429.7,318z"/>
				<path class="st15" d="M427,460.2l-5.2,2.3c4.4-2,6.3-7.1,4.3-11.4L377,341.7l5.2-2.3l49.2,109.4
					C433.3,453.1,431.4,458.3,427,460.2z"/>
			</g>
		</g>
		<path class="st30" d="M500.3,449.1l-132.8,59.7c-9.3,4.2-20.3,0-24.5-9.3l-98.4-218.9l24.5,9.3l74.8,28.4l1.2,0.5l0,0l141,53.5
			l23.5,52.3c0.8,1.7,1.3,3.6,1.5,5.4c0,0,0,0.1,0,0.1c0.7,6-1.6,12-6.1,16c0,0.1-0.1,0.1-0.1,0.1
			C503.6,447.3,502.1,448.3,500.3,449.1z"/>
	</g>
	<path class="st31" d="M500.6,449.7l-4.4,2c1.7-0.8,3.3-1.8,4.7-3c0,0,0,0,0.1-0.1c4.5-4,6.8-10,6.1-16c0,0,0-0.1,0-0.1
		c-0.2-1.8-0.7-3.6-1.5-5.4L383.6,156c-4.2-9.3-15.2-13.5-24.5-9.3l4.4-2c9.3-4.2,20.3,0,24.5,9.3l121.9,271.2
		c0.8,1.7,1.3,3.6,1.5,5.4c0,0,0,0.1,0,0.1c0.7,6-1.6,12-6.1,16c0,0.1-0.1,0.1-0.1,0.1C503.9,447.9,502.4,448.9,500.6,449.7z"/>
</g>
<g>
	<path class="st32" d="M140.6,165.6c0,0-0.4,6.4-1.9,6.5c-4.6,0.3-11-0.6-17-3.1l-5.3,12.9c0.8,2.8,1.8,5.8,2.8,8.7l23.4-9.7
		c11.5-4.8,17.5-17,13.2-27.1l-4.1-9.7l-23.8,9.9l-3.2,7.7C130,164.8,136.3,166.4,140.6,165.6z"/>
	<path class="st32" d="M130.6,159.2l3.2-7.7l-8.5,3.5C126.9,156.6,128.7,158,130.6,159.2z"/>
	<path class="st32" d="M129.7,157C129.7,157,129.7,157,129.7,157c0.2,5,1.6,11.3,3.6,18l5.3-12.9C135.4,160.8,132.3,159.1,129.7,157
		z"/>
	<polygon class="st32" points="91.5,43.7 84,62 96.9,56.6 	"/>
	<g>
		<g>
			<polygon class="st33" points="188.7,5.6 196.1,23.5 177.2,31.4 166.1,4.8 171.6,5 176.3,5.2 183.8,5.5 			"/>
			<path class="st34" d="M212.8,18.8l10.3,24.8c2.1,5-0.3,10.7-5.2,12.7l-116.6,48.6c-5,2.1-10.7-0.3-12.7-5.2L78.2,74.8
				c-2-4.9,0.3-10.6,5.3-12.7l116.6-48.6c0.6-0.3,1.3-0.5,2-0.6c3.7-0.7,7.6,0.9,9.7,4C212.2,17.6,212.5,18.2,212.8,18.8z"/>
			<path class="st33" d="M55.6,86.4l8.4,26.8c0,0-1.7,6.4-9.8,10.3c-3.1,1.5-7.1,2.6-12.2,2.9c-18.8,1-22-22.2-23.7-26.7
				c-1.7-4.5-10.3-1.8-15.8-4.1c-5.6-2.3,5.7-11.3,24-6.4c5.9,1.6,10.9,2,14.9,1.8C49.9,90.5,54.5,87.3,55.6,86.4z"/>
			<path class="st35" d="M119.2,174.5c-7.6,1.3-21-4.4-25-13.8l-1.3-3.1c-0.5,0.2-1.1,0.4-1.6,0.6l-5.5,2.3c-0.7,0.3-1.4,0.7-2.1,1
				l1.3,3.1c5.1,12.1,22.7,17.2,32.4,16.5C118.7,180.9,119.2,174.5,119.2,174.5z"/>
			<g>
				<path class="st35" d="M134.2,138.4L134.2,138.4c-1.2-2.6-2.8-4.9-4.7-6.9l0,0c-2.2-2.3-4.8-4.2-7.7-5.6c-2-1-4.1-1.7-6.3-2.3
					c-1.3-0.3-2.6-0.5-4-0.7c0,0-0.1,0-0.1,0c-5.5-0.5-11.4,0.2-17,2.6l-38,15.8c-16.2,6.8-24.6,23.8-18.7,38.1l8.4,20.1
					c5.9,14.1,23.5,20.2,39.6,13.8l38.5-16c16.2-6.7,24.6-23.8,18.6-38.1l-8.4-20.1C134.4,138.9,134.3,138.7,134.2,138.4z
					 M134.4,162.7c4.2,10.1-1.7,22.3-13.2,27.1l-38,15.8c-11.6,4.8-24.4,0.5-28.6-9.7l-8.4-20.1c-4.2-10.1,1.7-22.3,13.3-27.1
					l38-15.8c1.9-0.8,3.8-1.4,5.7-1.6c4.3-0.7,8.5-0.3,12.3,1.2c0,0,0.1,0,0.1,0c1,0.4,2,0.8,2.9,1.4c0.6,0.4,1.3,0.8,1.9,1.2
					c0,0,0,0,0,0c2.3,1.7,4.1,4,5.3,6.6l0,0c0.2,0.2,0.3,0.5,0.4,0.7L134.4,162.7L134.4,162.7z"/>
			</g>
			<path class="st36" d="M95.2,162.7c-0.3,0.2-0.5,0.5-0.8,0.6c-1.7,1-2.6,3-2.9,5.8c-0.2,1.2-0.2,2.5-0.2,3.9l0,0
				c0.2,5,1.6,11.2,3.6,17.9c0.4,1.4,0.8,2.9,1.3,4.3c0.5,1.4,1,2.9,1.5,4.4c0.9,2.5,1.8,5.1,2.8,7.6c6.3,16.7,13.6,31.6,13.6,31.6
				s-24.1,10-46.9,19.5L39,270.1c-0.8-2.1-1.6-4.1-2.3-6.1l-0.2-0.4c-26-72,9.9-128.3,9.9-128.3l32.6-13.6c0,0,2.7,3.1,6,7.7
				c1.5,2,3.1,4.3,4.7,6.8c1.7,2.7,3.4,5.7,4.8,8.6C97.9,152.1,99.5,159,95.2,162.7z"/>
			<path class="st34" d="M161,45.5l28,67.3c3.1,7.4-0.4,15.9-7.8,18.9l-92.7,38.6c-7.2,2.6-15.3-0.9-18.3-8.1l-28-67.3
				c-0.5-1.3-0.9-2.6-1-3.9c-0.7-6.2,2.7-12.4,8.8-15l92-38.3c5.2-2.2,10.9-1,14.9,2.4C158.8,41.5,160.1,43.3,161,45.5z"/>
			
				<rect x="103.6" y="60.7" transform="matrix(0.9232 -0.3844 0.3844 0.9232 -27.1548 59.5979)" class="st37" width="63.9" height="74.1"/>
			<path class="st38" d="M128.5,85.3L95.1,99.2c-3.2,1.3-6.9-0.2-8.3-3.4l0,0c-1.3-3.2,0.2-6.9,3.4-8.3l33.4-13.9
				c3.2-1.3,6.9,0.2,8.3,3.4l0,0C133.2,80.2,131.7,83.9,128.5,85.3z"/>
			<path class="st38" d="M136.4,104.3L103,118.2c-3.2,1.3-6.9-0.2-8.3-3.4l0,0c-1.3-3.2,0.2-6.9,3.4-8.3l33.4-13.9
				c3.2-1.3,6.9,0.2,8.3,3.4l0,0C141.1,99.2,139.6,103,136.4,104.3z"/>
			<path class="st38" d="M145,125l-33.4,13.9c-3.2,1.3-6.9-0.2-8.3-3.4l0,0c-1.3-3.2,0.2-6.9,3.4-8.3l33.4-13.9
				c3.2-1.3,6.9,0.2,8.3,3.4l0,0C149.8,119.9,148.2,123.7,145,125z"/>
			<path class="st37" d="M120.2,143.9c-18.8,7.8-40.3-1.1-48.1-19.8s1.1-40.3,19.8-48.1L120.2,143.9z"/>
		</g>
		<path class="st30" d="M212.8,18.8l10.3,24.8c2.1,5-0.3,10.7-5.2,12.7l-44.6,18.6l15.8,37.9c3.1,7.4-0.4,15.9-7.8,18.9l-42.5,17.7
			l4.1,9.8c5.9,14.3-2.4,31.4-18.6,38.1l-23.7,9.9c6.3,16.7,13.6,31.6,13.6,31.6s-24.1,10-46.9,19.5L95,190.9
			c0.4,1.4,0.8,2.9,1.3,4.3c0.5,1.4,1,2.9,1.5,4.4l23.4-9.7c11.5-4.8,17.5-17,13.2-27.1l-4.1-9.8l-23.8,9.9l6.9-16.9l3.7-9
			l12.2-29.7l6.1-14.8l25.8-62.7l12.9-5.4l-5.4-12.9l2.7-6.5l4.7,0.2l7.5,0.2l4.9,0.1l4.5,10.8l6.9-2.9c0.6-0.3,1.3-0.5,2-0.6
			c3.7-0.7,7.6,0.9,9.7,4C212.2,17.6,212.5,18.2,212.8,18.8z"/>
	</g>
</g>
</svg>
