<?xml version="1.0" encoding="utf-8"?>
<!-- Generator: Adobe Illustrator 24.3.0, SVG Export Plug-In . SVG Version: 6.00 Build 0)  -->
<svg version="1.1" id="layer" xmlns="http://www.w3.org/2000/svg" xmlns:xlink="http://www.w3.org/1999/xlink" x="0px" y="0px"
	 viewBox="0 0 511 511" style="enable-background:new 0 0 511 511;" xml:space="preserve">
<style type="text/css">
	.st0{fill:#262222;}
	.st1{fill:url(#SVGID_1_);}
	.st2{fill:#666666;}
	.st3{fill:#F9E0CA;}
	.st4{fill:#FFFFFF;}
</style>
<path class="st0" d="M211.74,62.59c0.66,0,1.2,0.54,1.2,1.2c0,0.66-0.54,1.2-1.2,1.2h-24.88c-0.66,0-1.2-0.54-1.2-1.2
	c0-0.66,0.54-1.2,1.2-1.2H211.74z"/>
<path class="st0" d="M204.71,335.52c-1.15,0.5-2.43,0.77-3.76,0.77c-5.3,0-9.59-4.3-9.59-9.59c0-3.98,2.41-7.39,5.85-8.84
	c1.1,3.41,2.05,5.94,2.46,6.87C200.22,325.96,202.19,330.16,204.71,335.52z"/>
<linearGradient id="SVGID_1_" gradientUnits="userSpaceOnUse" x1="134.7667" y1="195.095" x2="266.9667" y2="195.095">
	<stop  offset="0" style="stop-color:#FFD300"/>
	<stop  offset="0.1723" style="stop-color:#FDCA00"/>
	<stop  offset="0.4588" style="stop-color:#F8B001"/>
	<stop  offset="0.822" style="stop-color:#F08702"/>
	<stop  offset="0.9944" style="stop-color:#EC7103"/>
</linearGradient>
<path class="st1" d="M266.97,80.38V309.8c0,0.56-0.45,1.01-1.01,1.01h-33.1h-0.01c-3.4-7.94-9.17-21.68-13.91-28.11
	c-6.13-8.32-16.64-8.76-24.52-1.76c-4.9,4.36-2.35,18.7,0.7,29.87h-59.35c-0.48,0-0.89-0.34-0.98-0.81
	c-0.01-0.06-0.02-0.13-0.02-0.2V80.38c0-0.55,0.45-1,1-1h130.19C266.52,79.38,266.97,79.83,266.97,80.38z"/>
<path class="st2" d="M174.03,62.08c1.24,0,2.25,1,2.25,2.25c0,1.24-1.01,2.24-2.25,2.24c-1.24,0-2.25-1-2.25-2.24
	C171.78,63.08,172.79,62.08,174.03,62.08z"/>
<path d="M135.77,310.81h59.35c0.69,2.57,1.42,4.98,2.09,7.05c-3.44,1.45-5.85,4.86-5.85,8.84c0,5.29,4.29,9.59,9.59,9.59
	c1.33,0,2.61-0.27,3.76-0.77c1.29,2.73,2.72,5.76,4.18,8.86h-62.7c-2.52,0-4.93-0.49-7.13-1.38h-0.01
	c-1.62-11.36-3.57-23.29-5.25-32.93l0.99-0.07C134.88,310.47,135.29,310.81,135.77,310.81z"/>
<path d="M134.77,309.8c0,0.07,0.01,0.14,0.02,0.2l-0.99,0.07c-1.44-8.28-2.68-14.87-3.34-17.96c-0.6-2.79-1.8-5.64-3.26-8.36v-82.9
	v-0.01c0.97-5.19,1.69-10.53,1.69-13.07c0-2.21-0.74-6.62-1.69-11.29v-0.01V65.89c0-10.49,8.5-18.99,18.99-18.99h108.92
	c10.49,0,18.99,8.5,18.99,18.99v95.74v36.59v31.49v1.96c-1.51,3.38-3.28,8.19-3.28,12.2c0,5.33,0.62,11.89,3.28,16.52v0.82v17.07
	v29.06v18.06c0,10.48-8.5,18.98-18.99,18.98h-1.69c-0.7-0.96-1.25-1.68-1.64-2.13c-2.62-3.07-14.45-21.9-16.64-26.28
	c-0.5-0.99-1.29-2.82-2.29-5.16h0.01h33.1c0.56,0,1.01-0.45,1.01-1.01V80.38c0-0.55-0.45-1-1.01-1H135.77c-0.55,0-1,0.45-1,1V309.8z
	 M212.94,63.79c0-0.66-0.54-1.2-1.2-1.2h-24.88c-0.66,0-1.2,0.54-1.2,1.2c0,0.66,0.54,1.2,1.2,1.2h24.88
	C212.4,64.99,212.94,64.45,212.94,63.79z M176.28,64.33c0-1.25-1.01-2.25-2.25-2.25c-1.24,0-2.25,1-2.25,2.25
	c0,1.24,1.01,2.24,2.25,2.24C175.27,66.57,176.28,65.57,176.28,64.33z"/>
<path class="st3" d="M300.48,418.27c3.36-6.54,9.63-17.98,13.04-19.54c4.82-2.19,17.52-5.25,21.46-3.5s21.02,19.27,24.08,21.46
	c3.07,2.19,18.83,14.45,21.46,14.45c2.63,0,6.57-6.57,13.58-6.57c7,0,13.57,1.75,21.01,7.44c7.45,5.7,8.76,5.7,11.83,4.38
	c3.06-1.31,5.69-7,9.19-7.88c3.51-0.87,18.83-3.94,28.9,5.69c10.07,9.64,18.83,25.4,21.46,29.78c2.63,4.38,6.13,14.45,6.13,14.45
	c5.25,9.63,16.64,31.09,20.58,37.22c3.94,6.13,16.2,28.9,19.27,39.85c3.06,10.94,17.08,47.29,21.01,56.48
	c3.95,9.2,17.52,36.79,21.46,42.92s36.61,78.64,36.61,78.64l-129.88,67.61c0,0-59.11-96.77-72.69-113.41
	c-13.57-16.64-40.72-27.59-43.35-28.9c-2.63-1.32-40.28-26.27-46.41-30.22c-6.13-3.94-14.45-7.44-27.59-16.64
	c-13.14-9.19-11.82-28.02-11.82-33.71s-4.82-41.6-6.13-47.29c-1.32-5.7-0.44-14.02,2.62-19.71c1.16-2.14,3.12-3.85,5.11-5.15
	c-3.94-10.19-8.34-22.26-9.92-27.25c-2.39-7.56-4.82-20.15-6.57-26.71c-1.75-6.57-23.21-50.36-26.71-55.61
	c-3.5-5.26-15.33-22.34-17.95-28.03c-0.6-1.29-1.89-4.04-3.56-7.57c-2.2-4.68-5.06-10.74-7.81-16.57c-1.46-3.1-2.89-6.13-4.18-8.86
	c-2.52-5.36-4.49-9.56-5.04-10.79c-0.41-0.93-1.36-3.46-2.46-6.87c-0.67-2.07-1.4-4.48-2.09-7.05c-3.05-11.17-5.6-25.51-0.7-29.87
	c7.88-7,18.39-6.56,24.52,1.76c4.74,6.43,10.51,20.17,13.91,28.11c1,2.34,1.79,4.17,2.29,5.16c2.19,4.38,14.02,23.21,16.64,26.28
	c0.39,0.45,0.94,1.17,1.64,2.13c4.02,5.54,12.66,18.88,19.38,31.58C278.13,386.03,290.06,405.49,300.48,418.27z"/>
<path class="st3" d="M290.61,294.29c0.35,7.59-8.7,11.52-16.51,13.05v-29.06C280.57,279.56,290.19,285.36,290.61,294.29z"/>
<path class="st3" d="M275.01,229.73c6.23,0.33,20.27,5.29,23.6,11.72c3.78,7.28-1.35,15.11-5.94,17.8
	c-3.93,2.32-10.24,4.63-17.91,2.18c-0.22-0.07-0.44-0.14-0.66-0.22v-0.82c-2.66-4.63-3.28-11.19-3.28-16.52
	c0-4.01,1.77-8.82,3.28-12.2v-1.96C274.38,229.7,274.68,229.71,275.01,229.73z"/>
<path class="st3" d="M292.96,168.43c2.41,6.4,3.21,14.81-6,21.21c-5.27,3.67-9.88,6.68-12.86,8.58v-36.59
	C280.79,161.43,291.12,163.51,292.96,168.43z"/>
<path class="st3" d="M127.2,200.85v82.9c-4.39-8.19-11.15-15.26-11.15-16.46c0-1.6,5.8-51.34,7.68-53.68
	C124.73,212.37,126.11,206.7,127.2,200.85z"/>
<path class="st3" d="M139.05,343h0.01c2.2,0.89,4.61,1.38,7.13,1.38h62.7c2.75,5.83,5.61,11.89,7.81,16.57
	c-6.39,13.39-15.99,33.11-22.2,44.04c-10.01,17.61-16.81,28.01-30.02,44.02c-13.21,16.02-19.61,23.22-24.42,24.82
	c-4.8,1.6-22.41,41.63-31.22,57.24l-131.16-22.22c0,0,39.81-81.2,43.82-88.41c4-7.21,23.23-45.67,24.83-52.88
	c1.61-7.21,6.47-32.06,7.17-43.1c0.71-11.04,3.06-44.39,4.47-48.62c1.4-4.22,13.15-25.83,16.44-34.76
	c3.28-8.92,8.69-24.89,9.16-28.65c0.46-3.76,3.28-11.98,5.63-16.67c2.35-4.7,8.93-19.5,9.4-25.13c0.47-5.64-0.47-27.25,8.22-27.48
	c8.69-0.24,15.73,13.62,16.67,17.14c0.56,2.08,2.34,9.41,3.71,16.18v0.01c0.95,4.67,1.69,9.08,1.69,11.29
	c0,2.54-0.72,7.88-1.69,13.07v0.01c-1.09,5.85-2.47,11.52-3.47,12.76c-1.88,2.34-7.68,52.08-7.68,53.68c0,1.2,6.76,8.27,11.15,16.46
	c1.46,2.72,2.66,5.57,3.26,8.36c0.66,3.09,1.9,9.68,3.34,17.96C135.48,319.71,137.43,331.64,139.05,343z"/>
<g>
	<path class="st4" d="M183.45,182.78c0,5.52-1.57,9.78-4.71,12.76c-3.14,2.99-7.55,4.49-13.23,4.49h-10.12v-33.58h10.12
		c5.7,0,10.12,1.44,13.25,4.32S183.45,177.66,183.45,182.78z M164.36,173.58v19.32h2.07c2.76,0,4.83-0.79,6.21-2.37
		c1.38-1.58,2.07-4.16,2.07-7.75c0-3.22-0.7-5.56-2.09-7.01c-1.4-1.46-3.46-2.19-6.19-2.19H164.36z"/>
	<path class="st4" d="M196.88,193.59l-1.52,6.44h-9.57l11.04-33.58h9.66l11.04,33.58h-9.75l-1.56-6.44H196.88z M198.53,186.69h6.07
		l-2.99-12.42h-0.09L198.53,186.69z"/>
	<path class="st4" d="M235.33,180.25h0.09l5.47-13.8h10.26l-11.13,21.16v12.42h-9.48v-12.42l-11.13-21.16h10.44L235.33,180.25z"/>
</g>
</svg>
