<?xml version="1.0" encoding="utf-8"?>
<!-- Generator: Adobe Illustrator 24.3.0, SVG Export Plug-In . SVG Version: 6.00 Build 0)  -->
<svg version="1.1" id="_x31_" xmlns="http://www.w3.org/2000/svg" xmlns:xlink="http://www.w3.org/1999/xlink" x="0px" y="0px"
	 viewBox="0 0 512 512" style="enable-background:new 0 0 512 512;" xml:space="preserve">
<style type="text/css">
	.st0{fill:#F7F7F7;}
	.st1{fill:#E2E2E2;}
	.st2{fill:url(#SVGID_1_);}
	.st3{fill:url(#SVGID_2_);}
	.st4{fill:url(#SVGID_3_);}
	.st5{fill:url(#SVGID_4_);}
	.st6{fill:url(#SVGID_5_);}
	.st7{fill:url(#SVGID_6_);}
</style>
<path class="st0" d="M390.4,103c-0.7,83.9-1.3,167.8-2,251.7l-0.1,18.8l-0.1,19.5l-0.1,6.3l-0.1,16.5l-0.1,25.9H121.9l-0.1-25.9
	l-0.1-16.5l-0.1-6.3l-0.1-19.5l-0.1-18.8L121,197.2l-0.4-94.2h231.6C364.9,103,377.7,103,390.4,103z"/>
<polygon class="st1" points="390.4,103 390.3,108.5 390.1,142.7 353.2,103 "/>
<g>
	<linearGradient id="SVGID_1_" gradientUnits="userSpaceOnUse" x1="156.828" y1="143.0795" x2="354.877" y2="143.0795">
		<stop  offset="0" style="stop-color:#FFD300"/>
		<stop  offset="1" style="stop-color:#EC7103"/>
	</linearGradient>
	<polygon class="st2" points="354.8,152.5 156.9,152.5 156.8,133.7 354.9,133.7 	"/>
	<linearGradient id="SVGID_2_" gradientUnits="userSpaceOnUse" x1="157.068" y1="186.851" x2="354.637" y2="186.851">
		<stop  offset="0" style="stop-color:#FFD300"/>
		<stop  offset="1" style="stop-color:#EC7103"/>
	</linearGradient>
	<polygon class="st3" points="354.5,196.2 157.2,196.2 157.1,177.5 354.6,177.5 	"/>
	<linearGradient id="SVGID_3_" gradientUnits="userSpaceOnUse" x1="157.312" y1="231.2465" x2="298.431" y2="231.2465">
		<stop  offset="0" style="stop-color:#FFD300"/>
		<stop  offset="1" style="stop-color:#EC7103"/>
	</linearGradient>
	<polygon class="st4" points="298.4,240.5 157.4,240.5 157.3,222 298.4,222 	"/>
</g>
<g>
	<linearGradient id="SVGID_4_" gradientUnits="userSpaceOnUse" x1="157.312" y1="269.6107" x2="355.361" y2="269.6107">
		<stop  offset="0" style="stop-color:#FFD300"/>
		<stop  offset="1" style="stop-color:#EC7103"/>
	</linearGradient>
	<polygon class="st5" points="355.3,279 157.4,279 157.3,260.2 355.4,260.2 	"/>
	<linearGradient id="SVGID_5_" gradientUnits="userSpaceOnUse" x1="157.552" y1="313.3823" x2="355.121" y2="313.3823">
		<stop  offset="0" style="stop-color:#FFD300"/>
		<stop  offset="1" style="stop-color:#EC7103"/>
	</linearGradient>
	<polygon class="st6" points="355,322.7 157.7,322.7 157.6,304 355.1,304 	"/>
	<linearGradient id="SVGID_6_" gradientUnits="userSpaceOnUse" x1="157.796" y1="357.7778" x2="298.915" y2="357.7778">
		<stop  offset="0" style="stop-color:#FFD300"/>
		<stop  offset="1" style="stop-color:#EC7103"/>
	</linearGradient>
	<polygon class="st7" points="298.9,367.1 157.9,367.1 157.8,348.5 298.9,348.5 	"/>
</g>
</svg>
