<?xml version="1.0" encoding="utf-8"?>
<!-- Generator: Adobe Illustrator 24.3.0, SVG Export Plug-In . SVG Version: 6.00 Build 0)  -->
<svg version="1.1" id="layer" xmlns="http://www.w3.org/2000/svg" xmlns:xlink="http://www.w3.org/1999/xlink" x="0px" y="0px"
	 viewBox="0 0 511 511" style="enable-background:new 0 0 511 511;" xml:space="preserve">
<style type="text/css">
	.st0{fill:url(#SVGID_1_);}
	.st1{fill:#E6E6E6;}
	.st2{fill:#F9E0CA;}
	.st3{fill:url(#SVGID_2_);}
	.st4{fill:url(#SVGID_3_);}
	.st5{fill:#E5EAD8;}
	.st6{fill:url(#SVGID_4_);}
</style>
<linearGradient id="SVGID_1_" gradientUnits="userSpaceOnUse" x1="100.6439" y1="298.4252" x2="399.3723" y2="298.4252">
	<stop  offset="0" style="stop-color:#FFD300"/>
	<stop  offset="0.1723" style="stop-color:#FDCA00"/>
	<stop  offset="0.4588" style="stop-color:#F8B001"/>
	<stop  offset="0.822" style="stop-color:#F08702"/>
	<stop  offset="0.9944" style="stop-color:#EC7103"/>
</linearGradient>
<path class="st0" d="M140.5,327.4c1.53-3.67,2.57-7.54,2.89-11.64c0.01-0.15,0.03-0.28,0.03-0.43c1.35-20.88,19.67-84.2,27.9-98.61
	c8.23-14.41,19.9-21.27,32.24-27.78c8.54-4.51,18.89-10.66,24.46-14.02c0.17,0.58,0.42,1.09,0.75,1.5c2.48,3.03,5,15.85,5,15.85
	s4.04-9.75,5.7-13.33c0.08-0.17,0.16-0.34,0.25-0.51c-0.51,13.43-1.62,42.63-1.62,45.51c0,3.76-1.51,15.02-1.51,15.02l11.65,0.76
	c0,0,3.41-57.16,3.74-66.24c7.19,5.92,11.7,19.13,11.7,19.13s30.46-17.86,37.47-25.19c0.91-0.94,1.4-2.81,1.56-5.04
	c10.17,2.66,42.07,11.39,51.98,18.77c1.82,1.36,3.52,2.61,5.11,3.79c0.01,0,0.01,0.01,0.01,0.01c8.7,6.54,13.91,11.21,16.94,21
	c2.01,6.5,5.72,21.13,8.74,34.85c0,0.01,0,0.01,0,0.01c2.37,10.72,4.32,20.88,4.73,26.18c0.93,12.06,11.13,61.22,8.82,78.85
	c-2.32,17.62-18.09,50.56-27.83,59.84c-0.97,0.92-2.05,1.84-3.21,2.75c-3.11,2.43-6.8,4.79-10.53,6.99
	c-1.99-5.03-7.23-14.12-12.58-18.79c-6.63-5.78-18.17-6.46-18.17-6.46c-2.05,2.31-15.66,13.09-18.49,14.89
	c-2.33,1.48-4.31,5.42-4.06,9.93c-0.64,0.56-1.21,1.03-1.66,1.34c-2.55,1.74-6.61,2.55-14.26,3.71c-7.18,1.09-9.56,2.68-10.88,4.99
	c-0.86,3.16-1.72,6.32-2.58,9.47c-22.91,0-45.82,0-68.73,0h-10.27h-2.3c-5.22-0.53-8.29-0.87-8.29-0.87s-1.62-5.43-2.16-11.67
	c-0.71-8.11,3.79-41.5,4.06-50.18c0.15-4.6-0.55-17.42-1.52-30.72c-1.81,8.91-3.81,18.91-6.35,23.12
	c-4.07,6.78-20.61,33.09-26.04,38.24c-5.43,5.15-18.72,14.92-18.72,14.92s-0.78,1.14-2.15,2.92c-0.69-6.09-2.46-15.64-10.22-20.5
	c-7.46-4.66-16.77-3.73-21.45-2.83c1.48-3.97,9.68-20.91,15.11-32.76C120.51,353.8,134.37,342.23,140.5,327.4z"/>
<path class="st1" d="M344.88,396.61c5.35,4.67,10.59,13.76,12.58,18.79c-6.22,3.68-12.55,6.96-16.55,9.61
	c-1.64,1.09-2.89,2.06-3.57,2.91c-2.06,2.57-4.69,3.72-7.02,4.23c0.26-3.65,1.26-5.45,1.48-7.27c0.23-1.85,0.93-5.33-3.25-10.89
	c-3.1-4.13-11.07-5.58-14.95-6.05c-1.34-0.16-2.68,0.31-3.61,1.28c-1.51,1.58-3.96,4.08-5.85,5.75c-0.25-4.51,1.73-8.44,4.06-9.93
	c2.83-1.8,16.44-12.58,18.49-14.89C326.7,390.15,338.25,390.83,344.88,396.61z"/>
<path class="st2" d="M283.13,457.1c0,0-4.29-0.12-5.91-0.46c-1.41-0.31-2.55-1.39-3.32-2.93c-0.68-1.33-1.09-3.02-1.2-4.84
	c-0.01-0.28-0.01-0.61,0-1.01c0.12-2.82,1.05-8.44,2.07-13.39c0.87-4.21,1.8-7.93,2.34-9.02c0.08-0.15,0.16-0.31,0.24-0.46
	c1.32-2.3,3.7-3.9,10.88-4.99c7.65-1.16,11.71-1.97,14.26-3.71c0.45-0.31,1.02-0.78,1.66-1.34c1.89-1.67,4.33-4.17,5.85-5.75
	c0.94-0.97,2.27-1.44,3.61-1.28c3.88,0.47,11.85,1.92,14.95,6.05c4.18,5.56,3.47,9.04,3.25,10.89c-0.22,1.82-1.23,3.62-1.48,7.27
	c-0.01,0.09-0.01,0.18-0.02,0.27c-0.21,3.35-3.26,8.13-6.03,9.72c-0.4,0.22-0.78,0.39-1.15,0.47c-3,0.69-4.05,2.76-4.52,3.7
	c-0.01,0.01-0.01,0.01-0.01,0.01c-0.22,0.42-0.7,2.92-1.55,5.65c-0.1,0-0.19,0.01-0.3,0.01c0.08,0.08,0.15,0.15,0.22,0.22
	c-1.05,3.27-2.61,6.77-4.86,7.33c-4.18,1.05-5.68-1.39-5.68-1.39s-2.43,3.94-6.03,3.94c-3.59,0-5.1-1.74-5.1-1.74
	s-2.22,0.66-5.01,0.59c-0.52-0.01-1.05-0.06-1.6-0.12C285.22,460.34,283.13,457.1,283.13,457.1z"/>
<path class="st2" d="M232.81,144.86c-3.93-2.2-7.17-5.34-8.88-8.39c-3.3-5.85-11.26-29.08-12.46-33.42
	c-1.21-4.36-3.45-19.36-3.45-22.37c0-0.87-0.28-2.34-0.67-3.99c0.1-0.02,0.19-0.04,0.28-0.06c-0.08-0.87-0.51-6.62,2.27-10.79
	c2.72-4.09,8.53-9.81,12.39-11.32c9.43,0.87,26.76,10.56,34.87,13.09c6.24,1.96,15.83,1.07,23.78,0.52
	c2.55,6.36,5.74,14.67,6.15,17.48c0,0,2.16-12.28,6.2-13.65c3.59-1.21,6.89-2.01,8.94-0.01c0.4,0.38,0.74,0.87,1.04,1.48
	c0,0,0,0,0,0.01c0.46,0.94,0.8,2.18,0.98,3.78c0.9,7.96-0.6,23.87-4.96,25.97c-0.3,0.15-0.58,0.26-0.87,0.36h-0.01
	c-0.77,0.26-1.51,0.38-2.21,0.4c-1.06,0.01-2.02-0.22-2.8-0.56v17.86c0,0,0.17-0.57,0.46-1.51c-0.88,7-1.55,14.43-1.19,18.95
	c0.22,2.7,0.71,5.76,1.32,8.81c-1.02,1.82-4.88,7.88-13.58,13.51c-11.31,7.32-35.7,9.65-35.7,9.65c-3.58-1.32-7.67-3.66-9.9-5.01
	v-0.01C234.44,158.04,233.44,149.63,232.81,144.86z"/>
<linearGradient id="SVGID_2_" gradientUnits="userSpaceOnUse" x1="201.8313" y1="39.4701" x2="303.8442" y2="39.4701">
	<stop  offset="0" style="stop-color:#FFD300"/>
	<stop  offset="0.1723" style="stop-color:#FDCA00"/>
	<stop  offset="0.4588" style="stop-color:#F8B001"/>
	<stop  offset="0.822" style="stop-color:#F08702"/>
	<stop  offset="0.9944" style="stop-color:#EC7103"/>
</linearGradient>
<path class="st3" d="M302.41,71.78c-1.8-1.73-4.23-2.77-10.39-3.65h-0.01c-5.4-3.27-24.48-8.99-28.96-9.55
	c-4.72-0.59-33.22-7.87-43.63-6.1c-6.35,1.08-12.93,4.57-17.09,7.14c-0.26-5.2-0.69-15.22-0.41-19.91
	c0.4-6.49,4.72-17.1,12.19-22.21s21.63-11.8,28.31-11.99c6.69-0.19,24.37,2.36,31.06,4.92c6.69,2.55,18.67,12.19,22.6,20.04
	c3.22,6.44,9.74,26.22,7.19,42.97c-0.3-0.6-0.65-1.1-1.04-1.48L302.41,71.78z"/>
<path class="st1" d="M302.53,156.72c0.24,1.94,0.32,3.91,0.19,5.65c-0.16,2.23-0.65,4.09-1.56,5.04
	c-7.01,7.33-37.47,25.19-37.47,25.19s-4.51-13.21-11.7-19.13c-2.19-1.81-4.63-2.93-7.28-2.81c0,0,24.39-2.34,35.7-9.65
	c8.7-5.63,12.56-11.69,13.58-13.51c0.2-0.35,0.29-0.55,0.29-0.55S301.97,152.31,302.53,156.72z"/>
<path d="M302.41,71.78l-0.19,0.18c-2.05-2-5.35-1.21-8.94,0.01c-4.04,1.37-6.2,13.65-6.2,13.65c-0.42-2.81-3.61-11.12-6.15-17.48
	c4.07-0.27,7.7-0.46,10.23-0.12c0.29,0.04,0.58,0.08,0.85,0.12h0.01C298.18,69.01,300.61,70.05,302.41,71.78z"/>
<path d="M296.2,103.95c0.69-0.01,1.44-0.13,2.21-0.4c-0.9,4.08-3.48,12.66-4.54,16.16v0.01c0,0.01,0,0.01,0,0.01
	c-0.29,0.94-0.46,1.51-0.46,1.51v-17.86C294.18,103.73,295.14,103.96,296.2,103.95z"/>
<path class="st2" d="M292.06,463.59c2.32,3.71-1.05,6.61-3.47,5.56c-2.43-1.04-6.37-1.04-9.74-1.39c-3.36-0.35-5.44-1.86-5.56-4.18
	c-0.08-1.47,0.32-6.44,0.62-9.88c0.78,1.54,1.91,2.62,3.32,2.93c1.62,0.35,5.91,0.46,5.91,0.46s2.09,3.24,5.56,3.7
	c0.55,0.07,1.08,0.11,1.6,0.12C290.85,461.72,291.44,462.6,292.06,463.59z"/>
<linearGradient id="SVGID_3_" gradientUnits="userSpaceOnUse" x1="202.3304" y1="60.5177" x2="292.0178" y2="60.5177">
	<stop  offset="0" style="stop-color:#FFD300"/>
	<stop  offset="0.1723" style="stop-color:#FDCA00"/>
	<stop  offset="0.4588" style="stop-color:#F8B001"/>
	<stop  offset="0.822" style="stop-color:#F08702"/>
	<stop  offset="0.9944" style="stop-color:#EC7103"/>
</linearGradient>
<path class="st4" d="M292.02,68.13c-0.28-0.04-0.56-0.08-0.85-0.12c-2.53-0.33-6.16-0.15-10.23,0.12
	c-7.94,0.55-17.53,1.44-23.78-0.52c-8.11-2.54-25.45-12.22-34.87-13.09c-0.45-0.05-0.88-0.07-1.3-0.07c-4.14,0-12.6,2.64-18.64,5.56
	c0-0.13-0.01-0.26-0.02-0.4c4.16-2.57,10.74-6.05,17.09-7.14c10.42-1.77,38.92,5.51,43.63,6.1
	C267.54,59.15,286.62,64.87,292.02,68.13z"/>
<path class="st1" d="M251.98,173.47c-0.33,9.08-3.74,66.24-3.74,66.24l-11.65-0.76c0,0,1.51-11.26,1.51-15.02
	c0-2.88,1.11-32.07,1.62-45.51v-0.01c1.62-3.24,4.99-7.75,4.99-7.75C247.35,170.54,249.79,171.66,251.98,173.47z M248.73,183.29
	c0-1.47-1.19-2.66-2.66-2.66s-2.66,1.19-2.66,2.66c0,1.46,1.19,2.66,2.66,2.66S248.73,184.75,248.73,183.29z M247.4,204.23
	c0-1.47-1.19-2.66-2.66-2.66c-1.46,0-2.66,1.19-2.66,2.66s1.19,2.66,2.66,2.66C246.21,206.89,247.4,205.7,247.4,204.23z
	 M246.4,223.84c0-1.47-1.19-2.66-2.66-2.66c-1.47,0-2.66,1.19-2.66,2.66s1.19,2.66,2.66,2.66
	C245.21,226.51,246.4,225.31,246.4,223.84z"/>
<path class="st5" d="M246.07,180.63c1.47,0,2.66,1.19,2.66,2.66c0,1.46-1.19,2.66-2.66,2.66s-2.66-1.19-2.66-2.66
	C243.41,181.82,244.6,180.63,246.07,180.63z"/>
<path class="st5" d="M244.74,201.57c1.47,0,2.66,1.19,2.66,2.66s-1.19,2.66-2.66,2.66c-1.46,0-2.66-1.19-2.66-2.66
	S243.27,201.57,244.74,201.57z"/>
<path class="st5" d="M243.74,221.19c1.46,0,2.66,1.19,2.66,2.66s-1.19,2.66-2.66,2.66c-1.47,0-2.66-1.19-2.66-2.66
	S242.27,221.19,243.74,221.19z"/>
<path class="st1" d="M244.71,170.66c0,0-3.36,4.52-4.99,7.75v0.01c-0.09,0.17-0.17,0.35-0.25,0.51c-1.66,3.58-5.7,13.33-5.7,13.33
	s-2.52-12.82-5-15.85c-0.33-0.41-0.58-0.92-0.75-1.5c-1.11-3.73,1.05-10.32,5.11-10.32c0,0,0.63,0.42,1.67,1.04v0.01
	C237.04,167,241.13,169.34,244.71,170.66z"/>
<linearGradient id="SVGID_4_" gradientUnits="userSpaceOnUse" x1="190.1601" y1="66.2683" x2="222.2848" y2="66.2683">
	<stop  offset="0" style="stop-color:#FFD300"/>
	<stop  offset="0.1723" style="stop-color:#FDCA00"/>
	<stop  offset="0.4588" style="stop-color:#F8B001"/>
	<stop  offset="0.822" style="stop-color:#F08702"/>
	<stop  offset="0.9944" style="stop-color:#EC7103"/>
</linearGradient>
<path class="st6" d="M220.99,54.46c0.42,0,0.85,0.02,1.3,0.07c-3.86,1.51-9.67,7.23-12.39,11.32c-2.77,4.16-2.35,9.92-2.27,10.79
	c-0.09,0.02-0.18,0.04-0.28,0.06c-4.23,0.9-14.42,2.72-16.44-0.22c-2.55-3.74,1.77-10.22,7.08-13.95c0,0,0.01-0.01,0.04-0.03
	c0.02-0.01,0.05-0.03,0.08-0.06c0.03-0.02,0.06-0.04,0.1-0.07c1.12-0.76,2.54-1.56,4.13-2.34
	C208.39,57.09,216.85,54.46,220.99,54.46z"/>
<path class="st1" d="M122.1,399.75c7.77,4.86,9.53,14.41,10.22,20.5c-2.68,3.48-7.58,9.45-13.2,14.23h-3.66
	c0.37-3.16,0.83-21.29-18.15-19.7c-2.08,0.17-4,1.17-5.52,2.6c-1.54,1.46-3.52,3.16-4.4,3.24c-0.31,0.03-0.71,0.03-1.18,0.02
	c-0.05-0.34-0.06-0.63-0.03-0.87c0.54-4.07,13.84-12.69,14.23-22.06c0.01-0.12,0.08-0.39,0.23-0.78
	C105.33,396.02,114.63,395.09,122.1,399.75z"/>
<path class="st2" d="M70.2,455.73c-0.47,0-0.94,0.01-1.41,0.03c-0.58,0.03-1.66-0.03-2.98-0.21c-3.23-0.43-7.85-1.55-9.9-3.66
	c-0.7-0.71-1.1-1.55-1.05-2.51c0.16-3.07,1.17-8.5,2.26-13.14c0.67-2.84,1.36-5.38,1.9-6.9c1.44-4.04,6.12-4.17,7.16-5.08
	c1.05-0.92,3.26-1.3,6.38-3.78c3.13-2.47,8.98-0.12,8.98-0.12s2.78,0.25,4.68,0.28c0.46,0.01,0.87,0.01,1.18-0.02
	c0.88-0.08,2.86-1.78,4.4-3.24c1.52-1.44,3.44-2.43,5.52-2.6c18.98-1.58,18.53,16.55,18.15,19.7c0,0-30.23,15.91-29.97,16.72
	c-1.75,0.7-3.34,1.32-4.35,1.71C79.03,453.69,72.21,455.73,70.2,455.73L70.2,455.73z"/>
</svg>
