<?xml version="1.0" encoding="utf-8"?>
<!-- Generator: Adobe Illustrator 24.3.0, SVG Export Plug-In . SVG Version: 6.00 Build 0)  -->
<svg version="1.1" id="layer" xmlns="http://www.w3.org/2000/svg" xmlns:xlink="http://www.w3.org/1999/xlink" x="0px" y="0px"
	 viewBox="0 0 511 511" style="enable-background:new 0 0 511 511;" xml:space="preserve">
<style type="text/css">
	.st0{fill:#333333;}
	.st1{fill:#D6D6D6;}
	.st2{fill:url(#SVGID_1_);}
	.st3{fill:#FBECDF;}
	.st4{fill:#9C4D32;}
	.st5{fill:#4D3200;}
	.st6{fill:#A67C52;}
	.st7{fill:#B89675;}
	.st8{fill:#FFFFF4;}
	.st9{fill:#FFFFE6;}
</style>
<polygon class="st0" points="266.2,395.74 265.37,396.18 263.25,392.15 264.04,391.73 266.74,392.35 269.15,392.91 268.93,393.88 
	"/>
<polygon class="st0" points="263.25,392.15 260.52,386.99 262.01,386.2 271.1,388.64 270.91,389.34 266.95,391.44 266.74,392.35 
	264.04,391.73 "/>
<path class="st0" d="M274,389.42l-2.9-0.78l-9.09-2.44l-1.49,0.79l-3.25-6.17l15.48,4.16c-0.07,0.31-0.1,0.59-0.1,0.82
	c0,1.03,0.86,1.62,1.83,1.85L274,389.42z"/>
<path class="st0" d="M275.46,387.76c0.69,0,2.03-0.42,3.33-1.16l3.42,0.92c-0.7,0.68-1.23,1.22-1.46,1.52
	c-0.42,0.55-1.14,1.51-1.9,2.6l-1.25-1.25l-3.6-0.97l0.48-1.77C274.81,387.72,275.14,387.76,275.46,387.76z"/>
<path class="st0" d="M278.85,391.64c-0.76,1.1-1.56,2.32-2.1,3.39l-1.59-0.74l-6.01-1.38l-2.41-0.56l0.21-0.91l3.96-2.1l0.19-0.7
	l2.9,0.78l3.6,0.97L278.85,391.64z"/>
<path class="st0" d="M276.06,396.88c-0.16,1.22,1.11,2.28,2.52,2.72l-0.24,0.87l-5.08-1.4l-3.86-1.06l-2.4,1.26l-1.63-3.09
	l0.83-0.44l2.73-1.86l0.22-0.97l6.01,1.38l1.59,0.74C276.38,395.75,276.13,396.39,276.06,396.88z"/>
<path class="st0" d="M306.86,403.1c-2.46,1.39-5.08,2.89-7.67,4.36l-1.18-1.57l-6.1-1.68l0.3-1.08l4.25-2.67l0.88-0.47l8.61,2.28
	L306.86,403.1z"/>
<path class="st0" d="M281.73,401.41l-3.39-0.94l0.24-0.87c0.85,0.26,1.75,0.3,2.43,0.01c1.78-0.77,4.77-3.15,4.77-3.15
	s0.09,1.62,1.28,2.9c1.19,1.27,4.26,0.76,5.37,0.42c0.53-0.16,5.97-3.21,11.64-6.39h0.01l4.78,1.28c-0.09,0.3-0.14,0.61-0.14,0.93
	c0,2.14,3.83,2.14,5.88,1.97c1.08-0.09,2.9-0.8,4.62-1.55v0.01c0,0-5.54,3.17-12.36,7.07l-0.91-0.83l-8.61-2.28l-0.88,0.47
	l-4.25,2.67l-0.3,1.08l-1.55-0.43L281.73,401.41z"/>
<polygon class="st0" points="273.26,399.07 273.01,399.99 270.4,401.85 269.98,402.15 268.84,402.75 267,399.27 269.4,398.01 "/>
<polygon class="st0" points="280.22,406.51 276.44,409.01 276.12,410.42 273.82,409.89 272.87,410.39 268.84,402.75 269.98,402.15 
	270.4,401.85 271.61,403.54 278.07,405.23 280.4,405.84 "/>
<polygon class="st0" points="278.34,400.47 281.73,401.41 281.45,402.44 278.3,404.36 278.07,405.23 271.61,403.54 270.4,401.85 
	273.01,399.99 273.26,399.07 "/>
<polygon class="st0" points="278.3,404.36 281.45,402.44 281.73,401.41 290.36,403.78 290.18,404.42 287.15,406.51 286.88,407.54 
	280.4,405.84 278.07,405.23 "/>
<path class="st0" d="M292.5,409.01l0.81,1.8c-2.15,1.22-4.15,2.36-5.86,3.32l-0.42-1.22l-10.91-2.49l0.32-1.41l3.78-2.5l0.18-0.67
	l6.48,1.7L292.5,409.01z"/>
<path class="st0" d="M290.18,404.42l0.18-0.64l1.55,0.43l6.1,1.68l1.18,1.57c-2.01,1.15-4,2.28-5.88,3.35l-0.81-1.8l-5.62-1.47
	l0.27-1.03L290.18,404.42z"/>
<path class="st1" d="M278.23,420.56l-5.36-10.17l0.95-0.5l2.3,0.53l10.91,2.49l0.42,1.22c1.71-0.96,3.71-2.1,5.86-3.32
	c1.88-1.07,3.87-2.2,5.88-3.35c2.59-1.47,5.21-2.97,7.67-4.36c6.82-3.9,12.36-7.07,12.36-7.07v-0.01c1.54-0.67,3.02-1.37,3.82-1.69
	c1.26-0.51,2.6-0.83,3.97-0.96c-9.43,5.74-42.28,25.72-43.47,26.47c-1.4,0.87-2.97,1.11-3.61,1.16c-0.38,0.04-0.96,0.07-1.53,0.03
	C278.36,420.88,278.31,420.72,278.23,420.56z"/>
<path class="st1" d="M319.97,386.91c-0.94,1.28-5.54,3.41-7.25,4.17c-1.44,0.66-3.32,1.92-3.86,3.59l-4.78-1.28
	c6.31-3.54,12.93-7.24,13.42-7.34C318.44,385.89,320.91,385.63,319.97,386.91z"/>
<path class="st1" d="M278.79,386.6c1.11-0.63,2.19-1.49,2.81-2.51c0.33-0.53,0.84-1.26,1.43-2.06c0.95,0.38,2.4,0.72,4.45,0.59
	c-1.84,1.69-3.89,3.57-5.27,4.9L278.79,386.6z"/>
<path class="st1" d="M250.15,360.08l33,8.81c-2.91,3.12-6.53,7.44-7.18,8.38c-0.82,1.2-2.76,5.42-3.22,7.71l-15.48-4.16l-9.78-18.56
	C248.43,361.65,249.41,360.9,250.15,360.08z"/>
<path class="st1" d="M241.68,351.26l5.81,11l9.78,18.56l3.25,6.17l2.73,5.16l2.12,4.03l1.63,3.09l1.84,3.48l4.03,7.64l5.36,10.17
	c0.08,0.16,0.13,0.32,0.17,0.47c0.29,1.3-0.92,2.56-2.31,2.15l-117.42-34.62c-0.94-0.28-1.75-0.89-2.27-1.71l-18.19-28.65
	l-23.92-37.67c-1.08-1.69,0.45-3.82,2.4-3.35l99.82,24.08l17.85,4.3c2.59,0.63,4.85,2.14,6.41,4.24
	C241.11,350.26,241.41,350.75,241.68,351.26z"/>
<linearGradient id="SVGID_1_" gradientUnits="userSpaceOnUse" x1="229.7793" y1="280.8818" x2="453.7336" y2="280.8818">
	<stop  offset="0" style="stop-color:#FFD300"/>
	<stop  offset="0.713" style="stop-color:#F28E02"/>
	<stop  offset="1" style="stop-color:#EC7103"/>
</linearGradient>
<path class="st2" d="M363.93,351.15c-0.46-0.02-0.71-0.03-0.71-0.03c0.19,0.02,0.38,0.03,0.6,0.03c0.01,0,0.01,0,0.02,0
	C363.87,351.15,363.9,351.15,363.93,351.15z M426.39,377.28c-3.72,1.78-7.56,3.27-11.26,4.37c-0.87,0.25-1.73,0.49-2.58,0.72
	c0-0.05,0.01-0.11,0.01-0.16v-0.01c0.01-0.06,0.01-0.13,0.02-0.2c0.57-0.22,0.87-0.38,0.94-0.41c0.29-0.15-0.29-2.33-0.36-2.76
	c-0.06-0.36-0.52-1.11-1.24-1.69c-0.03-0.24-0.06-0.48-0.09-0.71c-0.15-1.26-0.28-2.32-0.3-2.7c-0.03-0.42-0.26-0.78-0.58-1
	c-0.51-1.14-6.78-2.04-14.45-2.04c-6.73,0-12.39,0.69-14.01,1.64c-0.01,0-0.01,0-0.01,0c-0.53,0.14-0.92,0.59-0.97,1.14l-0.44,3.27
	c-0.26,0.14-0.54,0.28-0.79,0.42c-0.65,0.36-0.86,1.24-0.94,1.74c-0.01,0.06-0.02,0.13-0.05,0.22c-0.17,0.67-0.7,2.06-0.38,2.25
	c0.1,0.06,0.57,0.3,1.45,0.61c0.02,0.01,0.04,0.02,0.06,0.02l0.41,4.5c-2.46-0.02-4.26-0.11-5.24-0.18
	c-3.8-0.24-11.65-0.95-13.56-0.47c-1.9,0.47-9.75,0.95-12.36,0.71c-0.42-0.04-1.18-0.59-2.14-1.52c0.53-0.65,0.78-1.5,0.66-2.36
	c-0.35-2.68-1.09-7.29-2.31-10.72c-1.22-3.46-4.46-7-6.45-8.95c-0.99-0.96-2.34-1.43-3.71-1.28c-0.65,0.07-1.4,0.15-2.19,0.22
	c-0.03-0.6,0.04-1.12,0.2-1.55c1.28-3.43,6-4.97,10.18-5.65c-14.43-1.45-29.5-2.54-45.07-3.26c-0.26-1.2-0.76-2.25-0.8-3.25
	c-0.26-6.8-0.21-14.35,0.05-18.9c0.28-4.65,0.88-9.34-3.4-18.85c-0.04-0.08-0.07-0.16-0.11-0.25c-2.45,2.31-5.79,4.91-6.76,5.25
	h-0.01c-2.28,0.76-3.34,7.46-4.56,10.96c-1.22,3.51-1.93,6.21-4.27,9.45c-2.93,4.07-10.4,7.27-12.54,8.34
	c-1.23,0.61-3.1,3.67-6.02,6.27c-1.97,1.77-4.43,3.31-7.48,3.74c0.49-1.41,0.81-2.61,0.81-3.1c0-0.12,0.07-0.34,0.21-0.65h0.01
	c0.47-1.04,1.66-3.02,2.82-4.87c-0.18-3.62-2.42-9.82-7.4-10.86c-4.47-0.95-11.53,1.38-15,2.69v0.01c-1.35,0.93-2.85,1.89-3.56,1.99
	c-0.2,0.03-0.48,0.07-0.81,0.11c-0.03-0.06-0.06-0.12-0.08-0.17c-1.07-2.59,3.53-10.51,4.14-12.95c0.6-2.43,1.63-6.91,3.91-12.09
	c2.29-5.18,16.62-26.44,20.28-34.66c3.65-8.23,10.86-53.58,26.85-70.64s41.66-21.1,43.06-22.27c0,0-3.33,14.63,13.03,15.68
	c16.37,1.05,25.43-3.83,29.26-9.05c1.95-2.66,4.01-7.35,4.6-11.84c0.01-0.08,0.02-0.16,0.03-0.24c0.22-1.77,0.34-2.63-1.97-3.67
	c-0.3-0.84-0.57-1.71-0.79-2.54c0.76,0.21,1.61,0.47,2.51,0.77c3.36,1.13,7.31,2.87,8.83,5.15c2.85,4.28,33.73,13.69,39.2,15.83
	s8.8,6.42,10.23,8.09c1.43,1.66,11.18,9.98,13.08,21.88c1.91,11.89,2.91,21.65,3.14,23.55c0.03,0.21,0.05,0.55,0.06,0.98
	c2.08,6.61,4.19,14.13,4.19,17.57c0,3.57-0.4,6.47-1.34,8.42c-1.1,2.3-1.31,4.94-0.71,7.42c1.3,5.38,2.8,13.67,1.03,17.93
	c-0.47,1.12-0.79,2.51-1.01,4.06c0,0,0,0,0,0.01c-1.05,7.62,0.54,19.22,1.01,22.43c0.55,3.86,3.86,21.53-3.87,31.47
	c-7.73,9.94-10.02,9.21-10.02,9.21c-0.54,0.41-1.09,0.81-1.66,1.2C433.73,373.4,430.12,375.49,426.39,377.28z"/>
<path class="st3" d="M373.13,177.67c0.54,1.53,1.2,2.97,1.94,3.91c-0.59,4.49-2.65,9.18-4.6,11.84c-3.83,5.22-12.89,10.1-29.26,9.05
	c-16.36-1.05-13.03-15.68-13.03-15.68c1.56-1.31,1.97-2.86,1.94-4.16c-5.88-2.02-9.47-6.83-11.72-9.07
	c-3.07-3.06-8.46-13.43-11.89-20.59c-2.29-4.79-4.61-12.98-5.98-18.82l-0.09-5.22l7.07,0.94c0,0-2.18-1.86-3.37-12.98
	c-1.15-10.74,6.1-21.6,6.6-22.32c-0.19,0.79-3.41,13.27-3.02,19.81c0.28,4.79,3.49,11.17,5.33,14.48c0.75,1.35,2.2,2.16,3.74,2.1
	l11.83-0.44c0,0-2.39-5.23-4.37-11.58c-1.99-6.36,0.27-17.66,0.27-17.66c0.02,9.04,3.67,19.08,5.97,24.53
	c1.08,2.57,3.44,4.39,6.21,4.77c2.19,0.3,4.9,0.58,7.3,0.58c5.16,0,13.15-1.11,13.15-1.11c1.46,2.51,3.49,20.85,3.49,20.85
	c0.4-2.82,3.76-14.31,4.57-25.63c1.33,2.21,2.39,4.39,2.57,5.91c0,0,2.23-9.2,6.85-14.46c0,0,4.11-4.56,8.69-2.89
	c0.77,0.29,1.31,0.92,1.66,1.77c1.69,4.15-1.06,13.65-1.82,15.29c-0.76,1.65-4.69,11.74-9.76,12.18
	c-1.17,4.26-3.28,12.52-3.28,16.81c0,3.62,0.89,10.25,2.22,15.25C372.56,175.96,372.83,176.83,373.13,177.67z"/>
<path class="st4" d="M375.1,181.34c-0.01,0.08-0.02,0.16-0.03,0.24c-0.74-0.94-1.4-2.38-1.94-3.91
	C375.44,178.71,375.32,179.57,375.1,181.34z"/>
<path class="st5" d="M300.53,134.15l0.1,5.57l0.05,2.13c0,0-3.43-12.53-5.28-22.29c-1.12-5.94-0.44-16.07,1.07-24.73
	c1.33-7.65,3.95-15.51,8.65-21.69c4.39-5.76,9.15-10.59,15.21-13.62c5.39-2.69,11.93-4.41,17.62-5.12c0.66-0.08,7.08-0.4,14.22,0.83
	c2.32,0.4,4.71,0.96,7.01,1.75c3.37,1.16,6.56,2.77,9.41,4.52c5.47,3.38,9.66,7.3,11.38,9.62c6.09,8.18,7.46,20.59,7.75,27.44
	c0.3,7.4-1.34,13.38-2.74,17.04c-0.35-0.85-0.89-1.48-1.66-1.77c-4.58-1.67-8.69,2.89-8.69,2.89c-4.62,5.26-6.85,14.46-6.85,14.46
	c-0.18-1.52-1.24-3.7-2.57-5.91c-0.81,11.32-4.17,22.81-4.57,25.63c0,0-2.03-18.34-3.49-20.85c0,0-7.99,1.11-13.15,1.11
	c-2.4,0-5.11-0.28-7.3-0.58c-2.77-0.38-5.13-2.2-6.21-4.77c-2.3-5.45-5.95-15.49-5.97-24.53c0,0-2.26,11.3-0.27,17.66
	c1.98,6.35,4.37,11.58,4.37,11.58l-11.83,0.44c-1.54,0.06-2.99-0.75-3.74-2.1c-1.84-3.31-5.31-7.64-5.33-14.48
	c-0.02-6.55,0.71-12.92,0.9-13.71c0.01-0.01-4.22,5.49-3.07,16.23c1.19,11.12,1.96,12.97,1.96,12.97l-7.07-0.94L300.53,134.15z"/>
<path class="st3" d="M297.34,374.79c-0.79,0-1.65-0.01-2.35-0.07c-1.88-0.18-5.29-0.43-6.48,0.68c-0.9,0.84-3.62,4.12-5.48,6.63
	c-0.59,0.8-1.1,1.53-1.43,2.06c-0.62,1.02-1.7,1.88-2.81,2.51c-1.3,0.74-2.64,1.16-3.33,1.16c-0.32,0-0.65-0.04-0.98-0.11
	c-0.97-0.23-1.83-0.82-1.83-1.85c0-0.23,0.03-0.51,0.1-0.82c0.46-2.29,2.4-6.51,3.22-7.71c0.65-0.94,4.27-5.26,7.18-8.38
	c1.29-1.39,2.46-2.54,3.14-3.04c2.22-1.62,10.91-2.82,13.73-3.67c0.03-0.01,0.07-0.02,0.11-0.03c2.78-0.85,5.72-1.93,7.99-2.1
	c2.3-0.17,17.82,2.21,20.55,2.21c1.2,0,3.1-0.14,4.86-0.31c0.79-0.07,1.54-0.15,2.19-0.22c1.37-0.15,2.72,0.32,3.71,1.28
	c1.99,1.95,5.23,5.49,6.45,8.95c1.22,3.43,1.96,8.04,2.31,10.72c0.12,0.86-0.13,1.71-0.66,2.36c-0.23,0.3-0.52,0.56-0.86,0.75
	c-2.37,1.37-6.27,3.84-8.28,4.78c-2.73,1.28-8.01,2.73-9.89,2.73c-0.5,0-1,0.03-1.49,0.07c-1.37,0.13-2.71,0.45-3.97,0.96
	c-0.8,0.32-2.28,1.02-3.82,1.69c-1.72,0.75-3.54,1.46-4.62,1.55c-2.05,0.17-5.88,0.17-5.88-1.97c0-0.32,0.05-0.63,0.14-0.93
	c0.54-1.67,2.42-2.93,3.86-3.59c1.71-0.76,6.31-2.89,7.25-4.17c0.94-1.28-1.53-1.02-2.47-0.86c-0.49,0.1-7.11,3.8-13.42,7.34h-0.01
	c-5.67,3.18-11.11,6.23-11.64,6.39c-1.11,0.34-4.18,0.85-5.37-0.42c-1.19-1.28-1.28-2.9-1.28-2.9s-2.99,2.38-4.77,3.15
	c-0.68,0.29-1.58,0.25-2.43-0.01c-1.41-0.44-2.68-1.5-2.52-2.72c0.07-0.49,0.32-1.13,0.69-1.85c0.54-1.07,1.34-2.29,2.1-3.39
	c0.76-1.09,1.48-2.05,1.9-2.6c0.23-0.3,0.76-0.84,1.46-1.52c1.38-1.33,3.43-3.21,5.27-4.9c1.72-1.6,3.25-3.04,3.84-3.73
	C292.03,378.06,294.7,376.37,297.34,374.79z"/>
<path class="st5" d="M366.99,57.25c0.74,0.45,1.22,0.99,1.38,1.63c0.25,1.02,0.31,1.88,0.22,2.62c-2.85-1.75-6.04-3.36-9.41-4.52
	c-2.3-0.79-4.69-1.35-7.01-1.75C358.29,55.19,364.31,55.63,366.99,57.25z"/>
<path class="st6" d="M504.9,411.84c0.4,1.53,0.6,3.06,0.6,4.61c0,36.42-111.93,65.95-250,65.95s-250-29.53-250-65.95
	c0-1.55,0.2-3.08,0.6-4.61c8.95,34.28,117.19,61.35,249.4,61.35S495.95,446.12,504.9,411.84z"/>
<path class="st7" d="M437.01,371.1c38.71,10.78,63.77,25,67.89,40.74c-8.95,34.28-117.19,61.35-249.4,61.35S15.05,446.12,6.1,411.84
	c6.09-23.28,58-43.24,132.11-53.64l18.19,28.65c0.52,0.82,1.33,1.43,2.27,1.71l117.42,34.62c1.39,0.41,2.6-0.85,2.31-2.15
	c0.57,0.04,1.15,0.01,1.53-0.03c0.64-0.05,2.21-0.29,3.61-1.16c1.19-0.75,34.04-20.73,43.47-26.47c0.49-0.04,0.99-0.07,1.49-0.07
	c1.88,0,7.16-1.45,9.89-2.73c2.01-0.94,5.91-3.41,8.28-4.78c0.34-0.19,0.63-0.45,0.86-0.75c0.96,0.93,1.72,1.48,2.14,1.52
	c2.61,0.24,10.46-0.24,12.36-0.71c1.91-0.48,9.76,0.23,13.56,0.47c0.98,0.07,2.78,0.16,5.24,0.18l0.16,1.7l3.48,37.52
	c0.16,1.46,6.73,2.61,12.36,2.6c5.6,0,10.74-0.83,12.3-2.6c1.08-13.56,2.14-27.12,3.21-40.68c0.08-0.89,0.14-1.78,0.21-2.67
	c0.85-0.23,1.71-0.47,2.58-0.72c3.7-1.1,7.54-2.59,11.26-4.37C430.12,375.49,433.73,373.4,437.01,371.1z"/>
<path class="st8" d="M412.08,378.48c-0.05-0.45-0.11-0.9-0.16-1.34c0.72,0.58,1.18,1.33,1.24,1.69c0.07,0.43,0.65,2.61,0.36,2.76
	c-0.07,0.03-0.37,0.19-0.94,0.41c-0.01,0.01-0.02,0.02-0.04,0.02c-1.91,0.74-6.75,2.17-15.93,2.17c-8.67,0-13.84-1.35-16.19-2.19
	c-0.02,0-0.04-0.01-0.06-0.02c-0.88-0.31-1.35-0.55-1.45-0.61c-0.32-0.19,0.21-1.58,0.38-2.25c0.03-0.09,0.04-0.16,0.05-0.22
	c0.08-0.5,0.29-1.38,0.94-1.74c0.25-0.14,0.53-0.28,0.79-0.42l-0.19,1.39c0.18,0.21,0.55,0.45,1.27,0.71
	c2.08,0.73,11.71,1.67,14.67,1.62C399.75,380.4,409.96,379.8,412.08,378.48z"/>
<path class="st8" d="M412.58,382c-0.01,0.07-0.01,0.14-0.02,0.2v0.01c0,0.05-0.01,0.11-0.01,0.16c-0.07,0.89-0.13,1.78-0.21,2.67
	c-1.07,13.56-2.13,27.12-3.21,40.68c-1.56,1.77-6.7,2.6-12.3,2.6c-5.63,0.01-12.2-1.14-12.36-2.6l-3.48-37.52l-0.16-1.7l-0.41-4.5
	c2.35,0.84,7.52,2.19,16.19,2.19c9.18,0,14.02-1.43,15.93-2.17C412.56,382.02,412.57,382.01,412.58,382z"/>
<path class="st8" d="M411.92,377.14c0.05,0.44,0.11,0.89,0.16,1.34c-2.12,1.32-12.33,1.92-15.26,1.98
	c-2.96,0.05-12.59-0.89-14.67-1.62c-0.72-0.26-1.09-0.5-1.27-0.71l0.19-1.39l0.44-3.27c0.05-0.55,0.44-1,0.97-1.14
	c-0.3,0.18-0.46,0.36-0.46,0.55c0,1.21,6.49,2.18,14.48,2.18c8,0,14.48-0.97,14.48-2.18c0-0.05-0.01-0.1-0.03-0.15
	c0.32,0.22,0.55,0.58,0.58,1c0.02,0.38,0.15,1.44,0.3,2.7C411.86,376.66,411.89,376.9,411.92,377.14z"/>
<path class="st9" d="M410.95,372.73c0.02,0.05,0.03,0.1,0.03,0.15c0,1.21-6.48,2.18-14.48,2.18c-7.99,0-14.48-0.97-14.48-2.18
	c0-0.19,0.16-0.37,0.46-0.55c0,0,0,0,0.01,0c1.62-0.95,7.28-1.64,14.01-1.64C404.17,370.69,410.44,371.59,410.95,372.73z"/>
<path class="st5" d="M359,29.48c9.11,2.86,12.23,10.15,11.72,16.13c-0.32,3.58-1.56,8.1-3.73,11.64c-2.68-1.62-8.7-2.06-14.82-2.02
	c-7.14-1.23-13.56-0.91-14.22-0.83c-0.99-2.98-2.16-7.85-1.85-13.73C336.62,30.78,349.89,26.61,359,29.48z"/>
<path class="st7" d="M343.91,354.75c-4.18,0.68-8.9,2.22-10.18,5.65c-0.16,0.43-0.23,0.95-0.2,1.55c-1.76,0.17-3.66,0.31-4.86,0.31
	c-2.73,0-18.25-2.38-20.55-2.21c-2.27,0.17-5.21,1.25-7.99,2.1c-0.04,0.01-0.08,0.02-0.11,0.03c-2.82,0.85-11.51,2.05-13.73,3.67
	c-0.68,0.5-1.85,1.65-3.14,3.04l-33-8.81c0.3-0.33,0.55-0.68,0.74-1.04c0.75-1.39,1.5-3.23,2.05-4.79c3.05-0.43,5.51-1.97,7.48-3.74
	c13.08,0.07,25.91,0.4,38.42,0.98C314.41,352.21,329.48,353.3,343.91,354.75z"/>
<path class="st3" d="M294.99,374.72c0.7,0.06,1.56,0.07,2.35,0.07c-2.64,1.58-5.31,3.27-6.02,4.1c-0.59,0.69-2.12,2.13-3.84,3.73
	c-2.05,0.13-3.5-0.21-4.45-0.59c1.86-2.51,4.58-5.79,5.48-6.63C289.7,374.29,293.11,374.54,294.99,374.72z"/>
<path class="st3" d="M256.79,345.63c-1.16,1.85-2.35,3.83-2.82,4.87h-0.01c-0.14,0.31-0.21,0.53-0.21,0.65
	c0,0.49-0.32,1.69-0.81,3.1c-0.55,1.56-1.3,3.4-2.05,4.79c-0.19,0.36-0.44,0.71-0.74,1.04c-0.74,0.82-1.72,1.57-2.66,2.18l-5.81-11
	c-0.27-0.51-0.57-1-0.91-1.46c-1.56-2.1-3.82-3.61-6.41-4.24l-17.85-4.3c1.74-0.25,3.95-0.54,5.34-0.65
	c2.22-0.17,6.19-0.75,8.17-1.04c0.33-0.04,0.61-0.08,0.81-0.11c0.71-0.1,2.21-1.06,3.56-1.99v-0.01c3.47-1.31,10.53-3.64,15-2.69
	C254.37,335.81,256.61,342.01,256.79,345.63z"/>
</svg>
