<?xml version="1.0" encoding="utf-8"?>
<!-- Generator: Adobe Illustrator 24.3.0, SVG Export Plug-In . SVG Version: 6.00 Build 0)  -->
<svg version="1.1" id="レイヤー_1" xmlns="http://www.w3.org/2000/svg" xmlns:xlink="http://www.w3.org/1999/xlink" x="0px"
	 y="0px" viewBox="0 0 324.3 163.9" style="enable-background:new 0 0 324.3 163.9;" xml:space="preserve">
<style type="text/css">
	.st0{fill:#4C4948;}
	.st1{fill:url(#SVGID_1_);}
</style>
<path class="st0" d="M23.2,86.4h25.9l-4.6,20.5H23.1v55.7H0V87.3c0-5.1,0.5-10.2,1.6-15.2c1-4.5,3-8.8,5.9-12.4
	c3-3.6,6.9-6.4,11.3-8.1c4.6-1.9,10.3-2.8,17-2.8c10.7,0,21.3,1,21.3,1L57,50.6L52.7,70c-2.9-0.3-8.5-0.8-12.4-0.8
	c-14.8,0-15.9,8-16.4,10.7C23.5,82,23.3,84.2,23.2,86.4z M212.5,108.5c-1-4.5-3-8.8-5.9-12.4c-3-3.6-6.9-6.4-11.3-8.1
	c-4.6-1.9-10.3-2.8-17-2.8c-6.4,0-12.8,0.4-19.1,1.4c-4.7,0.7-9.4,1.7-14,2.9l-1.8,0.5v72.7h23.1v-55.7c1-0.1,4.4-0.9,5.7-1
	c4.3-0.5,8.3-0.4,11.6,0.9c1.6,0.6,3,1.7,4,3.1c1.2,1.9,2,4.1,2.3,6.3c0.6,3.4,0.8,6.9,0.8,10.3v36h23.1v-38.9
	C214.2,118.6,213.6,113.5,212.5,108.5L212.5,108.5z M131.4,124.5c0,21.7-17.6,39.4-39.4,39.4c-21.7,0-39.4-17.6-39.4-39.4
	S70.2,85.2,92,85.1c0,0,0,0,0,0C113.7,85.2,131.4,102.8,131.4,124.5L131.4,124.5z M110.7,124.4c0-10.4-8.4-18.7-18.8-18.7
	c-10.4,0-18.7,8.4-18.7,18.8c0,10.4,8.4,18.7,18.8,18.7S110.7,134.8,110.7,124.4L110.7,124.4z"/>
<g>
	<linearGradient id="SVGID_1_" gradientUnits="userSpaceOnUse" x1="276.7662" y1="103.6316" x2="276.7662" y2="-9.094947e-13">
		<stop  offset="0" style="stop-color:#EE7800"/>
		<stop  offset="5.559063e-02" style="stop-color:#F08400"/>
		<stop  offset="0.2162" style="stop-color:#F6A300"/>
		<stop  offset="0.385" style="stop-color:#FABB00"/>
		<stop  offset="0.5636" style="stop-color:#FDCC00"/>
		<stop  offset="0.7585" style="stop-color:#FED600"/>
		<stop  offset="1" style="stop-color:#FFD900"/>
	</linearGradient>
	<path class="st1" d="M320.1,41.5c0.5,0,1.1,0.2,1.8,0.7c0.6,0.4,0.9,1,0.9,1.8v11.8c0,0.8-0.3,1.4-0.9,1.8
		c-0.6,0.4-1.2,0.7-1.8,0.7h-22.7v27.6h24.3c0.5,0,1.1,0.2,1.7,0.6s0.9,1,0.9,1.7v13.1c0,0.8-0.3,1.3-0.9,1.8
		c-0.6,0.4-1.2,0.6-1.7,0.6h-40.3c-0.8,0-1.3-0.3-1.8-0.8c-0.4-0.5-0.6-1.1-0.6-1.6v-43h-7.8l-20.9,41.4c-0.3,0.5-0.7,1-1.4,1.6
		c-0.7,0.5-1.4,0.8-2.2,0.8h-8.3h-7.4c-0.7,0-1.2-0.3-1.3-0.9c-0.1-0.6,0-1.1,0.3-1.5L251,58.2h-19.2c-0.5,0-1.1-0.2-1.7-0.6
		c-0.6-0.4-0.9-1-0.9-1.8V43.9c0-0.8,0.3-1.4,0.9-1.8c0.6-0.4,1.1-0.6,1.7-0.6h36.7V2.4c0-0.5,0.2-1.1,0.6-1.6
		c0.4-0.5,1-0.8,1.8-0.8h12.5c0.8,0,1.3,0.3,1.8,0.8c0.4,0.5,0.6,1.1,0.6,1.6v39.1H320.1z M247.6,36.6c-0.8,0-1.5-0.3-2.1-0.8
		c-0.6-0.6-1.1-1.1-1.3-1.6l-10.5-23.7c-0.3-0.4-0.3-0.9-0.1-1.5c0.2-0.6,0.7-0.9,1.4-0.9h14.4c0.8,0,1.5,0.3,2.1,0.8
		c0.7,0.5,1.1,1.1,1.3,1.6l10.4,23.7c0.3,0.4,0.3,0.9,0.1,1.5c-0.2,0.6-0.7,0.9-1.4,0.9H247.6z M307,36.6h-14.4
		c-0.8,0-1.2-0.3-1.4-0.9c-0.2-0.6-0.2-1.1,0.1-1.5l10.5-23.7c0.2-0.5,0.6-1.1,1.3-1.6c0.7-0.5,1.4-0.8,2.1-0.8h14.5
		c0.7,0,1.2,0.3,1.4,0.9c0.2,0.6,0.2,1.1-0.1,1.5l-10.4,23.7c-0.2,0.5-0.7,1-1.3,1.6C308.5,36.3,307.7,36.6,307,36.6z"/>
</g>
</svg>
