<!--?xml version="1.0" encoding="utf-8"?-->
<!-- Generator: Adobe Illustrator 18.1.1, SVG Export Plug-In . SVG Version: 6.00 Build 0)  -->

<svg version="1.1" id="_x32_" xmlns="http://www.w3.org/2000/svg" xmlns:xlink="http://www.w3.org/1999/xlink" x="0px" y="0px" viewBox="0 0 512 512" style="width: 256px; height: 256px; opacity: 1;" xml:space="preserve">
<style type="text/css">
	.st0{fill:#4B4B4B;}
</style>
<g>
	<path class="st0" d="M503.507,407.275l-77.812-77.826c-11.297-11.297-29.625-11.297-40.949,0l-35.298,35.326
		c-10.306,10.306-26.69,11.336-38.209,2.412c0,0-33.759-22.254-88.965-77.459c-55.206-55.206-77.461-88.978-77.461-88.978
		c-8.922-11.519-7.878-27.877,2.427-38.209l35.298-35.286c11.324-11.31,11.324-29.65,0-40.96L104.728,8.482
		c-11.31-11.31-29.625-11.31-40.948,0c-0.26,0.262-4.2,4.201-46.922,46.936c-49.766,49.753,16.059,202.194,126.782,312.944
		c110.738,110.724,263.192,176.535,312.945,126.795c42.721-42.734,46.66-46.687,46.922-46.947
		C514.829,436.913,514.829,418.572,503.507,407.275z" style="fill: rgb(75, 75, 75);"></path>
</g>
</svg>
