<?xml version="1.0" encoding="utf-8"?>
<!-- Generator: Adobe Illustrator 25.0.1, SVG Export Plug-In . SVG Version: 6.00 Build 0)  -->
<svg version="1.1" id="レイヤー_1" xmlns="http://www.w3.org/2000/svg" xmlns:xlink="http://www.w3.org/1999/xlink" x="0px"
	 y="0px" viewBox="0 0 351.08 346" style="enable-background:new 0 0 351.08 346;" xml:space="preserve">
<style type="text/css">
	.st0{opacity:0.18;fill:#FBBE01;enable-background:new    ;}
	.st1{fill:#FBBE01;}
	.st2{fill:url(#SVGID_1_);}
	.st3{fill:url(#SVGID_2_);}
	.st4{fill:#EACBC6;}
	.st5{fill:#FFFFFF;}
	.st6{fill:url(#SVGID_3_);}
	.st7{fill:url(#SVGID_4_);}
	.st8{fill:#3F3D56;}
	.st9{fill:url(#SVGID_5_);}
	.st10{fill:url(#SVGID_6_);}
	.st11{fill:url(#SVGID_7_);}
	.st12{fill:url(#SVGID_8_);}
	.st13{fill:url(#SVGID_9_);}
	.st14{fill:url(#SVGID_10_);}
	.st15{opacity:0.2;}
	.st16{fill:url(#SVGID_11_);}
	.st17{fill:url(#SVGID_12_);}
	.st18{fill:url(#SVGID_13_);}
	.st19{fill:url(#SVGID_14_);}
	.st20{fill:url(#SVGID_15_);}
	.st21{fill:url(#SVGID_16_);}
</style>
<path class="st0" d="M351.01,236.89c-0.1,3-0.28,6-0.58,9.06c-2.12,22.15-9.91,44.27-26.7,58.52
	c-19.94,16.91-48.22,19.4-74.35,18.44s-52.93-4.5-77.94,3.13c-13.69,4.18-26.22,11.56-39.88,15.82c-26,8.1-55.25,4.09-78.59-9.88
	s-40.56-37.47-47.79-63.69c-1.35-4.93-2.4-9.94-3.14-15c-4.12-27.7-0.08-56.5-0.67-84.75c-0.52-25.11-4.63-51.11,4.37-74.58
	c6-15.63,17.42-28.53,30.49-38.74c45.73-35.65,103.32-54.85,161-55.21c34.36-0.22,69.48,5.26,99.63,21.74
	c9.8,5.35,19.11,12,26,20.72c5.13,6.52,8.79,14.08,11.8,21.8c5.21,13.4,8.57,27.45,10,41.76c1.84,18.59,0.39,37.35,1.13,56
	C346.82,187.05,351.74,211.88,351.01,236.89z"/>
<path class="st1" d="M350.43,245.95l-0.12,1.18c-1.77,16.86-6.85,33.63-16.74,46.83c-2.87,3.85-6.17,7.37-9.83,10.47
	c-19.94,16.91-48.22,19.4-74.35,18.44s-52.93-4.5-77.94,3.13c-13.69,4.18-26.22,11.56-39.88,15.82c-26,8.1-55.25,4.09-78.59-9.88
	c-15.35-9.33-28.09-22.4-37-38c-4.67-8.06-8.29-16.69-10.77-25.67c-1.35-4.93-2.4-9.94-3.14-15l132.27-2.79L350.43,245.95z"/>
<linearGradient id="SVGID_1_" gradientUnits="userSpaceOnUse" x1="202.2099" y1="173.46" x2="200.2498" y2="-24.45" gradientTransform="matrix(1 0 0 -1 -25.26 345.43)">
	<stop  offset="0.01" style="stop-color:#000000"/>
	<stop  offset="0.12" style="stop-color:#000000;stop-opacity:0.75"/>
	<stop  offset="1" style="stop-color:#000000;stop-opacity:0"/>
</linearGradient>
<path class="st2" d="M350.31,247.13c-1.77,16.86-6.85,33.63-16.74,46.83H15.95c-4.67-8.06-8.29-16.69-10.77-25.67
	c-1.35-4.93-2.4-9.94-3.14-15l132.27-2.79L350.31,247.13z"/>
<linearGradient id="SVGID_2_" gradientUnits="userSpaceOnUse" x1="82.9325" y1="102.05" x2="81.8025" y2="-11.81" gradientTransform="matrix(1 0 0 -1 0 348)">
	<stop  offset="0.01" style="stop-color:#000000"/>
	<stop  offset="0.12" style="stop-color:#000000;stop-opacity:0.75"/>
	<stop  offset="1" style="stop-color:#000000;stop-opacity:0"/>
</linearGradient>
<ellipse class="st3" cx="82.37" cy="302.63" rx="48.93" ry="14.42"/>
<path class="st4" d="M92.07,290.6l0.59,6.13c0,0-2.35,3.56-5.42,3.78s-4.11-1.24-4.11-1.24l0.51-9"/>
<path class="st5" d="M83.13,299.27l0.21-3.62l9-2.42l0.69,4.92c-1.68,1.28-3.67,2.09-5.77,2.36
	C84.18,300.74,83.13,299.27,83.13,299.27z"/>
<path class="st4" d="M63.36,291.25l-0.6,6.3c0,0,2.41,3.65,5.56,3.88s4.22-1.28,4.22-1.28l-0.52-9.26"/>
<path class="st5" d="M72.54,300.15l-0.21-3.72l-9.23-2.49l-0.34,3.6c0,0,2.41,3.65,5.56,3.88S72.54,300.15,72.54,300.15z"/>
<path class="st1" d="M70.9,153.51c0,0-12.16,5.92-12.45,7.82s1.37,49.37,1.37,49.37s4,5.13,16.07,5.13
	c12.41,0,15.61-3.55,16.16-5.21s2.53-48.92,2.25-50.95s-11.51-6.13-11.51-6.13L70.9,153.51z"/>
<linearGradient id="SVGID_3_" gradientUnits="userSpaceOnUse" x1="103.7204" y1="156.2475" x2="77.2004" y2="152.0675" gradientTransform="matrix(1 0 0 -1 0 348)">
	<stop  offset="0.01" style="stop-color:#000000"/>
	<stop  offset="0.12" style="stop-color:#000000;stop-opacity:0.75"/>
	<stop  offset="1" style="stop-color:#000000;stop-opacity:0"/>
</linearGradient>
<polygon class="st6" points="89.12,175.85 86.63,212.65 92.05,210.62 92.81,198.88 "/>
<linearGradient id="SVGID_4_" gradientUnits="userSpaceOnUse" x1="67.2325" y1="161.5796" x2="105.3825" y2="170.7496" gradientTransform="matrix(1 0 0 -1 -25.26 345.43)">
	<stop  offset="0.01" style="stop-color:#000000"/>
	<stop  offset="0.12" style="stop-color:#000000;stop-opacity:0.75"/>
	<stop  offset="1" style="stop-color:#000000;stop-opacity:0"/>
</linearGradient>
<path class="st7" d="M78.15,186.13c0,0-14.34,0.12-15.25-0.79s-4.35-24.74-4.45-24c-0.2,1.39,0.6,24.16,1.06,36.86
	c5.22-1.68,10.33-3.65,15.33-5.9c1.37-0.59,2.55-1.55,3.4-2.78C79.02,188.36,79.47,186.99,78.15,186.13z"/>
<path class="st4" d="M72.92,146.79c-0.52,2.28-1.19,4.53-2,6.72c-0.8,2.18,0.84,6.78,5.78,6.78s5.51-5.68,5.42-6.78
	c-0.06-0.79-1.34-3.4-1.66-5.92C80.11,144.88,73.19,144.9,72.92,146.79z"/>
<polygon class="st8" points="73.96,161.34 76.06,164.28 74.56,203.97 78.55,208.36 81.34,202.97 78.05,163.79 78.8,160.9 
	76.59,159.53 "/>
<polygon class="st5" points="79.59,182.36 80.08,175.32 91.38,172.53 87.79,194.47 78.88,195.53 "/>
<linearGradient id="SVGID_5_" gradientUnits="userSpaceOnUse" x1="103.1763" y1="208.0094" x2="100.2563" y2="175.8394" gradientTransform="matrix(1 0 0 -1 -25.26 345.43)">
	<stop  offset="0.01" style="stop-color:#000000"/>
	<stop  offset="0.12" style="stop-color:#000000;stop-opacity:0.75"/>
	<stop  offset="1" style="stop-color:#000000;stop-opacity:0"/>
</linearGradient>
<path class="st9" d="M72.24,149.93c0,0,0,7.58,4.18,6.91s4.86-6.45,4.86-6.45L72.24,149.93z"/>
<path class="st8" d="M61.74,211.35c0,0-2.43,8.32-1,34.94s2,45.24,2,45.24s0.18,2.17,4.76,2.23s5.8-3,5.8-3l4.44-68.19l4.68,69.63
	c0,0,5.5,3.17,9.79,0.79c2.37-1.31,2.16-49.87,1.09-71.27c-0.14-3.49-0.99-6.92-2.5-10.07C90.8,211.65,79.21,219.35,61.74,211.35z"
	/>
<path class="st1" d="M94.3,159.67c0,0,5.54,23.25,6,27.2s-5.56,14.94-6.56,12.85c-1.4-2.73-2.8-13.1-2.8-13.1L94.3,159.67z"/>
<path class="st4" d="M104.31,186c-0.01,0.38,0.2,0.73,0.54,0.91c0.4,0.1,0.82,0.03,1.17-0.19c2.76-1.31,4.37-3.22,6.43-5.28
	c1.59-1.4,3.01-2.99,4.23-4.72c0.94-1.57,0.15-8.43-0.76-8.54s-0.77,2.09-0.61,3.46s-1.33,3-1.7,3.66s-1.63-0.55-2.76,1.33
	c-0.83,1.39-0.86,2.42-2.08,3.56c-1.45,1.33-2.75,2.81-3.88,4.42c-0.28,0.34-0.48,0.75-0.57,1.18
	C104.31,185.86,104.31,185.93,104.31,186z"/>
<path class="st1" d="M95.18,187.43c0.19-0.32,13.48-8,13.48-8s1.72,1.05,3,4.28c0,0-16,15.45-17.32,16.14s0.55-2.5-1.69-6.84
	S95.18,187.43,95.18,187.43z"/>
<path class="st8" d="M56.39,302.07c-1.15,0.77-2.1,1.8-2.79,3c-0.67,1.26-0.39,2.81,0.69,3.75c0.46,0.29,0.99,0.47,1.53,0.54
	c4.57,0.78,9.23-0.82,12.37-4.23c0.25-0.33,0.56-0.6,0.91-0.81c0.78-0.39,1.76,0,2.6-0.3c1.17-0.41,1.53-1.87,1.7-3.11
	s0.31-2.75-0.56-3.7c-0.9,1.49-2.85,1.93-4.59,2c-1.06,0.11-2.13,0.01-3.14-0.31c-0.94-0.34-1.7-1.34-2.78-1.2s-2,1.23-2.76,1.83
	L56.39,302.07z"/>
<path class="st8" d="M99.52,302.07c1.15,0.77,2.1,1.8,2.79,3c0.67,1.26,0.39,2.81-0.69,3.75c-0.46,0.29-0.99,0.47-1.53,0.54
	c-4.57,0.77-9.21-0.82-12.35-4.22c-0.25-0.33-0.56-0.6-0.91-0.81c-0.78-0.39-1.76,0-2.6-0.3c-1.17-0.41-1.53-1.87-1.7-3.11
	s-0.31-2.75,0.56-3.7c0.9,1.49,2.85,1.93,4.59,2c1.06,0.11,2.13,0.01,3.14-0.31c0.94-0.34,1.7-1.34,2.78-1.2s2,1.23,2.76,1.83
	L99.52,302.07z"/>
<path class="st4" d="M72.8,183.78c0.42-0.29,1-0.41,1.48-0.75s6.31-4.23,6.76-3.2c0.2,0.47-0.23,1-0.64,1.3s-0.89,0.72-0.8,1.24
	l5.92-2.92c0.1-0.06,0.21-0.09,0.33-0.08c0.2,0,0.28,0.27,0.32,0.48c0.2,1.48-0.19,2.97-1.07,4.17c-1.47,1.98-3.51,3.46-5.85,4.25
	c-3,1-5.75,2.38-6.51,0.09c-0.34-1-0.93-2.65-0.55-3.75C72.29,184.27,72.51,183.98,72.8,183.78z"/>
<path class="st1" d="M60.74,159.12c-1.73,1.19-3.23,2.69-4.41,4.42c-1.93,2.85-5.12,26.75-3.65,33.23
	c0.62,2.74,23.17-7.49,23.17-7.49s-0.52-4.58-2.91-6.14c0,0-11.06,2.37-11.89,1.54S60.74,159.12,60.74,159.12z"/>
<path class="st4" d="M68.51,136.9c0,0-0.26,10.37,3.73,13s5.58,2.26,8.44,0.93c1.73-0.81,3-7.15,3.73-12
	c0.74-4.57-1.89-9.03-6.25-10.59c-1.48-0.57-3.12-0.57-4.6,0C70,129.52,67.87,133.17,68.51,136.9z"/>
<path class="st8" d="M84.48,138.43c0.23-0.52,0.4-1.07,0.49-1.63c0.19-1.88-0.02-3.78-0.61-5.57c-0.2-1.05-0.57-2.06-1.09-3
	c-0.51-0.8-1.24-1.45-2.1-1.86c-0.46,0-0.88-0.47-1.22-0.78c-0.72-0.54-1.64-0.75-2.52-0.58c-0.88,0.1-1.73,0.38-2.62,0.46
	c-1.51,0.14-3.25-0.26-4.41,0.72c-0.6,0.68-1.08,1.46-1.44,2.29c-0.41,0.69-1,1.26-1.46,1.91c-0.52,0.63-0.79,1.42-0.77,2.23
	c0.17,0.71,0.41,1.41,0.71,2.08c0.17,1.11,0.27,2.23,0.31,3.35c0.24,1.29,1,2.46,1,3.76l0.27-6.86c-0.02-0.19,0.02-0.38,0.11-0.55
	c0.21-0.34,0.68-0.36,1.07-0.46c0.93-0.24,1.59-1.1,2.49-1.44c0.63-0.19,1.29-0.24,1.94-0.16l4.93,0.24c0.3-0.01,0.59,0.06,0.85,0.2
	c0.19,0.15,0.37,0.31,0.53,0.49c0.55,0.45,1.37,0.36,2,0.72c0.86,0.5,1,1.66,1.05,2.66l0.18,3.71
	C84.13,139.7,84.23,139.04,84.48,138.43z"/>
<path class="st1" d="M71.22,152.7c0,0,2.48,5.94,5.37,6.84l-5,3.45l-1.69-9L71.22,152.7z"/>
<path class="st1" d="M81.74,152.43l1,1.07l-0.8,9.25l-5.4-3.25C76.54,159.5,81.04,156.36,81.74,152.43z"/>
<linearGradient id="SVGID_6_" gradientUnits="userSpaceOnUse" x1="98.6017" y1="204.1799" x2="98.3317" y2="160.8399" gradientTransform="matrix(1 0 0 -1 -25.26 345.43)">
	<stop  offset="0.01" style="stop-color:#000000"/>
	<stop  offset="0.12" style="stop-color:#000000;stop-opacity:0.75"/>
	<stop  offset="1" style="stop-color:#000000;stop-opacity:0"/>
</linearGradient>
<path class="st10" d="M71.22,152.7c0,0,2.48,5.94,5.37,6.84l-5,3.45l-1.69-9L71.22,152.7z"/>
<linearGradient id="SVGID_7_" gradientUnits="userSpaceOnUse" x1="104.9912" y1="204.1403" x2="104.7312" y2="160.8003" gradientTransform="matrix(1 0 0 -1 -25.26 345.43)">
	<stop  offset="0.01" style="stop-color:#000000"/>
	<stop  offset="0.12" style="stop-color:#000000;stop-opacity:0.75"/>
	<stop  offset="1" style="stop-color:#000000;stop-opacity:0"/>
</linearGradient>
<path class="st11" d="M81.74,152.43l1,1.07l-0.8,9.25l-5.4-3.25C76.54,159.5,81.04,156.36,81.74,152.43z"/>
<path class="st1" d="M193.62,220c1.3,12.13-3,37.08-16.46,42c-3.31,1.21-6.9,1.36-10.43,1.47c-13.8,0.45-27.61,0.57-41.42,0.34
	c-5.52,0.03-11.04-0.36-16.51-1.14c-2.66-0.44-5.41-1.11-7.48-2.84c-3.49-2.94-4.06-8.55-1.71-12.47s7.09-6,11.65-5.85
	c-5.59,0.39-10.44-3.83-10.83-9.43c-0.14-2.06,0.35-4.12,1.41-5.89c3.21-5.38,10.34-6.6,16.57-7.27c-3.92-4.7-6.84-10.49-7-16.61
	s2.9-12.53,8.38-15.26s13.18-0.76,15.77,4.79c-2-10.39,0.72-21.81,7.93-29.56c6.48-7,19.6-12.47,29-8.28c9,4,12.35,17.66,14.34,26.2
	C189.9,193.32,192.17,206.61,193.62,220z"/>
<linearGradient id="SVGID_8_" gradientUnits="userSpaceOnUse" x1="235.1075" y1="81.834" x2="106.6575" y2="182.094" gradientTransform="matrix(1 0 0 -1 -25.26 345.43)">
	<stop  offset="0.01" style="stop-color:#000000"/>
	<stop  offset="0.12" style="stop-color:#000000;stop-opacity:0.75"/>
	<stop  offset="1" style="stop-color:#000000;stop-opacity:0"/>
</linearGradient>
<path class="st12" d="M193.62,220c1.3,12.13-3,37.08-16.46,42c-3.31,1.21-6.9,1.36-10.43,1.47c-13.8,0.45-27.61,0.57-41.42,0.34
	c-5.52,0.03-11.04-0.36-16.51-1.14c-2.66-0.44-5.41-1.11-7.48-2.84c-3.49-2.94-4.06-8.55-1.71-12.47s7.09-6,11.65-5.85
	c-5.59,0.39-10.44-3.83-10.83-9.43c-0.14-2.06,0.35-4.12,1.41-5.89c3.21-5.38,10.34-6.6,16.57-7.27c-3.92-4.7-6.84-10.49-7-16.61
	s2.9-12.53,8.38-15.26s13.18-0.76,15.77,4.79c-2-10.39,0.72-21.81,7.93-29.56c6.48-7,19.6-12.47,29-8.28c9,4,12.35,17.66,14.34,26.2
	C189.9,193.32,192.17,206.61,193.62,220z"/>
<rect x="272.73" y="85.21" class="st1" width="20" height="49.99"/>
<linearGradient id="SVGID_9_" gradientUnits="userSpaceOnUse" x1="282.5972" y1="274.47" x2="282.8872" y2="194.37" gradientTransform="matrix(1 0 0 -1 0 348)">
	<stop  offset="0.01" style="stop-color:#000000"/>
	<stop  offset="0.12" style="stop-color:#000000;stop-opacity:0.75"/>
	<stop  offset="1" style="stop-color:#000000;stop-opacity:0"/>
</linearGradient>
<rect x="272.73" y="85.21" class="st13" width="20" height="49.99"/>
<path class="st1" d="M270.96,78.12h23.53c1.28,0,2.32,1.04,2.32,2.32v4.94c0,1.28-1.04,2.32-2.32,2.32h-23.53
	c-1.28,0-2.32-1.04-2.32-2.32v-4.94C268.64,79.16,269.68,78.12,270.96,78.12z"/>
<polygon class="st1" points="222.32,72.71 150.25,144.45 150.25,164.77 150.25,259.34 302.72,259.34 302.72,164.77 302.72,151.23 
	"/>
<linearGradient id="SVGID_10_" gradientUnits="userSpaceOnUse" x1="240.5099" y1="28.88" x2="195.0798" y2="397.62" gradientTransform="matrix(1 0 0 -1 0 348)">
	<stop  offset="0.01" style="stop-color:#000000"/>
	<stop  offset="0.12" style="stop-color:#000000;stop-opacity:0.75"/>
	<stop  offset="1" style="stop-color:#000000;stop-opacity:0"/>
</linearGradient>
<polygon class="st14" points="222.32,72.71 150.25,144.45 150.25,164.77 150.25,259.34 302.72,259.34 302.72,164.77 302.72,151.23 
	"/>
<g class="st15">
	<path class="st1" d="M224.41,67.82l-74.15,73.94v11.77l74.15-70.3l78.33,74.26v-7.4c1.2,0.01,2.18-0.96,2.18-2.16
		c0-0.61-0.25-1.19-0.69-1.6L224.41,67.82z"/>
</g>
<rect x="144.32" y="259.34" class="st1" width="164.34" height="12.08"/>
<rect x="169.52" y="183" class="st1" width="58.74" height="48.74"/>
<linearGradient id="SVGID_11_" gradientUnits="userSpaceOnUse" x1="200.8889" y1="180.2201" x2="199.1389" y2="145.5601" gradientTransform="matrix(1 0 0 -1 0 348)">
	<stop  offset="0.02" style="stop-color:#FFFFFF;stop-opacity:0"/>
	<stop  offset="0.58" style="stop-color:#FFFFFF;stop-opacity:0.39"/>
	<stop  offset="1" style="stop-color:#FFFFFF"/>
</linearGradient>
<rect x="169.52" y="183" class="st16" width="58.74" height="48.74"/>
<rect x="248.25" y="180.81" class="st1" width="38.74" height="78.53"/>
<rect x="251.39" y="185.81" class="st1" width="32.47" height="69.46"/>
<linearGradient id="SVGID_12_" gradientUnits="userSpaceOnUse" x1="271.1443" y1="68.0703" x2="267.9343" y2="122.2403" gradientTransform="matrix(1 0 0 -1 0 348)">
	<stop  offset="0.02" style="stop-color:#FFFFFF;stop-opacity:0"/>
	<stop  offset="0.58" style="stop-color:#FFFFFF;stop-opacity:0.39"/>
	<stop  offset="1" style="stop-color:#FFFFFF"/>
</linearGradient>
<rect x="251.39" y="185.81" class="st17" width="32.47" height="69.46"/>
<path class="st1" d="M247.34,176.44h40.78c0.93,0,1.69,0.76,1.69,1.69v3.18c0,0.93-0.76,1.69-1.69,1.69h-40.78
	c-0.93,0-1.69-0.76-1.69-1.69v-3.18C245.65,177.2,246.41,176.44,247.34,176.44z"/>
<path class="st1" d="M220.96,67.74l-79.47,77.29c-1.93,1.97-1.9,5.14,0.07,7.07c0.91,0.89,2.11,1.4,3.38,1.43l0,0
	c1.27,0,2.5-0.49,3.42-1.37L221,83.04c1.91-1.82,4.91-1.82,6.82,0l72.64,69.12c0.92,0.88,2.14,1.37,3.41,1.37l0,0
	c2.76-0.07,4.95-2.36,4.88-5.12c-0.03-1.27-0.54-2.48-1.43-3.38l-79.46-77.29C225.94,65.87,222.88,65.87,220.96,67.74z"/>
<rect x="167.83" y="180.81" class="st1" width="62.12" height="2.19"/>
<rect x="183.84" y="183" class="st1" width="1.98" height="44.68"/>
<rect x="197.9" y="183" class="st1" width="1.98" height="44.68"/>
<rect x="211.96" y="183" class="st1" width="1.98" height="44.68"/>
<rect x="169.52" y="206.54" class="st1" width="58.74" height="1.67"/>
<path class="st1" d="M226.47,228.43c1.93-1.01,3.19-2.96,3.31-5.14c0-1-0.35-2.14-1.3-2.28c-0.4-0.02-0.81,0.08-1.16,0.27
	c-1.08,0.51-2.04,1.24-2.83,2.14c0.29-0.97,0.41-1.99,0.35-3c0.01-1.46-1.17-2.66-2.63-2.67c-0.85-0.01-1.65,0.4-2.16,1.09
	c-0.76,0.91-1.3,1.99-1.58,3.15c-0.63-1.68-1.72-3.14-3.14-4.22c-0.24-0.2-0.52-0.34-0.82-0.41c-0.35-0.02-0.7,0.06-1,0.24
	c-1.8,0.92-2.97,2.73-3.08,4.74c-0.2-0.73-0.83-1.26-1.58-1.34c-0.67-0.01-1.22,0.52-1.23,1.19c0,0.09,0.01,0.18,0.02,0.26
	c-1.42-1.48-3.52-2.07-5.5-1.54c-1.98,0.62-3.22,2.58-2.94,4.63c-0.9-0.37-1.93,0.07-2.29,0.97c-0.04,0.09-0.07,0.18-0.09,0.28
	c-0.16,1.04,0.14,2.1,0.83,2.9"/>
<path class="st1" d="M170,228.33l-2.26-1.9c-0.5-0.33-0.85-0.83-1-1.41c-0.1-1,1-1.65,2-1.49c0.93,0.26,1.76,0.8,2.37,1.55
	c-0.28-2.08-0.43-4.51,1.1-6c1.25-1.03,2.99-1.23,4.44-0.51c1.41,0.74,2.52,1.95,3.13,3.42c0.69-2.19,2.03-4.12,3.85-5.52
	c0.47-0.54,1.28-0.59,1.82-0.12c0.07,0.06,0.13,0.12,0.18,0.19c1.54,1.46,2.38,3.51,2.34,5.63c0.28-0.65,0.64-1.28,1.05-1.86
	c0.1-0.18,0.26-0.32,0.46-0.4c0.31-0.09,0.6,0.15,0.83,0.37c0.6,0.59,1.2,1.37,1,2.18c0.33-1.33,1.02-2.54,2-3.5
	c1-0.87,2.86-0.95,3.61,0.18c0.34,0.61,0.47,1.31,0.36,2c-0.14,1.46-0.61,2.88-1.38,4.13c0-0.49,0.74-0.68,1.13-0.39
	c0.36,0.34,0.52,0.84,0.43,1.32c0,0.48-0.22,0.95-0.24,1.44"/>
<linearGradient id="SVGID_13_" gradientUnits="userSpaceOnUse" x1="240.8545" y1="132.0653" x2="235.0345" y2="102.0653" gradientTransform="matrix(1 0 0 -1 -25.26 345.43)">
	<stop  offset="0.01" style="stop-color:#000000"/>
	<stop  offset="0.12" style="stop-color:#000000;stop-opacity:0.75"/>
	<stop  offset="1" style="stop-color:#000000;stop-opacity:0"/>
</linearGradient>
<path class="st18" d="M226.47,228.43c1.93-1.01,3.19-2.96,3.31-5.14c0-1-0.35-2.14-1.3-2.28c-0.4-0.02-0.81,0.08-1.16,0.27
	c-1.08,0.51-2.04,1.24-2.83,2.14c0.29-0.97,0.41-1.99,0.35-3c0.01-1.46-1.17-2.66-2.63-2.67c-0.85-0.01-1.65,0.4-2.16,1.09
	c-0.76,0.91-1.3,1.99-1.58,3.15c-0.63-1.68-1.72-3.14-3.14-4.22c-0.24-0.2-0.52-0.34-0.82-0.41c-0.35-0.02-0.7,0.06-1,0.24
	c-1.8,0.92-2.97,2.73-3.08,4.74c-0.2-0.73-0.83-1.26-1.58-1.34c-0.67-0.01-1.22,0.52-1.23,1.19c0,0.09,0.01,0.18,0.02,0.26
	c-1.42-1.48-3.52-2.07-5.5-1.54c-1.98,0.62-3.22,2.58-2.94,4.63c-0.9-0.37-1.93,0.07-2.29,0.97c-0.04,0.09-0.07,0.18-0.09,0.28
	c-0.16,1.04,0.14,2.1,0.83,2.9"/>
<path class="st1" d="M169.71,227.68h58.37c2.04,0,3.7,1.66,3.7,3.7v6.35c0,2.04-1.66,3.7-3.7,3.7h-58.37c-2.04,0-3.7-1.66-3.7-3.7
	v-6.35C166.01,229.34,167.67,227.68,169.71,227.68z"/>
<linearGradient id="SVGID_14_" gradientUnits="userSpaceOnUse" x1="210.8658" y1="137.895" x2="205.0358" y2="107.895" gradientTransform="matrix(1 0 0 -1 -25.26 345.43)">
	<stop  offset="0.01" style="stop-color:#000000"/>
	<stop  offset="0.12" style="stop-color:#000000;stop-opacity:0.75"/>
	<stop  offset="1" style="stop-color:#000000;stop-opacity:0"/>
</linearGradient>
<path class="st19" d="M170,228.33l-2.26-1.9c-0.5-0.33-0.85-0.83-1-1.41c-0.1-1,1-1.65,2-1.49c0.93,0.26,1.76,0.8,2.37,1.55
	c-0.28-2.08-0.43-4.51,1.1-6c1.25-1.03,2.99-1.23,4.44-0.51c1.41,0.74,2.52,1.95,3.13,3.42c0.69-2.19,2.03-4.12,3.85-5.52
	c0.47-0.54,1.28-0.59,1.82-0.12c0.07,0.06,0.13,0.12,0.18,0.19c1.54,1.46,2.38,3.51,2.34,5.63c0.28-0.65,0.64-1.28,1.05-1.86
	c0.1-0.18,0.26-0.32,0.46-0.4c0.31-0.09,0.6,0.15,0.83,0.37c0.6,0.59,1.2,1.37,1,2.18c0.33-1.33,1.02-2.54,2-3.5
	c1-0.87,2.86-0.95,3.61,0.18c0.34,0.61,0.47,1.31,0.36,2c-0.14,1.46-0.61,2.88-1.38,4.13c0-0.49,0.74-0.68,1.13-0.39
	c0.36,0.34,0.52,0.84,0.43,1.32c0,0.48-0.22,0.95-0.24,1.44"/>
<rect x="181.47" y="235.17" class="st1" width="8.5" height="59.63"/>
<linearGradient id="SVGID_15_" gradientUnits="userSpaceOnUse" x1="169.0098" y1="83.704" x2="225.5198" y2="81.374" gradientTransform="matrix(1 0 0 -1 0 348)">
	<stop  offset="0.01" style="stop-color:#000000"/>
	<stop  offset="0.12" style="stop-color:#000000;stop-opacity:0.75"/>
	<stop  offset="1" style="stop-color:#000000;stop-opacity:0"/>
</linearGradient>
<rect x="181.47" y="235.17" class="st20" width="8.5" height="59.63"/>
<rect x="157.88" y="238.26" class="st1" width="52.43" height="28.84"/>
<linearGradient id="SVGID_16_" gradientUnits="userSpaceOnUse" x1="179.1084" y1="124.9697" x2="190.9084" y2="51.5698" gradientTransform="matrix(1 0 0 -1 0 348)">
	<stop  offset="0.01" style="stop-color:#000000"/>
	<stop  offset="0.12" style="stop-color:#000000;stop-opacity:0.75"/>
	<stop  offset="1" style="stop-color:#000000;stop-opacity:0"/>
</linearGradient>
<rect x="157.66" y="238.26" class="st21" width="52.43" height="28.84"/>
</svg>
