<?xml version="1.0" encoding="utf-8"?>
<!-- Generator: Adobe Illustrator 24.3.0, SVG Export Plug-In . SVG Version: 6.00 Build 0)  -->
<svg version="1.1" id="_x31_" xmlns="http://www.w3.org/2000/svg" xmlns:xlink="http://www.w3.org/1999/xlink" x="0px" y="0px"
	 viewBox="0 0 512 512" style="enable-background:new 0 0 512 512;" xml:space="preserve">
<style type="text/css">
	.st0{fill:#DDDDDE;}
	.st1{fill:#999999;}
	.st2{fill:#88BBC0;}
</style>
<path class="st0" d="M359,37.2c0.1,144.6,0.2,289.2,0.3,433.8H160.1c0.1-144.6,0.1-289.2,0.2-433.8C226.5,37.2,292.8,37.2,359,37.2z
	"/>
<g>
	<rect x="241.1" y="241.4" class="st1" width="35" height="35"/>
	<rect x="184.9" y="241.4" class="st1" width="35" height="35"/>
	<rect x="300.4" y="241.4" class="st1" width="35" height="35"/>
</g>
<rect x="189" y="303.7" class="st1" width="142.3" height="28.1"/>
<rect x="189" y="358.4" class="st1" width="142.3" height="34.4"/>
<rect x="229.3" y="411.7" class="st1" width="60.8" height="59.3"/>
<g>
	<rect x="241.1" y="61.9" class="st2" width="35" height="35"/>
	<rect x="184.9" y="61.9" class="st2" width="35" height="35"/>
	<rect x="300.4" y="61.9" class="st2" width="35" height="35"/>
</g>
<rect x="189" y="124.3" class="st2" width="142.3" height="28.1"/>
<rect x="189" y="178.9" class="st2" width="142.3" height="34.4"/>
</svg>
