<?xml version="1.0" encoding="utf-8"?>
<!-- Generator: Adobe Illustrator 24.3.0, SVG Export Plug-In . SVG Version: 6.00 Build 0)  -->
<svg version="1.1" id="_x31_" xmlns="http://www.w3.org/2000/svg" xmlns:xlink="http://www.w3.org/1999/xlink" x="0px" y="0px"
	 viewBox="0 0 512 512" style="enable-background:new 0 0 512 512;" xml:space="preserve">
<style type="text/css">
	.st0{fill:#E56977;}
	.st1{fill:#796A56;}
	.st2{opacity:0.13;fill:#604C3F;enable-background:new    ;}
</style>
<g>
	<path class="st0" d="M401.1,251.3c0,40.7-16.5,77.5-43.1,104.1l-103,103l-1.1,1.1l-104-104c-5-5-9.6-10.3-13.9-16
		c-18.4-24.5-29.3-55-29.3-88.1c0-35.4,12.5-67.9,33.4-93.3c6.1-7.5,13-14.3,20.4-20.4c25.4-20.9,58-33.4,93.4-33.4
		c28.2,0,54.5,7.9,76.9,21.7c19.8,12.1,36.5,28.8,48.6,48.6C393.2,196.9,401.1,223.2,401.1,251.3z"/>
	<path class="st1" d="M342.2,251.4c0,48.8-39.5,88.3-88.3,88.3c-48.8,0-88.3-39.5-88.3-88.3s39.5-88.3,88.3-88.3
		C302.7,163.1,342.2,202.6,342.2,251.4z"/>
	<path class="st2" d="M401.1,251.3c0,40.7-16.5,77.5-43.1,104.1l-103,103l-1.1,1.1V104.2c28.2,0,54.5,7.9,76.9,21.7
		c19.8,12.1,36.5,28.8,48.6,48.6C393.2,196.9,401.1,223.2,401.1,251.3z"/>
</g>
</svg>
