<?xml version="1.0" encoding="utf-8"?>
<!-- Generator: Adobe Illustrator 24.3.0, SVG Export Plug-In . SVG Version: 6.00 Build 0)  -->
<svg version="1.1" id="_x31_" xmlns="http://www.w3.org/2000/svg" xmlns:xlink="http://www.w3.org/1999/xlink" x="0px" y="0px"
	 viewBox="0 0 512 512" style="enable-background:new 0 0 512 512;" xml:space="preserve">
<style type="text/css">
	.st0{fill:#E8E5B6;}
	.st1{fill:#53998F;}
	.st2{fill:#BAC28B;}
	.st3{fill:#539D98;}
	.st4{fill:#E0E0E0;}
	.st5{opacity:0.1;fill:#040000;enable-background:new    ;}
</style>
<g>
	<g>
		<polygon class="st0" points="404.8,216.7 403.9,235.1 395.4,393.1 116.6,393.1 109,251.4 108.1,235.1 107.2,216.7 		"/>
		<polygon class="st1" points="406.7,393.1 405.7,411.6 106.3,411.6 105.6,398.4 105.3,393.1 		"/>
		<g>
			<g>
				<polygon class="st2" points="174.1,314.2 134.6,314.2 133.2,281.2 173.1,281.2 				"/>
				<polygon class="st2" points="175.3,353.1 136.4,353.1 135,321.2 174.3,321.2 				"/>
			</g>
			<g>
				<polygon class="st2" points="223.6,314.2 184.1,314.2 183.3,281.2 223.2,281.2 				"/>
				<polygon class="st2" points="224.1,353.1 185.2,353.1 184.3,321.2 223.7,321.2 				"/>
			</g>
			<g>
				<polygon class="st2" points="273.1,314.2 233.6,314.2 233.4,281.2 273.3,281.2 				"/>
				<polygon class="st2" points="272.8,353.1 234,353.1 233.7,321.2 273,321.2 				"/>
			</g>
		</g>
		<path class="st3" d="M342,255.2h-7.5c-18.4,0-33.8,15.9-34.1,35.1l-1.7,103.4h70.8l4.5-103.4C374.9,271.1,360.5,255.2,342,255.2z"
			/>
		<polygon class="st4" points="368.4,411.6 298.1,411.6 298.4,393.1 369.2,393.1 		"/>
		<polygon class="st1" points="417.3,235.1 94.7,235.1 137.3,153.7 374.7,153.7 387,177.1 		"/>
		<g>
			<polygon class="st0" points="253.2,210.5 160.6,210.5 160.3,200.2 158.7,153.7 157.9,129.8 205,100.4 239.2,121.2 253.2,129.8 
				253.2,153.7 			"/>
			<g>
				<polygon class="st2" points="194.2,189.7 177.9,189.7 176.9,153.7 193.4,153.7 				"/>
				<polygon class="st2" points="214.7,189.7 198.4,189.7 197.7,153.7 214.2,153.7 				"/>
				<polygon class="st2" points="235.3,189.7 218.9,189.7 218.4,153.7 235,153.7 				"/>
			</g>
		</g>
		<path class="st0" d="M363.9,326.1c-0.2,5.1-4.4,9.2-9.3,9.2s-8.8-4.1-8.6-9.2c0.2-5.1,4.3-9.3,9.3-9.3
			C360.3,316.8,364.1,321,363.9,326.1z"/>
	</g>
	<polygon class="st5" points="403.9,235.1 417.3,235.1 387,177.1 374.7,153.7 256,153.7 256,411.6 298.1,411.6 298.1,411.6 
		368.4,411.6 368.4,411.6 405.7,411.6 406.7,393.1 395.4,393.1 	"/>
</g>
</svg>
