<?xml version="1.0" encoding="utf-8"?>
<!-- Generator: Adobe Illustrator 24.3.0, SVG Export Plug-In . SVG Version: 6.00 Build 0)  -->
<svg version="1.1" id="レイヤー_1" xmlns="http://www.w3.org/2000/svg" xmlns:xlink="http://www.w3.org/1999/xlink" x="0px"
	 y="0px" viewBox="0 0 20 20" style="enable-background:new 0 0 20 20;" xml:space="preserve">
<style type="text/css">
	.st0{fill:#FFFFFF;}
</style>
<g>
	<path class="st0" d="M8.8,7.6H8.4c-0.1,0-0.2,0.1-0.2,0.2v2.7c0,0.1,0.1,0.2,0.2,0.2h0.3c0.1,0,0.2-0.1,0.2-0.2L9,7.8
		C9,7.7,8.9,7.6,8.8,7.6z"/>
	<path class="st0" d="M7.8,10.2H6.6V7.9c0-0.1-0.1-0.2-0.2-0.2H6c0,0-0.1,0-0.2,0.1v2.7l0.1,0.1c0,0.1,0,0.1,0.1,0.1h1.7
		c0.1,0,0.2-0.1,0.2-0.2c0,0,0-0.27,0.06-0.19C7.92,10.25,7.87,10.2,7.8,10.2z"/>
	<path class="st0" d="M11.8,7.6h-0.4c-0.1,0-0.2,0.1-0.2,0.2v1.5L9.9,7.6H9.5c-0.1,0-0.2,0.1-0.2,0.2v2.8c0,0.1,0.1,0.2,0.2,0.2H10
		c0.1,0,0.2-0.1,0.2-0.2V9l1.2,1.7h0.4c0.1,0,0.2-0.1,0.2-0.2V7.8C12,7.7,11.9,7.6,11.8,7.6z"/>
	<path class="st0" d="M14.4,8.4c0.1,0,0.2-0.1,0.2-0.2h-0.1V7.8c0-0.1-0.1-0.2-0.2-0.2h-1.8l-0.1,0.1c-0.1,0-0.1,0-0.1,0.1v2.8
		l0.2,0.1c0,0.1,0,0.1,0.1,0.1h1.8c0.1,0,0.2-0.1,0.2-0.2v-0.4c0-0.1-0.1-0.2-0.2-0.2h-1.2V9.6h1.2c0.1,0,0.2-0.1,0.2-0.2V9
		c0-0.1-0.1-0.2-0.2-0.2h-1.2V8.4H14.4z"/>
	<path class="st0" d="M10,0C4.48,0,0,4.48,0,10s4.48,10,10,10s10-4.48,10-10S15.52,0,10,0z M15.3,12.1c-1.3,1.5-4.3,3.4-5,3.7
		c-0.8,0.4-0.6-0.1-0.6-0.3c0-0.1,0.1-0.5,0.1-0.5c0.1-0.2,0.1-0.5,0-0.6c-0.1-0.1-0.4-0.2-0.6-0.3c-3-0.5-5.3-2.6-5.3-5.1
		c0-2.9,2.7-5.1,6.2-5.1s6.4,2.2,6.4,5.1C16.5,10.1,16.1,11.2,15.3,12.1z"/>
</g>
</svg>
