<?xml version="1.0" encoding="utf-8"?>
<!-- Generator: Adobe Illustrator 25.2.3, SVG Export Plug-In . SVG Version: 6.00 Build 0)  -->
<svg version="1.1" id="_x30_2_1_" xmlns="http://www.w3.org/2000/svg" xmlns:xlink="http://www.w3.org/1999/xlink" x="0px" y="0px"
	 viewBox="0 0 841.9 595.3" style="enable-background:new 0 0 841.9 595.3;" xml:space="preserve">
<style type="text/css">
	.st0{fill:#E88B13;stroke:#FFFFFF;stroke-linecap:round;stroke-linejoin:round;stroke-miterlimit:10;}
	.st1{fill:#CCCCCC;stroke:#FFFFFF;stroke-linecap:round;stroke-linejoin:round;stroke-miterlimit:10;}
</style>
<polygon class="st0" points="756,133 756.1,120.1 767.3,113.2 767.3,97.4 756.2,104.3 756.2,104.2 738.6,104.2 689.2,25.7 
	648.5,25.7 648.5,76.2 635.1,91.1 635.1,114.9 597,114.9 597,133 578.2,150.4 578.2,198.6 604.2,198.6 604.2,185.9 616.9,185.9 
	616.9,170.9 604.2,170.9 604.2,153.6 620.9,153.6 620.9,169 637.6,153.6 641.3,153.6 673.2,194.3 705.1,153.6 755.9,153.6 
	772.6,142.6 772.6,133 "/>
<polyline class="st1" points="407.9,405.9 427.8,400.7 427.8,416.3 438.9,416.3 438.9,380.8 420.6,380.8 420.6,391.2 399.1,391.2 
	399.1,403.9 407.9,405.9 "/>
<polygon class="st0" points="510.5,394.7 510.5,417.3 545.4,417.3 545.4,384.7 518.9,384.7 "/>
<g>
	<polygon class="st1" points="491.1,375.6 491.1,391.6 491.2,391.6 491.1,391.6 491.1,397.3 466.8,423.8 466.8,443.3 477.2,443.3 
		498.1,417.3 510.5,417.3 510.5,394.7 518.9,384.7 518.9,375.6 	"/>
	<polygon class="st1" points="529.1,360.4 491.1,360.4 491.1,375.6 518.9,375.6 518.9,384.7 545.4,384.7 545.4,365.6 560.2,351.8 
		560.2,326.1 	"/>
</g>
<polygon class="st1" points="274.1,424.1 274.1,424.1 284.9,413.4 295.3,413.4 306.7,402 323.9,402 329.1,395.1 329.1,380.2 
	288.5,380.2 266.2,400.7 265.9,400.7 265.9,424.1 "/>
<polygon class="st0" points="396.5,431.6 396.5,457.3 396.9,457 407.9,457 407.9,405.9 399.1,403.9 399.1,391.2 399.1,380.2 
	382.5,380.2 382.5,418 "/>
<polygon class="st1" points="329.1,380.2 329.1,395.1 323.9,402 323.9,409.8 366.3,409.8 366.3,380.2 "/>
<polygon class="st1" points="641.3,249.8 641.3,199.4 610.9,199.4 610.9,213.3 630,213.3 630,219.4 602.7,219.4 602.7,206.8 
	588.4,206.8 588.4,219.4 577.1,219.4 577.1,249.8 610.1,249.8 "/>
<rect x="577.1" y="249.8" class="st1" width="33" height="58.2"/>
<polygon class="st0" points="427.8,400.7 407.9,405.9 407.9,457 424.9,436.8 427.8,436.8 427.8,416.3 "/>
<polygon class="st1" points="274.1,424.1 265.9,424.1 265.9,400.7 240.3,400.7 235.7,409.1 235.7,430 240.3,439.1 254.6,439.1 
	263.7,450.2 274.1,450.2 279.7,442.4 274.1,436.2 "/>
<polygon class="st1" points="590.4,351.8 610.1,307.9 577.1,307.9 576.6,307.9 560.2,326.1 560.2,351.8 "/>
<rect x="545.4" y="384.7" class="st0" width="33.4" height="32.5"/>
<polygon class="st0" points="389,464.6 389,475.2 381.9,480.8 381.9,488.6 386.3,493 390,491.8 407.9,474.2 407.9,457 396.9,457 "/>
<rect x="510.5" y="417.3" class="st0" width="34.9" height="18.7"/>
<polygon class="st1" points="454.7,335.3 454.7,348.7 442.8,380.8 438.9,380.8 438.9,401.8 447.8,401.8 454.8,394.8 454.8,391.6 
	454.8,385.7 471.5,360.4 471.6,348.7 489.8,348.7 489.8,335.3 "/>
<polygon class="st0" points="454.8,391.6 454.8,394.8 447.8,401.8 438.9,401.8 438.9,416.3 427.8,416.3 427.8,436.8 432.7,436.8 
	443.4,436.8 450.6,443.3 466.8,443.3 466.8,423.8 491.1,397.3 491.1,391.6 "/>
<polygon class="st1" points="471.5,360.4 454.8,385.7 454.8,391.6 491.1,391.6 491.1,360.4 "/>
<polygon class="st0" points="578.8,417.3 545.4,417.3 545.4,436 566.2,436 574.4,454.3 610.2,384.7 578.8,384.7 "/>
<g>
	<polygon class="st0" points="510.5,436 510.5,450.7 539.1,450.7 545.4,442.7 545.4,436 	"/>
	<polygon class="st0" points="566.2,436 545.4,436 545.4,442.7 545.4,458 534.9,474.9 534.9,482.8 559.7,482.8 574.4,454.3 	"/>
</g>
<polygon class="st0" points="510.5,466.1 533.2,466.1 533.2,457.6 539.1,450.7 510.5,450.7 "/>
<polygon class="st1" points="498.1,417.3 487.7,430.3 487.7,450.7 510.5,450.7 510.5,436 510.5,417.3 "/>
<polygon class="st1" points="641.3,249.8 610.1,249.8 610.1,307.9 651.7,307.9 651.7,249.8 "/>
<polygon class="st1" points="590.4,351.8 560.2,351.8 545.4,365.6 545.4,384.7 578.8,384.7 610.2,384.7 611.8,381.7 628,351.8 "/>
<polygon class="st1" points="590.4,351.8 628,351.8 651.7,307.9 610.1,307.9 "/>
<polygon class="st0" points="466.8,443.3 450.6,443.3 443.4,436.8 432.7,436.8 432.7,451.1 432.7,463.5 438.2,463.5 438.2,457 
	443.4,457 443.4,467.7 434.6,467.7 434.6,474.2 452.5,474.2 477.2,443.3 "/>
<polygon class="st0" points="323.9,402 306.7,402 295.3,413.4 284.9,413.4 274.1,424.1 274.1,424.1 274.1,436.2 279.7,442.4 
	323.9,442.4 323.9,409.8 "/>
<polygon class="st0" points="366.3,417.9 366.3,409.8 323.9,409.8 323.9,442.4 352.6,442.4 352.6,427.4 "/>
<polygon class="st0" points="389,464.6 389,466.9 389,464.6 396.5,457.3 396.5,431.6 382.5,418 382.5,449.5 370.9,466.8 
	386.8,466.8 "/>
<polygon class="st0" points="366.3,380.2 366.3,409.8 366.3,417.9 352.6,427.4 352.6,442.4 364.3,442.4 371.5,449.5 382.5,449.5 
	382.5,418 382.5,380.2 "/>
<polygon class="st1" points="386.3,493 381.9,488.6 381.9,480.8 389,475.2 389,464.6 386.8,466.8 370.9,466.8 363.6,477.5 
	363.6,496.7 376.4,508.1 383.5,508.1 390,501.5 390,491.8 "/>
<polygon class="st0" points="427.8,436.8 424.9,436.8 407.9,457 407.9,474.2 390,491.8 390,501.5 407.3,484 429.7,484 429.7,471 
	421.6,471 421.6,460.6 432.7,451.1 432.7,436.8 "/>
<polygon class="st1" points="536.2,318 522.8,321.9 522.8,343.4 536.2,333 "/>
<polygon class="st1" points="289.3,467.6 271.5,495.2 271.5,506.5 286.8,506.5 296.2,491.5 318.6,491.5 323.3,500.6 331.5,493.6 
	315.6,467.6 "/>
<polygon class="st1" points="315.6,467.6 315.6,456.7 301.1,456.7 301.1,453.1 280.6,453.1 268,471.3 268,491.5 271.5,491.5 
	271.5,495.2 289.3,467.6 "/>
<polygon class="st1" points="348,450.5 321.3,450.5 321.3,456.7 315.6,456.7 315.6,467.6 353.9,467.6 353.9,466.4 "/>
<polygon class="st1" points="331.5,493.6 342.5,484.3 349.3,484.3 353.9,477.8 353.9,467.6 315.6,467.6 "/>
<polygon class="st1" points="369.7,462.9 372.9,453.3 366.7,453.3 365.5,457 358.3,457 358.3,462.9 363.5,462.9 366.4,462.9 "/>
<polygon class="st1" points="186.6,440.5 175,440.5 169.3,450.9 169.5,455 173,455 177.1,449 177.1,459.4 173.7,462 173.7,483 
	176.9,483 181,475.9 186.5,475.9 181,481.7 181,490.6 189.3,490.6 194.9,484.8 194.9,472.5 186.6,463.8 "/>
<path class="st0" d="M210,452.8h-7.2l-7.5-5.9c0,0,0.1-3.3,0.1-6.4h-5.3h-3.6v23.3l8.4,8.7v-8.4h4.6L210,456L210,452.8L210,452.8z"
	/>
<polygon class="st1" points="199.5,488.2 186.8,503.9 198,503.9 202.4,518.6 224.7,489.9 216.9,475.5 199.5,475.5 "/>
<path class="st0" d="M232.7,450.6v-17.4h-16.1l-6.4,7.4h-14.7c0,3.1-0.1,6.4-0.1,6.4l7.5,5.9h7.2v3.3l-10.5,8.1v11.4h17.4l0.3-13
	L232.7,450.6z"/>
<polygon class="st1" points="202.4,518.6 198,503.9 186.8,503.9 176.3,516.9 176.3,550.5 184.3,550.5 184.3,536.2 188.2,536.2 
	188.2,563.5 194.7,563.5 210.2,544 "/>
<polygon class="st1" points="246.8,454 232.7,454 232.7,450.6 217.2,462.5 216.9,475.5 224.7,489.9 252,489.9 252.2,458.1 "/>
<polygon class="st1" points="202.4,518.6 210.2,544 252,491.1 252,489.9 224.7,489.9 "/>
<polygon class="st1" points="69.4,557.2 69.1,565.4 74.3,567.7 106.2,536.4 106.2,529.9 99,528 "/>
<polygon class="st0" points="487.7,450.7 487.7,430.3 477.2,443.3 452.5,474.2 488,474.1 492.4,462.5 492.5,462.2 497.1,462.2 
	497.1,484.7 504.3,484.7 510.5,479.1 510.5,466.1 510.5,450.7 "/>
</svg>
