<?xml version="1.0" encoding="utf-8"?>
<!-- Generator: Adobe Illustrator 25.2.3, SVG Export Plug-In . SVG Version: 6.00 Build 0)  -->
<svg version="1.1" id="レイヤー_1" xmlns="http://www.w3.org/2000/svg" xmlns:xlink="http://www.w3.org/1999/xlink" x="0px"
	 y="0px" viewBox="0 0 500 341.8" style="enable-background:new 0 0 500 341.8;" xml:space="preserve">
<style type="text/css">
	.st0{fill:#F5F5F5;}
	.st1{fill:#EBEBEB;}
	.st2{fill:#EC7103;}
	.st3{opacity:0.2;}
	.st4{fill:#263238;}
	.st5{fill:#455A64;}
	.st6{fill:#37474F;}
	.st7{fill:#FFA8A7;}
	.st8{opacity:0.1;}
	.st9{opacity:0.5;}
	.st10{fill:#FFFFFF;}
	.st11{fill:#F28F8F;}
	.st12{fill:#E6E6E6;}
	.st13{fill:#FAFAFA;}
	.st14{fill:#E0E0E0;}
	.st15{opacity:0.3;}
	.st16{fill:#F0F0F0;}
	.st17{opacity:0.1;enable-background:new    ;}
	.st18{opacity:0.1;fill:#FFFFFF;enable-background:new    ;}
	.st19{opacity:0.3;fill:#FFFFFF;enable-background:new    ;}
	.st20{opacity:0.1;fill:#EC7103;enable-background:new    ;}
	.st21{opacity:0.4;fill:#FFFFFF;enable-background:new    ;}
</style>
<g id="freepik--Floor--inject-55">
	<path class="st0" d="M120.6,313.2c73,38.1,191.4,38.1,264.4,0s73-100,0-138.1s-191.4-38.1-264.4,0S47.6,275,120.6,313.2z"/>
</g>
<g id="freepik--Shadow--inject-55">
	<path class="st1" d="M189.2,306.1l-98-56.6c-0.6-0.2-0.9-0.8-0.7-1.3c0.1-0.3,0.4-0.6,0.7-0.7l110.3-63.7c1.1-0.5,2.4-0.5,3.5,0
		l98.1,56.6c1,0.6,1,1.5,0,2l-110.3,63.7C191.6,306.7,190.3,306.7,189.2,306.1z"/>
</g>
<g id="freepik--Wifi--inject-55">
	<path class="st2" d="M405.7,72.2c0,2.3-1.2,4.5-3.3,5.7l0,0L388.2,86c-1.6,0.9-3.6,1.1-5.4,0.5c-0.3,1.8-1.4,3.4-3,4.3l-0.5,0.3
		l0,0L365.6,99l-0.4,0.2c-1.6,0.8-3.5,0.9-5.2,0.2c-0.3,1.9-1.5,3.6-3.2,4.6l-12.8,7.5c2.4,4,3.7,8.5,3.9,13.2
		c0,4.7-1.9,7.8-4.8,8.9c-0.5,0.4-1,0.7-1.6,0.9c-0.5,0.4-1,0.7-1.6,0.9c-1,0.6-2.1,1.2-3.1,1.8c-0.5,0.4-1,0.7-1.6,0.9
		c-0.5,0.4-1,0.7-1.6,0.9c-0.5,0.4-1,0.7-1.6,0.9c-0.5,0.4-1,0.7-1.6,0.9c-2.5,1.9-6.1,2-10.1-0.3c-7.4-4.3-13.3-14.6-13.3-23.1
		c0-4.3,1.5-7.3,3.9-8.5c0.3-0.1,0.5-0.2,0.8-0.3c0.2-0.2,0.5-0.4,0.8-0.6c0.3-0.1,0.5-0.2,0.8-0.3c0.2-0.2,0.5-0.4,0.8-0.6
		c0.3-0.1,0.5-0.2,0.8-0.3c0.2-0.2,0.5-0.4,0.8-0.6c0.3-0.1,0.5-0.2,0.8-0.3c0.2-0.2,0.5-0.4,0.8-0.6c0.3-0.1,0.5-0.2,0.8-0.3
		c0.2-0.2,0.5-0.4,0.8-0.6c0.3-0.1,0.5-0.2,0.8-0.3c0.2-0.2,0.5-0.4,0.8-0.6c0.3-0.1,0.5-0.2,0.8-0.3c0.2-0.2,0.5-0.4,0.8-0.6
		c0.3-0.1,0.5-0.2,0.8-0.3c0.2-0.2,0.5-0.3,0.8-0.4c0.3-0.1,0.5-0.2,0.8-0.3c0.2-0.2,0.5-0.4,0.8-0.6c-0.4-0.3-0.7-0.7-1.1-0.9
		l-1.2-0.8l-1.2-0.8c-0.4-0.3-0.8-0.5-1.3-0.8c-1.4-0.8-2.8-1.5-4.3-2c-0.5-0.2-0.9-0.3-1.4-0.5c-1.7-0.5-3.4-0.8-5.1-0.8h-0.8h-0.6
		c-0.3,0-0.6,0-0.9,0c-3,0-5.7-1.5-7.2-4.1l-0.3-0.6l3.2-10.9l10-6c2-1.4,4.2-2.5,6.5-3.2c0.4-0.1,0.8-0.1,1.2-0.2h0.3
		c0.5,0,1,0,1.5,0h0.5h0.1c1,0.1,2,0.3,3,0.6c3.7,1.1,7.2,2.6,10.5,4.7c0.8,0.4,1.4,0.9,2.2,1.4c-1.2-1.1-2.5-2.2-3.8-3.2
		c-0.6-0.5-1.2-0.9-1.8-1.4c-0.1-0.1-0.2-0.2-0.3-0.2c-0.5-0.4-1-0.8-1.6-1.2c-1-0.7-1.9-1.4-2.9-2l-1.3-0.9
		c-0.7-0.4-1.4-0.9-2.1-1.3c-0.6-0.4-1.7-1-2.6-1.5c-8-4.6-15.2-6.6-21.8-6.6h-1.4l-1.5,0.1c-0.4,0-0.8,0-1.1,0.1l-0.8,0.1l-0.7,0.1
		l-1.1,0.2l-1.2,0.3c-0.4,0.1-0.9,0.2-1.3,0.4c-0.4,0.1-0.7,0.2-1.1,0.3l0,0c-0.9,0.3-1.8,0.5-2.8,0.5c-3,0-5.7-1.5-7.2-4.1
		l-0.2-0.3l2.5-10.5c0,0,0,0,0.2-0.1l0,0c1.1-0.8,6.7-4.7,7.2-4.9c2.6-1.5,5.4-2.8,8.3-3.9c1.2-0.4,2.4-0.9,3.6-1.2l1.6-0.4
		c0.5-0.1,1.1-0.3,1.6-0.4c1.1-0.2,2.2-0.4,3.4-0.6l1.4-0.2h0.3l1.7-0.2h0.1l1.6-0.1c0.1,0,0.3,0,0.4,0c1.9-0.1,3.9,0,5.8,0.2
		c2.5,0.2,5,0.7,7.5,1.3l0,0c-8.7-4.9-18.3-7.8-28.2-8.6c-3.6-0.2-7.1-0.1-10.7,0.3c-0.9,0.1-1.8,0.2-2.7,0.4l0,0h-0.3
		c-0.5,0.1-1.1,0.2-1.6,0.3c-0.9,0.2-1.8,0.4-2.7,0.6c-0.9,0.2-1.8,0.5-2.6,0.8c-0.6,0.2-1.2,0.4-1.9,0.6c-0.8,0.3-1.6,0.6-2.3,0.9
		c-1.1,0.4-2.3,0.7-3.4,0.7c-3.4,0-6.6-1.9-8.3-4.8l-0.2-0.3l0,0c0.1-0.5,2.7-12.1,2.7-12.1h0.1l0.2-0.1l0.1-0.1
		c1.3-1,5.6-4.1,6-4.3c3.1-1.8,6.4-3.4,9.8-4.6c1.9-0.7,3.8-1.3,5.7-1.9l0,0l2.1-0.5l2.2-0.5c2.2-0.4,4.5-0.8,6.7-1
		c0.8-0.1,1.5-0.1,2.3-0.2S302,0,302.8,0s1.6,0,2.4,0c12.7,0,26.6,3.5,41,11.8c5.6,3.2,10.7,6.4,15.3,9.6c0.6,0.4,1.1,0.8,1.7,1.2
		c1.4,1,2.9,2.1,4.3,3.2l1.9,1.4c1.4,1.1,2.7,2.2,4.1,3.3c0.5,0.4,1,0.9,1.5,1.3l0.8,0.7l1.6,1.5c3.3,3.1,6.4,6.3,9.3,9.7l1.1,1.3
		c0.6,0.7,1.1,1.4,1.7,2.1c0.9,1.1,1.8,2.2,2.6,3.3l1.5,2c1.1,1.4,2.1,2.9,3.2,4.5c0.5,0.8,1,1.5,1.6,2.3c0.5,0.8,1,1.6,1.6,2.4
		c0.5,0.8,1.1,1.6,1.6,2.5c1.1,1.7,2.1,3.4,3.2,5.2C405.4,69.9,405.7,71,405.7,72.2z"/>
	<g class="st3">
		<path d="M405.7,72.2c0,2.3-1.2,4.5-3.3,5.7l0,0L388.2,86c-1.6,0.9-3.6,1.1-5.4,0.5c-0.3,1.8-1.4,3.4-3,4.3l-0.5,0.3l0,0L365.6,99
			l-0.4,0.2c-1.6,0.8-3.5,0.9-5.2,0.2c-0.3,1.9-1.5,3.6-3.2,4.6l-12.8,7.5c2.4,4,3.7,8.5,3.9,13.2c0,4.7-1.9,7.8-4.8,8.9
			c-0.5,0.4-1,0.7-1.6,0.9c-0.5,0.4-1,0.7-1.6,0.9c-1,0.6-2.1,1.2-3.1,1.8c-0.5,0.4-1,0.7-1.6,0.9c-0.5,0.4-1,0.7-1.6,0.9
			c-0.5,0.4-1,0.7-1.6,0.9c-0.5,0.4-1,0.7-1.6,0.9c-2.5,1.9-6.1,2-10.1-0.3c-7.4-4.3-13.3-14.6-13.3-23.1c0-4.3,1.5-7.3,3.9-8.5
			c0.3-0.1,0.5-0.2,0.8-0.3c0.2-0.2,0.5-0.4,0.8-0.6c0.3-0.1,0.5-0.2,0.8-0.3c0.2-0.2,0.5-0.4,0.8-0.6c0.3-0.1,0.5-0.2,0.8-0.3
			c0.2-0.2,0.5-0.4,0.8-0.6c0.3-0.1,0.5-0.2,0.8-0.3c0.2-0.2,0.5-0.4,0.8-0.6c0.3-0.1,0.5-0.2,0.8-0.3c0.2-0.2,0.5-0.4,0.8-0.6
			c0.3-0.1,0.5-0.2,0.8-0.3c0.2-0.2,0.5-0.4,0.8-0.6c0.3-0.1,0.5-0.2,0.8-0.3c0.2-0.2,0.5-0.4,0.8-0.6c0.3-0.1,0.5-0.2,0.8-0.3
			c0.2-0.2,0.5-0.3,0.8-0.4c0.3-0.1,0.5-0.2,0.8-0.3c0.2-0.2,0.5-0.4,0.8-0.6c-0.4-0.3-0.7-0.7-1.1-0.9l-1.2-0.8l-1.2-0.8
			c-0.4-0.3-0.8-0.5-1.3-0.8c-1.4-0.8-2.8-1.5-4.3-2c-0.5-0.2-0.9-0.3-1.4-0.5c-1.7-0.5-3.4-0.8-5.1-0.8h-0.8h-0.6
			c-0.3,0-0.6,0-0.9,0c-3,0-5.7-1.5-7.2-4.1l-0.3-0.6l3.2-10.9l10-6c2-1.4,4.2-2.5,6.5-3.2c0.4-0.1,0.8-0.1,1.2-0.2h0.3
			c0.5,0,1,0,1.5,0h0.5h0.1c1,0.1,2,0.3,3,0.6c3.7,1.1,7.2,2.6,10.5,4.7c0.8,0.4,1.4,0.9,2.2,1.4c-1.2-1.1-2.5-2.2-3.8-3.2
			c-0.6-0.5-1.2-0.9-1.8-1.4c-0.1-0.1-0.2-0.2-0.3-0.2c-0.5-0.4-1-0.8-1.6-1.2c-1-0.7-1.9-1.4-2.9-2l-1.3-0.9
			c-0.7-0.4-1.4-0.9-2.1-1.3c-0.6-0.4-1.7-1-2.6-1.5c-8-4.6-15.2-6.6-21.8-6.6h-1.4l-1.5,0.1c-0.4,0-0.8,0-1.1,0.1l-0.8,0.1
			l-0.7,0.1l-1.1,0.2l-1.2,0.3c-0.4,0.1-0.9,0.2-1.3,0.4c-0.4,0.1-0.7,0.2-1.1,0.3l0,0c-0.9,0.3-1.8,0.5-2.8,0.5
			c-3,0-5.7-1.5-7.2-4.1l-0.2-0.3l2.5-10.5c0,0,0,0,0.2-0.1l0,0c1.1-0.8,6.7-4.7,7.2-4.9c2.6-1.5,5.4-2.8,8.3-3.9
			c1.2-0.4,2.4-0.9,3.6-1.2l1.6-0.4c0.5-0.1,1.1-0.3,1.6-0.4c1.1-0.2,2.2-0.4,3.4-0.6l1.4-0.2h0.3l1.7-0.2h0.1l1.6-0.1
			c0.1,0,0.3,0,0.4,0c1.9-0.1,3.9,0,5.8,0.2c2.5,0.2,5,0.7,7.5,1.3l0,0c-8.7-4.9-18.3-7.8-28.2-8.6c-3.6-0.2-7.1-0.1-10.7,0.3
			c-0.9,0.1-1.8,0.2-2.7,0.4l0,0h-0.3c-0.5,0.1-1.1,0.2-1.6,0.3c-0.9,0.2-1.8,0.4-2.7,0.6c-0.9,0.2-1.8,0.5-2.6,0.8
			c-0.6,0.2-1.2,0.4-1.9,0.6c-0.8,0.3-1.6,0.6-2.3,0.9c-1.1,0.4-2.3,0.7-3.4,0.7c-3.4,0-6.6-1.9-8.3-4.8l-0.2-0.3l0,0
			c0.1-0.5,2.7-12.1,2.7-12.1h0.1l0.2-0.1l0.1-0.1c1.3-1,5.6-4.1,6-4.3c3.1-1.8,6.4-3.4,9.8-4.6c1.9-0.7,3.8-1.3,5.7-1.9l0,0
			l2.1-0.5l2.2-0.5c2.2-0.4,4.5-0.8,6.7-1c0.8-0.1,1.5-0.1,2.3-0.2S302,0,302.8,0s1.6,0,2.4,0c12.7,0,26.6,3.5,41,11.8
			c5.6,3.2,10.7,6.4,15.3,9.6c0.6,0.4,1.1,0.8,1.7,1.2c1.4,1,2.9,2.1,4.3,3.2l1.9,1.4c1.4,1.1,2.7,2.2,4.1,3.3
			c0.5,0.4,1,0.9,1.5,1.3l0.8,0.7l1.6,1.5c3.3,3.1,6.4,6.3,9.3,9.7l1.1,1.3c0.6,0.7,1.1,1.4,1.7,2.1c0.9,1.1,1.8,2.2,2.6,3.3l1.5,2
			c1.1,1.4,2.1,2.9,3.2,4.5c0.5,0.8,1,1.5,1.6,2.3c0.5,0.8,1,1.6,1.6,2.4c0.5,0.8,1.1,1.6,1.6,2.5c1.1,1.7,2.1,3.4,3.2,5.2
			C405.4,69.9,405.7,71,405.7,72.2z"/>
	</g>
	<path class="st2" d="M333.7,132.9c0,8.5-6,11.9-13.3,7.7s-13.3-14.6-13.3-23.1c0-4.3,1.5-7.3,3.9-8.5s5.7-1.2,9.4,0.8
		C328.3,114.9,333.2,123.5,333.7,132.9z"/>
	<path class="st2" d="M344.9,102.8c-5.8-8.4-13.4-15.3-22.4-20.2c-4.1-2.5-8.7-4.2-13.5-5.1c-2.8-0.5-5.6,0.4-7.6,2.5l-0.1,0.1
		c-2.4,2.5-3,6.3-1.5,9.5c0.1,0.2,0.2,0.4,0.3,0.6c1.5,2.6,4.2,4.1,7.2,4.1c0.3,0,0.6,0,0.9,0h0.6h0.8c1.7,0,3.5,0.3,5.1,0.8
		c0.5,0.1,0.9,0.3,1.4,0.5c1.5,0.5,2.9,1.2,4.3,2c0.4,0.2,0.8,0.5,1.3,0.8c0.4,0.3,0.8,0.5,1.2,0.8c0.4,0.3,0.8,0.5,1.2,0.8
		c0.4,0.3,0.8,0.6,1.2,0.9c3.4,2.8,6.4,6,9,9.6c2.2,2.9,6.4,3.4,9.2,1.1c2.7-2.1,3.3-5.9,1.5-8.7L344.9,102.8z"/>
	<path class="st2" d="M367.9,89.9c-11.9-19.2-24-31.7-42.1-42.3c-12.4-7.4-27.6-8.8-41.2-3.7c-0.6,0.2-1.2,0.5-1.7,0.9l0,0l-0.2,0.1
		c-3.3,2.4-4.4,6.9-2.5,10.5l0.2,0.3c1.5,2.6,4.2,4.1,7.2,4.1c0.9,0,1.9-0.2,2.8-0.5l0,0c0.4-0.1,0.7-0.2,1.1-0.3s0.9-0.3,1.3-0.4
		l1.2-0.3l1.1-0.2l0.7-0.1l0.8-0.1c0.4,0,0.8-0.1,1.1-0.1l1.5-0.1h1.4c6.6,0,13.8,2,21.8,6.6l2.6,1.5c0.7,0.4,1.4,0.8,2.1,1.3
		l1.3,0.9c1,0.7,2,1.3,2.9,2c0.5,0.4,1.1,0.8,1.6,1.2c0.1,0.1,0.2,0.1,0.3,0.2c0.6,0.4,1.2,0.9,1.8,1.4c1.3,1,2.6,2.1,3.8,3.2
		c0,0,0,0,0.1,0c6.9,6.2,13,13.3,17.9,21.1c0.8,1.2,1.9,2.1,3.2,2.5c1.7,0.6,3.6,0.5,5.2-0.2l0.4-0.2c3.1-1.8,4.2-5.9,2.4-9
		C368,90.1,367.9,90,367.9,89.9L367.9,89.9z"/>
	<path class="st2" d="M390.7,77c-17.2-28.7-31.6-42-58.5-57.6c-23.9-13.8-46.6-14.2-64.4-7.6c-0.7,0.3-1.4,0.6-2,1l-0.1,0.1
		l-0.2,0.1h-0.1c-3.7,2.8-4.9,7.9-2.7,12.1l0,0c0,0.1,0.1,0.2,0.2,0.4c1.7,3,4.9,4.8,8.3,4.8c1.2,0,2.3-0.2,3.4-0.7
		c0.8-0.3,1.5-0.6,2.3-0.9s1.2-0.4,1.9-0.6c0.9-0.3,1.7-0.5,2.6-0.8c0.9-0.2,1.8-0.4,2.7-0.6c0.5-0.1,1-0.2,1.6-0.3h0.3l0,0
		c0.9-0.2,1.8-0.3,2.7-0.4c3.6-0.5,7.1-0.6,10.7-0.4c10,0.8,19.6,3.7,28.3,8.6l0,0l2.1,1.2c22.7,13.1,35.2,24.4,49.6,48.3
		c2,3,6.1,3.8,9.1,1.8C391.3,83.8,392.3,80,390.7,77L390.7,77z"/>
</g>
<g id="freepik--Character--inject-55">
	<path class="st4" d="M101.5,153v51.3c0,0.5-0.3,0.9-0.7,1.1l-1.8,1c-0.4,0.2-0.9,0.2-1.3,0l-1.8-1c-0.4-0.3-0.6-0.7-0.7-1.1V153
		c0-0.4,0.3-0.7,0.7-0.8l0,0h4.6C101.2,152.2,101.5,152.6,101.5,153L101.5,153z"/>
	<path class="st5" d="M96.2,152.2h1.6c0.4,0,0.8,0.3,0.8,0.8v53c0,0.4-0.3,0.6-0.6,0.4l-1.8-1c-0.4-0.3-0.6-0.7-0.7-1.1v-51.2
		C95.4,152.6,95.7,152.2,96.2,152.2L96.2,152.2z"/>
	<path class="st4" d="M130.9,169.9v51.3c0,0.5-0.3,0.9-0.6,1.1l-1.8,1c-0.4,0.2-0.9,0.2-1.3,0l-1.7-1c-0.4-0.3-0.6-0.7-0.7-1.1
		v-51.3c0-0.4,0.3-0.7,0.7-0.8l0,0h4.6C130.6,169.1,130.9,169.5,130.9,169.9z"/>
	<path class="st5" d="M125.6,169.1h1.5c0.4,0,0.7,0.3,0.8,0.7l0,0v53c0,0.4-0.3,0.6-0.7,0.4l-1.7-1c-0.4-0.3-0.6-0.7-0.7-1.1v-51.2
		C124.8,169.5,125.2,169.2,125.6,169.1L125.6,169.1z"/>
	<path class="st2" d="M129,132.3c-0.2,1.5,0.9,2.9,2.4,3.1l0,0h0.3c1.4,0,2.6-1,2.7-2.4c1.6-12.7-0.7-41-6.1-56.9
		c-0.6-1.6-2.1-2-3.6-1.1l0,0c-1.1,0.7-2,1.7-1.5,2.9C128.4,92.8,130.5,120.1,129,132.3z"/>
	<path class="st6" d="M97.1,139.5c-1,0-1.7-0.8-1.8-1.7c0-0.2,0-0.4,0.1-0.6c4-12.3,24-23.3,36.9-23.3c1,0,1.8,0.8,1.8,1.8
		s-0.8,1.8-1.8,1.8c-11.6,0-30,10.1-33.5,20.9C98.5,139,97.8,139.5,97.1,139.5z"/>
	<path class="st6" d="M95.2,123.6c-0.2,0-0.4,0-0.6-0.1c-0.9-0.3-1.4-1.3-1.1-2.2c4.2-12.8,24.7-23.2,37.6-21.9c1,0.1,1.6,1,1.5,2
		c-0.1,0.9-0.9,1.6-1.9,1.5c-11.3-1.2-30.2,8.2-33.9,19.5C96.6,123.1,96,123.6,95.2,123.6z"/>
	<path class="st6" d="M91,111.2c-1,0-1.8-0.8-1.7-1.8c0-0.2,0.1-0.5,0.1-0.7c6-13.7,27.5-25,39.1-23.4c1,0.1,1.6,1,1.5,2
		s-1,1.6-2,1.5c-10.3-1.4-30,9.1-35.4,21.3C92.3,110.8,91.7,111.2,91,111.2z"/>
	<path class="st5" d="M86.8,96.2c-1.2,0.7-1.7,2.2-1.1,3.5c6.3,14.8,9.7,32.8,9.7,52.6v2.6l0.2,0.2c0.2,0.2,0.5,0.3,0.8,0.3
		c0.4,0,0.8-0.1,1.2-0.3c0.2-0.1,0.4-0.1,0.6-0.2c1.5,0,2.8-1.2,2.8-2.8l0,0c0-20.5-3.5-39.3-10.1-54.8c-0.6-1.4-2.2-2-3.6-1.4
		C87.1,96.1,87,96.1,86.8,96.2L86.8,96.2z"/>
	<path class="st4" d="M95.4,154.3v0.7c0.1,1.2,0.6,2.4,1.6,3.2l29.2,21.1c1,0.6,2.3,0.7,3.4,0.2l41.2-23.8c1-0.7,1.7-1.8,1.7-3V152
		c-0.1-1.2-0.8-2.3-1.8-2.8l-37-17.1c-1.2-0.5-2.4-0.4-3.6,0.2l-33,19.1C96.1,151.9,95.5,153,95.4,154.3z"/>
	<path class="st6" d="M97.1,151.3l33.1-19.1c1.1-0.6,2.4-0.6,3.6-0.2l37,17.1c1,0.5,1,1.3,0.1,1.8l-41.2,23.8
		c-1.1,0.5-2.3,0.5-3.4-0.2L97,153.4c-0.6-0.3-0.8-1-0.5-1.6C96.6,151.6,96.9,151.4,97.1,151.3z"/>
	<path class="st2" d="M191.2,208c6.5,9.2,11.7,11.5,13.5,13.5s0.6,5.8-4,6.6s-9.5-0.5-12.3-3.5s-4.7-6.9-7.6-9.2s-4.4-2.9-4.8-5.4
		s2.1-10,2.1-10L191.2,208z"/>
	<path class="st7" d="M188.4,194.1c-0.8,3.2-1.5,6.1,0.5,10.1c0.7,1.3,1.4,2.5,2.3,3.7c3.8,5.5,6.9,9.8,7.4,10.5s-2.9,3-6.7,1.2
		s-6.9-7.5-9.3-11c-1.1-1.6-2.1-3-2.9-4.1c-1.1-1.5-1.7-3.3-1.5-5.1l0.4-5.2L188.4,194.1z"/>
	<path class="st6" d="M167.2,219.2c6.5,9.2,11.7,11.5,13.5,13.5s0.6,5.8-4,6.5s-9.5-0.5-12.3-3.5s-4.7-6.9-7.7-9.2s-4.4-2.9-4.8-5.4
		s2.2-10,2.2-10L167.2,219.2z"/>
	<path class="st7" d="M164.4,205.4c-0.8,3.2-1.5,6.1,0.6,10.1c0.7,1.3,1.4,2.5,2.2,3.7c3.8,5.5,6.9,9.8,7.4,10.5s-2.9,3-6.7,1.2
		s-6.9-7.5-9.3-11c-1.1-1.6-2.1-3-2.9-4.1c-1.1-1.5-1.7-3.3-1.5-5.1l0.4-5.2L164.4,205.4z"/>
	<path class="st6" d="M131.6,69.1L131.6,69.1c-11,0-19.9-8.9-19.9-19.9l0,0V49c0-9.7,7.9-17.7,17.7-17.7l0,0h4.5
		c9.7,0,17.7,7.9,17.7,17.6l0,0v0.2C151.5,60.2,142.6,69.1,131.6,69.1L131.6,69.1z"/>
	<path class="st7" d="M151.4,116.6c-1.3-1.1-2.7-2.9-4.1-6.8c-0.9-2.7-9.5-26.9-10.9-32.7c0,0-1.2-1.7,2-3.8c4.3-0.5,8-0.5,11,7.5
		s9.1,26.9,9.1,26.9"/>
	<path class="st2" d="M108.8,132.3c-2.2,3.9-4,11.5-1.9,17.5c1.2,3.3,16.8,20.5,27.8,19.1c19-2.5,36.6-27.7,36.6-27.7l-25.2-14.4
		L108.8,132.3z"/>
	<g class="st8">
		<path d="M108.8,132.3c-2.2,3.9-4,11.5-1.9,17.5c1.2,3.3,16.8,20.5,27.8,19.1c19-2.5,36.6-27.7,36.6-27.7l-25.2-14.4L108.8,132.3z"
			/>
	</g>
	<path class="st2" d="M137.3,73.3c2.9-0.2,6.3-0.2,9.6,5.7c2.6,4.6,3.9,6.6,3.8,12.9c-0.1,4.6-2.9,10.1-3.5,13.7s-0.9,19.7-1,21.2
		c-4.9,5.5-11.9,8.7-19.3,8.9c-12.6,0.3-18-3.4-18-3.4l9.6-17.3L116,79.8l9.4-5.6L137.3,73.3z"/>
	<g class="st9">
		<path class="st10" d="M137.3,73.3c2.9-0.2,6.3-0.2,9.6,5.7c2.6,4.6,3.9,6.6,3.8,12.9c-0.1,4.6-2.9,10.1-3.5,13.7s-0.9,19.7-1,21.2
			c-4.9,5.5-11.9,8.7-19.3,8.9c-12.6,0.3-18-3.4-18-3.4l9.6-17.3L116,79.8l9.4-5.6L137.3,73.3z"/>
	</g>
	<path class="st7" d="M142.5,39.4c2.1,1.2,7.2,6.5,6.9,17.6c-0.2,9.4-3.3,11.7-4.8,12.4s-4.5,0.3-7.4-0.2v5.6c0,0,4,4.6,3.7,7.2
		s-5.7,3.2-9.4,0.7c-2.4-1.7-4.5-3.9-6.1-6.4V62.7c0,0-1.9,2.6-5.1,0.5s-3.3-7.3-1.4-9.2s5.8-1.3,6.6,1.3c0,0,3.9,1,10-2.4
		S142.1,43,142.5,39.4z"/>
	<path class="st6" d="M138.9,54.6c0,0.7-0.5,1.2-1.2,1.2s-1.2-0.5-1.2-1.2c0-0.6,0.5-1.2,1.1-1.2C138.3,53.5,138.9,54,138.9,54.6
		L138.9,54.6z"/>
	<path class="st6" d="M136.8,51l-2.5,1.5c-0.4-0.7-0.2-1.6,0.5-2S136.4,50.3,136.8,51L136.8,51z"/>
	<path class="st11" d="M139.2,62.6l2.8,0.9c-0.2,0.8-1,1.2-1.7,1c0,0,0,0-0.1,0C139.4,64.2,139,63.4,139.2,62.6z"/>
	<path class="st6" d="M148,53.8c0.1,0.7-0.4,1.2-1.1,1.3l0,0c-0.7,0-1.2-0.5-1.2-1.2s0.5-1.2,1.1-1.2S148,53.1,148,53.8z"/>
	<polygon class="st11" points="142.5,53.1 142.7,60.2 146.4,59.1 	"/>
	<path class="st11" d="M137.3,69.2c-2.4-0.3-7.2-1.7-8.2-3.3c0.2,1,0.8,1.9,1.6,2.6c1.6,1.5,6.6,2.6,6.6,2.6L137.3,69.2z"/>
	<path class="st6" d="M141,38.6c0,0,2.1,7.2-0.4,14c0,0,9.1,0.6,9.6-6.3c0,0-0.4-5.6-4.4-9L141,38.6z"/>
	<path class="st6" d="M120,30.4c3.2,2.8,0.6,5.6-2.5,8.9s-5.3,6.2-8.5,3.3c-3.2-3.2-3.2-8.5,0-11.7C112,28.1,116.7,27.8,120,30.4
		L120,30.4z"/>
	<path class="st4" d="M186.9,231.9v68.4c0,0.6,0.4,1.2,0.9,1.5l2.3,1.3c0.5,0.3,1.2,0.3,1.7,0l2.3-1.3c0.5-0.3,0.8-0.9,0.9-1.5
		v-68.4c0-0.6-0.4-1-1-1h-6.1C187.3,230.9,186.9,231.3,186.9,231.9z"/>
	<path class="st5" d="M194,230.9h-2c-0.6,0-1,0.4-1,1v70.7c0,0.5,0.4,0.8,0.9,0.5l2.3-1.3c0.5-0.3,0.8-0.9,0.9-1.5v-68.4
		C195.1,231.3,194.6,230.9,194,230.9L194,230.9z"/>
	<path class="st4" d="M292.5,170.9v68.4c0,0.6,0.4,1.2,0.9,1.5l2.3,1.4c0.5,0.3,1.2,0.3,1.7,0l2.3-1.4c0.5-0.3,0.8-0.9,0.9-1.5
		v-68.4c0-0.6-0.4-1-1-1h-6.1C293,169.9,292.5,170.4,292.5,170.9z"/>
	<path class="st5" d="M299.6,169.9h-2.1c-0.6,0-1,0.4-1,1v70.7c0,0.5,0.4,0.8,0.9,0.5l2.3-1.4c0.5-0.3,0.8-0.9,0.9-1.5v-68.4
		C300.6,170.4,300.2,169.9,299.6,169.9z"/>
	<path class="st6" d="M93.5,177.9v68.4c0,0.6,0.4,1.2,0.9,1.5l2.3,1.4c0.5,0.3,1.2,0.3,1.7,0l2.3-1.4c0.5-0.3,0.8-0.9,0.9-1.5v-68.4
		c0-0.6-0.4-1-1-1h-6.1C93.9,176.9,93.5,177.4,93.5,177.9z"/>
	<path class="st4" d="M100.6,176.9h-2.1c-0.6,0-1,0.4-1,1v70.7c0,0.5,0.4,0.8,0.9,0.5l2.3-1.4c0.5-0.3,0.8-0.9,0.9-1.5v-68.4
		C101.6,177.4,101.2,176.9,100.6,176.9L100.6,176.9z"/>
	<path class="st6" d="M189.2,236.9l-98.1-56.6c-1-0.7-1.7-1.8-1.7-3v-0.7c0.1-1.2,0.7-2.3,1.7-3l110.3-63.7c1.1-0.5,2.4-0.5,3.5,0
		l98.1,56.6c1,0.7,1.7,1.8,1.7,3v0.7c-0.1,1.2-0.7,2.3-1.7,3l-110.3,63.7C191.6,237.5,190.3,237.5,189.2,236.9z"/>
	<path class="st4" d="M191,116l-99.8,57.6c-1,0.7-1.7,1.8-1.7,3v0.7c0.1,1.2,0.7,2.3,1.7,3l98.1,56.6c0.5,0.3,1.1,0.4,1.7,0.4
		L191,116z"/>
	<path class="st5" d="M189.2,232.2l-98.1-56.6c-1-0.6-1-1.4,0-2l110.3-63.7c1.1-0.5,2.4-0.5,3.5,0l98.1,56.6
		c0.6,0.2,0.9,0.8,0.7,1.3c-0.1,0.3-0.4,0.6-0.7,0.7l-110.3,63.7C191.6,232.8,190.3,232.8,189.2,232.2z"/>
	<path class="st12" d="M143.6,157.6v1c0,1,0.5,2,1.4,2.5l27.3,15.7c0.9,0.5,2,0.5,2.9,0l50.1-29c0.9-0.5,1.4-1.5,1.4-2.5v-0.7
		l-53,30.6L143.6,157.6z"/>
	<path class="st13" d="M226.8,144.7l-29.7-17.2c-0.5-0.3-1.2-0.3-1.7,0l-51.6,29.8c-0.2,0.1-0.2,0.3-0.1,0.5c0,0.1,0.1,0.1,0.1,0.1
		l30,17.3L226.8,144.7z"/>
	<polygon class="st12" points="173.5,172.8 157.5,163.6 204.4,136.5 220.5,145.7 	"/>
	<polygon class="st14" points="165.7,147.1 165.9,147.2 173.8,151.8 187.8,143.7 188.1,143.5 179.9,138.8 	"/>
	<path class="st7" d="M158.5,107.7c0,0,7.7,6.4,16.6,13.5c4,3.2,8.5,6.4,12.2,6.8c2.9,0.3,8.1,0.5,9.2,1.5s4.3,6.3,5.4,8.1
		s0.4,5.8-3,6s-4.8-2.1-6.2-3.6c-0.8-0.8-1.6-1.6-2.5-2.2c0,0-3.5,0.2-5.5-1s-3.1-1.9-3.1-1.9c-6.9-3.9-24.5-13.6-30.1-18.2"/>
	<polygon class="st12" points="165.9,147.2 173.8,151.8 187.8,143.7 179.9,139.2 	"/>
	<path class="st14" d="M173.8,175.3v1.9c0.5,0,1-0.1,1.4-0.4l50.1-29c0.9-0.5,1.4-1.5,1.4-2.5v-0.7L173.8,175.3z"/>
	<path class="st1" d="M174.6,175.7c1,0.4,2,0.3,2.9-0.2l49.9-28.8c0.9-0.5,1.5-1.4,1.6-2.4l5.5-32.6c0.2-1.1-0.2-2.2-1-3l-51.9,30
		c-0.6,0.4-1.1,1-1.2,1.8L174.6,175.7z"/>
	<path class="st0" d="M173.8,175.3l0.3,0.2c0.2,0.1,0.3,0.2,0.5,0.2l5.9-35.2c0.1-0.7,0.6-1.4,1.2-1.8l51.9-30
		c-0.2-0.2-0.4-0.4-0.7-0.5l-52,30c-0.6,0.4-1.1,1-1.2,1.8L173.8,175.3z"/>
	<path class="st14" d="M202.7,145.6c0.4-2.2,2.6-5.1,5-6.5s4.1-0.8,3.7,1.4s-2.6,5.1-5,6.5S202.4,147.8,202.7,145.6z"/>
	<polygon class="st2" points="142.2,176.9 138.2,179.3 142.2,181.6 146.3,179.3 	"/>
	<path class="st2" d="M123,183.5l14.5-8.4c0.5-0.3,1.2-0.3,1.7,0l10.4,6c0.5,0.3,0.8,0.9,0.9,1.5v0.3c0,0.6-0.4,1.2-0.9,1.5
		l-14.5,8.4c-0.5,0.3-1.2,0.3-1.7,0l-10.4-6c-0.5-0.3-0.8-0.9-0.9-1.5v-0.4C122.2,184.4,122.5,183.8,123,183.5z"/>
	<path class="st2" d="M133.4,190.5l-10.4-6c-0.5-0.3-0.5-0.7,0-1l14.5-8.4c0.5-0.3,1.2-0.3,1.7,0l10.4,6c0.3,0.1,0.4,0.4,0.3,0.7
		c-0.1,0.2-0.2,0.3-0.3,0.3l-14.5,8.4C134.6,190.8,134,190.8,133.4,190.5z"/>
	<g class="st15">
		<path class="st10" d="M133.4,190.5l-10.4-6c-0.5-0.3-0.5-0.7,0-1l14.5-8.4c0.5-0.3,1.2-0.3,1.7,0l10.4,6c0.3,0.1,0.4,0.4,0.3,0.7
			c-0.1,0.2-0.2,0.3-0.3,0.3l-14.5,8.4C134.6,190.8,134,190.8,133.4,190.5z"/>
	</g>
	<path class="st2" d="M137.3,176.8c-0.6,0.3-0.6,0.9,0,1.2c0.7,0.3,1.4,0.3,2.1,0c0.6-0.3,0.6-0.9,0-1.2
		C138.7,176.5,138,176.5,137.3,176.8z"/>
	<path class="st2" d="M133.2,179.1c-0.6,0.3-0.6,0.9,0,1.2c0.7,0.3,1.4,0.3,2.1,0c0.6-0.3,0.6-0.9,0-1.2S133.9,178.8,133.2,179.1z"
		/>
	<g class="st3">
		<path d="M137.3,176.8c-0.6,0.3-0.6,0.9,0,1.2c0.7,0.3,1.4,0.3,2.1,0c0.6-0.3,0.6-0.9,0-1.2C138.7,176.5,138,176.5,137.3,176.8z"/>
	</g>
	<g class="st3">
		<path d="M133.2,179.1c-0.6,0.3-0.6,0.9,0,1.2c0.7,0.3,1.4,0.3,2.1,0c0.6-0.3,0.6-0.9,0-1.2S133.9,178.8,133.2,179.1z"/>
	</g>
	<path class="st2" d="M123.5,188.4c-0.2,0-0.3-0.1-0.4-0.2c-0.1-0.2,0-0.5,0.2-0.7l1.6-0.9c0.2-0.1,0.5-0.1,0.7,0.2
		c0.1,0.2,0.1,0.5-0.2,0.7l0,0l-1.6,0.9C123.7,188.4,123.6,188.4,123.5,188.4z"/>
	<path class="st2" d="M123.5,188.9c-0.6,0-1-0.4-1-1v-15.6c0-0.6,0.4-1,1-1s1,0.4,1,1v15.6C124.5,188.4,124,188.9,123.5,188.9z"/>
	<g class="st3">
		<path d="M123.5,188.4c-0.2,0-0.3-0.1-0.4-0.2c-0.1-0.2,0-0.5,0.2-0.7l1.6-0.9c0.2-0.1,0.5-0.1,0.7,0.2c0.1,0.2,0.1,0.5-0.2,0.7
			l0,0l-1.6,0.9C123.7,188.4,123.6,188.4,123.5,188.4z"/>
		<path d="M123.5,188.9c-0.6,0-1-0.4-1-1v-15.6c0-0.6,0.4-1,1-1s1,0.4,1,1v15.6C124.5,188.4,124,188.9,123.5,188.9z"/>
	</g>
	<path class="st16" d="M150.5,186.6c-0.4,0-0.7-0.1-1-0.3l-2.3-1.4c-0.2-0.1-0.3-0.4-0.2-0.7l0,0c0.1-0.2,0.4-0.3,0.7-0.2l2.3,1.4
		c0.3,0.2,0.6,0.2,0.9,0l19.4-11.1c0.2-0.1,0.5-0.1,0.7,0.2s0.1,0.5-0.2,0.7l-19.3,11.1C151.2,186.5,150.9,186.6,150.5,186.6z"/>
	<path class="st2" d="M135.4,169.6c0,1.5-1.2,2.8-2.7,2.8s-2.8-1.2-2.8-2.7s1.2-2.8,2.7-2.8l0,0
		C134.2,166.9,135.4,168.1,135.4,169.6z"/>
	<path class="st2" d="M132.7,162.4c-2.7,0-5.1,1.5-6.4,3.8c-0.2,0.5-0.1,1,0.3,1.4l0,0c0.5,0.4,1.1,0.3,1.5-0.2l0.1-0.1
		c1.3-2.5,4.4-3.4,6.9-2.1c0.9,0.5,1.7,1.2,2.1,2.1c0.3,0.5,0.9,0.7,1.4,0.4c0.1,0,0.1-0.1,0.2-0.1l0,0c0.4-0.3,0.5-0.9,0.3-1.4
		C137.8,163.8,135.3,162.4,132.7,162.4z"/>
	<path class="st2" d="M132.7,158c-4,0-7.7,2-9.8,5.4c-0.3,0.5-0.2,1.1,0.2,1.4l0,0c0.5,0.4,1.1,0.3,1.5-0.2c0,0,0-0.1,0.1-0.1
		c2.8-4.4,8.7-5.7,13.1-2.9c1.2,0.7,2.2,1.7,2.9,2.9c0.3,0.5,1,0.7,1.5,0.3c0,0,0.1,0,0.1-0.1l0,0c0.4-0.4,0.5-1,0.2-1.4
		C140.3,160,136.6,158,132.7,158z"/>
	<path class="st7" d="M150.4,152.4c-6.9-3.9-21.6-14.3-27.3-18.9c-1.3-1.1-3-1.7-3.9-5.8c-0.6-2.8-7.6-26.4-8.9-34.8
		c-1.2-8.3,2.5-11,5.7-13.1c4.6,3.6,4.7,8.1,6.8,15.6c2.3,8.3,7.3,29.1,7.3,29.1s6.7,6.6,14.3,14c3.7,3.6,8,6.6,11.6,6.9
		c2.9,0.3,8.1,0.5,9.2,1.6s4.3,6.3,5.4,8s0.4,5.8-3,6s-4.8-2.1-6.2-3.6c-0.8-0.8-1.6-1.6-2.5-2.3c0,0-3.5,0.2-5.5-1
		S150.4,152.4,150.4,152.4z"/>
	<path class="st14" d="M202.3,107.6c-3.4-1.1-7.2-1.1-10.6,0c-2.9,1.1-2.9,2.9,0,4c3.4,1.1,7.2,1.1,10.6,0
		C205.3,110.5,205.3,108.7,202.3,107.6z"/>
	<path class="st2" d="M204.8,102.8h-15.5l1.2,18.2l0,0c0.1,0.7,0.7,1.3,1.9,1.8c3,1.1,6.3,1.1,9.3,0c1.2-0.5,1.9-1.2,1.9-1.8l0,0
		L204.8,102.8z"/>
	<path class="st2" d="M189.3,102.8l0.2,3.7c0.4,0.3,0.8,0.5,1.3,0.7c4,1.4,8.3,1.4,12.3,0l0.4-0.2c0.3-0.2,0.7-0.3,1-0.5l0.2-3.7
		H189.3z"/>
	<path class="st17" d="M189.3,102.8l0.2,3.7c0.4,0.3,0.8,0.5,1.3,0.7c4,1.4,8.3,1.4,12.3,0l0.4-0.2c0.3-0.2,0.7-0.3,1-0.5l0.2-3.7
		H189.3z"/>
	<path class="st2" d="M205.8,103.3v-2.8H204c-0.2-0.1-0.5-0.2-0.8-0.4c-4-1.4-8.3-1.4-12.3,0c-0.3,0.1-0.5,0.2-0.8,0.4h-1.8v2.8l0,0
		c0,0.9,0.8,1.8,2.5,2.5c4,1.4,8.3,1.4,12.3,0C204.9,105.1,205.8,104.2,205.8,103.3z"/>
	<g class="st15">
		<path class="st10" d="M205.8,103.3v-2.8H204c-0.2-0.1-0.5-0.2-0.8-0.4c-4-1.4-8.3-1.4-12.3,0c-0.3,0.1-0.5,0.2-0.8,0.4h-1.8v2.8
			l0,0c0,0.9,0.8,1.8,2.5,2.5c4,1.4,8.3,1.4,12.3,0C204.9,105.1,205.8,104.2,205.8,103.3z"/>
	</g>
	<path class="st2" d="M203.2,98c-4-1.4-8.3-1.4-12.3,0c-3.3,1.4-3.3,3.6,0,5c4,1.4,8.3,1.4,12.3,0C206.6,101.7,206.6,99.4,203.2,98z
		"/>
	<path class="st18" d="M203.2,98c-4-1.4-8.3-1.4-12.3,0c-3.3,1.4-3.3,3.6,0,5c4,1.4,8.3,1.4,12.3,0C206.6,101.7,206.6,99.4,203.2,98
		z"/>
	<path class="st2" d="M201.7,98.4c-3-0.9-6.2-0.9-9.3,0c-2.5,0.9-2.5,2.5,0,3.4c3,0.9,6.2,0.9,9.3,0
		C204.3,100.9,204.3,99.3,201.7,98.4z"/>
	<path class="st19" d="M201.7,98.4c-3-0.9-6.2-0.9-9.3,0c-2.5,0.9-2.5,2.5,0,3.4c3,0.9,6.2,0.9,9.3,0
		C204.3,100.9,204.3,99.3,201.7,98.4z"/>
	<polygon class="st2" points="203.6,99.8 202.9,97.2 191.3,97.2 190.6,99.8 	"/>
	<polygon class="st19" points="203.6,99.8 202.9,97.2 191.3,97.2 190.6,99.8 	"/>
	<path class="st2" d="M201.1,95.9c-2.7-0.8-5.6-0.8-8.2,0c-2.2,0.8-2.2,2.2,0,3.1c2.7,0.8,5.6,0.8,8.2,0
		C203.5,98.1,203.5,96.8,201.1,95.9z"/>
	<path class="st20" d="M202.1,97.4c0,0-0.1,0.1-0.2,0.3c-0.3,0.2-0.6,0.4-1,0.5c-1.3,0.4-2.6,0.6-3.9,0.6c-1.3,0-2.6-0.2-3.8-0.6
		c-0.3-0.1-0.6-0.3-0.9-0.5c-0.2-0.1-0.2-0.3-0.2-0.3s0.2-0.4,1.1-0.8c1.2-0.4,2.5-0.6,3.8-0.6s2.6,0.2,3.9,0.6
		C201.8,97,202.1,97.4,202.1,97.4z"/>
	<path class="st17" d="M202.1,97.4c0,0-0.1,0.1-0.2,0.3c-0.3,0.2-0.6,0.4-1,0.5c-1.3,0.4-2.6,0.6-3.9,0.6c-1.3,0-2.6-0.2-3.8-0.6
		c-0.3-0.1-0.6-0.3-0.9-0.5c-0.2-0.1-0.2-0.3-0.2-0.3s0.2-0.4,1.1-0.8c1.2-0.4,2.5-0.6,3.8-0.6s2.6,0.2,3.9,0.6
		C201.8,97,202.1,97.4,202.1,97.4z"/>
	<path class="st2" d="M201.8,97.7c-0.3,0.2-0.6,0.4-1,0.5c-1.3,0.4-2.6,0.6-3.9,0.6c-1.3,0-2.6-0.2-3.8-0.6
		c-0.3-0.1-0.6-0.3-0.9-0.5c0.3-0.2,0.6-0.4,0.9-0.5c1.2-0.4,2.5-0.6,3.8-0.6s2.6,0.2,3.9,0.6C201.2,97.4,201.5,97.5,201.8,97.7z"/>
	<path class="st2" d="M199.5,97.8c0.3-0.2,0.6-0.2,0.9-0.2c0.2,0.1,0,0.3-0.3,0.5s-0.6,0.2-0.9,0.2C199,98.2,199.2,98,199.5,97.8z"
		/>
	<path class="st17" d="M199.5,97.8c0.3-0.2,0.6-0.2,0.9-0.2c0.2,0.1,0,0.3-0.3,0.5s-0.6,0.2-0.9,0.2C199,98.2,199.2,98,199.5,97.8z"
		/>
	<path class="st2" d="M190,116.2c0,0.7,0.7,1.4,2,1.9c3.3,1,6.7,1,10,0c1.4-0.5,2.1-1.2,2.1-1.9l0.4-6.6c0,0.7-0.8,1.4-2.2,2
		c-3.4,1.1-7.2,1.1-10.6,0c-1.4-0.6-2.2-1.3-2.2-2L190,116.2z"/>
	<path class="st21" d="M190,116.2c0,0.7,0.7,1.4,2,1.9c3.3,1,6.7,1,10,0c1.4-0.5,2.1-1.2,2.1-1.9l0.4-6.6c0,0.7-0.8,1.4-2.2,2
		c-3.4,1.1-7.2,1.1-10.6,0c-1.4-0.6-2.2-1.3-2.2-2L190,116.2z"/>
	<path class="st2" d="M196.1,116.6c-0.2-0.4-0.4-0.7-0.6-1.1c-0.4-0.7-1-1.2-1.7-1.5c-0.1,0-0.2,0-0.3,0.1c-0.4,1.4,0.3,2.8,1.7,3.3
		c0.5,0.2,1,0.2,1.5,0c0,0,0.1-0.1,0-0.1C196.5,117,196.3,116.8,196.1,116.6z"/>
	<path class="st2" d="M194.2,113.7c0.4,0.2,0.8,0.4,1.1,0.7s0.6,0.7,0.8,1.1c0.2,0.5,0.6,1,1,1.3c0.1,0.1,0.2,0.1,0.3,0l0,0
		c0.5-0.9,0.3-2.1-0.5-2.8c-0.7-0.8-1.7-1-2.7-0.6C194.1,113.5,194.1,113.6,194.2,113.7L194.2,113.7z"/>
</g>
</svg>
