<?xml version="1.0" encoding="utf-8"?>
<!-- Generator: Adobe Illustrator 24.3.0, SVG Export Plug-In . SVG Version: 6.00 Build 0)  -->
<svg version="1.1" id="layer" xmlns="http://www.w3.org/2000/svg" xmlns:xlink="http://www.w3.org/1999/xlink" x="0px" y="0px"
	 viewBox="0 0 511 511" style="enable-background:new 0 0 511 511;" xml:space="preserve">
<style type="text/css">
	.st0{fill:url(#SVGID_1_);}
	.st1{fill:#FFFFFF;}
	.st2{fill:#8F8F8F;}
	.st3{fill:#BFBFBF;}
	.st4{fill:#E94424;}
	.st5{fill:#4C4948;}
	.st6{fill:url(#SVGID_2_);}
</style>
<g>
	
		<linearGradient id="SVGID_1_" gradientUnits="userSpaceOnUse" x1="32.288" y1="262.0571" x2="478.7277" y2="262.0571" gradientTransform="matrix(1 0 -0.1763 1 46.2087 0)">
		<stop  offset="0" style="stop-color:#FFD300"/>
		<stop  offset="0.3691" style="stop-color:#F7A901"/>
		<stop  offset="0.7813" style="stop-color:#EF8103"/>
		<stop  offset="0.9944" style="stop-color:#EC7103"/>
	</linearGradient>
	<path class="st0" d="M59.45,108.04L5.13,416.08h446.44l54.32-308.04H59.45z M449.56,386.55H19.58l47.6-269.93h429.98L449.56,386.55
		z"/>
	<polygon class="st1" points="30.71,406.56 27.2,406.56 29.18,395.33 32.69,395.33 	"/>
	<polygon class="st1" points="36.99,406.56 33.48,406.56 35.46,395.33 38.97,395.33 	"/>
	<polygon class="st1" points="57.77,396.53 56.25,405.17 62.85,400.85 	"/>
	<polygon class="st1" points="65.19,404.74 63.24,404.74 64.69,396.53 66.64,396.53 	"/>
	<polygon class="st1" points="79.02,402.7 79.75,398.57 82.85,398.57 86.67,395.32 84.77,406.1 81.97,402.7 	"/>
	<path class="st1" d="M86.41,406.83c2.97-0.69,5.45-3.27,5.96-6.2c0.52-2.93-1.05-5.51-3.78-6.2l-0.26,1.48
		c1.62,0.78,2.53,2.43,2.35,4.28c-0.21,2.17-1.89,4.28-4.16,5.17L86.41,406.83z"/>
	<path class="st1" d="M87.68,397.98l-1.02,5.76l0.2-0.1C89.31,402.36,89.78,399.11,87.68,397.98L87.68,397.98z"/>
	<g>
		<path class="st1" d="M104.49,403.81l0.99-5.61h-0.02l-1.13,0.59l-0.08-0.52l1.42-0.73h0.59l-1.1,6.27H104.49z"/>
		<path class="st1" d="M108.52,399.97c0.05-0.31,0.3-0.54,0.59-0.54c0.3,0,0.45,0.23,0.4,0.54c-0.05,0.3-0.29,0.54-0.59,0.54
			C108.61,400.5,108.48,400.24,108.52,399.97z M107.92,403.39c0.05-0.31,0.3-0.54,0.59-0.54c0.3,0,0.45,0.23,0.4,0.54
			c-0.05,0.29-0.29,0.53-0.59,0.53C108,403.91,107.87,403.66,107.92,403.39z"/>
		<path class="st1" d="M113.7,403.81H110l0.08-0.43l0.72-0.64c1.75-1.51,2.67-2.42,2.85-3.44c0.12-0.67-0.07-1.29-0.97-1.29
			c-0.5,0-1,0.28-1.35,0.52l-0.15-0.48c0.45-0.34,1.06-0.61,1.73-0.61c1.26,0,1.6,0.92,1.45,1.78c-0.21,1.18-1.21,2.18-2.74,3.49
			l-0.58,0.52l0,0.02h2.77L113.7,403.81z"/>
		<path class="st1" d="M117.84,400.43c0.71,0.12,1.24,0.72,1.08,1.62c-0.18,0.99-1.05,1.87-2.45,1.87c-0.63,0-1.16-0.2-1.41-0.4
			l0.3-0.54c0.2,0.15,0.66,0.38,1.21,0.38c1.05,0,1.53-0.74,1.63-1.31c0.16-0.92-0.54-1.34-1.36-1.34h-0.41l0.09-0.52h0.41
			c0.6,0,1.45-0.38,1.59-1.16c0.1-0.54-0.15-1.01-0.9-1.01c-0.46,0-0.93,0.23-1.22,0.41l-0.12-0.51c0.34-0.23,0.97-0.47,1.57-0.47
			c1.15,0,1.53,0.73,1.4,1.48c-0.11,0.64-0.63,1.22-1.4,1.48L117.84,400.43z"/>
		<path class="st1" d="M122.5,404.19h-0.56l3.86-6.85h0.58L122.5,404.19z"/>
		<path class="st1" d="M131.56,403.81h-0.66l0.31-1.76h-2.74l0.08-0.44l3.39-4.07h0.72l-0.7,3.97h0.85l-0.09,0.54h-0.85
			L131.56,403.81z M129.27,401.52h2.03l0.39-2.23c0.06-0.34,0.14-0.68,0.21-1h-0.03c-0.26,0.38-0.46,0.65-0.67,0.94l-1.93,2.27
			L129.27,401.52z"/>
		<path class="st1" d="M134.21,399.97c0.05-0.31,0.3-0.54,0.59-0.54c0.3,0,0.45,0.23,0.4,0.54c-0.05,0.3-0.29,0.54-0.59,0.54
			C134.29,400.5,134.16,400.24,134.21,399.97z M133.6,403.39c0.05-0.31,0.3-0.54,0.59-0.54c0.3,0,0.45,0.23,0.4,0.54
			c-0.05,0.29-0.29,0.53-0.59,0.53C133.69,403.91,133.55,403.66,133.6,403.39z"/>
		<path class="st1" d="M140.26,397.55l-0.1,0.58h-2.25l-0.57,1.77c0.14-0.02,0.27-0.03,0.49-0.03c1.11,0,1.99,0.66,1.77,1.92
			c-0.22,1.24-1.3,2.12-2.53,2.12c-0.63,0-1.12-0.18-1.37-0.37l0.3-0.54c0.21,0.16,0.63,0.35,1.18,0.35c0.79,0,1.57-0.58,1.72-1.48
			c0.15-0.86-0.29-1.46-1.46-1.46c-0.33,0-0.6,0.03-0.81,0.06l0.91-2.92H140.26z"/>
		<path class="st1" d="M141.94,400.49c0.36-0.42,0.93-0.77,1.6-0.77c1.06,0,1.63,0.79,1.42,2c-0.2,1.15-1.09,2.19-2.31,2.19
			c-1.22,0-1.86-1.01-1.58-2.64c0.3-1.68,1.39-3.44,3.48-3.77c0.24-0.03,0.45-0.06,0.6-0.06l-0.09,0.58c-1.74,0-2.79,1.26-3.15,2.47
			H141.94z M144.25,401.77c0.17-0.96-0.25-1.52-1-1.52c-0.74,0-1.42,0.72-1.51,1.19c-0.19,1.15,0.15,1.93,1.02,1.93
			C143.49,403.37,144.08,402.72,144.25,401.77z"/>
	</g>
	<polygon class="st2" points="449.29,388.06 19.31,388.06 20.25,382.74 450.23,382.74 	"/>
	<polygon class="st3" points="214.21,388.06 19.31,388.06 20.25,382.74 215.15,382.74 	"/>
	<polygon class="st4" points="156.37,388.06 19.31,388.06 20.25,382.74 157.31,382.74 	"/>
	<path class="st1" d="M415.08,405.49h-13.92l1.65-9.36h13.92L415.08,405.49z M402.39,404.44h11.82l1.28-7.26h-11.82L402.39,404.44z"
		/>
	<polygon class="st1" points="429.77,399.18 428.73,399.18 429.39,395.43 433.13,395.43 432.95,396.48 430.25,396.48 	"/>
	<polygon class="st1" points="439.62,399.18 438.58,399.18 439.05,396.48 436.35,396.48 436.54,395.43 440.28,395.43 	"/>
	<polygon class="st1" points="431.27,405.98 427.53,405.98 428.19,402.23 429.23,402.23 428.76,404.93 431.46,404.93 	"/>
	<polygon class="st1" points="438.42,405.98 434.68,405.98 434.86,404.93 437.56,404.93 438.04,402.23 439.09,402.23 	"/>
</g>
<path class="st5" d="M120.11,254.03h25.9l-4.6,20.5h-21.4v55.7h-23.1v-75.3c0-5.1,0.5-10.2,1.6-15.2c1-4.5,3-8.8,5.9-12.4
	c3-3.6,6.9-6.4,11.3-8.1c4.6-1.9,10.3-2.8,17-2.8c10.7,0,21.3,1,21.3,1l-0.1,0.8l-4.3,19.4c-2.9-0.3-8.5-0.8-12.4-0.8
	c-14.8,0-15.9,8-16.4,10.7C120.41,249.63,120.21,251.83,120.11,254.03z M309.41,276.13c-1-4.5-3-8.8-5.9-12.4
	c-3-3.6-6.9-6.4-11.3-8.1c-4.6-1.9-10.3-2.8-17-2.8c-6.4,0-12.8,0.4-19.1,1.4c-4.7,0.7-9.4,1.7-14,2.9l-1.8,0.5v72.7h23.1v-55.7
	c1-0.1,4.4-0.9,5.7-1c4.3-0.5,8.3-0.4,11.6,0.9c1.6,0.6,3,1.7,4,3.1c1.2,1.9,2,4.1,2.3,6.3c0.6,3.4,0.8,6.9,0.8,10.3v36h23.1v-38.9
	C311.11,286.23,310.51,281.13,309.41,276.13L309.41,276.13z M228.31,292.13c0,21.7-17.6,39.4-39.4,39.4c-21.7,0-39.4-17.6-39.4-39.4
	s17.6-39.3,39.4-39.4l0,0C210.61,252.83,228.31,270.43,228.31,292.13L228.31,292.13z M207.61,292.03c0-10.4-8.4-18.7-18.8-18.7
	c-10.4,0-18.7,8.4-18.7,18.8s8.4,18.7,18.8,18.7C199.31,310.83,207.61,302.43,207.61,292.03L207.61,292.03z"/>
<g>
	
		<linearGradient id="SVGID_2_" gradientUnits="userSpaceOnUse" x1="373.6585" y1="147.7931" x2="373.6585" y2="251.4931" gradientTransform="matrix(1 0 0 -1 0 419.125)">
		<stop  offset="0" style="stop-color:#EE7800"/>
		<stop  offset="0.0556" style="stop-color:#F08400"/>
		<stop  offset="0.2162" style="stop-color:#F6A300"/>
		<stop  offset="0.385" style="stop-color:#FABB00"/>
		<stop  offset="0.5636" style="stop-color:#FDCC00"/>
		<stop  offset="0.7585" style="stop-color:#FED600"/>
		<stop  offset="1" style="stop-color:#FFD900"/>
	</linearGradient>
	<path class="st6" d="M417.01,209.13c0.5,0,1.1,0.2,1.8,0.7c0.6,0.4,0.9,1,0.9,1.8v11.8c0,0.8-0.3,1.4-0.9,1.8
		c-0.6,0.4-1.2,0.7-1.8,0.7h-22.7v27.6h24.3c0.5,0,1.1,0.2,1.7,0.6c0.6,0.4,0.9,1,0.9,1.7v13.1c0,0.8-0.3,1.3-0.9,1.8
		c-0.6,0.4-1.2,0.6-1.7,0.6h-40.3c-0.8,0-1.3-0.3-1.8-0.8c-0.4-0.5-0.6-1.1-0.6-1.6v-43h-7.8l-20.9,41.4c-0.3,0.5-0.7,1-1.4,1.6
		c-0.7,0.5-1.4,0.8-2.2,0.8h-8.3h-7.4c-0.7,0-1.2-0.3-1.3-0.9c-0.1-0.6,0-1.1,0.3-1.5l21-41.5h-19.2c-0.5,0-1.1-0.2-1.7-0.6
		c-0.6-0.4-0.9-1-0.9-1.8v-11.9c0-0.8,0.3-1.4,0.9-1.8c0.6-0.4,1.1-0.6,1.7-0.6h36.7v-39.1c0-0.5,0.2-1.1,0.6-1.6s1-0.8,1.8-0.8
		h12.5c0.8,0,1.3,0.3,1.8,0.8c0.4,0.5,0.6,1.1,0.6,1.6v39.1H417.01z M344.51,204.23c-0.8,0-1.5-0.3-2.1-0.8
		c-0.6-0.6-1.1-1.1-1.3-1.6l-10.5-23.7c-0.3-0.4-0.3-0.9-0.1-1.5c0.2-0.6,0.7-0.9,1.4-0.9h14.4c0.8,0,1.5,0.3,2.1,0.8
		c0.7,0.5,1.1,1.1,1.3,1.6l10.4,23.7c0.3,0.4,0.3,0.9,0.1,1.5c-0.2,0.6-0.7,0.9-1.4,0.9C358.81,204.23,344.51,204.23,344.51,204.23z
		 M403.91,204.23h-14.4c-0.8,0-1.2-0.3-1.4-0.9c-0.2-0.6-0.2-1.1,0.1-1.5l10.5-23.7c0.2-0.5,0.6-1.1,1.3-1.6
		c0.7-0.5,1.4-0.8,2.1-0.8h14.5c0.7,0,1.2,0.3,1.4,0.9c0.2,0.6,0.2,1.1-0.1,1.5l-10.4,23.7c-0.2,0.5-0.7,1-1.3,1.6
		C405.41,203.93,404.61,204.23,403.91,204.23z"/>
</g>
</svg>
