<?xml version="1.0" encoding="utf-8"?>
<!-- Generator: Adobe Illustrator 25.0.1, SVG Export Plug-In . SVG Version: 6.00 Build 0)  -->
<svg version="1.1" id="layer" xmlns="http://www.w3.org/2000/svg" xmlns:xlink="http://www.w3.org/1999/xlink" x="0px" y="0px"
	 viewBox="0 0 511 511" style="enable-background:new 0 0 511 511;" xml:space="preserve">
<style type="text/css">
	.st0{fill:#E9E9E9;}
	.st1{fill:#DBDBDA;}
	.st2{fill:#F8F8F8;}
	.st3{fill:#B7A771;}
	.st4{fill:#404040;}
	.st5{fill:#98BFC7;}
	.st6{fill:#F9E0CA;}
	.st7{fill:#CFC5A0;}
	.st8{fill:#CCCCCC;}
	.st9{fill:#728F95;}
	.st10{fill:#EBFFFF;}
	.st11{fill:url(#SVGID_1_);}
</style>
<path class="st0" d="M284.18,4.78l193.46,33.1c3.86,0.66,6.47,4.3,5.87,8.16l-20.23,130.52l-3.85,24.86
	c-0.19,1.22-0.74,2.27-1.52,3.08c0.44-2.92,1.32-8.61,2.47-16.15l-182.63-59.97l0.05-9.07l0.65-109.73
	C278.47,6.55,281.2,4.27,284.18,4.78z"/>
<path class="st0" d="M457.91,204.5v0.01c-1.5,1.56-3.83,2.23-6.05,1.46l-66.34-23.08l-40.65-14.14l-61.68-21.46
	c-3.32-1.15-5.53-4.28-5.51-7.79l0.07-11.12l182.63,59.97C459.23,195.89,458.35,201.58,457.91,204.5z"/>
<path class="st1" d="M385.52,182.9c-2.92,2.59-10.16,7.27-14.51,10.01c-2.16,1.37-4.86,1.63-7.26,0.71l-35.48-13.58
	c-1.52-0.58-1.59-2.7-0.13-3.39l16.73-7.89v-0.01l40.65,14.14V182.9z"/>
<path class="st2" d="M382.49,267.28l-41.63-20.78c-0.63-0.32-0.65-1.22-0.03-1.56l24.15-13.33c0.76-0.42,1.68-0.46,2.47-0.1
	l43.01,19.4c0.48,0.22,0.51,0.89,0.05,1.16l-26.52,15.17C383.53,267.51,382.96,267.52,382.49,267.28z"/>
<polygon class="st2" points="351.01,229.17 347.39,231.4 342.34,229.35 346,227.18 "/>
<polygon class="st2" points="347.39,231.4 343.46,233.81 338.35,231.71 342.34,229.35 "/>
<polygon class="st2" points="343.46,233.81 339.37,236.32 334.34,234.09 338.35,231.71 "/>
<polygon class="st2" points="339.37,236.32 335.34,238.8 330.12,236.58 334.34,234.09 "/>
<polygon class="st2" points="335.86,222.7 331.26,225.45 326.06,223.46 330.84,220.75 "/>
<polygon class="st2" points="331.11,215.92 344.16,221.52 343.65,222.72 335.07,227.62 334.55,226.71 331.26,225.45 335.86,222.7 
	330.84,220.75 326.06,223.46 322.65,222.16 322.35,221.61 330.64,217.01 "/>
<path class="st2" d="M360.95,231.16l-23.27,13.02c-0.41,0.23-0.9,0.25-1.32,0.06l-10.03-4.49l0.56-1.25l3.23-1.92l5.22,2.22
	l4.03-2.48l4.09-2.51l3.93-2.41l3.62-2.23l3.9-2.39l0.23-0.54l5.79,2.49c0.28,0.12,0.45,0.38,0.45,0.69v1.01
	C361.38,230.73,361.22,231.01,360.95,231.16z"/>
<polygon class="st2" points="321.7,216.51 317.46,218.91 312.86,216.84 317.19,214.49 "/>
<polygon class="st2" points="317.46,218.91 313.33,221.25 308.56,219.17 312.86,216.84 "/>
<polygon class="st2" points="317.19,214.49 312.86,216.84 308.76,214.99 312.9,212.56 "/>
<polygon class="st2" points="312.9,212.56 308.76,214.99 304.07,212.88 308.22,210.46 "/>
<polygon class="st2" points="312.86,216.84 308.56,219.17 304.59,217.43 308.76,214.99 "/>
<polygon class="st2" points="308.22,210.46 304.07,212.88 298.98,210.59 303.06,208.14 "/>
<polygon class="st2" points="303.06,208.14 298.98,210.59 294.36,208.5 298.25,205.98 "/>
<path d="M352,386.08c5.17,0.34,9.6,3.37,12.14,6.19c0.91,2.61,0.39,5.51-0.7,7.21c-1.64,2.54-15.78,8.52-21.77,9.61
	c-5.99,1.09-23.04,3.08-27.56,3.08c-4.54,0-11.25,1.64-15.05,1.27c-3.82-0.36-5.34-4.4-5.34-4.4v-0.01
	c-0.22-0.93,0.25-3.12,0.69-4.82c0.18,0.37,0.4,0.64,0.67,0.8c2.95,1.71,15-1.73,19.18-2.71c4.17-0.98,8.84-5.9,8.84-9.34
	c0-0.76,0.27-2.68,0.7-5.31c2.7,0.3,8.32,0.54,11.02,0.54C338.18,388.19,346.14,385.7,352,386.08z"/>
<path d="M365.05,393.38c2.31,3.07,2.02,6.63,1.16,8.06c-0.87,1.44-4.99,4.71-11.62,7.97c-6.63,3.27-23.33,5.09-31.21,5.85
	c-7.86,0.78-17.66,3.08-22.55,2.31c-4.9-0.77-7.01-4.42-7.2-5.18c-0.19-0.75,0.07-3.17,0.09-3.35c0,0,1.52,4.04,5.34,4.4
	c3.8,0.37,10.51-1.27,15.05-1.27c4.52,0,21.57-1.99,27.56-3.08c5.99-1.09,20.13-7.07,21.77-9.61c1.09-1.7,1.61-4.6,0.7-7.21
	C364.47,392.65,364.78,393.02,365.05,393.38z"/>
<polygon class="st2" points="294.36,208.5 289.83,206.46 285.74,204.62 289.67,202.13 294.54,204.32 298.25,205.98 "/>
<path class="st2" d="M335.07,227.62l8.58-4.9l0.51-1.2l10.98,4.72l-0.23,0.54l-3.9,2.39l-5.01-1.99l-3.66,2.17l-3.99,2.36
	l-4.01,2.38l-4.22,2.49l-3.23,1.92l-0.56,1.25l-31.5-14.09c1.3-2.44,2.63-4.69,3.06-4.98c0.84-0.56,2.25-2.35,1.22-3.38
	s-2.44-1.22-3.56-0.1c-1.13,1.13-4.69,5.17-5.16,5.17c-0.39,0,1.09-3.17,1.97-4.7c0.52,0.35,1.27,0.27,1.5,0.09
	c0.37-0.28,1.03-1.68,1.41-2.62c0.37-0.93,0-1.49-0.95-2.81c-0.74-1.05-1.92-1.14-2.83-0.88c-0.11-1.57-0.61-3.8-1.94-4.37
	l0.28-0.62l4.53,2.04l4.62,2.09l5.09,2.29l4.69,2.11l-4.17,2.44l3.97,1.74l4.77,2.08l4.13-2.34l4.24-2.4l-4.51-2.02l-4.29-1.93
	l-4.68-2.1l-5.16-2.32l-4.81-2.16l2.83-1.83l0.41-0.96l29.62,12.73l-0.47,1.09l-8.29,4.6l0.3,0.55l3.41,1.3l5.2,1.99l3.29,1.26
	L335.07,227.62z"/>
<polygon class="st2" points="289.67,202.13 285.74,204.62 280.76,202.38 284.73,199.92 "/>
<path class="st3" d="M286.27,240.73c1.43-2.02,2.9-4.23,4.01-6.03l139.99,71.91l113.03,57.21v15.34l-110.28-60.25L286.27,240.73z"/>
<polygon class="st2" points="284.73,199.92 280.76,202.38 276.25,200.34 280.29,197.93 "/>
<polygon class="st2" points="280.29,197.93 276.09,196.04 278.55,194.41 278.94,193.5 301.49,203.19 301.08,204.15 298.25,205.98 
	294.54,204.32 289.67,202.13 284.73,199.92 "/>
<polygon class="st2" points="280.29,197.93 276.25,200.34 272.29,198.56 276.09,196.04 "/>
<path class="st4" d="M273.44,286.33c-5.37,0.17-12.07,0.53-17.87,0.85c4.13-4.38,16.18-17.73,17.68-19.73
	c1.55-2.07,3.11-5,3.11-10.53c0-0.19-0.01-0.37-0.02-0.56c0.96,0.06,1.85,0.21,2.57,0.47c3.67,1.3,5.76,9.54,6.15,19.49
	c0.19,4.62-0.2,7.65-0.79,9.98c-1.31,0-2.5-0.02-3.52-0.05C278.96,286.2,276.4,286.24,273.44,286.33z"/>
<path class="st5" d="M277.94,352.69c0.52-4.37,0.82-9.16,0.87-14.07c0-0.01,0.01-0.02,0.01-0.03c0.27-0.05,0.52-0.11,0.77-0.17
	c2.09,4.36,1.16,9.32-0.54,12.72C278.81,351.64,278.42,352.15,277.94,352.69z"/>
<path class="st6" d="M270.1,212.67c1.19-0.16,2.98-0.13,4.41,0.27c0.06-0.06,0.11-0.12,0.16-0.18c0.75-0.85,3.18-4.22,3.98-4.55
	c0.8-0.32,2.2-0.7,3-0.18c0.79,0.51,1.59,1.87,2.1,3.09l0.13,0.11c0.24-0.29,0.42-0.55,0.52-0.77c0.56-1.32,2.9-3.94,4.87-3.47
	c0.1,0.02,0.19,0.05,0.28,0.09c1.33,0.57,1.83,2.8,1.94,4.37c0.91-0.26,2.09-0.17,2.83,0.88c0.95,1.32,1.32,1.88,0.95,2.81
	c-0.38,0.94-1.04,2.34-1.41,2.62c-0.23,0.18-0.98,0.26-1.5-0.09c-0.88,1.53-2.36,4.7-1.97,4.7c0.47,0,4.03-4.04,5.16-5.17
	c1.12-1.12,2.53-0.93,3.56,0.1s-0.38,2.82-1.22,3.38c-0.43,0.29-1.76,2.54-3.06,4.98c-1.23,2.3-2.43,4.78-2.83,5.9
	c-0.2,0.58-0.85,1.73-1.72,3.14c-1.11,1.8-2.58,4.01-4.01,6.03c-1.88,2.68-3.68,4.98-4.38,5.45c-1.25,0.83-4.33,3.34-6.88,5.58
	c-1.97-4.06-5.74-7.89-9.01-9.34c-1.49-0.66-2.89-1.05-4.22-1.13c0.87-0.93,2.05-2.28,2.37-3.06c0.52-1.32-0.53-3.09-0.72-5.58
	c-0.1-1.07-0.38-2.77-0.67-4.44c-0.38-2.18-0.78-4.31-0.78-4.94c0-0.53,0.64-1.44,1.41-2.38c0.84-1.03,1.82-2.09,2.26-2.73
	c0.55-0.82,1.44-2.55,2.2-3.79c0.42-0.69,0.8-1.22,1.08-1.39C269.15,212.85,269.57,212.74,270.1,212.67z"/>
<path d="M268.95,415.61c0,0,6.6-2.19,8.7,9.87h0.01c0,0-2.55,1.06-5.53-0.32C269.17,423.78,268.21,416.99,268.95,415.61z"/>
<path d="M268.95,415.61c0.75-1.38,3.08-5.96,3.08-5.96c0.07-0.22,0.17-0.49,0.27-0.76c0.37,0.45,0.58,0.76,0.58,0.76
	s1.07,0.55,2.95-0.08c0.91-0.31,1.64-0.9,2.16-1.62c0.1-0.12,0.18-0.25,0.27-0.39c0.53,0.23,1.1,0.51,1.63,0.83
	c1.58,0.96,4.83,6.68,5.15,8.59c0.07,0.4,0.1,0.78,0.13,1.14c0.08,1.38-0.11,2.41-1.26,3.18l-6.25,4.18h-0.01
	C275.55,413.42,268.95,415.61,268.95,415.61z"/>
<path class="st6" d="M262.02,198.1c0,0,0.31,0.42,0.77,0.9c-0.62,0-1.34,0.05-2.11,0.13C261.08,198.79,261.79,198.23,262.02,198.1z"
	/>
<path class="st7" d="M258.69,218.47c0.71-0.46,1.31-0.82,1.63-0.96c0.88-0.38,3.53-1.76,4.92-2.14c0.73-0.2,1.73-0.6,2.61-1
	c-0.76,1.24-1.65,2.97-2.2,3.79c-0.44,0.64-1.42,1.7-2.26,2.73L258.69,218.47z"/>
<path class="st8" d="M229.12,301.08c3.89,0.83,7.76,0.31,10.63-0.65c2.11-0.7,4.26-2.11,6.32-3.8c9.24-2.03,16.68-2.76,20.33-1.24
	c8.7,3.6,12.38,23.14,12.42,41.67c0,0.52,0,1.02-0.01,1.53c0,0.01,0,0.02,0,0.03c-0.05,4.91-0.35,9.7-0.87,14.07v0.01
	c-0.84,0.92-2,1.9-3.38,2.89c-1.49,1.08-3.27,2.19-5.17,3.28c0.33-4.01,0.35-8.26,0.13-12.51c-0.1-1.94-0.25-3.89-0.45-5.82
	c-1.58-15.73-6.11-30.11-10.5-31c-0.01-0.01-0.01-0.01-0.02-0.01c-1.62-0.31-6.19,0.56-12.47,2.15c-21,5.32-61.11,18.72-73.83,23.01
	h-0.02c-0.8-4.07-1.65-8.25-2.52-12.45c9.99-4,36.37-14.31,59.41-21.15V301.08z"/>
<path class="st4" d="M253.33,337.29c1.24-5.57-3.44-17.07-7.25-25.61c6.28-1.59,10.85-2.46,12.47-2.15c0.01,0,0.01,0,0.02,0.01
	c4.39,0.89,8.92,15.27,10.5,31c-1.85,0.33-3.61,0.6-5.2,0.8c-3.48,0.44-7.95,0.86-12.5,1.27
	C252.38,340.69,252.98,338.89,253.33,337.29z"/>
<path d="M256.07,386.97c-5.62,0.36-8.36-2.46-8.36-2.46c-0.87-2.76,0.4-8.28,1.12-10.97c2.44-0.12,10.47-0.72,15.96-3.58
	c1.18-0.62,2.27-1.34,3.25-2.09c4.45-3.45,6.81-7.77,6.81-7.77s-0.03-0.46-0.08-1.19c1.91-0.34,4.37-0.8,5.64-1.25
	c2.24-0.78,5.76-3.71,10.93-3.9c1.51-0.06,2.86,0.03,4.04,0.28v0.01c0.17,4.9,0.4,9.76,0.5,14.08v0.01
	c-3.88,2.19-9.36,4.71-12.24,5.59c-4.17,1.27-11.97,5.62-13.42,7.07S261.69,386.61,256.07,386.97z"/>
<path class="st7" d="M255.4,213.85c-1.13,0.19-1.63-0.25-2.14-1.26c-0.5-1-0.38-3.65-0.13-4.16c0.09-0.17,0.49-0.56,0.99-0.99
	l8.07,3.61c-1.17,0.56-2.22,1.1-2.44,1.16C259.31,212.34,256.54,213.67,255.4,213.85z"/>
<path class="st2" d="M254.12,207.44c0.92-0.78,2.19-1.72,2.67-1.97c0.76-0.38,4.54-1.82,5.48-1.69c0.94,0.12,3.59,1.69,3.98,1.95
	c0.32,0.22,1.03,3.04,2.98,4.03l-0.11,0.18c-1.06-0.66-2.62-0.4-3.76-0.18c-0.67,0.13-1.98,0.72-3.17,1.29L254.12,207.44z"/>
<path class="st3" d="M262.76,228.21l-10.54-5.62c1.29-0.53,2.27-1.03,2.68-1.36c0.96-0.81,2.54-1.94,3.79-2.76l4.7,2.42
	c-0.77,0.94-1.41,1.85-1.41,2.38C261.98,223.9,262.38,226.03,262.76,228.21z"/>
<path class="st2" d="M255.47,192.31c-1.51,0.5-3.09,2.08-3.91,2.45c0,0-0.02,0.01-0.05,0.02c-0.78,0.35-1.23,0.18-1.97,0.49
	l10.8-5.69l3.74-1.9c0.37-0.21,0.81-0.23,1.19-0.06l13.67,5.88l-0.39,0.91l-2.46,1.63l-3.8,2.52l3.96,1.78l4.51,2.04l4.98,2.24
	l4.09,1.84l-0.28,0.62c-0.09-0.04-0.18-0.07-0.28-0.09c-1.97-0.47-4.31,2.15-4.87,3.47c-0.1,0.22-0.28,0.48-0.52,0.77l-0.13-0.11
	c-0.51-1.22-1.31-2.58-2.1-3.09c-0.8-0.52-2.2-0.14-3,0.18c-0.8,0.33-3.23,3.7-3.98,4.55c-0.05,0.06-0.1,0.12-0.16,0.18
	c-1.43-0.4-3.22-0.43-4.41-0.27c0.2-0.67,0.14-1.61-0.52-2.34c-0.14-0.15-0.29-0.28-0.46-0.39l0.11-0.18
	c0.3,0.16,0.62,0.27,0.98,0.32c2.71,0.37,2.65-1.01,2.4-1.7c-0.25-0.7-2.33-3.73-2.33-4.17c0-0.43-0.39-3.91-0.82-4.72
	c-0.44-0.82-2.78-2.96-4.22-4.29c-1.46-1.32-2.9-2.52-3.66-2.64c-0.76-0.13-2.27,0.44-2.84,1.01
	C258.74,193.57,256.98,191.8,255.47,192.31z"/>
<path class="st4" d="M248.1,373.57c0,0-0.23-1.47-0.4-3.74c4.15-2.21,7.4-3.9,9.24-4.73c4.03-1.8,8.54-3.99,12.45-6.23
	c1.9-1.09,3.68-2.2,5.17-3.28c0.07,1.25,0.15,2.46,0.21,3.32c0.05,0.73,0.08,1.19,0.08,1.19s-2.36,4.32-6.81,7.77
	c-0.98,0.75-2.07,1.47-3.25,2.09c-5.49,2.86-13.52,3.46-15.96,3.58C248.37,373.56,248.1,373.57,248.1,373.57z"/>
<path d="M247.61,387.04c-0.49-0.78,0.1-2.53,0.1-2.53s2.74,2.82,8.36,2.46c5.62-0.36,12.7-4.72,14.15-6.17s9.25-5.8,13.42-7.07
	c2.88-0.88,8.36-3.4,12.24-5.59c0.03,1.09,0.05,2.13,0.05,3.15c-5.43,3.12-16.02,6.83-18.74,8.04c-3.52,1.56-7.81,5.75-11.42,8.29
	c-3.61,2.54-7.9,2.74-11.71,2.45C250.25,389.77,248.1,387.82,247.61,387.04z"/>
<path class="st4" d="M266.4,295.39c-3.65-1.52-11.09-0.79-20.33,1.24c3.52-2.89,6.76-6.58,9.05-8.98c0.14-0.14,0.28-0.3,0.45-0.47
	c5.8-0.32,12.5-0.68,17.87-0.85c2.96-0.09,5.52-0.13,7.31-0.08c1.02,0.03,2.21,0.05,3.52,0.05c10.24,0.02,27.87-0.6,34.2,0.27
	c7.12,0.99,17.17,4.63,16.92,21.34c-0.24,16.71-4.18,39.58-5.41,46.71c-0.95,5.56-4.61,23.7-6.18,33.03
	c-0.43,2.63-0.7,4.55-0.7,5.31c0,3.44-4.67,8.36-8.84,9.34c-4.18,0.98-16.23,4.42-19.18,2.71c-0.27-0.16-0.49-0.43-0.67-0.8
	c-1.76-3.58,0.74-16.54,1.41-27.48c0.1-1.6,0.13-3.44,0.11-5.44c0-1.02-0.02-2.06-0.05-3.15v-0.01c-0.1-4.32-0.33-9.18-0.5-14.08
	v-0.01c-0.23-6.89-0.34-13.84,0.25-19.49c-4.53,1.17-10.29,2.6-16.04,3.87c-0.25,0.06-0.5,0.12-0.77,0.17c0,0,0,0-0.01,0
	c0.01-0.51,0.01-1.01,0.01-1.53C278.78,318.53,275.1,298.99,266.4,295.39z"/>
<path class="st6" d="M260.68,199.13c0.77-0.08,1.49-0.13,2.11-0.13c-0.46-0.48-0.77-0.9-0.77-0.9
	C261.79,198.23,261.08,198.79,260.68,199.13z M240.97,225.7c-1.08-0.05-2.11,0.02-2.99,0.12c-0.08-2.17-0.13-4.07-0.13-5.33
	c0-3.86-0.97-10.01-1.35-13.84c0.11-0.09,0.23-0.21,0.37-0.34c2.17-2.03,8.15-8.14,8.71-8.59c0.62-0.5,3.21-2.14,3.96-2.45
	c0.74-0.31,1.19-0.14,1.97-0.49c0.03-0.01,0.05-0.02,0.05-0.02c0.82-0.37,2.4-1.95,3.91-2.45c1.51-0.51,3.27,1.26,3.27,1.26
	c0.57-0.57,2.08-1.14,2.84-1.01c0.76,0.12,2.2,1.32,3.66,2.64c1.44,1.33,3.78,3.47,4.22,4.29c0.43,0.81,0.82,4.29,0.82,4.72
	c0,0.44,2.08,3.47,2.33,4.17c0.25,0.69,0.31,2.07-2.4,1.7c-0.36-0.05-0.68-0.16-0.98-0.32c-1.95-0.99-2.66-3.81-2.98-4.03
	c-0.39-0.26-3.04-1.83-3.98-1.95c-0.94-0.13-4.72,1.31-5.48,1.69c-0.48,0.25-1.75,1.19-2.67,1.97c-0.5,0.43-0.9,0.82-0.99,0.99
	c-0.25,0.51-0.37,3.16,0.13,4.16c0.51,1.01,1.01,1.45,2.14,1.26c1.14-0.18,3.91-1.51,4.35-1.64c0.22-0.06,1.27-0.6,2.44-1.16
	c1.19-0.57,2.5-1.16,3.17-1.29c1.14-0.22,2.7-0.48,3.76,0.18c0.17,0.11,0.32,0.24,0.46,0.39c0.66,0.73,0.72,1.67,0.52,2.34
	c-0.53,0.07-0.95,0.18-1.17,0.31c-0.28,0.17-0.66,0.7-1.08,1.39c-0.88,0.4-1.88,0.8-2.61,1c-1.39,0.38-4.04,1.76-4.92,2.14
	c-0.32,0.14-0.92,0.5-1.63,0.96c-1.25,0.82-2.83,1.95-3.79,2.76c-0.41,0.33-1.39,0.83-2.68,1.36
	C248.76,224.04,243.13,225.79,240.97,225.7z"/>
<path d="M236.13,489.12c0.38-1.49,0.88-4.11,1.22-6c0.31,0.68,0.65,1.2,1.07,1.46c1.65,1.06,3.91,1.36,5.57,0.76
	c1.65-0.61,3.31-2.86,3.31-4.52c0,0,2.35,1.88,3.44,3.03c1.82,1.92,3.34,4.71,4.12,7.86c0.78,3.13-0.03,6.48-0.03,6.48l-9.42,5.69
	C245.41,503.88,241.32,489.89,236.13,489.12z"/>
<path class="st7" d="M340.86,246.5l41.63,20.78c0.47,0.24,1.04,0.23,1.5-0.04l26.52-15.17c0.46-0.27,0.43-0.94-0.05-1.16
	l-43.01-19.4c-0.79-0.36-1.71-0.32-2.47,0.1l-24.15,13.33C340.21,245.28,340.23,246.18,340.86,246.5z M206.92,148.74
	c0.16-1.57,1.72-5.94,2.04-7.19c0.06-0.24,0.18-0.58,0.34-0.98l49.46-27.14h0.01l19.03,5.88l-0.05,9.07l-0.07,11.12
	c-0.02,3.51,2.19,6.64,5.51,7.79l61.68,21.46v0.01l-16.73,7.89c-1.46,0.69-1.39,2.81,0.13,3.39l35.48,13.58
	c2.4,0.92,5.1,0.66,7.26-0.71c4.35-2.74,11.59-7.42,14.51-10.01v-0.01l66.34,23.08c2.22,0.77,4.55,0.1,6.05-1.46v-0.01
	c0.78-0.81,1.33-1.86,1.52-3.08l3.85-24.86h0.01l80.01,25.51v161.75l-113.03-57.21L290.28,234.7c0.87-1.41,1.52-2.56,1.72-3.14
	c0.4-1.12,1.6-3.6,2.83-5.9l31.5,14.09l10.03,4.49c0.42,0.19,0.91,0.17,1.32-0.06l23.27-13.02c0.27-0.15,0.43-0.43,0.43-0.73v-1.01
	c0-0.31-0.17-0.57-0.45-0.69l-5.79-2.49l-10.98-4.72l-13.05-5.6l-29.62-12.73l-22.55-9.69l-13.67-5.88
	c-0.38-0.17-0.82-0.15-1.19,0.06l-3.74,1.9l-10.8,5.69c-0.75,0.31-3.34,1.95-3.96,2.45c-0.56,0.45-6.54,6.56-8.71,8.59
	c-0.14,0.13-0.26,0.25-0.37,0.34c-0.01-0.11-0.02-0.22-0.03-0.32c-0.34-3.79-2.41-8.28-4.14-10.36c-0.33-0.39-0.86-0.98-1.52-1.69
	c-2.87-3.1-8.08-8.42-8.5-8.84c-0.41-0.42-0.94-1.17-1.49-2.63l-0.01-0.01c-0.13-0.35-0.26-0.73-0.39-1.16
	c-0.7-2.24-4.15-8.97-6.91-13.29c-0.78-1.22-1.82-2.72-3.03-4.28c0.17-2.49-0.8-6.28-1.98-11.11c-0.38-1.55-1-2.91-1.78-4.09
	L206.92,148.74z"/>
<path d="M236.13,489.12c5.19,0.77,9.28,14.76,9.28,14.76s-3.15,0.84-6.77-3.47c-3.43-4.09-2.83-10.08-2.58-11.02
	C236.08,489.3,236.1,489.22,236.13,489.12z"/>
<path class="st4" d="M218.34,194.59c4.18-0.41,8.25,0.07,9.67,0.27l2.8-0.58c0.66,0.71,1.19,1.3,1.52,1.69
	c1.73,2.08,3.8,6.57,4.14,10.36c0.01,0.1,0.02,0.21,0.03,0.32c0.38,3.83,1.35,9.98,1.35,13.84c0,1.26,0.05,3.16,0.13,5.33
	c0.16,4.72,0.44,10.7,0.56,14.01c0.18,4.83,3.46,19.34,3.46,19.34s8.98-10.88,12.26-14.51c2.23-2.46,4.7-3.57,7.52-3.37
	c1.33,0.08,2.73,0.47,4.22,1.13c3.27,1.45,7.04,5.28,9.01,9.34c0.75,1.54,1.23,3.11,1.33,4.6c0.01,0.19,0.02,0.37,0.02,0.56
	c0,5.53-1.56,8.46-3.11,10.53c-1.5,2-13.55,15.35-17.68,19.73c-0.17,0.17-0.31,0.33-0.45,0.47c-2.29,2.4-5.53,6.09-9.05,8.98
	c-2.06,1.69-4.21,3.1-6.32,3.8c-2.87,0.96-6.74,1.48-10.63,0.65c-3.84-0.81-7.69-2.93-10.6-7.21c-5.87-8.63-18.82-35.05-21.07-39.02
	c-2.24-3.97-4.31-8.29-4.49-15.37c-0.17-7.08,1.21-23.48,8.29-31.94C208.33,199.08,213.16,195.11,218.34,194.59z"/>
<path d="M144.62,59.79c13.52-24.71,50.06-17.61,58.17-14.91c3.2,1.07,6.9,3.16,10.25,5.9c0,0,0.01,0.01,0.02,0.01
	c4.71,3.18,7.36,7.22,8.01,8.36c2.67,4.72,6,18.07,4.47,20.1c-0.08,0.1-0.17,0.25-0.26,0.42c-1.71,3.1-5.67,16.16-5.67,18.09
	c0,1.98-3.04,14.95-3.22,15.76c0.02-0.31,0.11-2.42-2.23-8.8c-1.05-2.88-2.51-4.54-4.22-5.39c0.13-0.05,0.28-0.1,0.43-0.17
	c0.39-0.16,0.42-1.95-0.95-2.47c0,0-3.38-0.85-5.75,2.22c-0.74,0.14-1.48,0.33-2.23,0.55c-1.87,0.54-3.07,3.15-3.85,6.3
	c-1.42,5.73-1.42,13.23-1.42,13.23c0.34,4.24-2.28,11.05-2.28,12.75s-3.39,3.44-8.01,2.51c-3.61-0.71-7.86-0.78-11.63-1.41
	c-2.58-0.43-6.08-0.77-8.55-1.57c-0.01,0-0.01,0-0.01,0c-2.65-3.38-8.75-10-14.63-16.13C141.59,105.28,131.11,84.49,144.62,59.79z"
	/>
<path class="st6" d="M203.67,98.91c2.37-3.07,5.75-2.22,5.75-2.22c1.37,0.52,1.34,2.31,0.95,2.47c-0.15,0.07-0.3,0.12-0.43,0.17
	c-1.63,0.61-2.31,0.26-3.56,1.28c-1.36,1.1-2.71,3.9-2.71,7.97c0,4.07,2.96,8.31,4.58,8.57c1.61,0.25,1.86,1.61,1.61,2.37
	c-0.26,0.77-1.32,1.16-2.52,0.81c-1.92-0.57-4.99-4.69-5.83-8.09c-0.85-3.39-1.14-6.5,1.12-11.58h0.01v-0.01
	C202.95,99.96,203.29,99.39,203.67,98.91z"/>
<path class="st6" d="M197.59,105.76c0.78-3.15,1.98-5.76,3.85-6.3c0.75-0.22,1.49-0.41,2.23-0.55c-0.38,0.48-0.72,1.05-1.03,1.74
	v0.01h-0.01c-1.48,0.68-3.93,2.02-4.56,3.94c-0.12,0.36-0.24,0.76-0.35,1.19L197.59,105.76z"/>
<path class="st9" d="M178.04,367.6c11.72-0.12,31.79-0.91,48.89-7.12c14.73-5.36,21.42-12.12,24.44-17.87
	c4.55-0.41,9.02-0.83,12.5-1.27c1.59-0.2,3.35-0.47,5.2-0.8c0.2,1.93,0.35,3.88,0.45,5.82c-4.58,2.27-11.68,5.31-16.99,7.81
	c-7.92,3.72-46.07,21.4-51.89,24.65c-5.71,3.2-10.97,3.26-22.38-0.26c0.35-0.89,0.53-1.89,0.53-3c0-1.64-0.27-4.39-0.76-7.96H178.04
	z"/>
<path class="st4" d="M172.25,334.69c12.72-4.29,52.83-17.69,73.83-23.01c3.81,8.54,8.49,20.04,7.25,25.61
	c-0.35,1.6-0.95,3.4-1.96,5.32c-3.02,5.75-9.71,12.51-24.44,17.87c-17.1,6.21-37.17,7-48.89,7.12h-0.01
	c-1.08-7.91-3.22-19.87-5.8-32.91H172.25z"/>
<path class="st4" d="M197.45,254.85c2.25,3.97,15.2,30.39,21.07,39.02c2.91,4.28,6.76,6.4,10.6,7.21v0.01
	c-23.04,6.84-49.42,17.15-59.41,21.15c-5.1-24.47-11.04-49.46-14.09-57c-5.48-13.55-23.93-22.97-32.46-27.73
	c-0.01-0.44-0.02-0.87-0.03-1.31c-0.33-16.94-0.73-33.19-0.73-36.2c0-5.96,0.22-19.42,1.77-28.47c1.54-9.04,7.19-21.19,10.29-23.32
	c3.11-2.12,11.77-4.58,13.4-5.06c0,0,3.81,5.95,9.46,9.42c5.66,3.47,12.22,4.38,17.1,5.02c3.64,0.48,10.49,1.52,15.5,2.73
	c0.36,0.08,0.7,0.17,1.04,0.25c1.28,0.33,2.4,0.67,3.26,1.01c4.24,1.67,14.91,9.89,17.87,11.95c2.55,1.77,6.52,7.34,8.72,9.27
	l0.01,0.01c0.55,1.46,1.08,2.21,1.49,2.63c0.42,0.42,5.63,5.74,8.5,8.84l-2.8,0.58c-1.42-0.2-5.49-0.68-9.67-0.27
	c-5.18,0.52-10.01,4.49-17.09,12.95c-7.08,8.46-8.46,24.86-8.29,31.94C193.14,246.56,195.21,250.88,197.45,254.85z"/>
<path class="st10" d="M206.72,148.87c0.78,1.18,1.4,2.54,1.78,4.09c1.18,4.83,2.15,8.62,1.98,11.11c-3.05-3.95-7.15-8.32-10.78-9.88
	c-4.94-2.11-21.55-9.07-25.79-9.71c-4.11-0.63-10.37-1.72-12.17-2.84c0.23-1.08,0.93-3.93,2.19-6.14c0.74-1.31,1.67-2.39,2.82-2.75
	c0.07-0.03,0.16-0.05,0.23-0.06c0,0,9.48,2.94,13.9,4.24c4.41,1.32,13.73,4.26,17.33,5.56
	C200.88,143.46,204.45,145.43,206.72,148.87z"/>
<path class="st6" d="M208.96,141.55c-0.32,1.25-1.88,5.62-2.04,7.19l-0.2,0.13c-2.27-3.44-5.84-5.41-8.51-6.38
	c-3.6-1.3-12.92-4.24-17.33-5.56c-4.42-1.3-13.9-4.24-13.9-4.24c-0.07,0.01-0.16,0.03-0.23,0.06c-0.22-0.37-0.59-0.88-1.05-1.48
	c2.47,0.8,5.97,1.14,8.55,1.57c3.77,0.63,8.02,0.7,11.63,1.41c4.62,0.93,8.01-0.81,8.01-2.51s2.62-8.51,2.28-12.75
	c0,0,0-7.5,1.42-13.23l0.13,0.03c0.11-0.43,0.23-0.83,0.35-1.19c0.63-1.92,3.08-3.26,4.56-3.94c-2.26,5.08-1.97,8.19-1.12,11.58
	c0.84,3.4,3.91,7.52,5.83,8.09c1.2,0.35,2.26-0.04,2.52-0.81c0.25-0.76,0-2.12-1.61-2.37c-1.62-0.26-4.58-4.5-4.58-8.57
	c0-4.07,1.35-6.87,2.71-7.97c1.25-1.02,1.93-0.67,3.56-1.28c1.71,0.85,3.17,2.51,4.22,5.39c2.34,6.38,2.25,8.49,2.23,8.8
	c0.18-0.81,3.22-13.78,3.22-15.76c0-1.93,3.96-14.99,5.67-18.09c0.42,3.38,0.7,6.4,0.53,7.58c-0.47,3.28-1.41,5.93-0.94,8.9
	c0.47,2.96,0.32,8.9,0.16,11.7c-0.16,2.81-2.19,12.95-2.49,15.29c-0.32,2.34-2.61,10.32-4.17,11.73c-1.56,1.4-2.63,1.28-4.89,1.38
	c-2.02,0.09-3.52,2.67-4.18,4.32C209.14,140.97,209.02,141.31,208.96,141.55z"/>
<path class="st4" d="M159.14,135.79c1.67-0.26,3.23-0.42,4.57-0.42l0.22,0.13c-1.26,2.21-1.96,5.06-2.19,6.14
	c1.8,1.12,8.06,2.21,12.17,2.84c4.24,0.64,20.85,7.6,25.79,9.71c3.63,1.56,7.73,5.93,10.78,9.88c1.21,1.56,2.25,3.06,3.03,4.28
	c2.76,4.32,6.21,11.05,6.91,13.29c0.13,0.43,0.26,0.81,0.39,1.16c-2.2-1.93-6.17-7.5-8.72-9.27c-2.96-2.06-13.63-10.28-17.87-11.95
	c-0.86-0.34-1.98-0.68-3.26-1.01c-0.34-0.08-0.68-0.17-1.04-0.25c-5.01-1.21-11.86-2.25-15.5-2.73c-4.88-0.64-11.44-1.55-17.1-5.02
	c-5.65-3.47-9.46-9.42-9.46-9.42c1.64-0.5,3.11-0.66,4.91-3.92C154.56,135.95,159.14,135.79,159.14,135.79z"/>
<path class="st5" d="M159.71,385.49c8.06,0.13,16.41-1.34,18.55-6.93c11.41,3.52,16.67,3.46,22.38,0.26
	c5.82-3.25,43.97-20.93,51.89-24.65c5.31-2.5,12.41-5.54,16.99-7.81c0.22,4.25,0.2,8.5-0.13,12.51c-3.91,2.24-8.42,4.43-12.45,6.23
	c-1.84,0.83-5.09,2.52-9.24,4.73c-13.46,7.15-36.22,19.53-49.36,23.69c-2.27,0.73-4.24,1.2-5.83,1.36c-2.34,0.24-5.05,0.03-8-0.51
	C176.79,392.98,167.53,389.32,159.71,385.49z"/>
<path d="M150.16,499.17l-8.8-15.04c0.11-0.34,0.23-1.09,0.39-2.08c5.23,2.59,8.69,10.07,8.87,12.51
	C150.82,497.1,150.16,499.17,150.16,499.17z"/>
<path class="st8" d="M125.41,399.27c4.67-1.36,17.31-0.76,22.87-0.76c5.57,0,34.91,3.61,34.91,3.61l1.66,0.15l-0.34-7.9
	c2.95,0.54,5.66,0.75,8,0.51c1.59-0.16,3.56-0.63,5.83-1.36c0.3,2.31,0.7,5.04,0.96,5.29c0.45,0.46,2.41,2.56,2.41,2.56
	s33.85-4.21,40.47-4.67c6.62-0.45,18.66-1.35,26.48,0.91c4.95,1.43,7.72,6.32,9.1,9.74v0.01c0.09,0.2,0.17,0.4,0.23,0.59
	c-0.52,0.72-1.25,1.31-2.16,1.62c-1.88,0.63-2.95,0.08-2.95,0.08s-0.21-0.31-0.58-0.76c-0.6-0.73-1.56-1.81-2.58-2.56
	c-1.65-1.2-7.82-2.4-14.15-1.8c-6.32,0.6-51.01,6.47-51.01,6.47s-0.32,1.84-0.88,3.34c4.5,5.71,32.23,40.88,34.44,44.06
	c2.41,3.46,6.77,10.99,7.52,13.09c0.75,2.11,1.66,7.68,1.66,9.33c0,1.66-1.66,3.91-3.31,4.52c-1.66,0.6-3.92,0.3-5.57-0.76
	c-0.42-0.26-0.76-0.78-1.07-1.46c-0.91-2.05-1.41-5.58-2.09-8.17c-0.9-3.46-8.28-14.74-10.38-17.15
	c-1.8-2.05-22.17-29.34-28.15-37.37c-1.29,0.41-3.37,1.01-4.81,1.1c-1.21,0.09-2.63-0.09-3.7-0.28
	c-5.73,6.11-28.71,30.65-31.21,33.54c-2.86,3.31-12.94,17.3-13.99,21.07c-0.65,2.32-1.02,4.59-1.27,6.19
	c-0.16,0.99-0.28,1.74-0.39,2.08c-0.3,0.91-1.5,1.96-4.21,2.56c-1.41,0.31-2.95,0.18-4.1-0.62v-0.01c-1.05-0.73-1.77-2.02-1.77-4.03
	c0-4.22,2.86-11.74,7.37-18.21c4.52-6.47,24.98-30.55,27.99-34.01c2.09-2.4,10.32-11.53,15.18-16.9c-8.6-1.08-50.85-6.4-53.55-6.27
	c-1.12,0.06-1.93,0.36-2.51,0.73c-0.96,0.61-1.26,1.37-1.26,1.37s-0.79,2.53-3.26,3.15c-2.47,0.61-4.85-0.43-4.85-0.43
	C117.43,406.79,120.74,400.62,125.41,399.27z"/>
<path d="M133.05,486.07c1.15,0.8,2.69,0.93,4.1,0.62c2.71-0.6,3.91-1.65,4.21-2.56l8.8,15.04l-9.23,5.5l-8.63-15.13
	C132.53,488.17,132.82,486.96,133.05,486.07z"/>
<path d="M132.48,497.6c-0.86-2.23-0.64-5.41-0.18-8.06l8.63,15.13C137.59,505.06,134.25,502.11,132.48,497.6z"/>
<path d="M132.51,423.82l-5.13-14.47c0.55,0.36,1.65,1.65,3.12,3.11c1.46,1.47,2.56,5.14,2.56,7.33
	C133.06,421.99,132.51,423.82,132.51,423.82z"/>
<path d="M116.39,411.46c0,0,2.38,1.04,4.85,0.43c2.47-0.62,3.26-3.15,3.26-3.15s0.3-0.76,1.26-1.37c0.48,0.67,1.25,1.73,1.62,1.98
	l5.13,14.47l-9.35,4.04l-6.77-11.91v-0.01C116.75,414.67,116.39,411.46,116.39,411.46z"/>
<path d="M118.21,425.29c-2.36-2.2-2.2-8.04-1.82-9.34l6.77,11.91C123.16,427.86,120.59,427.49,118.21,425.29z"/>
<path class="st9" d="M98.93,201.12c0.05-0.6,0.12-1.19,0.2-1.77c3.83,1.85,8.49,16.58,9.18,20.69c0.51,3.11,3.31,8.11,7.55,12.22
	l-0.01,0.01c-10.46-6.09-16.73-20.74-17.07-26C98.68,204.68,98.75,202.87,98.93,201.12z"/>
<path class="st5" d="M89.95,245.82c-3.54-14.13-9.18-26.84-8.48-34.61c0.71-7.77,0.71-7.06,3.53-10.59c0,0,9.89-2.47,13.77-1.41
	c0.12,0.03,0.24,0.08,0.36,0.14c-0.08,0.58-0.15,1.17-0.2,1.77c-0.18,1.75-0.25,3.56-0.15,5.15c0.34,5.26,6.61,19.91,17.07,26
	l0.01-0.01c1.54,1.5,3.27,2.89,5.16,4.02c0.61,0.37,1.33,0.78,2.14,1.23c8.53,4.76,26.98,14.18,32.46,27.73
	c3.05,7.54,8.99,32.53,14.09,57c0.87,4.2,1.72,8.38,2.52,12.45c2.58,13.04,4.72,25,5.8,32.91c0.49,3.57,0.76,6.32,0.76,7.96
	c0,1.11-0.18,2.11-0.53,3c-2.14,5.59-10.49,7.06-18.55,6.93c-5.76-0.09-11.36-1-14.46-1.81c-8.12-2.12-20.81-13.1-27.44-22.63
	C109.15,348.6,93.48,259.94,89.95,245.82z"/>
<linearGradient id="SVGID_1_" gradientUnits="userSpaceOnUse" x1="277.7047" y1="96.8648" x2="482.2037" y2="96.8648">
	<stop  offset="0" style="stop-color:#FFD300"/>
	<stop  offset="1" style="stop-color:#EC7103"/>
</linearGradient>
<path class="st11" d="M277.7,128.46c0,0,0.72-116.29,0.72-118.63s1.8-4.5,4.5-4.32c2.7,0.18,188.29,32.4,191.89,32.76
	c3.6,0.36,7.56,2.34,7.38,6.48s-21.78,143.47-21.78,143.47L277.7,128.46z"/>
</svg>
