<?xml version="1.0" encoding="utf-8"?>
<!-- Generator: Adobe Illustrator 25.0.1, SVG Export Plug-In . SVG Version: 6.00 Build 0)  -->
<svg version="1.1" id="layer" xmlns="http://www.w3.org/2000/svg" xmlns:xlink="http://www.w3.org/1999/xlink" x="0px" y="0px"
	 viewBox="0 0 511 511" style="enable-background:new 0 0 511 511;" xml:space="preserve">
<style type="text/css">
	.st0{fill:#333333;}
	.st1{fill:#666666;}
	.st2{fill:#CC5444;}
	.st3{fill:#1E1E1E;}
	.st4{fill:#414141;}
	.st5{fill:#807373;}
	.st6{fill:#D6D6D6;}
	.st7{fill:#858C87;}
	.st8{fill:#71B1B9;}
	.st9{fill:#FBECDF;}
	.st10{fill:url(#SVGID_1_);}
	.st11{fill:url(#SVGID_2_);}
	.st12{fill:#3B3020;}
	.st13{fill:url(#SVGID_3_);}
</style>
<path class="st0" d="M421.91,272.19l-11.13,136.24c-0.18,2.18-2.13,3.79-4.38,3.61l-56.33-4.6l-64.36-5.25l-37.72-3.07
	c-2.24-0.18-3.93-2.09-3.75-4.26l3.41-41.85c3.32,0.34,6.42,0.88,8.17,1.77c3.95,2.02,15.33,5.54,19.7,5.59
	c2.4,0.04,7.47-0.45,11.49-1.41l-0.31,3.81c-0.11,1.44,0.94,2.69,2.38,2.81l12.34,1.01c1.44,0.11,2.69-0.96,2.81-2.4l0.96-11.76
	c0.11-1.44-0.94-2.72-2.38-2.83l-12.34-0.99c-1.44-0.13-2.69,0.94-2.81,2.38l-0.11,1.17c-1.14-0.18-2.33-0.2-3.46-0.13
	c-3.61,0.22-11.36-1.68-14.95-3.14c-3.61-1.46-5.54-4.06-4.74-5.3c0.81-1.23,9.27,0.79,11.62,1.44c2.36,0.65,13.98-0.74,20.85-1.26
	c6.87-0.52,12.07-2.69,11.71-6.78c-0.36-4.06-19.84-2.69-25.83-2.63c-5.99,0.09-14.09-1.89-14.59-3.59
	c-0.49-1.68,9.87-1.05,16.09-1.53s14.41-1.55,20.47-1.97c6.06-0.45,10.41-1.55,9.81-5.88c-0.61-4.35-11.13-3.25-17.14-3.19
	c-5.97,0.09-19.64,0.25-24.39-0.02c-4.76-0.29-6.62-0.92-5.86-2.31c0.76-1.39,13.42-3.25,21.88-5.72c8.48-2.49,20.62-3.21,19.16-8.8
	c-1.48-5.59-22.08-0.04-31.69,0.76c-4.35,0.36-11.38,0.61-18.29,0.9v-0.02c9.56-3.84,13.04-8.24,14.41-11.53l5.48,0.45
	c1.44,0.11,2.69-0.96,2.81-2.4l0.54-6.73c0.13-1.44-0.94-2.69-2.38-2.83l-12.34-0.99c-1.44-0.13-2.69,0.94-2.81,2.38l-0.56,6.75
	c0,0.16,0,0.31,0.02,0.49c-3.25,1.95-7.36,4.04-10.88,5.12l3.68-45.24l2.09-53.03l0.47-11.78l0.34-8.59
	c0.04-1.32,0.76-2.45,1.82-3.12c0.74-0.47,1.64-0.72,2.58-0.65l164.56,13.42c2.31,0.2,4.02,2.22,3.73,4.44L421.91,272.19z"/>
<path class="st1" d="M279.07,279.93c1.44,0.13,2.51,1.39,2.38,2.83l-0.54,6.73c-0.11,1.44-1.37,2.51-2.81,2.4l-5.48-0.45
	c0.58-1.37,0.79-2.58,0.92-3.46c0.47-3.16-2.54-5.52-4.89-3.21c-0.92,0.92-2.87,2.33-5.27,3.79c-0.02-0.18-0.02-0.34-0.02-0.49
	l0.56-6.75c0.11-1.44,1.37-2.51,2.81-2.38L279.07,279.93z"/>
<path class="st2" d="M271.71,370.17c1.44,0.11,2.51,1.37,2.38,2.81l-0.94,11.78c-0.13,1.44-1.39,2.49-2.83,2.38L258,386.12
	c-1.44-0.11-2.51-1.37-2.38-2.81l0.94-11.78c0.11-1.44,1.39-2.49,2.81-2.38L271.71,370.17z"/>
<path class="st3" d="M355.19,267.75c2.6,0.22,4.56,2.51,4.33,5.12c-0.09,1.3-0.72,2.45-1.66,3.23c-0.92,0.79-2.15,1.21-3.46,1.12
	l-30.09-2.47l0.16-1.95c-1.53-0.13-2.67-1.48-2.56-3.01c0.07-0.76,0.45-1.44,0.99-1.91l0.22-2.74L355.19,267.75z"/>
<path class="st3" d="M324.47,272.8l-0.16,1.95l-54.76-4.47c-2.6-0.2-4.56-2.49-4.35-5.12c0.22-2.47,2.29-4.35,4.74-4.35
	c0.13,0,0.25,0.02,0.38,0.02l52.8,4.31l-0.22,2.74c-0.54,0.47-0.92,1.14-0.99,1.91C321.8,271.32,322.94,272.66,324.47,272.8z"/>
<path class="st4" d="M302.82,349.59c1.44,0.11,2.49,1.39,2.38,2.83l-0.96,11.76c-0.11,1.44-1.37,2.51-2.81,2.4l-12.34-1.01
	c-1.44-0.11-2.49-1.37-2.38-2.81l0.31-3.81c3.28-0.79,5.86-1.89,5.68-3.28c-0.27-2.11-2.56-3.16-5.14-3.52l0.11-1.17
	c0.11-1.44,1.37-2.51,2.81-2.38L302.82,349.59z"/>
<path class="st4" d="M300.93,372.55c1.44,0.11,2.51,1.37,2.4,2.81l-0.96,11.78c-0.11,1.44-1.37,2.51-2.81,2.38l-12.34-1.01
	c-1.44-0.11-2.51-1.37-2.4-2.81l0.96-11.76c0.11-1.46,1.39-2.51,2.83-2.4L300.93,372.55z"/>
<path class="st4" d="M346.4,376.25c1.44,0.11,2.49,1.37,2.38,2.81l-0.96,11.78c-0.11,1.44-1.37,2.51-2.81,2.4l-12.34-1.01
	c-1.44-0.13-2.49-1.39-2.38-2.83l0.96-11.76c0.11-1.44,1.37-2.51,2.81-2.4L346.4,376.25z"/>
<path class="st4" d="M323.66,374.41c1.44,0.11,2.51,1.37,2.38,2.81l-0.94,11.76c-0.13,1.46-1.39,2.51-2.83,2.4l-12.32-1.01
	c-1.44-0.11-2.51-1.37-2.4-2.81l0.96-11.78c0.13-1.44,1.39-2.51,2.81-2.38L323.66,374.41z"/>
<path class="st4" d="M325.55,351.45c1.44,0.11,2.49,1.37,2.38,2.81l-0.96,11.78c-0.11,1.44-1.37,2.51-2.81,2.38l-12.34-1.01
	c-1.44-0.11-2.49-1.37-2.38-2.81l0.96-11.76c0.11-1.46,1.37-2.51,2.81-2.4L325.55,351.45z"/>
<path class="st4" d="M348.26,353.31c1.44,0.11,2.51,1.37,2.4,2.81l-0.96,11.76c-0.11,1.46-1.39,2.51-2.81,2.4l-12.34-1.01
	c-1.44-0.11-2.51-1.37-2.38-2.81l0.94-11.78c0.13-1.44,1.39-2.51,2.83-2.38L348.26,353.31z"/>
<path class="st4" d="M327.48,327.55c1.44,0.11,2.51,1.39,2.4,2.83l-0.96,11.76c-0.11,1.44-1.37,2.51-2.81,2.4l-12.34-1.01
	c-1.44-0.11-2.51-1.37-2.38-2.81l0.94-11.78c0.13-1.44,1.39-2.51,2.83-2.38L327.48,327.55z"/>
<path class="st4" d="M350.21,329.41c1.44,0.11,2.51,1.37,2.38,2.81L351.65,344c-0.11,1.44-1.39,2.51-2.81,2.38l-12.34-0.99
	c-1.44-0.13-2.51-1.39-2.4-2.83l0.96-11.78c0.11-1.41,1.39-2.49,2.81-2.38L350.21,329.41z"/>
<path class="st4" d="M329.39,304.3c1.44,0.11,2.51,1.37,2.38,2.81l-0.94,11.78c-0.13,1.44-1.39,2.49-2.83,2.38l-12.32-1.01
	c-1.46-0.11-2.51-1.37-2.4-2.81l0.96-11.78c0.11-1.44,1.37-2.49,2.81-2.38L329.39,304.3z"/>
<path class="st4" d="M352.12,306.17c1.44,0.09,2.49,1.37,2.38,2.81l-0.96,11.76c-0.11,1.44-1.37,2.51-2.81,2.4l-12.34-1.01
	c-1.44-0.11-2.49-1.37-2.38-2.81l0.96-11.78c0.11-1.44,1.37-2.51,2.81-2.38L352.12,306.17z"/>
<polygon class="st5" points="366.03,189.74 365.02,202.22 322.83,198.76 323.84,186.31 "/>
<path class="st6" d="M420.54,212.79l-0.47,4.6c-2.29,1.12-5.68,3.01-8.93,4.91l0.43-5.21l-137.07-11.2l-2.67,32.79l126.99,10.35
	c-0.94,0.83-1.68,1.95-1.53,3.34c0.07,0.47,0.25,0.92,0.56,1.3l-134.06-10.95l2.54-42.53L420.54,212.79z"/>
<path class="st7" d="M411.56,217.1l-0.43,5.21c-4.06,2.36-7.92,4.76-9.22,5.74c-3.93,2.96-0.76,6.49,1.71,6.62
	c0,0-8.44,1.93-8.62,6.62c-0.22,5.61,7.2,5.86,7.2,5.86s-1.93,0.63-3.39,1.89l-126.99-10.35l2.67-32.79L411.56,217.1z"/>
<path class="st8" d="M409.07,271.54c1.44,0.11,2.49,1.37,2.38,2.81l-0.54,6.75c-0.11,1.44-1.39,2.49-2.83,2.38l-12.32-1.01
	c-1.44-0.11-2.51-1.37-2.4-2.81l0.56-6.75c0.11-1.44,1.37-2.49,2.81-2.38L409.07,271.54z"/>
<path class="st8" d="M386.79,269.74c1.44,0.11,2.51,1.37,2.38,2.81l-0.54,6.75c-0.11,1.44-1.37,2.51-2.83,2.38l-12.32-1.01
	c-1.44-0.11-2.51-1.37-2.4-2.81l0.56-6.75c0.11-1.41,1.37-2.49,2.81-2.38L386.79,269.74z"/>
<path class="st1" d="M383.6,308.72c1.44,0.11,2.51,1.37,2.38,2.81l-0.94,11.78c-0.13,1.44-1.39,2.49-2.83,2.38l-12.32-1.01
	c-1.44-0.11-2.51-1.37-2.38-2.81l0.94-11.78c0.11-1.41,1.39-2.49,2.81-2.38L383.6,308.72z"/>
<path class="st1" d="M381.69,331.97c1.46,0.13,2.51,1.39,2.4,2.83l-0.96,11.78c-0.11,1.41-1.37,2.49-2.81,2.38l-12.34-1.01
	c-1.44-0.11-2.49-1.37-2.38-2.81l0.94-11.78c0.13-1.44,1.39-2.49,2.83-2.4L381.69,331.97z"/>
<path class="st1" d="M379.76,355.87c1.44,0.11,2.49,1.37,2.38,2.81l-2.81,34.42c-0.11,1.44-1.37,2.49-2.81,2.38l-12.34-1.01
	c-1.44-0.11-2.51-1.37-2.38-2.81l2.81-34.42c0.11-1.41,1.37-2.49,2.81-2.38L379.76,355.87z"/>
<path class="st1" d="M400.63,380.33c1.44,0.11,2.51,1.37,2.4,2.81l-0.96,11.78c-0.11,1.44-1.37,2.51-2.81,2.38l-12.34-1.01
	c-1.44-0.11-2.51-1.37-2.38-2.81l0.96-11.78c0.09-1.44,1.37-2.49,2.81-2.38L400.63,380.33z"/>
<path class="st1" d="M402.5,357.73c1.44,0.11,2.49,1.37,2.38,2.81l-0.96,11.78c-0.11,1.41-1.37,2.49-2.81,2.38l-12.34-1.01
	c-1.44-0.11-2.49-1.37-2.38-2.81l0.96-11.78c0.11-1.44,1.37-2.49,2.81-2.38L402.5,357.73z"/>
<path class="st1" d="M404.45,333.84c1.44,0.11,2.49,1.37,2.38,2.81l-0.96,11.78c-0.11,1.44-1.37,2.51-2.81,2.38l-12.34-0.99
	c-1.44-0.13-2.49-1.39-2.38-2.83l0.96-11.76c0.11-1.44,1.37-2.51,2.81-2.4L404.45,333.84z"/>
<path class="st1" d="M406.33,310.56c1.44,0.13,2.51,1.39,2.4,2.83l-0.96,11.78c-0.13,1.41-1.39,2.49-2.83,2.38l-12.32-1.01
	c-1.46-0.11-2.51-1.37-2.4-2.81l0.96-11.78c0.11-1.44,1.37-2.49,2.81-2.38L406.33,310.56z"/>
<path class="st1" d="M407.97,290.46c1.44,0.11,2.51,1.37,2.4,2.81l-0.56,6.75c-0.11,1.44-1.37,2.51-2.81,2.38l-12.34-1.01
	c-1.44-0.11-2.51-1.37-2.38-2.81l0.54-6.75c0.11-1.41,1.37-2.49,2.83-2.38L407.97,290.46z"/>
<path class="st1" d="M385.24,288.59c1.44,0.13,2.51,1.39,2.4,2.83l-0.56,6.73c-0.11,1.44-1.37,2.51-2.81,2.4l-12.34-1.01
	c-1.44-0.11-2.49-1.39-2.38-2.81l0.54-6.75c0.11-1.44,1.39-2.51,2.83-2.38L385.24,288.59z"/>
<path class="st1" d="M353.76,286.04c1.44,0.11,2.49,1.37,2.38,2.81l-0.54,6.75c-0.11,1.44-1.39,2.51-2.83,2.38l-12.32-0.99
	c-1.44-0.13-2.51-1.39-2.4-2.83l0.56-6.75c0.11-1.44,1.37-2.49,2.81-2.38L353.76,286.04z"/>
<path class="st1" d="M331.02,284.17c1.44,0.11,2.51,1.37,2.4,2.83l-0.56,6.73c-0.11,1.44-1.37,2.51-2.83,2.4l-12.32-1.01
	c-1.44-0.11-2.51-1.37-2.38-2.83l0.54-6.73c0.11-1.44,1.37-2.51,2.81-2.38L331.02,284.17z"/>
<path class="st1" d="M308.29,282.33c1.44,0.11,2.51,1.37,2.4,2.81l-0.56,6.75c-0.11,1.44-1.37,2.49-2.81,2.38l-12.34-1.01
	c-1.44-0.11-2.51-1.37-2.38-2.81l0.54-6.75c0.11-1.44,1.39-2.49,2.81-2.38L308.29,282.33z"/>
<path class="st9" d="M403.62,234.67c-2.47-0.13-5.63-3.66-1.71-6.62c1.3-0.99,5.16-3.39,9.22-5.74c3.25-1.91,6.64-3.79,8.93-4.91
	c1.17-0.58,2.04-0.96,2.47-1.05c1.1-0.22,3.55-0.18,5.86-0.04c1.53,0.07,2.98,0.18,3.97,0.27h0.02c0.76,0.04,1.26,0.11,1.26,0.11
	c5.99-0.72,11.15,0.63,13.08,4.58c1.35,2.76-0.02,5.72,0.38,8.37c0.4,2.65,4.85,7.29,4.53,10.28c-0.31,2.98-3.79,6.19-3.79,6.19
	s2.33,3.3,1.62,5.86c-0.76,2.54-4.31,3.99-4.31,3.99s2.36,2.58,1.59,6.44c-0.76,3.86-13.62,10.73-13.62,10.73
	c-4.87,0.25-8.8-0.36-11.22-0.92l0.56-7.09c-5.72-1.3-11.49-2.67-12.88-3.14c-0.29-0.09-0.56-0.2-0.83-0.31
	c-3.84-1.75-3.05-5-3.05-5s-5.97-0.56-7.85-2.96c-0.31-0.38-0.49-0.83-0.56-1.3c-0.16-1.39,0.58-2.51,1.53-3.34
	c1.46-1.26,3.39-1.89,3.39-1.89s-7.43-0.25-7.2-5.86C395.18,236.6,403.62,234.67,403.62,234.67z"/>
<path class="st9" d="M437.84,199.98c5.66-2.74,9.96-1.53,7.16,3.97c-2.74,5.39-4.26,7.67-12.61,12.61h-0.02
	c-0.99-0.09-2.45-0.2-3.97-0.27l1.55-12.54C432.81,202.38,435.58,201.08,437.84,199.98z"/>
<linearGradient id="SVGID_1_" gradientUnits="userSpaceOnUse" x1="285.0197" y1="418.6685" x2="350.0756" y2="418.6685">
	<stop  offset="0" style="stop-color:#FFD300"/>
	<stop  offset="1" style="stop-color:#EC7103"/>
</linearGradient>
<path class="st10" d="M285.72,402.19l64.36,5.25c-7.99,12.23-13.8,25.18-24.01,27.36c-10.41,2.24-28.95-6.6-41.04-18
	C285.04,411.77,285.33,406.66,285.72,402.19z"/>
<path class="st9" d="M258.23,303c6.91-0.29,13.94-0.54,18.29-0.9c9.6-0.81,30.21-6.35,31.69-0.76c1.46,5.59-10.68,6.31-19.16,8.8
	c-8.46,2.47-21.12,4.33-21.88,5.72c-0.76,1.39,1.1,2.02,5.86,2.31c4.76,0.27,18.42,0.11,24.39,0.02c6.01-0.07,16.54-1.17,17.14,3.19
	c0.61,4.33-3.75,5.43-9.81,5.88c-6.06,0.43-14.25,1.5-20.47,1.97s-16.58-0.16-16.09,1.53c0.49,1.71,8.59,3.68,14.59,3.59
	c5.99-0.07,25.47-1.44,25.83,2.63c0.36,4.08-4.85,6.26-11.71,6.78c-6.87,0.52-18.49,1.91-20.85,1.26
	c-2.36-0.65-10.82-2.67-11.62-1.44c-0.81,1.23,1.12,3.84,4.74,5.3c3.59,1.46,11.33,3.37,14.95,3.14c1.12-0.07,2.31-0.04,3.46,0.13
	c2.58,0.36,4.87,1.41,5.14,3.52c0.18,1.39-2.4,2.49-5.68,3.28c-4.02,0.96-9.09,1.46-11.49,1.41c-4.38-0.04-15.75-3.57-19.7-5.59
	c-1.75-0.9-4.85-1.44-8.17-1.77c-4.13-0.4-8.62-0.49-11.22-0.56c-4.71-0.13-15.51-3.32-19.73-2.92c-4.24,0.4-13.98,4.91-18.56,8.68
	c-3.37,2.78-7.72,6.31-11.92,9.69c-4.4,3.55-8.59,6.91-11.44,9.22h-0.02c-2.89-4.6-5.77-10.48-7.9-17.89
	c-3.9-13.46-2.45-21.43-1.93-24.89c1.12-0.63,2.27-1.28,3.43-1.93c5.68-3.12,11.92-6.24,18.24-8.8c6.42-2.58,16.54-5.74,25.9-11.02
	c9.36-5.3,18.69-12.23,23.23-14.25c4.51-2.02,9.4-2.74,15.66-4.35c0.36-0.09,0.72-0.2,1.1-0.31c3.52-1.08,7.63-3.16,10.88-5.12
	c2.4-1.46,4.35-2.87,5.27-3.79c2.36-2.31,5.36,0.04,4.89,3.21c-0.13,0.88-0.34,2.09-0.92,3.46c-1.37,3.3-4.85,7.7-14.41,11.53V303z"
	/>
<linearGradient id="SVGID_2_" gradientUnits="userSpaceOnUse" x1="89.7626" y1="429.2242" x2="300.6659" y2="429.2242">
	<stop  offset="0" style="stop-color:#FFD300"/>
	<stop  offset="1" style="stop-color:#EC7103"/>
</linearGradient>
<path class="st11" d="M286.86,435.04c3.37,10.82,16.18,37.66,13.42,60.46c-0.27,2.27-1.57,4.06-3.68,5.45
	c-11.58,7.83-47.33,3.64-65.08,2.94c-20.98-0.85-54.51,4.2-75.49,5.03c-19.41,0.79-56.82-9.25-64.23-16.72c0-0.02,0-0.02,0-0.02
	c-0.61-0.58-0.99-1.17-1.17-1.71c-2.51-7.54,0.13-25.34,11.27-47.82c2.54-5.16,3.97-11.04,4.82-17.14
	c12.7-6.24,26.5-14.79,37.25-17.48c18.56-4.65,36.47-8.44,42.1-9.58c1.35-0.29,2.45-1.3,2.76-2.65c1.37-5.66,0.09-18.56-2.6-27.89
	c4.2-3.39,8.55-6.91,11.92-9.69c4.58-3.77,14.32-8.28,18.56-8.68c4.22-0.4,15.01,2.78,19.73,2.92c2.6,0.07,7.09,0.16,11.22,0.56
	l-3.41,41.85c-0.18,2.18,1.5,4.08,3.75,4.26l37.72,3.07c-0.38,4.47-0.67,9.58-0.7,14.61C284.95,423.67,285.4,430.35,286.86,435.04z"
	/>
<path class="st12" d="M275.19,161.06c0,0-1.68,6.33-5.79,7.27c-3.75,0.88-7.38-0.43-9.07-3.68c0,0-0.58,3.43,0.56,7.27
	c-1.05,0.67-1.77,1.8-1.82,3.12l-0.34,8.59c-6.53,0.9-15.19,1.17-24.19-1.26c-2.27-2.11-4.22-4.47-5.7-7.09
	c-5.27-9.4-5.32-20.58-4.67-32.14c3.57-5.99,6.35-14.38,8.44-23.56c0.34,0.34,0.7,0.63,1.03,0.83c1.71,1.41,3.52,0.92,5.07-0.13
	c5.92,4.58,17.84,7.88,22.46,18.9c3.48,8.21-0.09,17.06,5.45,20.87C270.81,162.95,275.19,161.06,275.19,161.06z"/>
<linearGradient id="SVGID_3_" gradientUnits="userSpaceOnUse" x1="59.142" y1="310.5516" x2="258.2703" y2="310.5516">
	<stop  offset="0" style="stop-color:#FFD300"/>
	<stop  offset="1" style="stop-color:#EC7103"/>
</linearGradient>
<path class="st13" d="M168.37,332.42c-1.17,0.65-2.31,1.3-3.43,1.93c-0.52,3.46-1.97,11.42,1.93,24.89c2.13,7.41,5,13.28,7.9,17.89
	h0.02c2.85-2.31,7.05-5.68,11.44-9.22c2.69,9.34,3.97,22.24,2.6,27.89c-0.31,1.35-1.41,2.36-2.76,2.65
	c-5.63,1.14-23.54,4.94-42.1,9.58c-10.75,2.69-24.55,11.24-37.25,17.48c-10.93,5.36-21.03,8.98-27.69,5.66
	c-21.03-10.52-19.88-48.58-19.88-89.67s0.29-91.92,9.36-107.4c9.07-15.51,21.97-19.23,37.77-26.1
	c10.37-4.51,25.29-10.03,31.37-12.59c5.36-2.29,8.53-3.99,10.17-3.07c-0.58,0.61-1.17,1.19-1.8,1.75
	c2.78,9.25,11.38,26.61,50.11,25.94c39.61-0.7,46.45-27.74,47.04-31.35c4.91,2.87,10.23,5.07,15.1,6.75l-2.09,53.03l-3.68,45.24
	c-0.38,0.11-0.74,0.22-1.1,0.31c-6.26,1.62-11.15,2.33-15.66,4.35c-4.53,2.02-13.87,8.95-23.23,14.25
	c-9.36,5.27-19.48,8.44-25.9,11.02C180.29,326.18,174.05,329.3,168.37,332.42z"/>
<path class="st9" d="M252.17,88.89c0.22,3.12-0.58,6.91-1.8,10.68c-1.1,3.52-2.56,7.02-3.93,9.9c-0.96,2.02-1.86,3.77-2.54,4.96
	c-0.7,1.19-1.44,2.27-2.27,3.19c-0.74,0.83-1.75,1.91-2.92,2.67c-1.55,1.05-3.37,1.55-5.07,0.13c-0.34-0.2-0.7-0.49-1.03-0.83
	c-2.09,9.18-4.87,17.57-8.44,23.56c0,0,0,0.02-0.02,0.02c-0.18,0.31-0.34,0.58-0.52,0.85v0.02c-0.63,0.99-1.23,1.95-1.89,2.85
	c-9.74,13.82-22.19,18.18-29.38,18.54c-6.87,0.36-19.59-1.64-31.37-15.84c-1.01-1.19-2-2.47-2.96-3.86
	c-0.27-0.34-0.52-0.67-0.74-1.03c-0.52-0.74-0.99-1.44-1.46-2.18c0-0.02,0-0.02,0-0.02c-4.8-7.34-8.24-15.08-10.77-22.96
	c-0.29,0.27-0.56,0.49-0.83,0.67c-1.89,1.28-5.68-0.67-7.76-2.85c-0.85-0.9-1.66-1.95-2.4-3.1c-0.72-1.17-1.71-2.85-2.76-4.85
	c-1.48-2.81-3.1-6.24-4.33-9.69c-1.39-3.73-2.33-7.5-2.27-10.59c0.04-2.38,0.72-4.35,2.2-5.66c0.04-0.07,0.11-0.11,0.16-0.13
	c0.22-0.18,0.45-0.36,0.67-0.52c1.93-1.35,3.86-1.59,5.63-1.23c3.43,0.7,5.99,3.64,6.4,7.14c0.13,1.1,0.27,2.22,0.45,3.37
	l2.65-19.39c2.58,7.67,6.55,9.9,6.55,9.9s-1.84-8.66,0.34-16c4.87-16.54,10.64-20.47,10.64-20.47s0.81,4.22,4.98,14.03
	c5,11.76,8.51,15.53,8.51,15.53l7.85-0.58c0,0-14.09-19.32-9.49-31.22c0,0,1.19,8.46,6.15,18.13c3.79,7.41,7.97,12.45,7.97,12.45
	s12.07-1.01,25.38-0.2c12.88,0.81,22.37,5.43,22.37,5.43l2.69,12.84c0.11-1.14,0.2-2.29,0.29-3.39c0.25-3.52,2.67-6.58,6.08-7.41
	c1.59-0.4,3.37-0.29,5.21,0.7c0.38,0.22,0.79,0.47,1.17,0.79c0.04,0.02,0.11,0.07,0.16,0.11C251.25,84.59,252.01,86.54,252.17,88.89
	z"/>
<path class="st12" d="M142.88,72.71l-2.65,19.39c-0.18-1.14-0.31-2.27-0.45-3.37c-0.4-3.5-2.96-6.44-6.4-7.14
	c-1.77-0.36-3.7-0.11-5.63,1.23c-0.45-4.15-1.21-14.59,0.29-27c1.71-14.07,9.07-28.59,16.29-36.24
	c12.43-13.13,45.4-26.97,67.93-10.75c0,0,8.77-4.11,20.56,10.12c7.63,9.25,13.15,23.14,15.48,37.9c1.66,9.45,0.99,18.72,0.09,25.58
	c-1.84-0.99-3.61-1.1-5.21-0.7c-3.41,0.83-5.83,3.88-6.08,7.41c-0.09,1.1-0.18,2.24-0.29,3.39l-2.69-12.84c0,0-9.49-4.62-22.37-5.43
	c-13.31-0.81-25.38,0.2-25.38,0.2s-4.17-5.05-7.97-12.45c-4.96-9.67-6.15-18.13-6.15-18.13c-4.6,11.89,9.49,31.22,9.49,31.22
	l-7.85,0.58c0,0-3.5-3.77-8.51-15.53c-4.17-9.81-4.98-14.03-4.98-14.03s-5.77,3.93-10.64,20.47c-2.18,7.34-0.34,16-0.34,16
	S145.46,80.39,142.88,72.71z"/>
<path class="st9" d="M234.55,182.38c2.54,2.38,5.5,4.47,8.62,6.28c-0.58,3.61-7.43,30.65-47.04,31.35
	c-38.73,0.67-47.33-16.7-50.11-25.94c0.63-0.56,1.21-1.14,1.8-1.75c13.15-13.76,12.32-32.02,8.03-49.8
	c0.47,0.74,0.94,1.44,1.46,2.18c0.22,0.36,0.47,0.7,0.74,1.03c0.96,1.39,1.95,2.67,2.96,3.86c11.78,14.21,24.51,16.2,31.37,15.84
	c7.18-0.36,19.64-4.71,29.38-18.54c0.65-0.9,1.26-1.86,1.89-2.85v-0.02c0.18-0.27,0.34-0.54,0.52-0.85c0.02,0,0.02-0.02,0.02-0.02
	c-0.65,11.56-0.61,22.73,4.67,32.14C230.33,177.92,232.28,180.27,234.55,182.38z"/>
<path class="st12" d="M141.22,83.31c0.7,6.04,0.74,12.16-0.66,17.6c-1.43,5.46-3.13,10.73-4.26,16.12
	c-0.52,2.67-1.09,5.45-1.11,8.07c0,2.68,0.61,5.37,1.45,7.98c0.83,2.63,1.95,5.19,2.79,7.88c0.42,1.33,0.78,2.75,0.61,4.18
	c-0.13,1.47-1.26,2.6-2.53,3.14c1.25-0.63,2.23-1.79,2.26-3.17c0.06-1.35-0.36-2.69-0.86-3.97c-1-2.57-2.3-5.05-3.32-7.68
	c-1.03-2.62-1.87-5.38-2.07-8.29c-0.16-2.96,0.23-5.71,0.59-8.53c0.79-5.6,2.16-11.06,3.19-16.47c1.02-5.39,1.66-10.81,0.72-15.86
	c-0.23-1.22,0.57-2.39,1.79-2.62C141.01,81.46,140.5,81.74,141.22,83.31z"/>
<path class="st12" d="M236.08,77.09c2.19,5.32,4.59,11.12,5.94,17.02c1.44,5.91,2.05,12.03,1.72,18.08
	c-0.19,3.19-1.18,6.11-2.23,8.91c-1.07,2.81-2.29,5.52-3.38,8.26c-1.07,2.74-2.1,5.53-2.42,8.44c-0.36,2.86,0.37,6,2.68,8
	c-2.43-1.82-3.44-5.04-3.24-8.04c0.14-3.03,1.02-5.94,1.93-8.78c0.93-2.84,1.97-5.63,2.84-8.43c0.86-2.8,1.6-5.65,1.58-8.42
	c-0.06-5.83-1-11.6-2.72-17.14c-0.85-2.77-1.14-6.41-2.3-9.07c-1.16-2.69-1.52-4.13-2.84-6.96c-0.52-1.12-1.73-2.62-0.61-3.15
	c1.12-0.52,2.46-0.04,2.98,1.08c0.01,0.03,0.03,0.06,0.04,0.09L236.08,77.09z"/>
</svg>
