<?xml version="1.0" encoding="utf-8"?>
<!-- Generator: Adobe Illustrator 25.0.1, SVG Export Plug-In . SVG Version: 6.00 Build 0)  -->
<svg version="1.1" id="layer" xmlns="http://www.w3.org/2000/svg" xmlns:xlink="http://www.w3.org/1999/xlink" x="0px" y="0px"
	 viewBox="0 0 511 511" style="enable-background:new 0 0 511 511;" xml:space="preserve">
<style type="text/css">
	.st0{fill:#333333;}
	.st1{fill:#666666;}
	.st2{fill:url(#SVGID_1_);}
	.st3{opacity:0.1;fill:#FFFFFF;}
	.st4{fill:#FFFFFF;}
	.st5{fill:#F9E0CA;}
	.st6{fill:none;stroke:#000000;stroke-width:3;stroke-linecap:round;stroke-linejoin:round;stroke-miterlimit:10;}
</style>
<path class="st0" d="M258.68,48.54c0.74,0,1.35,0.6,1.35,1.35c0,0.74-0.61,1.34-1.35,1.34H236.5c-0.74,0-1.35-0.6-1.35-1.34
	c0-0.75,0.61-1.35,1.35-1.35H258.68z"/>
<path class="st1" d="M269.74,47.43c1.47,0,2.66,1.19,2.66,2.65c0,1.47-1.19,2.66-2.66,2.66c-1.46,0-2.65-1.19-2.65-2.66
	C267.1,48.62,268.28,47.43,269.74,47.43z"/>
<linearGradient id="SVGID_1_" gradientUnits="userSpaceOnUse" x1="156.1367" y1="243.7258" x2="338.3617" y2="243.7258">
	<stop  offset="0" style="stop-color:#FFD300"/>
	<stop  offset="1" style="stop-color:#EC7103"/>
</linearGradient>
<path class="st2" d="M338.36,61.56V425.9c0,9.26-7.52,16.78-16.78,16.78H172.91c-9.27,0-16.78-7.52-16.78-16.78V61.56
	c0-9.27,7.52-16.78,16.78-16.78h15.92c1.63,0,3.25,0.17,4.84,0.52c0.73,0.16,1.37,0.56,1.82,1.12c0.45,0.56,0.71,1.25,0.71,2.01
	v2.38c0,4.93,4,8.93,8.93,8.93h84.67c2.46,0,4.7-1,6.32-2.61c1.61-1.62,2.61-3.85,2.61-6.32v-2.69c0-1.35,0.93-2.53,2.26-2.83
	c1.49-0.34,3.01-0.51,4.53-0.51h16.05C330.85,44.78,338.36,52.29,338.36,61.56z"/>
<path d="M350.7,62.3v363.92c0,15.74-12.77,28.51-28.51,28.51H172.3c-15.74,0-28.51-12.77-28.51-28.51V62.3
	c0-15.74,12.77-28.51,28.51-28.51h149.89C337.93,33.79,350.7,46.56,350.7,62.3z M338.36,425.9V61.56c0-9.27-7.52-16.78-16.78-16.78
	h-16.05c-1.52,0-3.04,0.17-4.53,0.51c-1.32,0.3-2.26,1.48-2.26,2.83v2.69c0,2.47-1,4.7-2.61,6.32c-1.61,1.61-3.85,2.61-6.32,2.61
	h-84.67c-4.93,0-8.93-4-8.93-8.93v-2.38c0-0.76-0.26-1.45-0.71-2.01c-0.45-0.56-1.08-0.96-1.82-1.12c-1.59-0.35-3.21-0.52-4.84-0.52
	h-15.92c-9.27,0-16.78,7.52-16.78,16.78V425.9c0,9.26,7.51,16.78,16.78,16.78h148.67C330.85,442.68,338.36,435.16,338.36,425.9z
	 M272.4,50.08c0-1.46-1.19-2.65-2.66-2.65c-1.46,0-2.65,1.19-2.65,2.65c0,1.47,1.19,2.66,2.65,2.66
	C271.21,52.74,272.4,51.55,272.4,50.08z M260.03,49.89c0-0.75-0.61-1.35-1.35-1.35H236.5c-0.74,0-1.35,0.6-1.35,1.35
	c0,0.74,0.61,1.34,1.35,1.34h22.17C259.42,51.23,260.03,50.63,260.03,49.89z"/>
<path class="st3" d="M350.7,62.3v363.92c0,15.74-12.77,28.51-28.51,28.51H172.3c-10.91,0-20.4-6.14-25.19-15.15l198.31-393.8
	C348.74,50.44,350.7,56.14,350.7,62.3z"/>
<g id="hand_1_">
	<path class="st4" d="M187.23,162.78h-4.53c-4.47,0-8.08-3.62-8.08-8.08v-23.24c0-4.47,3.62-8.08,8.08-8.08h22.94
		c2.92,0,5.47,1.54,6.9,3.86c-10.17-2.57-17.37-2.07-22.64,5.18C183,141.89,182.62,152.56,187.23,162.78z"/>
	<path class="st5" d="M531.55,421.39c12.21,22.68,90.13,159.33,90.13,159.33l0.12,0.17c6.01,8.93,3.88,21.05-4.86,27.34
		c-15.68,11.29-42.12,25.48-77.18,26.2c-33.54,0.68-59.85-11.28-76.84-22.24c-12.35-7.96-21.81-19.66-27.04-33.39
		c-2.14-5.61-5-13.04-8.82-22.84c-14-35.91-34.11-54.58-42.37-59.25c-8.26-4.67-25.14-3.59-38.78-11.85
		c-12.32-7.45-24.92-22.51-30.17-30.13h6.45c15.74,0,28.51-12.77,28.51-28.51v-18.84c-3.51-5.97-7.94-13.61-12.33-21.5
		c-5.81-10.44-11.56-21.31-15.03-29.29c-9.18-21.14-13.03-48.25-19.43-80.49s-41.21-56.58-47.19-61.28
		c-5.98-4.7-13.66-8.11-40.78-23.49c-13.8-7.83-23.94-17.95-28.71-28.56c-4.61-10.22-4.22-20.89,2.67-30.38
		c5.27-7.25,12.47-7.75,22.64-5.18c3.64,0.92,7.66,2.24,12.12,3.78c16.89,5.84,30.04,11.69,43.84,15.42s18.53,9.02,33.31,26.26
		c11.11,12.97,24.46,27.05,36.57,37c4,3.29,7.86,6.12,11.47,8.32c0.29,0.18,0.58,0.35,0.87,0.53v-44.27
		c7.22,3.36,26.14,13.13,31.2,22.06c5.32,9.38,27.53,43.48,36.29,61.31c8.76,17.83,30.93,68.17,48.01,85.72
		C483.28,360.91,519.34,398.71,531.55,421.39z"/>
	<path class="st5" d="M143.8,270.88c3.91,8,4.7,20.28,2.45,32.42c-0.57,3.11-1.41,5.69-2.45,7.81c-4.24,8.67-11.87,9.89-18.88,8.91
		c-8.73-1.21-11.88-16.24-10.67-25.7c1.18-9.2,9.24-24.36,13.03-29.64c6.17,0.79,12.84-1.7,16.52-4.11V270.88z"/>
	<path class="st5" d="M143.8,338.04c1.96,6.8,2.38,16.79,0.72,24.5c-0.17,0.8-0.42,1.55-0.72,2.24c-4.04,9.21-19.05,9.23-27.54,3.84
		c-9.13-5.8-10.19-18.26-4.74-26.52c5.1-7.74,22.08-18.8,32.29-23.92V338.04z"/>
	<path class="st5" d="M143.8,213.4c6.87,10.08,6.6,42.67,0.26,47c-0.09,0.06-0.17,0.11-0.26,0.17c-3.68,2.42-10.35,4.9-16.52,4.11
		c-4.98-0.64-9.62-3.4-12.1-10.06c-5.62-15.1,9.83-34.77,13.35-40.39c2.65-4.24,9.5-10.08,15.27-13V213.4z"/>
	<path class="st5" d="M143.8,143.44c-14.3-6.56-30.04-20.46-23.36-31.31c5.71-9.28,13.64-10.23,23.36-10.63V143.44z"/>
</g>
<g id="txt">
	<line class="st6" x1="379.64" y1="71.15" x2="416.03" y2="17.45"/>
	<line class="st6" x1="428.12" y1="180.72" x2="496.4" y2="183.29"/>
	<g>
		<path d="M463.69,74.1c-3.62-5.12-7.23-10.29-10.81-15.5c-0.09-0.22-0.19-0.43-0.32-0.63c-0.19-0.3-0.42-0.57-0.67-0.81
			c-3.73-5.45-7.42-10.93-11.05-16.39c-1.26-1.91-3.83-2.43-5.74-1.16c-1.67,1.11-2.28,3.22-1.55,5.01c0.1,0.25,0.23,0.49,0.39,0.73
			c3.01,4.55,6.08,9.1,9.17,13.64c-10.55,6.48-21.45,12.61-32.45,18.22c-1.93,0.99-2.76,3.28-1.95,5.25
			c0.04,0.11,0.09,0.22,0.15,0.32c1.04,2.04,3.53,2.85,5.57,1.81c11.32-5.78,22.52-12.08,33.37-18.76
			c3.03,4.39,6.07,8.75,9.13,13.07c1.32,1.87,3.91,2.31,5.77,0.99C464.57,78.55,465.01,75.97,463.69,74.1z"/>
		<path d="M471.67,92.82c0.88-1.29,0.97-2.96,0.22-4.32c-0.75-1.37-2.2-2.2-3.75-2.16c-8.68,0.25-17.38,1.56-25.8,3.88
			c-0.17,0.04-0.34,0.08-0.5,0.14c-6.16,1.72-12.16,3.98-17.89,6.74c-1.98,0.96-2.86,3.28-2.04,5.29c0.03,0.08,0.07,0.16,0.11,0.24
			c0.99,2.06,3.47,2.92,5.53,1.93c4.62-2.23,9.43-4.09,14.36-5.59c2.4,2.63,4.79,5.27,7.19,7.9l1.02,1.13
			c-3.67,4.59-7.45,9.08-11.34,13.44c-1.52,1.71-1.37,4.33,0.34,5.85c1.71,1.52,4.33,1.37,5.85-0.34
			C454.54,116.18,463.52,104.7,471.67,92.82z M455.22,101.29c-1.41-1.55-2.82-3.1-4.22-4.64c2.93-0.6,5.88-1.08,8.84-1.42
			c-1.49,2.06-3.01,4.1-4.56,6.13L455.22,101.29z"/>
		<path d="M496.36,136.51c0.6-4.8-1.2-9.16-2.84-12.42c-2.02-4.03-4.49-7.84-7.37-11.31c-1.39-1.69-3.86-2-5.63-0.71
			c-5.21,3.8-10.44,7.57-15.53,11.2c0,0,0,0-0.01,0c-6.59,4.71-13.34,9.46-20.03,14.12c-1.62,1.13-2.19,3.2-1.47,4.96
			c0.11,0.28,0.26,0.55,0.44,0.8c1.31,1.88,3.89,2.34,5.76,1.03c5.62-3.91,11.28-7.89,16.85-11.85c2.51,3.19,5.19,6.25,8.01,9.16
			c1.76,1.81,5.87,6.04,11.37,5.71C491.14,146.92,495.64,142.31,496.36,136.51z M485.42,138.96c-1.53,0.09-3.55-1.79-4.94-3.22
			c-2.53-2.61-4.94-5.36-7.2-8.21c2.93-2.1,5.89-4.24,8.86-6.39c1.49,2.11,2.83,4.34,3.98,6.65c1.65,3.3,2.28,5.67,2.03,7.69
			C487.93,137.23,486.63,138.89,485.42,138.96z"/>
	</g>
</g>
</svg>
