<?xml version="1.0" encoding="utf-8"?>
<!-- Generator: Adobe Illustrator 25.2.3, SVG Export Plug-In . SVG Version: 6.00 Build 0)  -->
<svg version="1.1" id="レイヤー_1" xmlns="http://www.w3.org/2000/svg" xmlns:xlink="http://www.w3.org/1999/xlink" x="0px"
	 y="0px" viewBox="0 0 443.9 500" style="enable-background:new 0 0 443.9 500;" xml:space="preserve">
<style type="text/css">
	.st0{fill:#E0E0E0;}
	.st1{fill:#F5F5F5;}
	.st2{fill:#FFFFFF;}
	.st3{fill:#FAFAFA;}
	.st4{fill:#263238;}
	.st5{fill:#455A64;}
	.st6{fill:#EBEBEB;}
	.st7{fill:#EC7103;}
	.st8{opacity:0.3;}
	.st9{fill:#EEEEEE;}
	.st10{fill:#4C4948;}
	.st11{fill:url(#SVGID_1_);}
	.st12{fill:#FFBE9D;}
	.st13{fill:#EB996E;}
	.st14{fill:#333333;}
</style>
<g id="freepik--background-complete--inject-158">
	<rect x="8.3" y="34" class="st0" width="94.5" height="136.9"/>
	<rect x="3.5" y="34" class="st1" width="94.5" height="136.9"/>
	<rect x="15.3" y="48.9" class="st2" width="71" height="107.3"/>
	<path class="st0" d="M86.3,156.1c0,0,0-0.2,0-0.5s0-0.9,0-1.5c0-1.4,0-3.3,0-5.9c0-5.1,0-12.6-0.1-22.1c0-18.9-0.1-45.7-0.1-77.2
		l0.2,0.2h-71l0,0l0.2-0.3c0,40.5,0,77.8,0,107.3l-0.2-0.2L67,156l14.3,0.1H85H86.3l-1.2-0.1h-3.7H67.1l-51.8,0.1h-0.2V156
		c0-29.5,0-66.8,0-107.3v-0.2h0.3h71h0.2v0.2c0,31.6-0.1,58.5-0.1,77.4c0,9.4,0,16.9-0.1,22c0,2.5,0,4.5,0,5.8c0,0.6,0,1.1,0,1.5
		S86.3,156.1,86.3,156.1z"/>
	<path class="st0" d="M98.3,34c-0.5,0.9-1.1,1.7-1.7,2.5c-1.1,1.5-2.7,3.5-4.4,5.6s-3.4,4.1-4.7,5.4c-0.6,0.8-1.3,1.5-2.1,2.1
		c0.5-0.8,1.1-1.6,1.8-2.4l4.6-5.5l4.5-5.5C96.9,35.4,97.6,34.7,98.3,34z"/>
	<path class="st2" d="M86.6,155.8c3.5,5.6,7.7,10.8,12.4,15.5"/>
	<path class="st0" d="M99,171.3c-0.8-0.6-1.5-1.3-2.2-2c-3.3-3.4-6.2-7-8.8-11c-0.6-0.8-1.1-1.6-1.4-2.5c0.6,0.7,1.2,1.5,1.7,2.3
		c1,1.5,2.5,3.5,4.2,5.6s3.3,4,4.5,5.4C97.8,169.7,98.4,170.5,99,171.3z"/>
	<path class="st2" d="M3.5,170.9l12.4-15.3"/>
	<path class="st0" d="M15.9,155.6c-1.9,2.7-3.9,5.3-6,7.8c-2,2.6-4.1,5.1-6.4,7.5c1.9-2.7,3.9-5.3,6-7.8
		C11.5,160.5,13.6,158,15.9,155.6z"/>
	<path class="st0" d="M3.5,34c2.1,2.3,4.1,4.7,6,7.2c2,2.4,3.9,4.9,5.6,7.5c-2.1-2.3-4.1-4.7-6-7.2C7.1,39.1,5.3,36.6,3.5,34z"/>
	<rect x="40.4" y="70.6" class="st0" width="23.8" height="67.5"/>
	<rect x="365.2" y="143.9" class="st0" width="78.7" height="114"/>
	<rect x="361.3" y="143.9" class="st1" width="78.7" height="114"/>
	<rect x="371.1" y="156.3" class="st2" width="59.1" height="89.3"/>
	<path class="st0" d="M430.2,245.6c0,0,0-0.1,0-0.4s0-0.7,0-1.3c0-1.1,0-2.8,0-4.9c0-4.3,0-10.5,0-18.4c0-15.8-0.1-38.1-0.1-64.3
		l0.2,0.2h-59.2l0.2-0.2c0,33.7,0,64.8,0,89.3l-0.2-0.2l43,0.1H426h3.1L430.2,245.6l-1-0.1h-3.1h-11.9l-43.1,0.1H371v-0.2
		c0-24.6,0-55.6,0-89.3v-0.2h59.5v0.2c0,26.3-0.1,48.7-0.1,64.4c0,7.9,0,14.1,0,18.4c0,2.1,0,3.8,0,4.9c0,0.5,0,1,0,1.2
		S430.2,245.6,430.2,245.6z"/>
	<path class="st0" d="M440.2,143.9c-0.4,0.7-0.9,1.4-1.4,2c-0.9,1.2-2.2,2.9-3.7,4.7s-2.9,3.4-3.9,4.5c-0.5,0.6-1.1,1.2-1.7,1.8
		c0.4-0.7,1-1.4,1.5-2l3.8-4.6l3.8-4.6C439,145.1,439.6,144.5,440.2,143.9z"/>
	<path class="st2" d="M430.5,245.3c2.9,4.7,6.4,9,10.3,12.9"/>
	<path class="st0" d="M440.8,258.2c-0.7-0.5-1.3-1-1.8-1.6c-1.4-1.4-2.7-2.9-3.9-4.4c-1.2-1.5-2.4-3.1-3.4-4.8
		c-0.5-0.7-0.9-1.4-1.2-2.1c0.5,0.6,1,1.3,1.5,1.9c0.9,1.2,2.1,2.9,3.5,4.7s2.8,3.3,3.8,4.4C439.8,256.9,440.3,257.5,440.8,258.2z"
		/>
	<path class="st2" d="M361.3,257.9l10.3-12.7"/>
	<path class="st0" d="M371.6,245.1c-1.6,2.2-3.2,4.4-5,6.5c-1.7,2.2-3.4,4.2-5.3,6.2c1.6-2.3,3.2-4.4,5-6.5
		C367.9,249.2,369.7,247.1,371.6,245.1z"/>
	<path class="st0" d="M361.3,143.9c1.8,1.9,3.4,3.9,5,6c1.7,2,3.2,4.1,4.7,6.2c-1.8-1.9-3.4-3.9-5-6
		C364.3,148.2,362.7,146.1,361.3,143.9z"/>
	<rect x="392" y="174.4" class="st0" width="19.8" height="56.2"/>
	<path class="st0" d="M29.2,363.2c-5-3.1-10.6-5-16.4-5.6c-2.7-0.3-5.6-0.2-7.7,1.4c-0.5,0.3-0.8,0.8-0.8,1.4c0.1,0.4,0.4,0.8,0.8,1
		C11.7,366.5,21.7,367.2,29.2,363.2"/>
	<path class="st0" d="M28.8,362.8c-3.8-2.8-7.3-5.9-10.6-9.3s-5.5-7.7-6.6-12.3c-0.4-1.4-0.2-2.9,0.5-4.1
		C20.5,343.7,27.1,352.2,28.8,362.8"/>
	<path class="st0" d="M29.1,363.2c-0.8-4.6-0.7-9.3,0.2-13.9c0.9-4.6,3.6-8.7,7.4-11.5c1.5,3.4,0.8,7.3-0.2,10.9
		c-1.6,5.5-4.1,10.7-7.3,15.4"/>
	<path class="st0" d="M37.3,378c-5,0.6-9.4,3.2-13.1,6.6c-3.8,3.4-6.4,7.9-7.5,12.9c4.9-0.3,9.1-3.8,12.1-7.7
		C31.9,386,34,381.7,37.3,378"/>
	<path class="st0" d="M39.2,380.4c-4-10.2-2.6-21.7,3.7-30.6C45.7,359.9,44.7,371.4,39.2,380.4"/>
	<path class="st0" d="M50.1,393.4c-9.4-0.6-18.2,4.5-22.4,12.9c-0.3,0.6-0.5,1.3-0.2,1.8c0.4,0.4,1,0.5,1.5,0.4
		c4.4-0.3,8.3-2.9,11.5-6S46.6,395.9,50.1,393.4"/>
	<path class="st0" d="M49.7,392.6c-2.4-7.6-2.5-15.6-0.4-23.3c0.8-3,2.2-6.2,5-7.6c0.2-0.1,0.5-0.2,0.8-0.1c0.2,0.1,0.4,0.3,0.5,0.6
		c0.9,2.1,1.3,4.4,1.2,6.7c-0.1,2.3-0.5,4.5-1,6.8c-0.9,4.1-1.3,8.6-3.6,12.1c-0.5,0.9-1,1.8-1.4,2.7c-0.4,0.9-0.4,1.2-0.8,2"/>
	<path class="st0" d="M78.6,397c-2.1-8.1,0.1-18,5.3-24.7c0.4-0.5,0.9-1,1.5-1c1,0.1,1.2,1.4,1.2,2.3C86.1,382,83.4,390.1,78.6,397"
		/>
	<path class="st0" d="M81.2,398.7c9.9,2.6,21.2,0.1,29.5-6c-4.9-2.5-10.6-3.2-16-2C89.4,392,84.5,394.4,81.2,398.7"/>
	<path class="st0" d="M83.4,393.3c5.5-9,16.2-14.9,26.7-15.5c-1.2,4.3-4.8,7.6-8.8,9.7s-8.4,2.9-12.8,3.8
		C86.9,391.6,84.5,392,83.4,393.3"/>
	<path class="st0" d="M79.2,367c1.5-5.1,3-10.3,3.4-15.7s-0.3-10.9-3.1-15.5c-5.2,10-5.7,21.7-0.4,31.7"/>
	<path class="st0" d="M96.6,358.2c6.1-11,18.4-19.8,30.9-21C122.7,349.2,109.5,358.5,96.6,358.2"/>
	<path class="st0" d="M92.8,360.4c9,1.4,16.7,7.1,25.2,10.6c1.8,0.9,3.7,1.2,5.7,1.1c2.5,0,4.4-2,4.4-4.5c0-1.3-0.6-2.5-1.6-3.4
		c-1.2-1.1-2.6-2-4.1-2.5c-9.2-3.8-19.1-3.9-28.7-1.6"/>
	<path class="st0" d="M87.6,366.7c2,0.6,2.7,1.6,4.4,3c5.5,4.7,12,8,19.1,9.8c0.7,0.2,1.7,0.2,2.1-0.4s-0.1-1.3-0.5-1.8
		c-3.1-3.6-7-6.3-11.5-7.8c-4.4-1.6-8.2-3.6-13.5-3.2"/>
	<path class="st0" d="M81.7,328.4c7.5,6.9,17.5,10.3,27.7,9.4c0.5,0,0.9-0.2,1.3-0.5c0.7-0.8-0.1-1.9-1-2.6
		C101.5,328.5,91.6,325.8,81.7,328.4"/>
	<path class="st0" d="M88.7,325.9c9.9-7.3,22.8-9.4,34.5-5.7c-4.4,4.3-10.4,6.6-16.5,7.2C100.7,328,94.6,327.4,88.7,325.9"/>
	<path class="st0" d="M85.9,308.3c-0.8-8.1-0.3-14.5-0.8-22.7c0-0.7-0.2-1.4-0.8-1.7c-0.8-0.3-1.6,0.7-1.8,1.6
		c-2.4,7.7-1.1,16,3.5,22.6"/>
	<path class="st0" d="M85.3,309.2c5.5-3.4,9.6-7.9,13.5-13.1c2.6-3.6,4.9-8,4.3-12.5c-3.7-0.1-7.3,2-9.7,4.8c-2.3,2.9-4,6.3-4.9,10
		C87.3,302,86.6,305.7,85.3,309.2"/>
	<path class="st0" d="M98.5,305.5c12.1-4.5,23.3-11.1,33.1-19.5c-4-1.6-8.5-0.6-12.4,1c-9,3.6-16.4,9.8-20.9,18.5"/>
	<path class="st0" d="M89,313.6c6.1,0.7,12.3,1.1,18.4,0.1s11.6-3.4,17.2-5.7c0.5-0.1,0.9-0.4,1.2-0.9c0.2-0.5,0-1.1-0.4-1.5
		c-0.4-0.3-0.9-0.6-1.5-0.7c-6.1-1.7-12.6-0.9-18.6,1.1C99.6,308,94.2,310.6,89,313.6"/>
	<path class="st0" d="M54.1,328.7c-4.2-8.4-3.9-18.2-0.3-26.9c2.5,3.9,2.8,8.8,2.4,13.4s-1.9,9.3-2,14"/>
	<path class="st0" d="M37.4,320.3c-10.6-0.1-20.7,4.2-27.9,11.9c5.2,0.8,10.5-0.5,15.3-2.8s8.9-5.5,13.1-8.8"/>
	<path class="st0" d="M26.2,316.6c-5.1-0.4-10-1-14.9,0.5S2,321.9,0,326.6c4.8,0.4,9.7-0.5,14-2.6S22.4,319.4,26.2,316.6"/>
	<path class="st0" d="M42.8,316.7c-4.6-3-9.3-6.1-14.6-7.3s-11.5-0.3-15.2,3.7c4.3,2.5,9.6,2.8,14.6,2.8s11.1-0.1,15.9,1.6"/>
	<path class="st0" d="M42.9,317c-7.8-7.7-10.8-21.5-7.7-32C41.4,294.5,44.1,305.8,42.9,317"/>
	<path class="st0" d="M64.4,295.2c1.5-3.4,2.5-7,3.8-10.5c1.2-3.5,3.1-6.8,5.5-9.7c2.5-2.9,5.9-4.7,9.7-5
		c-2.4,10.7-9.3,19.9-18.8,25.3"/>
	<path class="st0" d="M60.5,299.7c-2.4-3.4-5.3-7.9-8.6-10.4s-7.6-4-11.7-3.1C44.5,293.6,52,298.7,60.5,299.7"/>
	<path class="st0" d="M61.3,295.5c-1.8-4-3-8.2-3.9-12.5c-0.7-4.3-0.2-9,2-12.7c4.3,8.1,5.7,16.9,2.1,25.3"/>
	<path class="st0" d="M64.4,270.2c2.4-8.1,9.8-14,17.8-16.7c1-0.4,2.1-0.6,3.1-0.5c1.1,0.1,2,0.9,2.3,1.9c0.3,1.4-0.8,2.6-1.9,3.5
		C79.5,263.8,72.3,267.8,64.4,270.2"/>
	<path class="st0" d="M64.5,263.6c0.3-5.2,0.6-10.5,2.3-15.4s5-9.5,9.7-11.7c0.8,5.2-1.5,10.5-4.3,15c-2.8,4.5-6.2,8.8-7.8,13.8"/>
	<path class="st0" d="M64.4,267.2c-2-5.9-2.2-13.3-5.7-18.4c-2.4-3.6-6.4-6-8.5-9.8c-1.3,3.6-1.1,7.6,0.5,11.1s3.8,6.6,6.5,9.3
		C59.8,262.2,62,264.2,64.4,267.2"/>
	<path class="st0" d="M64.4,440.2c-0.2,0-0.3-39.2-0.3-87.5s0.1-87.5,0.3-87.5s0.3,39.2,0.3,87.5S64.6,440.2,64.4,440.2z"/>
	<path class="st0" d="M98.7,322.8c-0.5,0.2-1,0.4-1.5,0.6l-4.1,1.4c-3.4,1.2-8.1,2.9-13.2,4.9s-9.8,3.9-12.5,6.3
		c-1.1,0.9-1.9,2-2.5,3.3c-0.4,0.9-0.5,1.5-0.5,1.5c0-0.1,0-0.3,0-0.4c0.1-0.4,0.2-0.8,0.3-1.1c0.5-1.4,1.4-2.6,2.4-3.5
		c1.6-1.4,3.5-2.5,5.4-3.4c2.2-1,4.6-2.1,7.1-3.1c5.1-2.1,9.8-3.7,13.3-4.8c1.7-0.5,3.1-0.9,4.1-1.2C97.6,323,98.2,322.9,98.7,322.8
		z"/>
	<path class="st0" d="M109.9,295.2c-0.1,0.2-0.3,0.3-0.4,0.4l-1.2,1.2l-4.7,4.3L87.9,315c-6.1,5.4-11.4,10.6-15,14.5
		c-1.8,2-3.3,3.6-4.2,4.7l-1.1,1.3c-0.3,0.3-0.4,0.5-0.4,0.4c0.1-0.2,0.2-0.3,0.3-0.5c0.2-0.3,0.6-0.8,1.1-1.4
		c0.9-1.2,2.3-2.8,4.1-4.8c4.7-5.1,9.7-10,14.9-14.7c6.1-5.4,11.7-10.3,15.7-13.8l4.8-4.1l1.3-1.1
		C109.8,295.3,109.9,295.2,109.9,295.2z"/>
	<path class="st0" d="M81.3,320.5c-0.2-0.1,1.1-3,2.4-6.7s1.9-6.9,2-6.8c-0.1,2.4-0.7,4.8-1.5,7c-0.5,1.6-1.2,3.2-1.9,4.7
		C82.1,319.3,81.7,320,81.3,320.5z"/>
	<path class="st0" d="M64.5,344.3c-0.3-0.3-0.7-0.7-0.9-1.1l-2.4-3.1c-2-2.6-4.8-6.2-7.9-10.2s-6-7.5-8.1-10l-2.5-3
		c-0.3-0.4-0.6-0.7-0.8-1.2c0.4,0.3,0.7,0.6,1,1c0.6,0.7,1.5,1.7,2.6,2.9c2.2,2.5,5.1,6,8.2,10s5.9,7.6,7.8,10.3
		c1,1.3,1.8,2.4,2.3,3.2C64,343.4,64.3,343.8,64.5,344.3z"/>
	<path class="st0" d="M57,334.6c-1.5-1.7-2.6-3.7-3.1-5.9c-0.6-1.9-0.8-3.9-0.7-5.9h0.2c-0.1,0.5-0.2,0.7-0.2,0.7s0-0.3,0-0.7h0.2
		c0.1,2,0.5,3.9,1,5.8C55.1,330.6,56,332.7,57,334.6z"/>
	<path class="st0" d="M47.3,322.4c-0.7-0.5-1.4-0.9-2.2-1.3c-2-0.6-4-0.8-6.1-0.5c-2.1,0.2-4.1,0.5-6.1,1c-0.8,0.3-1.7,0.5-2.5,0.6
		c0.8-0.4,1.6-0.8,2.4-1c2-0.6,4.1-1,6.2-1.2c2.1-0.3,4.3,0,6.3,0.7C46.1,321.1,46.8,321.7,47.3,322.4z"/>
	<path class="st0" d="M45,319.5c0,0.1-1.3-0.5-3.4-1.2c-2.7-0.9-5.5-1.5-8.4-1.7s-5.7-0.1-8.6,0.4c-2.2,0.4-3.5,0.8-3.5,0.7
		c0.3-0.2,0.6-0.3,0.9-0.4c0.8-0.3,1.7-0.5,2.5-0.7c5.7-1.3,11.7-0.8,17.2,1.3c0.8,0.3,1.6,0.7,2.4,1.1
		C44.5,319.1,44.7,319.3,45,319.5z"/>
	<path class="st0" d="M64.4,307c-1-2.8-1.8-5.6-2.4-8.5c-0.8-2.8-1.5-5.7-1.9-8.7c1,2.8,1.8,5.6,2.4,8.5
		C63.3,301.2,64,304.1,64.4,307z"/>
	<path class="st0" d="M64.6,307c-0.8-1.8-1.7-3.5-2.7-5.1c-1.2-1.5-2.5-2.9-4-4.1c0.6,0.1,1.1,0.4,1.5,0.8c1.1,0.8,2.1,1.8,2.9,3
		C63.5,303.1,64.3,305,64.6,307z"/>
	<path class="st0" d="M64.4,419.3c-0.1,0-0.2-1-0.6-2.6c-0.6-2.3-1.5-4.6-2.6-6.8c-2.7-5.5-7.6-12.5-13.9-19.6
		c-3.1-3.5-6.1-6.9-8.7-10.1c-2.3-2.8-4.4-5.8-6.2-8.9c-1.2-2.1-2.3-4.3-3.1-6.6c-0.3-0.8-0.5-1.5-0.6-1.9c-0.1-0.2-0.1-0.4-0.2-0.7
		c0,0,0.3,0.9,1,2.5c0.9,2.2,2,4.4,3.2,6.5c1.9,3.1,4,6,6.3,8.8c2.6,3.2,5.6,6.5,8.7,10c6.3,7,11.2,14.1,13.8,19.8
		c1.1,2.2,1.9,4.5,2.5,6.9c0.2,0.9,0.3,1.5,0.3,2C64.4,418.8,64.4,419,64.4,419.3z"/>
	<path class="st0" d="M95.4,384.3c-0.5,0.3-1.1,0.6-1.6,0.9c-1.5,0.8-2.9,1.8-4.2,2.8c-2,1.5-3.8,3.2-5.5,5c-1.9,2-3.9,4.4-6,7
		c-4.1,5.1-7.9,9.6-10.2,13.2c-1.2,1.8-2,3.3-2.6,4.4c-0.3,0.6-0.6,1.1-0.9,1.6c0-0.2,0.1-0.3,0.2-0.5c0.1-0.3,0.3-0.7,0.6-1.3
		c0.7-1.5,1.5-3,2.4-4.5c2.2-3.7,6-8.3,10.1-13.4c2-2.6,4.1-4.9,6-7c1.7-1.8,3.6-3.5,5.7-5c1.4-1,2.8-1.9,4.3-2.7
		c0.5-0.3,1-0.4,1.3-0.6C95,384.4,95.2,384.3,95.4,384.3z"/>
	<path class="st0" d="M96,395.7c-1.1,0.2-2.3,0.4-3.4,0.5c-2.8,0.3-5.5,0.8-8.1,1.6c-2.6,0.9-5.1,2.2-7.3,3.8
		c-1.7,1.3-2.5,2.4-2.5,2.3s0.1-0.3,0.5-0.8c0.5-0.7,1.1-1.3,1.8-1.8c2.2-1.8,4.7-3.1,7.4-4c2.7-0.8,5.5-1.3,8.3-1.5
		C93.7,395.7,94.8,395.6,96,395.7z"/>
	<path class="st0" d="M75.6,402.6c-0.2-0.1,1.4-2.5,2.6-5.6s1.4-6,1.6-6c0.1,0.6,0.1,1.2-0.1,1.8c-0.2,1.5-0.5,2.9-1,4.3
		s-1.2,2.7-2,4C76.4,401.7,76,402.2,75.6,402.6z"/>
	<path class="st0" d="M105.4,353.9c-0.2,0.1-0.3,0.2-0.5,0.3l-1.6,0.7c-0.7,0.3-1.6,0.7-2.5,1.2s-2.1,1-3.3,1.7l-1.9,1.1
		c-0.6,0.4-1.3,0.8-2,1.2c-1.4,0.8-2.8,1.9-4.2,2.9c-3.1,2.4-6.1,5-8.8,7.8c-2.7,2.8-5.2,5.9-7.5,9.1c-1,1.5-2,2.9-2.8,4.3
		c-0.4,0.7-0.8,1.4-1.2,2l-1,1.9c-0.7,1.2-1.1,2.4-1.6,3.3s-0.8,1.9-1.1,2.6l-0.6,1.6c-0.1,0.2-0.2,0.4-0.3,0.5
		c0-0.2,0.1-0.4,0.2-0.6c0.2-0.4,0.3-1,0.6-1.7s0.6-1.6,1-2.6s0.9-2.2,1.5-3.4c0.3-0.6,0.6-1.3,1-1.9s0.8-1.3,1.2-2
		c0.8-1.4,1.8-2.9,2.8-4.4c2.3-3.3,4.8-6.3,7.5-9.2c2.8-2.8,5.8-5.4,8.9-7.8c1.5-1,2.9-2.1,4.3-2.9c0.7-0.4,1.3-0.9,2-1.2l1.9-1
		c1.2-0.7,2.4-1.2,3.3-1.7s1.9-0.8,2.6-1.1l1.6-0.6C105,354.1,105.2,354,105.4,353.9z"/>
	<path class="st0" d="M80.9,370.3c0.2-0.8,0.7-1.5,1.3-2c1.5-1.3,3.4-2,5.4-2.1c2,0,3.9,0.4,5.7,1.1c0.8,0.2,1.5,0.6,2.2,1
		c-0.8-0.2-1.5-0.4-2.3-0.7c-1.8-0.6-3.7-0.9-5.6-0.9s-3.7,0.7-5.2,1.8C81.9,369.1,81.4,369.7,80.9,370.3z"/>
	<path class="st0" d="M77.3,374.1c0.7-1.6,1.2-3.3,1.5-5c0.1-1.8,0-3.5-0.3-5.2c0.3,0.4,0.5,0.9,0.6,1.5c0.7,2.5,0.3,5.2-0.9,7.5
		C77.8,373.7,77.3,374.1,77.3,374.1z"/>
	<path class="st0" d="M37.4,424.9c0.8,15,5.4,30.2,12.3,45.6h30.2c6.6-15.2,10.8-30.5,11.6-45.6H37.4z"/>
	<path class="st3" d="M86.5,449.1c0,0.2-9.9,0.3-22.2,0.3s-22.2-0.1-22.2-0.3s9.9-0.3,22.2-0.3S86.5,449,86.5,449.1z"/>
	<path class="st3" d="M85.9,454.5c0,0.1-9.3,0.3-20.8,0.3s-20.8-0.1-20.8-0.3s9.3-0.3,20.8-0.3S85.9,454.4,85.9,454.5z"/>
	<path class="st3" d="M50.2,434.7c0.4,4.6,0.4,9.3,0,13.9C49.8,444,49.8,439.3,50.2,434.7z"/>
	<path class="st3" d="M66.3,434.7c0.4,4.8,0.4,9.6,0,14.4C66,444.3,66,439.5,66.3,434.7z"/>
	<path class="st3" d="M81.5,434.6c0.4,4.9,0.4,9.8,0,14.7C81.1,444.4,81.1,439.5,81.5,434.6z"/>
	<path class="st3" d="M90.5,434.7c0,0.2-11.7,0.3-26,0.3s-26-0.1-26-0.3s11.7-0.3,26-0.3S90.5,434.6,90.5,434.7z"/>
</g>
<g id="freepik--Floor--inject-158">
	<path class="st4" d="M426.2,470.9c0,0.1-93.3,0.3-208.4,0.3S9.4,471.1,9.4,470.9s93.3-0.3,208.4-0.3S426.2,470.8,426.2,470.9z"/>
</g>
<path class="st4" d="M139.7,46.2h272.7c6.4,0,11.5,5.2,11.5,11.5v401.4c0,6.4-5.2,11.5-11.5,11.5H139.7c-6.4,0-11.6-5.2-11.6-11.5
	V57.8C128.1,51.4,133.3,46.2,139.7,46.2z"/>
<rect x="136.9" y="76.5" class="st2" width="277.2" height="354.5"/>
<path class="st5" d="M288.4,450.4c-0.1-1-0.3-2-0.5-3c-1.7-6.5-8.3-10.4-14.8-8.7c-0.4,0.1-0.7,0.2-1.1,0.3c-1.1,0.4-2.1,1-3,1.6
	c-1,0.7-1.8,1.6-2.6,2.6c-3.1,4.2-3.1,10,0,14.3c0.7,1,1.6,1.8,2.6,2.6c0.9,0.7,2,1.3,3,1.6c2,0.7,4.2,0.9,6.4,0.5
	c1.9-0.3,3.6-1.1,5.1-2.2c2.2-1.7,3.8-4,4.5-6.7C288.1,452.3,288.3,451.3,288.4,450.4c0,0.2,0,0.5,0,0.8s0,0.6-0.1,1
	c0,0.4-0.1,0.9-0.2,1.3c-1.1,4.7-4.9,8.4-9.7,9.3c-2.2,0.4-4.5,0.2-6.6-0.5c-2.3-0.8-4.4-2.4-5.9-4.4c-3.3-4.4-3.3-10.5,0-14.9
	c1.5-2,3.5-3.5,5.9-4.4c2.1-0.8,4.4-0.9,6.6-0.5c4.8,0.9,8.6,4.6,9.7,9.3c0.1,0.4,0.2,0.9,0.2,1.3c0.1,0.3,0.1,0.7,0.1,1
	C288.4,449.8,288.4,450.1,288.4,450.4z"/>
<path class="st5" d="M232.7,58.5h86.6c0.7,0,1.2,0.5,1.2,1.2v2.2c0,0.7-0.5,1.2-1.2,1.2h-86.6c-0.7,0-1.2-0.5-1.2-1.2v-2.2
	C231.5,59,232,58.5,232.7,58.5z"/>
<rect x="136.9" y="76.5" class="st0" width="277.2" height="26.2"/>
<path class="st4" d="M154.3,90.1c-0.1,1.8-1.6,3.1-3.4,3c-1.8-0.1-3.1-1.6-3-3.4c0.1-1.7,1.5-3,3.2-3
	C152.9,86.7,154.3,88.2,154.3,90.1C154.3,90,154.3,90,154.3,90.1z"/>
<path class="st4" d="M166.2,90.1c-0.1,1.8-1.6,3.1-3.4,3c-1.8-0.1-3.1-1.6-3-3.4c0.1-1.7,1.5-3,3.2-3
	C164.8,86.7,166.3,88.2,166.2,90.1z"/>
<path class="st4" d="M178.2,90.1c-0.1,1.8-1.6,3.1-3.4,3c-1.8-0.1-3.1-1.6-3-3.4c0.1-1.7,1.5-3,3.2-3
	C176.8,86.7,178.2,88.2,178.2,90.1z"/>
<ellipse transform="matrix(0.9231 -0.3846 0.3846 0.9231 -112.3976 87.992)" class="st0" cx="163.8" cy="325" rx="8.2" ry="8.2"/>
<circle class="st0" cx="163.8" cy="359.4" r="8.2"/>
<circle class="st0" cx="163.8" cy="393.8" r="8.2"/>
<path class="st4" d="M212,325c0,0.1-7.8,0.3-17.4,0.3s-17.4-0.1-17.4-0.3s7.8-0.3,17.4-0.3S212,324.9,212,325z"/>
<path class="st4" d="M212,359.4c0,0.1-7.8,0.3-17.4,0.3s-17.4-0.1-17.4-0.3s7.8-0.3,17.4-0.3S212,359.3,212,359.4z"/>
<path class="st4" d="M212,393.8c0,0.1-7.8,0.3-17.4,0.3s-17.4-0.1-17.4-0.3s7.8-0.3,17.4-0.3S212,393.7,212,393.8z"/>
<path class="st6" d="M322.5,147.1c0,0.1-15.1,0.3-33.7,0.3s-33.7-0.1-33.7-0.3s15.1-0.3,33.7-0.3S322.5,146.9,322.5,147.1z"/>
<path class="st6" d="M322.5,168.5c0,0.1-15.1,0.3-33.7,0.3s-33.7-0.1-33.7-0.3s15.1-0.3,33.7-0.3S322.5,168.4,322.5,168.5z"/>
<rect x="254.3" y="295.9" class="st7" width="68.2" height="13.9"/>
<polygon class="st4" points="396.5,308.9 398,322 400.8,320 404.1,324.1 407.5,321.7 404.5,317.9 407.7,315.8 "/>
<path class="st4" d="M397.3,306.8c0.1-0.8,0.3-1.5,0.7-2.2c0.5-1.2,1.1-2,1.2-2c-0.1,0.8-0.3,1.5-0.7,2.2
	C397.9,306,397.4,306.9,397.3,306.8z"/>
<path class="st4" d="M395.1,307.9c-1-1.1-1.8-2.3-2.4-3.6c-0.8-1.2-1.5-2.5-2-3.9C392.4,302.7,393.9,305.2,395.1,307.9L395.1,307.9z
	"/>
<path class="st4" d="M393.5,309.7c-0.7,0.1-1.4,0.1-2.2-0.1c-0.7,0-1.5-0.1-2.1-0.3c0.7-0.3,1.5-0.3,2.2-0.2
	C392.1,309.1,392.8,309.3,393.5,309.7z"/>
<path class="st4" d="M232.7,434c-0.1,0-0.1-30.4-0.1-67.8s0-67.8,0.1-67.8s0.1,30.4,0.1,67.8S232.8,434,232.7,434z"/>
<path class="st0" d="M394.5,316.8c0,0.1-30.7,0.3-68.6,0.3s-68.6-0.1-68.6-0.3s30.7-0.3,68.6-0.3S394.5,316.7,394.5,316.8z"/>
<path class="st0" d="M394.5,346.2c0,0.1-30.7,0.3-68.6,0.3s-68.6-0.1-68.6-0.3s30.7-0.3,68.6-0.3S394.5,346.1,394.5,346.2z"/>
<path class="st0" d="M394.5,375.6c0,0.1-30.7,0.3-68.6,0.3s-68.6-0.1-68.6-0.3s30.7-0.3,68.6-0.3S394.5,375.5,394.5,375.6z"/>
<g id="freepik--Plant--inject-158">
	<path class="st7" d="M380.5,406.6c0.9-3,2.7-5.9,5.6-7.1s6.4-0.5,9.5,0.6s6,2.6,9.3,2.8s6.9-1.3,7.9-4.4c0.9-2.9-0.8-6-3-8.1
		c-7.7-7.4-19.8-7.1-27.2,0.5c-1.9,2-3.4,4.4-4.3,7"/>
	<g class="st8">
		<path d="M409.8,390.2c-7.7-7.4-19.8-7.1-27.2,0.5c-1.9,2-3.4,4.4-4.3,7l2.3,8.8c0.9-3,2.7-5.9,5.6-7.1s6.4-0.5,9.5,0.6
			s6,2.6,9.3,2.8s6.9-1.3,7.9-4.4C413.7,395.4,411.9,392.3,409.8,390.2z"/>
	</g>
	<path class="st7" d="M354.9,419.6c-4.8-4.5-4.5-12.4-2.1-18.5s7.5-10.8,13.3-13.9c11.4-6,25-6.4,36.8-1.2
		c-5.8,0.2-11.1,3.4-14.1,8.3c-2.6,4.3-3.2,9.6-5.3,14.1C378.3,419.2,365.8,424.1,354.9,419.6"/>
	<path class="st7" d="M352.6,392.5c-5.3-6.2-6-16.2-5.2-24.3s2.7-16.3,1.4-24.3c-0.8-4.8-2.6-9.3-3.2-14.1s0.3-10.2,4-13.3
		c4.3-3.5,11-2.7,15.4,0.6s7,8.6,8.9,13.8c4.1,11.5,5.6,24.2,2.2,35.9s-11.3,22.2-23,25.7"/>
	<path class="st4" d="M350,443.5c0-0.2,0-0.5,0-0.7c0-0.5,0-1.2,0-2.1c0.1-1.8,0.2-4.4,0.6-7.5c0.5-3.7,1.1-7.4,2-11
		c1.1-4.5,2.8-8.8,5-12.8c2.3-4,5-7.7,8.2-11c2.6-2.7,5.5-5.1,8.6-7.2c1.3-0.9,2.6-1.6,3.7-2.2s2.1-1.1,2.9-1.5l1.9-0.8
		c0.2-0.1,0.4-0.2,0.7-0.2c-0.2,0.1-0.4,0.2-0.6,0.3l-1.9,0.9c-0.8,0.4-1.8,0.9-2.9,1.5s-2.3,1.4-3.6,2.3
		c-6.9,4.7-12.5,10.9-16.6,18.1c-4.8,8.5-6.2,17.4-7.1,23.6c-0.4,3.2-0.6,5.7-0.8,7.5l-0.1,2C350.1,443,350.1,443.2,350,443.5z"/>
	<path class="st7" d="M304.6,367.9c-9.7,5.9-9.7,11.2-8.1,16.3s7.6,8.6,12.6,6.7c2.8-1.1,4.8-3.5,6.6-6s3.4-5.1,5.8-6.8
		s6-2.4,8.4-0.7"/>
	<g class="st8">
		<path d="M304.6,367.9c-9.7,5.9-9.7,11.2-8.1,16.3s7.6,8.6,12.6,6.7c2.8-1.1,4.8-3.5,6.6-6s3.4-5.1,5.8-6.8
			c1.7-1.3,3.8-1.8,5.9-1.6L304.6,367.9z"/>
	</g>
	<path d="M327.4,376.5l2.5,0.9C329.1,376.9,328.2,376.6,327.4,376.5z"/>
	<path class="st7" d="M297.3,374.4c2.5-3.5,8.8-4.5,12.8-2.8s6.9,5.2,9.5,8.7s5.1,7.1,8.8,9.6s8.6,3.3,12.2,0.9
		c2.3-1.7,3.8-4.3,4.2-7.2c0.3-2.8,0.1-5.7-0.6-8.5c-0.9-4.1-2.3-8.4-5.5-11c-3.6-2.9-8.7-3-13.4-2.9c-5.3,0.2-10.8,0.6-15.8,2.4
		S299.4,369.5,297.3,374.4"/>
	<path class="st4" d="M341.9,435.6c0,0,0-0.1,0-0.2s0-0.4,0-0.6c0-0.6,0-1.4-0.1-2.4c-0.1-2.1-0.1-5.2-0.3-8.9s-0.3-8.2-0.5-13.2
		s-0.6-10.4-1.4-16.1c-0.3-2.8-0.9-5.5-1.6-8.2c-0.8-2.5-1.8-4.9-3-7.1c-1.1-2.1-2.3-4.1-3.8-5.9c-1.2-1.6-2.6-3.1-4.1-4.5
		c-2.2-2-4.6-3.7-7.3-5c-0.5-0.2-0.9-0.4-1.3-0.6l-1-0.4l-0.6-0.2c-0.1,0-0.2-0.1-0.2-0.1h0.2l0.6,0.2l1,0.3
		c0.4,0.1,0.8,0.3,1.3,0.5c2.7,1.2,5.2,2.9,7.4,4.9c1.5,1.4,2.9,2.9,4.2,4.5c1.4,1.9,2.7,3.9,3.8,6c1.2,2.3,2.2,4.7,3,7.2
		c0.8,2.7,1.3,5.5,1.6,8.2c0.8,5.7,1.1,11.1,1.4,16.1s0.4,9.4,0.5,13.2s0.1,6.8,0.1,8.9v2.4c0,0.3,0,0.5,0,0.6
		C342,435.5,342,435.6,341.9,435.6z"/>
	<path class="st4" d="M345.5,440c-0.5-1.4-0.8-2.8-1.1-4.2c-0.7-3.9-0.8-7.8-0.5-11.8c0.6-5.8,1.8-11.5,3.7-17.1
		c2-6.3,4.7-13,7-20.2c2.2-6.8,3.7-13.8,4.2-20.9c0.4-5.8,0.5-11.6,0.3-17.4c-0.2-5-0.4-9-0.6-11.7c-0.1-1.4-0.1-2.4-0.2-3.2
		c0-0.3,0-0.6,0-0.8c0-0.1,0-0.2,0-0.3c0,0.1,0,0.2,0,0.3c0,0.2,0,0.5,0.1,0.8c0.1,0.8,0.2,1.8,0.3,3.2c0.2,2.8,0.5,6.8,0.7,11.8
		c0.3,5.8,0.2,11.7-0.2,17.5c-0.3,3.4-0.7,6.8-1.4,10.2c-0.7,3.6-1.6,7.2-2.8,10.7c-2.3,7.2-5,13.9-7.1,20.2
		c-1.9,5.5-3.2,11.2-3.8,17c-0.4,3.9-0.3,7.8,0.3,11.7c0.2,1.4,0.5,2.4,0.6,3.1c0.1,0.3,0.1,0.6,0.2,0.8
		C345.4,439.9,345.4,440,345.5,440z"/>
	<polygon class="st5" points="374.7,438.8 316.9,438.8 315.6,427.7 374.7,427.7 	"/>
	<polygon class="st5" points="323.1,437.5 330.3,470.9 361.8,470.9 368.5,437.5 	"/>
	<path class="st5" d="M374.7,438.8c0,0.1-12.7,0.2-28.4,0.2s-28.4-0.2-28.4-0.4s12.7-0.2,28.4-0.2S374.7,438.6,374.7,438.8z"/>
	<path class="st4" d="M364.8,455.3c-1.6-1.2-3.3-2.2-5.1-2.9c-2-0.8-4.1-1.2-6.2-1.2c-2.6,0-5.2,0.5-7.6,1.4
		c-2.6,0.9-5.1,1.9-7.5,2.5c-2.1,0.5-4.3,0.5-6.5,0.2c-1.4-0.2-2.8-0.7-4.1-1.3c-0.3-0.2-0.7-0.4-1-0.6c-0.2-0.2-0.3-0.3-0.3-0.3
		s0.5,0.3,1.4,0.7c1.3,0.6,2.7,1,4.1,1.1c2.1,0.3,4.2,0.2,6.3-0.3c2.3-0.6,4.8-1.6,7.4-2.5c2.5-0.9,5.1-1.4,7.8-1.4
		c2.2,0.1,4.3,0.6,6.3,1.4c1.3,0.6,2.6,1.3,3.8,2.2c0.3,0.2,0.6,0.5,0.9,0.8C364.7,455.2,364.8,455.3,364.8,455.3z"/>
	<path class="st2" d="M364.4,457.5c-1.5-1.1-3.2-2.1-4.9-2.9c-1.9-0.8-3.9-1.2-6-1.2c-2.5,0-5,0.5-7.4,1.3c-2.5,0.9-4.9,1.8-7.2,2.5
		c-2,0.6-4.1,0.8-6.2,0.7c-1.8,0-3.6-0.6-5.1-1.7c-0.2-0.2-0.3-0.2-0.3-0.3c0,0,0.5,0.3,1.4,0.7c1.3,0.5,2.6,0.8,4,0.9
		c2.1,0.1,4.1-0.2,6.1-0.8c2.2-0.6,4.6-1.6,7.2-2.5c2.4-0.9,5-1.3,7.5-1.3c3.5,0.1,7,1.4,9.7,3.6c0.3,0.2,0.6,0.5,0.9,0.8
		C364.3,457.4,364.4,457.5,364.4,457.5z"/>
	<path class="st2" d="M365.4,453.1c-1.6-1.2-3.4-2.2-5.2-3.1c-2-0.9-4.2-1.4-6.4-1.5c-2.7-0.1-5.4,0.4-7.9,1.4s-5.1,1.8-7.8,2.5
		c-2.2,0.4-4.5,0.4-6.7,0c-1.5-0.2-2.9-0.7-4.3-1.4c-0.3-0.2-0.7-0.4-1-0.6c-0.1-0.1-0.2-0.2-0.3-0.3c0,0,0.5,0.3,1.5,0.7
		c1.4,0.6,2.8,1,4.3,1.2c2.2,0.3,4.4,0.3,6.5-0.1c2.6-0.7,5.2-1.6,7.7-2.5c2.5-1,5.3-1.4,8-1.3c2.2,0.2,4.4,0.7,6.5,1.7
		c1.4,0.6,2.7,1.4,3.9,2.3c0.3,0.2,0.6,0.5,0.9,0.8C365.2,452.9,365.3,453,365.4,453.1z"/>
	<path class="st4" d="M374.7,438.8c0,0.1-13,0.2-28.9,0.2s-28.9-0.1-28.9-0.2s13-0.2,28.9-0.2S374.7,438.7,374.7,438.8z"/>
</g>
<rect x="136.9" y="119.6" class="st9" width="277.2" height="166.7"/>
<path class="st7" d="M402.9,222.1c0,0.1-51,0.3-113.9,0.3s-114-0.1-114-0.3s51-0.3,114-0.3S402.9,222,402.9,222.1z"/>
<path class="st4" d="M232.8,251.1c0,0.1-18.6,0.3-41.3,0.3s-41.3-0.1-41.3-0.3s18.5-0.3,41.3-0.3S232.8,251,232.8,251.1z"/>
<path class="st4" d="M402.9,156.1c0,0.1-33.4,0.3-74.6,0.3s-74.6-0.1-74.6-0.3s33.4-0.3,74.6-0.3S402.9,156,402.9,156.1z"/>
<path class="st4" d="M253.7,155.6c0.1,0-4.4,21.7-10,48.3c-5.7,26.6-10.4,48.2-10.5,48.2s4.3-21.6,10-48.3
	C248.8,177,253.5,155.5,253.7,155.6z"/>
<path class="st10" d="M260.2,208.6h3.2l-0.6,2.6h-2.7v7h-2.9v-9.4c0-0.6,0.1-1.3,0.2-1.9c0.1-0.6,0.4-1.1,0.7-1.6
	c0.4-0.5,0.9-0.8,1.4-1c0.6-0.2,1.3-0.4,2.1-0.4c1.3,0,2.7,0.1,2.7,0.1v0.1l-0.5,2.4c-0.4,0-1.1-0.1-1.6-0.1c-1.9,0-2,1-2.1,1.3
	C260.2,208.1,260.2,208.3,260.2,208.6z M283.9,211.4c-0.1-0.6-0.4-1.1-0.7-1.6c-0.4-0.5-0.9-0.8-1.4-1c-0.6-0.2-1.3-0.4-2.1-0.4
	c-0.8,0-1.6,0.1-2.4,0.2c-0.6,0.1-1.2,0.2-1.8,0.4l-0.2,0.1v9.1h2.9v-7c0.1,0,0.6-0.1,0.7-0.1c0.5-0.1,1-0.1,1.5,0.1
	c0.2,0.1,0.4,0.2,0.5,0.4c0.2,0.2,0.3,0.5,0.3,0.8c0.1,0.4,0.1,0.9,0.1,1.3v4.5h2.9v-4.9C284.1,212.6,284,212,283.9,211.4
	L283.9,211.4z M273.7,213.4c0,2.7-2.2,4.9-4.9,4.9c-2.7,0-4.9-2.2-4.9-4.9s2.2-4.9,4.9-4.9l0,0C271.5,208.5,273.7,210.7,273.7,213.4
	L273.7,213.4z M271.1,213.4c0-1.3-1.1-2.3-2.4-2.3s-2.3,1.1-2.3,2.4s1.1,2.3,2.4,2.3C270.1,215.7,271.1,214.7,271.1,213.4
	L271.1,213.4z"/>
<g>
	
		<linearGradient id="SVGID_1_" gradientUnits="userSpaceOnUse" x1="291.85" y1="-101.573" x2="291.85" y2="-114.5388" gradientTransform="matrix(1 0 0 1 0 312.3444)">
		<stop  offset="0" style="stop-color:#EE7800"/>
		<stop  offset="5.559063e-02" style="stop-color:#F08400"/>
		<stop  offset="0.2162" style="stop-color:#F6A300"/>
		<stop  offset="0.385" style="stop-color:#FABB00"/>
		<stop  offset="0.5636" style="stop-color:#FDCC00"/>
		<stop  offset="0.7585" style="stop-color:#FED600"/>
		<stop  offset="1" style="stop-color:#FFD900"/>
	</linearGradient>
	<path class="st11" d="M297.3,203c0.1,0,0.1,0,0.2,0.1s0.1,0.1,0.1,0.2v1.5c0,0.1,0,0.2-0.1,0.2s-0.2,0.1-0.2,0.1h-2.8v3.5h3
		c0.1,0,0.1,0,0.2,0.1s0.1,0.1,0.1,0.2v1.6c0,0.1,0,0.2-0.1,0.2c-0.1,0.1-0.2,0.1-0.2,0.1h-5c-0.1,0-0.2,0-0.2-0.1
		c-0.1-0.1-0.1-0.1-0.1-0.2v-5.4h-1l-2.6,5.2c0,0.1-0.1,0.1-0.2,0.2c-0.1,0.1-0.2,0.1-0.3,0.1h-1h-0.9c-0.1,0-0.2,0-0.2-0.1
		s0-0.1,0-0.2l2.6-5.2h-2.4c-0.1,0-0.1,0-0.2-0.1s-0.1-0.1-0.1-0.2v-1.5c0-0.1,0-0.2,0.1-0.2c0.1-0.1,0.1-0.1,0.2-0.1h4.6v-4.9
		c0-0.1,0-0.1,0.1-0.2s0.1-0.1,0.2-0.1h1.6c0.1,0,0.2,0,0.2,0.1c0.1,0.1,0.1,0.1,0.1,0.2v4.9L297.3,203L297.3,203z M288.3,202.4
		c-0.1,0-0.2,0-0.3-0.1c-0.1-0.1-0.1-0.1-0.2-0.2l-1.3-3c0-0.1,0-0.1,0-0.2c0-0.1,0.1-0.1,0.2-0.1h1.8c0.1,0,0.2,0,0.3,0.1
		c0.1,0.1,0.1,0.1,0.2,0.2l1.3,3c0,0.1,0,0.1,0,0.2c0,0.1-0.1,0.1-0.2,0.1C290,202.4,288.3,202.4,288.3,202.4z M295.7,202.4h-1.8
		c-0.1,0-0.2,0-0.2-0.1s0-0.1,0-0.2l1.3-3c0-0.1,0.1-0.1,0.2-0.2s0.2-0.1,0.3-0.1h1.8c0.1,0,0.2,0,0.2,0.1s0,0.1,0,0.2l-1.3,3
		c0,0.1-0.1,0.1-0.2,0.2C295.9,202.3,295.8,202.4,295.7,202.4z"/>
</g>
<path class="st2" d="M160.1,149.7c0,0,1.9-12.8,9.1-18.7c7.2-5.9,19.6-6.5,19.6-6.5s3.6-2.9,7.2-4c3.6-1.1,14.1-1,23.2,3.4
	c9.1,4.4,13.1,9.5,15.2,13.5c2.1,4,2.5,11.8,2.5,11.8l0.2,1.5c0,0,4,0.2,6.7,4.6s4.8,11.6,3.8,17.9c-1,6.3-3.4,14.5-9,16.6
	c0,3.2-5,11.8-11.8,15.6s-12.6,3.4-12.6,3.4l0.2,9l-9-7.6c0,0-4,1.7-13.3,1.7s-16.2-0.4-27.2-10.5c-8-7.2-6.9-17.5-6.9-17.5
	s-7-3.2-9.5-11.8s3.6-16.6,5.7-18.3C156.5,152.2,160.1,149.7,160.1,149.7z"/>
<path class="st7" d="M150.8,150.4c0.6-0.6,1.2-1.2,1.8-1.8c0.3-0.3,0.6-0.5,0.9-0.7c0.1-0.1,0.3-0.2,0.4-0.3
	c0.1-0.1,0.3-0.2,0.4-0.2c0.3-0.2,0.6-0.3,0.9-0.3c0.3,0,0.5,0.1,0.6,0.2c0.1,0.2,0.1,0.4-0.1,0.6c-0.1,0.2-0.4,0.4-0.6,0.6
	c-0.7,0.4-1.3,0.9-1.9,1.3c-0.1,0.1-0.3,0.2-0.4,0.3c-0.1,0.1-0.3,0.2-0.4,0.3c-0.3,0.2-0.5,0.4-0.7,0.6c-2.9,3-4.9,7-5.6,11.1
	c-0.4,2.1-0.4,4.2-0.1,6.3c0.3,2.1,1,4.1,2,5.9c0.3,0.6,0.8,1.2,1.4,1.8c0.6,0.6,1.3,1.2,2,1.7c0.1,0.1,0.3,0.2,0.4,0.3
	c0.1,0.1,0.1,0.1,0.2,0.2c0.1,0.1,0.1,0.1,0.1,0.2c0.1,0.2,0.2,0.5,0.1,0.7c-0.1,0.2-0.3,0.3-0.7,0.3c-0.1,0-0.2,0-0.3,0
	s-0.2,0-0.3-0.1c-0.2-0.1-0.4-0.1-0.6-0.3c-0.6-0.4-1.2-1-1.9-1.7c-0.6-0.7-1.2-1.6-1.7-2.5c-1.1-2-1.8-4.1-2.1-6.3
	s-0.3-4.5,0.1-6.7c0.4-2.2,1.1-4.3,2.1-6.3C148,153.8,149.3,152,150.8,150.4z"/>
<path class="st7" d="M177.6,122.3c1.7-0.3,3.4-0.7,4.6-0.8c0.1,0,0.3,0,0.4,0l0.1,1.3c-0.5,0-0.9-0.2-0.9-0.5s0.3-0.6,0.8-0.8
	l0.1,1.3c-0.1,0-0.3,0.1-0.4,0.1c-1.6,0.1-3.3,0.2-4.5,0.5c-1.1,0.2-2.1,0.5-3.2,0.8c-0.3,0.1-0.5,0.2-0.8,0.2
	c-0.3,0.1-0.5,0.2-0.8,0.3l-0.8,0.3l-0.7,0.3c-0.1,0.1-0.2,0.1-0.4,0.1l-0.4,0.2c-0.2,0.1-0.5,0.2-0.7,0.3c-0.5,0.2-1,0.5-1.4,0.8
	c-0.5,0.3-0.9,0.6-1.4,0.9c-0.2,0.1-0.4,0.3-0.7,0.5c-0.2,0.1-0.4,0.3-0.6,0.5c-3.4,2.6-5.9,6.4-7.1,10.5c-0.2,0.7-0.4,1.5-0.5,2.4
	c0,0.2-0.1,0.4-0.1,0.7c0,0.2,0,0.5-0.1,0.7c-0.1,0.5-0.1,0.9-0.1,1.4c0,0.1,0,0.2,0,0.3s0,0.2-0.1,0.3c0,0.2-0.1,0.3-0.2,0.5
	c-0.1,0.3-0.4,0.4-0.6,0.4c-0.2,0-0.4-0.2-0.6-0.4c-0.1-0.1-0.1-0.3-0.2-0.5c0-0.1,0-0.2,0-0.3s0-0.2,0-0.3c0-0.2,0-0.4,0-0.5
	c0-0.2,0-0.4,0.1-0.6c0-0.2,0.1-0.4,0.1-0.7c0-0.1,0-0.2,0.1-0.3c0-0.1,0.1-0.2,0.1-0.3c0.1-0.5,0.2-1,0.4-1.4
	c0.1-0.2,0.1-0.5,0.2-0.7c0.1-0.2,0.1-0.5,0.2-0.7c0-0.1,0.1-0.3,0.1-0.4l0.1-0.4c0.1-0.3,0.2-0.5,0.3-0.8c0.2-0.5,0.4-1,0.7-1.6
	c0.5-1,1.1-2,1.7-2.9l0.5-0.7c0.2-0.2,0.4-0.4,0.5-0.7c0.3-0.4,0.7-0.9,1.1-1.3c0.2-0.2,0.4-0.4,0.6-0.6l0.3-0.3l0.3-0.3l0.6-0.6
	l0.7-0.5c0.2-0.2,0.4-0.3,0.7-0.5c0.2-0.2,0.5-0.3,0.7-0.5c0.5-0.3,1-0.6,1.4-0.9c0.5-0.3,1-0.5,1.5-0.8c0.3-0.1,0.5-0.2,0.8-0.4
	l0.4-0.2c0.1-0.1,0.3-0.1,0.4-0.2l0.8-0.3l0.8-0.3c0.3-0.1,0.5-0.2,0.8-0.3c0.3-0.1,0.5-0.2,0.8-0.2
	C175.4,122.8,176.5,122.5,177.6,122.3z"/>
<path class="st7" d="M233,137.1c0.5,1.3,0.9,2.7,1.1,3.9c0.1,0.6,0.2,1.2,0.3,1.8c0,0.3,0,0.6,0.1,0.8c0,0.1,0,0.3,0,0.4
	c0,0.1,0,0.2,0,0.4c0,0.3,0,0.6-0.1,0.8c0,0.2-0.1,0.5-0.2,0.7c-0.1,0.4-0.3,0.6-0.5,0.6s-0.3-0.3-0.4-0.6c-0.1-0.2-0.1-0.4-0.1-0.6
	c0-0.2,0-0.5,0-0.8c0-1.2-0.1-2.5-0.3-3.7s-0.5-2.3-0.8-3.2c-1.2-3.2-3.1-6.2-5.4-8.7c-2.4-2.5-5.2-4.5-8.2-6.2
	c-1.5-0.8-3.1-1.6-4.7-2.2c-1.6-0.7-3.2-1.2-4.9-1.7s-3.3-0.9-5-1.1s-3.4-0.4-5.1-0.4c-0.3,0-0.6,0-0.9,0c-0.3,0-0.6,0-0.9,0.1
	c-0.6,0.1-1.3,0.2-2,0.3c-0.2,0-0.4,0.1-0.5,0.1s-0.2,0-0.3,0.1l-0.3,0.1c-0.4,0.1-0.7,0.2-1.1,0.3c-0.4,0.1-0.7,0.2-1,0.4
	c-0.2,0.1-0.4,0.1-0.5,0.2c-0.2,0.1-0.3,0.1-0.5,0.2c-0.3,0.1-0.6,0.2-0.8,0.3c-0.3,0.1-0.5,0.1-0.7,0.2c-0.4,0.1-0.8,0-0.9-0.2
	c-0.1-0.2,0-0.5,0.4-0.8c0.2-0.2,0.4-0.3,0.6-0.5c0.2-0.2,0.5-0.3,0.9-0.4c0.1-0.1,0.3-0.1,0.4-0.1c0.1-0.1,0.3-0.1,0.4-0.1
	c0.3-0.1,0.6-0.2,0.9-0.3c0.2,0,0.3-0.1,0.5-0.1s0.3-0.1,0.5-0.1c0.4-0.1,0.7-0.2,1.1-0.2c1.5-0.2,3.2-0.4,4.8-0.4
	c1.8,0,3.6,0.1,5.3,0.4c1.8,0.3,3.5,0.7,5.2,1.2s3.4,1.1,5,1.8c1.6,0.7,3.2,1.4,4.8,2.3c3.1,1.7,6,3.9,8.5,6.5
	C229.8,130.7,231.8,133.8,233,137.1z"/>
<path class="st7" d="M189.5,208.5c2.3,0,4.7-0.4,6.1-0.6c0.9-0.1,1.8,0.1,1.8,0.4c0.1,0.4-0.7,0.8-1.6,0.9c-2.2,0.3-4.6,0.3-6.3,0.3
	c-0.4,0-0.8,0-1.1,0c-0.4,0-0.8,0-1.1,0c-0.8,0-1.5-0.1-2.3-0.1c-1.5-0.1-3-0.3-4.5-0.6l-1.1-0.2l-0.3-0.1l-0.3-0.1l-0.6-0.1
	c-0.7-0.2-1.5-0.4-2.2-0.6c-1.5-0.5-2.9-1-4.3-1.6c-2.8-1.2-5.4-2.9-7.8-4.8c-0.3-0.2-0.6-0.5-0.9-0.8l-0.4-0.4
	c-0.1-0.1-0.3-0.3-0.4-0.4l-0.8-0.8l-0.8-0.8l-0.4-0.4l-0.4-0.4l-0.7-0.9l-0.7-0.9c-0.1-0.1-0.2-0.3-0.3-0.5l-0.3-0.5
	c-0.3-0.4-0.6-0.9-0.9-1.4c-0.3-0.5-0.6-1-0.9-1.6c-0.1-0.3-0.3-0.6-0.5-0.9c-0.1-0.3-0.3-0.6-0.4-0.9c-0.3-0.6-0.5-1.3-0.7-1.9
	c0-0.1-0.1-0.3-0.1-0.4s0-0.3-0.1-0.4c0-0.3,0-0.5,0-0.7c0.1-0.4,0.2-0.7,0.4-0.7s0.5,0.1,0.7,0.4c0.1,0.2,0.2,0.4,0.3,0.6
	c0.1,0.1,0.1,0.2,0.1,0.4c0,0.1,0.1,0.2,0.1,0.4c0.1,0.2,0.1,0.4,0.2,0.7c0.1,0.2,0.1,0.5,0.2,0.7c0.1,0.3,0.2,0.5,0.3,0.8
	s0.2,0.6,0.3,0.8c0.2,0.6,0.5,1.2,0.8,1.7c0.1,0.3,0.3,0.6,0.5,0.9c0.2,0.3,0.4,0.6,0.5,0.8l0.3,0.5c0.1,0.1,0.2,0.3,0.3,0.4
	l0.7,0.9l0.7,0.9l0.4,0.4l0.4,0.4l0.7,0.8l0.8,0.8c0.1,0.1,0.3,0.3,0.4,0.4l0.4,0.4c0.3,0.2,0.5,0.5,0.8,0.7
	c2.3,1.9,4.8,3.5,7.5,4.7c1.3,0.6,2.7,1.1,4.2,1.6c0.7,0.2,1.4,0.4,2.2,0.6l0.5,0.1l0.3,0.1l0.3,0.1l1.1,0.2
	c1.5,0.3,2.9,0.5,4.4,0.6c0.7,0.1,1.5,0.1,2.2,0.1c0.4,0,0.7,0,1.1,0C188.8,208.5,189.2,208.5,189.5,208.5z"/>
<path class="st7" d="M233.2,190.1c0.3-0.6,0.6-1.2,0.8-1.8s0.3-1.1,0.4-1.5c0.1-0.2,0.1-0.4,0.3-0.6c0.1-0.1,0.3-0.3,0.5-0.3
	s0.4,0.1,0.5,0.3s0.2,0.5,0.1,0.8c-0.1,0.7-0.4,1.4-0.7,1.9c-0.3,0.6-0.6,1.1-0.8,1.5c-0.8,1.6-1.6,3.1-2.5,4.7
	c-0.9,1.5-2,3-3.3,4.2l-0.5,0.5c-0.2,0.1-0.3,0.3-0.5,0.4c-0.3,0.3-0.7,0.6-1.1,0.8c-0.7,0.5-1.5,1-2.3,1.5
	c-1.6,0.9-3.2,1.6-4.9,2.2c-1,0.4-2.6,1.1-4,1.5c-0.6,0.2-1.3,0-1.4-0.4s0.3-0.9,0.9-1.1c1-0.3,2.6-0.6,4.1-1.2
	c1.6-0.6,3.2-1.3,4.7-2.1c0.7-0.4,1.5-0.9,2.2-1.4c0.3-0.3,0.7-0.5,1-0.8l0.5-0.4l0.5-0.4c1.2-1.2,2.3-2.5,3.2-4
	C231.6,193.2,232.4,191.7,233.2,190.1z"/>
<path class="st7" d="M241.8,180.5c-0.3,0.8-0.7,1.7-1,2.5s-0.6,1.5-0.9,2c-0.3,0.7-0.9,1-1.3,0.9c-0.3-0.2-0.3-0.9,0-1.5
	c0.8-1.5,1.6-3.1,2.1-4.2c0.8-2.1,1.5-4.3,2-6.5s0.8-4.5,0.9-6.7c0.1-2.3-0.1-4.5-0.5-6.7c-0.5-2.2-1.3-4.3-2.4-6.2
	c-0.2-0.3-0.4-0.6-0.6-1c-0.3-0.3-0.5-0.7-0.8-1c-0.6-0.7-1.3-1.4-2-2c-0.2-0.1-0.3-0.3-0.4-0.4c-0.1-0.1-0.2-0.3-0.3-0.4
	c-0.1-0.3-0.1-0.6,0-0.7c0.1-0.2,0.4-0.2,0.7-0.2c0.2,0,0.3,0.1,0.5,0.2c0.2,0.1,0.4,0.2,0.5,0.4c0.5,0.5,1.2,1.1,1.8,1.9
	c0.6,0.8,1.2,1.7,1.8,2.7c1.2,2,2,4.3,2.5,6.6s0.6,4.7,0.5,7s-0.5,4.7-1,6.9C243.4,176.1,242.7,178.4,241.8,180.5z"/>
<path class="st7" d="M210.6,213.7c0.5,0.4,1.2,0.7,1.5,1c0.2,0.2,0.2,0.6,0,0.9c-0.2,0.3-0.6,0.4-0.8,0.2c-0.5-0.4-1-1-1.3-1.3
	c-2.7-2.2-5.3-4.6-7.8-7.2c-0.4-0.4-1.1-0.9-1.6-1.5c-0.2-0.2-0.1-0.7,0.2-1s0.8-0.3,1-0.1c0.3,0.4,0.7,1.1,1.3,1.7
	C205.5,209.1,208,211.5,210.6,213.7z"/>
<path class="st7" d="M211.6,213.7c0,0.6,0.2,1.1,0.2,1.5c0,0.2-0.3,0.4-0.7,0.4s-0.7-0.2-0.7-0.4c0-0.5,0.1-1.1,0.1-1.5l-0.3-8.6
	c0-0.5-0.2-1.1-0.2-1.7c0-0.3,0.4-0.5,0.8-0.5c0.4,0,0.8,0.2,0.8,0.5c0,0.4-0.2,1.1-0.2,1.8L211.6,213.7z"/>
<g id="freepik--Character--inject-158">
	<path class="st7" d="M98.1,442.2l-1.5,18.9c0,0,18.7,7.5,18.7,11L78.6,471l1.1-29.6L98.1,442.2z"/>
	<path class="st0" d="M85.6,459.1c-0.7,0.2-1.2,0.9-1.1,1.7c0.2,0.8,0.9,1.3,1.7,1.1c0.8-0.2,1.3-1,1.2-1.8c-0.2-0.8-1.1-1.2-1.9-1"
		/>
	<path class="st1" d="M78.6,471l0.1-2.4l35.6,1.9c0.6,0.4,1.1,1.1,1.2,1.9L78.6,471z"/>
	<path class="st4" d="M97,461.3c0,0.2-0.9,0.2-1.8,0.8s-1.4,1.3-1.6,1.2s0.1-1.1,1.3-1.8S97,461.1,97,461.3z"/>
	<path class="st4" d="M100.8,463.1c0,0.2-0.8,0.5-1.4,1.2s-0.9,1.5-1,1.5s-0.2-1,0.6-2S100.8,462.9,100.8,463.1z"/>
	<path class="st4" d="M102.8,467.8c-0.2,0-0.4-0.9,0.1-1.9s1.4-1.3,1.4-1.2s-0.5,0.7-0.9,1.5S103,467.8,102.8,467.8z"/>
	<path class="st4" d="M96.8,456.9c-0.1,0.2-0.9-0.1-1.9-0.1s-1.8,0.3-1.9,0.1s0.7-0.8,1.9-0.8S96.9,456.8,96.8,456.9z"/>
	<path class="st4" d="M97.7,452.9c-0.6,0.1-1.3,0.1-1.9-0.1c-0.7-0.2-1.3-0.4-1.9-0.7c-0.3-0.2-0.7-0.4-1-0.6
		c-0.2-0.1-0.4-0.3-0.5-0.5c-0.2-0.3-0.2-0.7,0-1c0.2-0.2,0.5-0.4,0.8-0.4c0.2,0,0.5,0,0.7,0.1c0.4,0.1,0.8,0.3,1.1,0.5
		c0.6,0.3,1.2,0.7,1.7,1.2C97.5,452.2,97.8,452.9,97.7,452.9c-0.1,0-0.5-0.5-1.3-1.2c-0.5-0.4-1-0.7-1.6-1c-0.3-0.1-0.7-0.3-1.1-0.4
		s-0.7-0.1-0.8,0s0,0.1,0,0.2c0.1,0.1,0.2,0.2,0.4,0.3c0.3,0.2,0.7,0.4,1,0.6c0.6,0.3,1.2,0.6,1.8,0.8
		C96.6,452.4,97.1,452.6,97.7,452.9z"/>
	<path class="st7" d="M51.8,442.2l-1.5,18.9c0,0,18.7,7.5,18.7,11L32.3,471l1.1-29.6L51.8,442.2z"/>
	<path class="st0" d="M39.2,459.1c-0.7,0.2-1.2,0.9-1.1,1.7c0.1,0.8,0.9,1.3,1.7,1.2c0.8-0.2,1.3-1,1.2-1.8c-0.2-0.8-1.1-1.2-1.9-1"
		/>
	<path class="st1" d="M32.3,471l0.1-2.4l35.6,1.9c0.6,0.4,1.1,1.1,1.2,1.9L32.3,471z"/>
	<path class="st4" d="M50.6,461.3c0,0.2-0.9,0.2-1.8,0.8s-1.4,1.3-1.6,1.2s0.1-1.1,1.3-1.8S50.6,461.1,50.6,461.3z"/>
	<path class="st4" d="M54.4,463.1c0,0.2-0.8,0.5-1.4,1.2s-0.9,1.5-1,1.5s-0.2-1,0.6-2S54.4,462.9,54.4,463.1z"/>
	<path class="st4" d="M56.4,467.8c-0.2,0-0.4-0.9,0.1-1.9s1.4-1.3,1.4-1.2s-0.5,0.7-0.9,1.5S56.6,467.8,56.4,467.8z"/>
	<path class="st4" d="M50.5,456.9c-0.1,0.2-0.9-0.1-1.9-0.1s-1.8,0.3-1.9,0.1s0.7-0.8,1.9-0.8S50.6,456.8,50.5,456.9z"/>
	<path class="st4" d="M51.3,452.9c-0.6,0.1-1.3,0.1-1.9-0.1c-0.7-0.2-1.3-0.4-1.9-0.7c-0.3-0.2-0.7-0.4-1-0.6
		c-0.2-0.1-0.4-0.3-0.6-0.5c-0.2-0.3-0.2-0.7,0-1c0.2-0.2,0.5-0.4,0.8-0.4c0.2,0,0.5,0,0.7,0.1c0.4,0.1,0.8,0.3,1.1,0.5
		c0.6,0.3,1.2,0.7,1.7,1.2c0.8,0.8,1.1,1.5,1,1.5s-0.5-0.5-1.3-1.2c-0.5-0.4-1-0.7-1.6-1c-0.3-0.1-0.7-0.3-1-0.4
		c-0.4-0.1-0.7-0.1-0.8,0s0,0.1,0,0.2c0.1,0.1,0.3,0.2,0.4,0.3c0.3,0.2,0.7,0.4,1,0.6c0.6,0.3,1.2,0.6,1.8,0.8
		C50.2,452.4,50.8,452.6,51.3,452.9z"/>
	<path class="st5" d="M79,278.1c1.7,2.2,36.7,83.8,36.7,92s-13.1,84.8-13.1,84.8l-24-0.8c0,0-1.8-41.2,0.4-53.3s3.7-28.3,3.7-28.3
		l-34.4-60.7c0,0-3.9-23.3,0-30.2S79,278.1,79,278.1z"/>
	<path class="st5" d="M81.1,341.1c0,0.9-12.5,35.8-14.5,46.6s-11.2,68-11.2,68L31.5,454c0,0,2.2-60.6,6.1-77s6.9-30.2,6.9-39.7
		s-3-9.5-1.7-23.1s15.5-17.9,15.5-17.9L81.1,341.1z"/>
	<path class="st4" d="M64,336.2c0.1,0.5,0.2,1.1,0.4,1.5c0.3,1,0.8,2.4,1.5,4.1c1.7,4.5,3.7,8.9,6,13.1c2.3,4.3,4.8,8.4,7.5,12.4
		c1.1,1.5,1.9,2.7,2.6,3.5c0.3,0.4,0.6,0.8,1,1.2c-0.2-0.5-0.5-1-0.8-1.4l-2.4-3.6c-2-3.1-4.7-7.4-7.3-12.4s-4.7-9.6-6.2-13
		c-0.7-1.6-1.2-3-1.7-4C64.5,337.2,64.3,336.7,64,336.2z"/>
	<path class="st4" d="M38.1,143.7c-0.2,8.9,3.4,17.4,9.9,23.4l4.4-12.8"/>
	<path class="st4" d="M71.5,118.2c-3.9-2-8.4-2.5-12.6-1.5s-8.3,2.7-11.9,4.9c-2.2,1.1-4.1,2.6-5.7,4.4c-2.8,3.5-5.5,9.2-5.8,13.6
		c-0.2,3.6,1.1,12.5,2.7,15.8c1.4,3,7.9,5.2,11.1,6l29.4-34.2C77.5,123.4,75,120.1,71.5,118.2z"/>
	<path class="st4" d="M76.6,122.8l-7.1-1.3c3.9,9.2,4.9,30.2,7.1,39.9c2.6-3.8,8.6-15.3,8.3-19.8S84.9,122.1,76.6,122.8z"/>
	<path class="st12" d="M80.6,137.8c-0.5-7-5.1-15.7-12.2-14.9L52.2,127c-5.1,1.3-8.8,5.8-9.1,11.1c0,0.3,0-0.1,0,0.1l3.6,42.1
		l12.2,24.2l0,0l10.8-25.4V173c0,0,9-1.5,10.8-13.3C81.4,153.9,81.1,145.6,80.6,137.8z"/>
	<path class="st4" d="M77.8,146.7c0,0.8-0.6,1.5-1.4,1.5c-0.8,0.1-1.5-0.5-1.5-1.3l0,0c0-0.8,0.6-1.5,1.4-1.5
		C77,145.2,77.7,145.8,77.8,146.7C77.8,146.6,77.8,146.6,77.8,146.7z"/>
	<path class="st4" d="M78.8,142.4c-0.2,0.2-1.3-0.6-2.9-0.6s-2.8,0.8-3,0.6s0.1-0.4,0.6-0.8c0.7-0.5,1.5-0.8,2.4-0.7
		c0.8,0,1.7,0.3,2.4,0.8C78.8,142,78.9,142.3,78.8,142.4z"/>
	<path class="st4" d="M63.7,146.7c0,0.8-0.6,1.5-1.4,1.5c-0.8,0.1-1.5-0.5-1.5-1.3l0,0c0-0.8,0.6-1.5,1.4-1.5
		C62.9,145.2,63.6,145.8,63.7,146.7C63.7,146.6,63.7,146.6,63.7,146.7z"/>
	<path class="st4" d="M63.4,142.4c-0.2,0.2-1.3-0.6-3-0.6s-2.8,0.8-3,0.6s0.1-0.4,0.6-0.8c0.7-0.5,1.5-0.8,2.4-0.7
		c0.8,0,1.7,0.3,2.4,0.8C63.4,142,63.5,142.3,63.4,142.4z"/>
	<path class="st4" d="M68.5,155.1c0.9-0.3,1.7-0.4,2.6-0.5c0.4,0,0.8-0.1,0.9-0.4c0-0.4-0.1-0.9-0.3-1.2l-1.2-3.1
		c-1.7-4.5-3-8.2-2.8-8.2s1.7,3.5,3.4,8c0.4,1.1,0.8,2.2,1.2,3.2c0.3,0.5,0.3,1.1,0.2,1.6c-0.1,0.3-0.4,0.5-0.7,0.6
		c-0.2,0.1-0.5,0.1-0.7,0.1C70.3,155.2,69.4,155.2,68.5,155.1z"/>
	<path class="st13" d="M54.1,168.8c0,0,3.8,8.1,15.6,6.9V173C64.2,173.1,58.8,171.6,54.1,168.8z"/>
	<path class="st4" d="M62.9,136.5c-0.2,0.4-1.8,0.2-3.7,0.5s-3.4,0.8-3.7,0.4c-0.1-0.2,0.1-0.6,0.8-1c0.8-0.5,1.8-0.9,2.7-1
		c1-0.1,2,0,2.9,0.3C62.6,136,63,136.3,62.9,136.5z"/>
	<path class="st4" d="M78.3,137.4c-0.3,0.4-1.4,0-2.8,0s-2.5,0.2-2.7-0.1c-0.1-0.2,0.1-0.6,0.6-0.9c0.7-0.4,1.4-0.6,2.2-0.6
		c0.8,0,1.6,0.3,2.2,0.7C78.3,136.9,78.4,137.3,78.3,137.4z"/>
	<path class="st4" d="M77.4,127.1c-0.8-1.8-2.6-2.9-4.6-2.9c-1.9,0-3.8,0.5-5.4,1.6c-7,4-10.6,13.8-17.5,18c-1.7,1-3.9,0.1-5.4,1.4
		s-2.4,3.5-1.6,5.4c-1-1.2-1.8-2.6-2.4-4.1c-0.6-1.5-0.5-3.2,0.2-4.6c0.6-1,1.6-1.8,1.9-3s-0.1-2.1-0.1-3.1c0.1-1.1,0.5-2.1,1.1-3
		c2.6-4.9,6.5-8.9,11.2-11.8c3.1-1.8,6.7-2.7,10.3-2.7c3.6,0.1,7.1,1.5,9.8,3.9C76.6,123.7,78.2,125.2,77.4,127.1"/>
	<path class="st12" d="M44.7,146.6c-0.1-0.3-6.2-2.5-6.3,4c-0.1,6.3,6.3,5.1,6.3,4.9S44.7,146.6,44.7,146.6z"/>
	<path class="st13" d="M42.8,153.1c0,0-0.1,0.1-0.3,0.2c-0.3,0.1-0.6,0.1-0.8,0c-0.8-0.5-1.3-1.5-1.2-2.5c0-0.5,0.1-1.1,0.3-1.6
		c0.1-0.4,0.4-0.7,0.8-0.8c0.3-0.1,0.5,0.1,0.6,0.3s0,0.3,0.1,0.3s0.1-0.1,0.1-0.4c0-0.2-0.1-0.3-0.2-0.4c-0.2-0.1-0.4-0.2-0.6-0.2
		c-0.5,0.1-1,0.5-1.2,1c-0.3,0.5-0.4,1.1-0.4,1.8c-0.1,1.2,0.5,2.2,1.6,2.8c0.3,0.1,0.7,0,1-0.2C42.8,153.2,42.8,153.1,42.8,153.1z"
		/>
	<path class="st5" d="M42.2,143.4c0.1-0.1,0.3-0.1,0.4-0.2c0.2-0.1,0.6-0.4,1.1-0.7c1.2-0.9,2.4-2,3.4-3.1c1.5-1.7,2.9-3.5,4.2-5.4
		c1.6-2.3,3.3-4.5,5.2-6.5c1-1,2.2-1.9,3.4-2.7c1.1-0.7,2.4-1.3,3.6-1.7c2.2-0.7,4.4-1,6.7-0.8c1.5,0.1,3,0.4,4.5,0.9
		c0.5,0.2,0.9,0.3,1.2,0.4c0.1,0.1,0.3,0.1,0.4,0.2c-0.1-0.1-0.3-0.1-0.4-0.2c-0.4-0.2-0.8-0.3-1.2-0.5c-1.4-0.5-3-0.9-4.5-1
		c-2.3-0.2-4.6,0.1-6.8,0.8c-1.3,0.4-2.5,1-3.7,1.7c-1.2,0.8-2.4,1.7-3.4,2.7c-1.9,2-3.7,4.2-5.2,6.6c-1.3,1.9-2.6,3.7-4.1,5.4
		c-1,1.2-2.1,2.2-3.3,3.2c-0.4,0.3-0.8,0.5-1,0.7C42.4,143.2,42.3,143.3,42.2,143.4z"/>
	<path class="st4" d="M43.8,145.1c-0.3,1.7,0,3.5,0.6,5.1c0.8,1.5,2.8,2.6,4.3,1.7c1.2-0.7,1.6-2.3,1.8-3.7c0.6-4,0.9-8.1,1.5-12.1
		L43.8,145.1z"/>
	<path class="st13" d="M64.5,158.2c-1.1,1.4-0.8,3.3,0.6,4.4c0.3,0.2,0.6,0.4,1,0.5s0.8,0.1,1.2,0c0.6-0.3,1.1-0.9,1.3-1.6
		c0.2-0.6,0.4-1.1,0.6-1.6c0.1-0.2,0.1-0.4,0.1-0.6c-0.1-0.2-0.3-0.3-0.5-0.3l-4.1-1"/>
	<path class="st4" d="M67.2,162.9c-0.6,0.1-1.3,0-1.8-0.2c-0.7-0.2-1.3-0.7-1.6-1.3c-0.2-0.4-0.3-0.8-0.2-1.3c0-0.5,0.1-0.9,0.3-1.3
		c0.2-0.4,0.4-0.8,0.8-1.1l0.1-0.1h0.1c2.7,1,4.8,1.4,4.8,1.6c-1.7-0.1-3.3-0.5-4.9-1.1H65c-0.3,0.3-0.5,0.6-0.6,0.9
		c-0.3,0.7-0.4,1.4-0.1,2.1c0.3,0.5,0.8,1,1.4,1.2C66.4,162.8,67.2,162.8,67.2,162.9z"/>
	<path class="st5" d="M75.8,124.1c0,0-0.6-0.1-1.6-0.1c-1.4,0-2.9,0.2-4.2,0.8c-0.9,0.4-1.8,0.8-2.6,1.3c-0.9,0.6-1.8,1.3-2.7,2.1
		c-2,1.7-3.8,3.6-5.3,5.7c-0.8,1.1-1.5,2.3-2.3,3.4c-0.7,1-1.6,2-2.5,2.9c-1.6,1.4-3.4,2.6-5.4,3.6c-1.6,0.9-3,1.4-3.9,1.9l-1.1,0.5
		c-0.1,0.1-0.3,0.1-0.4,0.1c0.1-0.1,0.2-0.2,0.4-0.2l1-0.5c0.9-0.4,2.2-1.1,3.8-2c1.9-1,3.6-2.2,5.2-3.6c0.9-0.8,1.8-1.7,2.5-2.7
		c0.8-1.1,1.5-2.2,2.3-3.4c1.5-2.1,3.4-4.1,5.4-5.8c0.9-0.7,1.8-1.4,2.8-2.1c0.8-0.5,1.7-1,2.7-1.3c1.4-0.5,2.8-0.7,4.3-0.7
		c0.4,0,0.8,0.1,1.2,0.2C75.6,124,75.7,124,75.8,124.1z"/>
	<path class="st5" d="M43.6,141.2c-0.2,0.1-0.4,0.3-0.6,0.4l-1.6,0.9l-0.5,0.3c-0.2,0.1-0.4,0.2-0.7,0.2c-0.2,0-0.3,0-0.4-0.1
		c-0.1-0.1-0.2-0.3-0.2-0.4c0-0.3,0.1-0.6,0.3-0.8l1.9-3L42,139c-0.6,0.4-1.3,0.8-2,1s-1.5,0.3-2.3,0.3c-0.2,0-0.4,0-0.6-0.1
		c-0.2-0.1-0.4-0.2-0.5-0.4s0-0.5,0.1-0.6s0.2-0.3,0.4-0.4c0.8-0.8,1.6-1.7,2.1-2.7c0.5-0.9,1-1.9,1.4-2.9c0,0.3-0.1,0.6-0.2,0.9
		c-0.3,0.8-0.6,1.5-1,2.2c-0.6,1-1.3,2-2.1,2.8c-0.2,0.2-0.5,0.5-0.4,0.7s0.4,0.3,0.8,0.3c0.7,0,1.4,0,2.1-0.3
		c0.7-0.2,1.3-0.6,1.9-1l0.8-0.6L42,139l-1.9,3c-0.1,0.2-0.2,0.4-0.3,0.6c0,0.2,0.2,0.3,0.3,0.3l0,0c0.4-0.1,0.8-0.2,1.1-0.5
		l1.6-0.9C43.2,141.4,43.4,141.3,43.6,141.2z"/>
	<path class="st12" d="M124.3,180.1c0.7-3.1,2.1-6,4-8.5c3.1-3.9,11.2-9.7,11.2-9.7s10.5-5,11.4-4.3s0.9,1.8-0.6,2.6
		s-7.5,5.3-7.5,5.3s1.9,1.2,1.5,2.6c-0.1,0.7-0.4,1.4-0.9,1.9c0.8,0.6,1.5,1.5,1.9,2.5c0.1,0.7,0.1,1.4,0,2.1
		c0.7,0.3,1.1,1.1,0.9,1.8c-0.1,0.9-0.4,1.8-0.7,2.6c0,0-4.3,3.1-5.8,3.3s-3.5,0.3-3.5,0.3l-1.6,1.4l-1,4.5L124.3,180.1z"/>
	<path class="st7" d="M32,224.8c0.7-7.7,0.3-10.1,1.5-19.5c1.1-8.4,5.4-22.4,11-28.7l25.1,3.1c0.4,1.6,0.9,3.2,1.5,4.7
		c1.2,3.2,2.7,6.2,4.4,9.2c4.2,7,10.5,15.1,11.6,19.2c0.1,0.5,1.3,36.5,1.3,36.5s2.9,27.1,5.4,36.3s5.4,17.4,5,20.4s-5,5.8-5,5.8
		l-8.5-11.4c-0.9-1.2-2.7-1.5-3.9-0.6c-0.2,0.2-0.4,0.3-0.6,0.6c-2.1,2.8-3.9,5.9-5.2,9.2c-3.2,7.9-9.7,23.3-13.7,27.8
		c-5.4,6.2-8,2.4-8,2.4s-18.3-23.4-20-32.9v0.1C30.9,302.9,31.2,232.8,32,224.8z"/>
	<path class="st7" d="M123.9,178c0,0-22.7,32.4-23.5,32.4s-27.3-18.7-27.3-18.7s-13.2-9.6-18.9-5.2c-11.3,9-1.3,24.3-1.3,24.3
		S92.8,238,105,239s28.1-47.9,28.1-47.9l2.1-2.8L123.9,178z"/>
	<path class="st4" d="M101.3,222.4c1.1-4,0.9-8.3-0.8-12.1c-0.2,0,0.7,2.7,0.9,6S101.1,222.4,101.3,222.4z"/>
	<path class="st4" d="M106.3,220.5c-0.1-2-0.7-4-1.8-5.7c-0.9-1.8-2.3-3.3-4-4.4c-0.1,0.1,1.9,1.9,3.5,4.7S106.1,220.6,106.3,220.5z
		"/>
	<path class="st7" d="M70.7,183.1l-0.2,1.9l-28.2-5.5l0.5-7.9c0,0,0-2.2,2.7-2.2c1.3,0,24.1,5.7,25,6.3
		C72.7,177.2,70.7,183.1,70.7,183.1z"/>
	<path class="st4" d="M62.9,185.1c0.5,0.3,1,0.6,1.5,0.9l4.1,2.6c3.4,2.2,8.1,5.4,13.3,8.9s9.8,6.8,13,9.2c1.6,1.2,2.9,2.2,3.9,2.9
		c0.5,0.3,0.9,0.7,1.4,1.1c-0.5-0.3-1-0.6-1.5-1l-3.9-2.8c-3.3-2.4-8-5.6-13.1-9.1l-13.2-9l-4-2.8C63.7,185.8,63.3,185.5,62.9,185.1
		z"/>
	<path class="st4" d="M55.4,213.2c0.5,0.2,0.9,0.4,1.3,0.7l3.5,2.1c2.9,1.8,7,4.3,11.5,6.9s8.7,5,11.7,6.6l3.6,1.9
		c0.5,0.2,0.9,0.5,1.3,0.8c-0.5-0.2-0.9-0.4-1.4-0.6c-0.9-0.4-2.1-1-3.7-1.8c-3.1-1.6-7.3-3.8-11.8-6.5s-8.6-5.2-11.5-7.1
		c-1.4-0.9-2.6-1.7-3.4-2.2C56.2,213.8,55.8,213.5,55.4,213.2z"/>
	<path class="st4" d="M48.2,204.6c-0.2-0.3-0.3-0.6-0.4-0.9c-0.3-0.8-0.5-1.7-0.7-2.6c-0.9-6,1.9-11.9,7.2-14.9
		c0.8-0.4,1.6-0.8,2.4-1.1c0.3-0.1,0.6-0.2,0.9-0.2c0,0.1-1.3,0.5-3.2,1.6c-5,3.1-7.7,8.8-7,14.6C47.8,203.3,48.3,204.6,48.2,204.6z
		"/>
	<path class="st4" d="M42.3,179.4c0.3-0.2,0.7-0.4,1.1-0.5c1-0.3,2.1-0.5,3.1-0.6c1.6-0.1,3.1,0,4.7,0.4c1.9,0.4,3.7,0.9,5.5,1.6
		c1.9,0.7,3.7,1.3,5.4,1.8c1.5,0.5,3,0.8,4.5,1c1.4,0.1,2.8,0.2,4.2,0.1c-0.4,0.1-0.7,0.2-1.1,0.2c-1,0.1-2.1,0.1-3.1,0
		c-1.6-0.1-3.1-0.4-4.6-0.9c-1.7-0.5-3.5-1.1-5.4-1.8c-1.8-0.6-3.6-1.2-5.4-1.6C48.1,178.5,45.1,178.6,42.3,179.4L42.3,179.4z"/>
	<path class="st2" d="M129.4,184.1c0,0,0,0.1-0.1,0.3l-0.2,0.9c-0.2,0.8-0.6,1.9-1,3.3c-0.9,2.9-2.2,6.9-4.1,11.9
		s-4.2,10.9-7.2,17.3c-0.7,1.7-1.5,3.3-2.4,4.9c-0.9,1.7-2.4,3.1-4.1,4c-1.9,0.8-3.9,0.9-5.9,0.4s-3.9-1.3-5.6-2.3
		c-6.7-3.8-13-8.1-19.1-12.8c-5.7-4.2-10.8-8-15.3-10.7c-3.6-2.2-7.3-4.2-11.2-5.8c-1.4-0.6-2.5-0.9-3.2-1.2l-0.8-0.3
		c-0.1,0-0.2-0.1-0.3-0.1c0.1,0,0.2,0,0.3,0.1l0.9,0.3c0.7,0.3,1.9,0.6,3.2,1.2c3.9,1.6,7.7,3.5,11.3,5.7c4.6,2.8,9.8,6.5,15.4,10.7
		c6.1,4.6,12.4,8.9,19.1,12.7c1.7,1,3.6,1.7,5.5,2.2c1.8,0.5,3.8,0.4,5.6-0.4c1.6-0.8,3-2.2,3.9-3.8s1.7-3.2,2.4-4.8
		c3-6.4,5.4-12.3,7.3-17.2s3.3-9.1,4.3-11.9c0.5-1.4,0.8-2.5,1.1-3.3c0.1-0.4,0.2-0.6,0.3-0.9C129.3,184.3,129.3,184.2,129.4,184.1z
		"/>
	<path class="st2" d="M42.2,322.7c0,0-0.1-0.1-0.1-0.2l-0.3-0.5c-0.3-0.5-0.7-1.3-1.2-2.3c-1.3-3-2.3-6-3-9.1
		c-1.9-8-3.3-19.7-3.2-33.3l0,0c-0.4-7.7-0.7-16.2-0.8-25.1c0-5,0-9.8,0.1-14.5s0.2-9.2,0.5-13.5c0.5-7.6,1.5-15.1,3.1-22.6
		c1.1-5,2.5-10,4.3-14.8c0.6-1.7,1.2-3,1.6-3.9c0.2-0.4,0.3-0.8,0.4-1c0-0.1,0.1-0.2,0.2-0.3c0,0.1-0.1,0.2-0.1,0.4l-0.4,1
		c-0.4,0.9-0.9,2.2-1.5,3.9c-1.7,4.8-3.1,9.8-4.1,14.8c-1.6,7.4-2.6,15-3,22.5c-0.3,4.3-0.4,8.8-0.5,13.4s-0.1,9.5-0.1,14.4
		c0,8.9,0.3,17.4,0.8,25.1l0,0c-0.1,13.6,1.2,25.2,3,33.2c0.7,3.1,1.7,6.2,2.9,9.1c0.4,1,0.9,1.8,1.1,2.3c0.1,0.2,0.2,0.4,0.3,0.6
		V322.7z"/>
	<path class="st2" d="M49.8,274.1c-0.1-0.2-0.1-0.4-0.1-0.6c-0.1-0.5-0.1-1-0.2-1.8l-0.2-1.3c-0.1-0.5-0.1-1-0.1-1.5
		c-0.1-1.1-0.2-2.3-0.2-3.7c0-0.7,0-1.4,0-2.2s0.1-1.5,0.1-2.4c0-1.6,0.2-3.4,0.3-5.2c0.3-3.6,0.8-7.6,1.5-11.8s1.2-8.1,1.8-11.7
		s0.9-6.9,1.1-9.6c0.1-1.4,0.2-2.6,0.3-3.7s0.1-2,0.1-2.8s0-1.3,0.1-1.8c0-0.2,0-0.4,0.1-0.6c0,0.2,0,0.4,0,0.6c0,0.5,0,1.1,0,1.8
		s0,1.7,0,2.8s-0.1,2.3-0.2,3.7c-0.2,2.8-0.5,6-1,9.6s-1.1,7.6-1.7,11.7s-1.1,8.1-1.5,11.7c-0.1,1.8-0.3,3.5-0.4,5.2
		c0,0.8-0.1,1.6-0.1,2.3s0,1.5,0,2.1c0,1.4,0.1,2.6,0.1,3.7c0,0.5,0,1,0.1,1.5s0.1,0.9,0.1,1.3c0.1,0.7,0.1,1.3,0.1,1.8
		C49.8,273.7,49.8,273.9,49.8,274.1z"/>
	<path class="st2" d="M58.9,334.6c-0.1-0.2-0.2-0.3-0.3-0.5l-0.8-1.5c-0.4-0.7-0.8-1.5-1.2-2.5s-1-2.1-1.4-3.4s-1-2.6-1.5-4.2
		s-0.9-3.2-1.4-4.9c-1.9-7.6-2.5-15.4-2-23.1c0.2-1.8,0.3-3.5,0.5-5.1s0.5-3,0.7-4.4s0.6-2.5,0.8-3.6s0.5-1.9,0.7-2.6
		s0.4-1.2,0.5-1.7c0.1-0.2,0.1-0.4,0.2-0.6c0,0.2-0.1,0.4-0.1,0.6c-0.1,0.4-0.2,1-0.4,1.7s-0.4,1.6-0.7,2.7s-0.5,2.2-0.7,3.6
		s-0.5,2.8-0.7,4.4s-0.3,3.3-0.5,5c-0.2,3.9-0.2,7.7,0.1,11.6c0.4,3.9,1,7.7,1.8,11.4c0.4,1.7,0.8,3.4,1.3,4.9s0.9,2.9,1.4,4.2
		s0.9,2.4,1.3,3.4s0.8,1.8,1.1,2.5l0.7,1.6C58.8,334.2,58.8,334.4,58.9,334.6z"/>
	<path class="st2" d="M79.1,289.2c0-0.2-0.1-0.4-0.1-0.7c0-0.5,0-1.1-0.1-1.9c0-1.7-0.1-4-0.2-6.9c-0.2-5.9-0.5-13.9-1-22.9
		s-1.2-17-1.8-22.8c-0.3-2.9-0.5-5.2-0.6-6.9c-0.1-0.8-0.1-1.4-0.2-1.9c0-0.2,0-0.4,0-0.7c0.1,0.2,0.1,0.4,0.1,0.6
		c0.1,0.5,0.1,1.1,0.3,1.9c0.2,1.6,0.5,4,0.8,6.9c0.6,5.8,1.4,13.9,1.9,22.8s0.8,17,0.9,22.9c0,2.9,0,5.3,0,6.9c0,0.8,0,1.4,0,1.9
		C79.2,288.8,79.2,289,79.1,289.2z"/>
	<path class="st2" d="M77.1,305.8c-0.5-0.7-0.9-1.5-1.2-2.4c-0.8-2-1.3-4.1-1.6-6.3c-0.3-2.1-0.3-4.3-0.1-6.5
		c0.1-0.9,0.2-1.8,0.5-2.6c0,0.9-0.1,1.8-0.2,2.7c-0.3,4.3,0.3,8.5,1.7,12.6C76.5,304.1,76.8,305,77.1,305.8z"/>
	<g class="st8">
		<path d="M87.8,232c-6.9-0.6-12.4-1.3-18.7-4.1s-12.4-7.8-13.6-14.6C66.8,219.3,76.4,225.9,87.8,232z"/>
	</g>
	<path class="st2" d="M54.1,186.3c-0.4-1.1-0.7-2.3-0.9-3.5c-0.5-1.9-1.2-3.3-1.1-3.4c0.8,0.9,1.3,2.1,1.6,3.3
		C54.1,183.8,54.3,185,54.1,186.3z"/>
	<g class="st8">
		<path d="M70.4,184.1c-0.3-0.8-1.4-0.8-2.3-0.8c-4.3,0.3-8.4-1.4-12.5-2.9s-8.5-2.7-12.6-1.4v0.3c3.9,2,8.2,3.3,12.6,3.8
			c3.8,0.4,7.7,0.3,11.1,1.9c0.7,0.4,1.5,0.7,2.3,0.7C69.8,185.6,70.7,184.9,70.4,184.1z"/>
	</g>
	<g class="st8">
		<path d="M106.5,215c-1.3-2.2-3.3-3.8-5.7-4.5l-0.2,0.3c3.2,2.9,5.3,6.9,5.8,11.2c0,0.5,0.2,1.1,0.7,1s0.5-0.4,0.6-0.8
			C108.2,219.7,107.8,217.2,106.5,215z"/>
	</g>
	<path class="st4" d="M83.9,294c-0.5-0.3-0.9-0.6-1.3-1s-0.9-0.8-1.6-1.3s-1.3-1.1-2.1-1.6c-1.6-1.2-3.5-2.6-5.6-4s-4.6-2.9-7.3-4.4
		s-5.2-2.8-7.6-3.9s-4.6-2-6.4-2.7c-0.9-0.4-1.8-0.7-2.5-0.9s-1.4-0.5-1.9-0.6c-0.6-0.2-1.1-0.3-1.6-0.6c0.6,0.1,1.1,0.2,1.7,0.4
		c0.5,0.1,1.2,0.3,1.9,0.6s1.6,0.5,2.5,0.8c1.9,0.6,4.1,1.5,6.5,2.6s5,2.4,7.6,3.8c2.6,1.4,5.1,3,7.3,4.5s4.1,2.9,5.6,4.1
		c0.8,0.6,1.5,1.2,2.1,1.7s1.1,1,1.5,1.4C83.1,293.2,83.6,293.6,83.9,294z"/>
	<g class="st8">
		<path d="M46.8,273c-0.6-0.5-0.7-1.5-0.2-2.1c0.1-0.1,0.1-0.1,0.2-0.2c0.7-0.5,1.7-0.6,2.5-0.3c0.8,0.4,1.6,0.9,2.2,1.5
			c7.1,5.8,16.4,8.3,23.8,13.8c2,1.5,4,3.2,6.5,3.8c0.8,0.2,1.9,0.4,2.1,1.3s-0.8,1.5-1.6,1.4c-0.8-0.2-1.6-0.5-2.2-1.1
			C70.4,282.9,59,276.8,46.8,273"/>
	</g>
</g>
<path class="st14" d="M179.6,157.9h3.2c1,0,1.4,0,1.9-0.1v3.1c-0.5-0.1-0.9-0.1-1.9-0.1h-3.2v1.7c0.4,0,0.7,0,1,0
	c1.5,0,3.4-0.1,6-0.3c-0.3,1.3-0.5,1.9-0.7,3.3c-2.3,0.1-2.8,0.1-4.2,0.1c-1.3,0-2.6-0.1-3.6-0.1c-1.4-0.1-2.4-0.5-3.5-1.2
	c-0.5-0.3-0.8-0.6-1.2-1.1c-0.6,1.1-1.2,1.9-2.1,2.9c-1-1.2-1-1.2-2.6-2.6c0.8-0.7,1.1-1,1.6-1.8c0.7-1,1.1-1.9,1.4-3.1
	c0.1-0.5,0.2-1.1,0.2-1.4v-0.1l3.4,0.6c-0.2,0.6-0.2,0.8-0.3,1.2s-0.2,1-0.3,1.4c0.5,0.8,1,1.3,1.8,1.7v-5.3h-3.3
	c-0.9,0-1.4,0-2,0.1v-1.9h-2c0.1-0.5,0.1-1,0.1-1.7v-1.9c0-0.5,0-0.9-0.1-1.5c0.8,0.1,1.5,0.1,2.3,0.1h4.3v-0.2c0-0.5,0-0.8-0.1-1.2
	h3.6c-0.1,0.3-0.1,0.7-0.1,1.2v0.2h4.5c0.8,0,1.5,0,2.3-0.1c-0.1,0.6-0.1,1-0.1,1.5v1.9c0,0.6,0,1.1,0.1,1.7h-2v1.9
	c-0.6-0.1-1-0.1-2-0.1h-2.4L179.6,157.9L179.6,157.9z M182.7,152.7h-10.4v1h10.4V152.7z"/>
<path class="st14" d="M188.1,160.7c-0.3-1-0.6-1.5-1.2-2.4c1.1-0.1,1.8-0.3,2.7-0.7c-0.1-0.1-0.3-0.3-0.5-0.5
	c-0.1,0.1-0.3,0.2-0.7,0.4c-0.4-1-0.7-1.5-1.5-2.4c0.8-0.5,1.3-0.8,1.9-1.5h-1.4c0-0.1,0-0.1,0.1-0.6c0,0,0-0.1,0-0.8V151
	c0-0.2,0-0.7-0.1-1.4c0.3,0,0.6,0.1,1.4,0.1h1.4v-0.1c0-0.5,0-0.8-0.1-1h3.4c-0.1,0.2-0.1,0.4-0.1,1h1.2c0.5,0,0.9,0,1.1,0v-0.9
	c0.7,0.1,0.9,0.1,2.2,0.1h4.5c1.2,0,1.9,0,2.2-0.1v3.1c-0.1,0-0.1,0-0.4,0c-0.1,0-0.1,0-1.8,0H202c0,0.1-0.1,0.1-0.2,0.4h0.4
	c1.7,0,1.7,0,2,0c-0.1,0.7-0.1,1-0.1,1.6v6.5c0,0.9,0,1.3,0.1,2.1c-0.2,0-0.2,0-0.5,0c0,0-0.2,0-0.3,0s-0.1,0-0.6,0
	c0.7,0.4,1.4,0.8,2.3,1c-0.7,0.9-1.2,1.7-1.7,2.8c-1.4-0.7-2.5-1.4-3.4-2.4c-1.1,1.1-1.9,1.7-3.3,2.4c-0.4-0.7-0.6-1-1-1.5
	c0,0.4,0,0.7,0.1,1h-3.1V165h-1.3v0.7H188c0.1-0.5,0.1-0.8,0.1-1.8V160.7z M193.1,152.3h-2.9v0.2l2.1,0.3c-0.1,0.1-0.1,0.1-0.1,0.2
	c0,0.1,0,0.1-0.1,0.3h1V152.3z M190.9,155.5c0.2,0.3,0.5,0.5,0.9,0.8c0.2-0.2,0.3-0.4,0.7-0.8H190.9z M193.6,159.9
	c-0.8-0.3-1-0.3-1.6-0.6c-0.4,0.3-0.8,0.5-1.1,0.6H193.6z M191.2,162.8h1.3v-0.6h-1.3V162.8z M196,154.7c-0.1,0.1-0.2,0.4-0.5,0.8
	c-0.3,0.6-0.8,1.2-1.3,1.7c0.6,0.1,1.2,0.2,1.9,0.2v-3.5c0-1,0-1.4-0.1-1.8c0.2,0,0.6,0,1.5,0h0.8c0.1-0.2,0.1-0.3,0.2-0.4h-0.9
	c-0.6,0-0.6,0-1.9,0.1v0.4c0,1.2,0,1.2,0,1.5h-0.9L196,154.7z M195.6,159.8c0,0.3,0,0.4,0,1.4v2.1c0.7-0.3,1.2-0.7,1.7-1
	c-0.4,0-0.7,0-0.8,0s-0.1,0-0.2,0c0-0.3,0-0.3,0-0.7c0-0.2,0-0.3,0-0.5c0-0.3,0-0.4,0-0.5v-2.5C196,158.6,195.7,159.3,195.6,159.8
	L195.6,159.8z M200.9,162.3h-2.1l1.1,0.8L200.9,162.3z M199.4,154.9h1.4v-0.5h-1.4V154.9z M199.4,157.3h1.4v-0.5h-1.4V157.3z
	 M199.4,159.8h1.4v-0.5h-1.4V159.8z"/>
<path class="st14" d="M205.5,150.3c0.3,0,0.6,0,0.7,0c0.5,0,1.3,0,3.2-0.2c2-0.1,8.4-0.4,11.5-0.5c0.3,0,0.4,0,0.7-0.1l0.2,3.9
	c-0.3,0-0.4,0-0.6,0c-1.4,0-3.3,0.6-4.6,1.5c-1.5,1-2.4,2.4-2.4,3.7c0,1,0.5,1.6,1.5,2c0.7,0.3,2.2,0.6,3.5,0.6c0.2,0,0.4,0,0.7,0
	l-0.5,4.1c-0.3-0.1-0.3-0.1-0.7-0.1c-2.3-0.2-3.9-0.5-5.1-1.1c-2.4-1.1-3.5-2.8-3.5-5.3c0-1.3,0.3-2.3,1-3.5
	c0.5-0.8,0.9-1.3,1.7-1.9c-2.4,0.2-4,0.3-4.6,0.4c-1.4,0.1-1.7,0.2-2.5,0.3L205.5,150.3z M218.3,157.9c-0.4-1.1-0.7-1.7-1.2-2.6
	l1.9-0.7c0.6,0.9,0.9,1.5,1.3,2.5L218.3,157.9z M220.7,157c-0.3-0.9-0.7-1.6-1.3-2.5l2-0.7c0.8,1.1,0.8,1.2,1.3,2.4L220.7,157z"/>
<path class="st14" d="M188.7,188.1c-1.8-1.2-3-1.8-4.8-2.8c-0.7,0.4-1.2,0.7-2,1c-1.8,0.8-3.3,1.2-6.3,1.7c-0.4-1.2-0.7-1.8-1.5-3.2
	c2.8-0.2,4.3-0.5,6-1.1c-1.6-0.6-2.4-0.8-4.5-1.4c0.9-1.2,1.3-1.6,1.9-2.6h-1.2c-1.1,0-1.7,0-2.3,0.1v-3.1c0.5,0.1,0.9,0.1,2.3,0.1
	h3c0.5-0.9,0.8-1.6,0.9-2l3.6,0.4c-0.2,0.3-0.2,0.4-0.8,1.6h6c1.4,0,1.8,0,2.3-0.1v3.1c-0.6-0.1-1.2-0.1-2.3-0.1h-0.6
	c-0.6,1.5-1,2.3-1.9,3.3c1.8,0.8,2.9,1.3,4.7,2.3L188.7,188.1z M188.8,171.7c1.1,0,1.7,0,2.3-0.1c-0.1,0.6-0.1,1-0.1,1.5v1.9
	c0,0.6,0,1,0.1,1.5h-3.3v-1.7h-10.4v1.7h-3.3c0.1-0.4,0.1-0.8,0.1-1.5v-1.8c0-0.5,0-0.8-0.1-1.5c0.6,0.1,1.2,0.1,2.3,0.1h4.3
	c0-0.6,0-0.9-0.1-1.3h3.6c-0.1,0.3-0.1,0.7-0.1,1.2v0.1L188.8,171.7L188.8,171.7z M181.4,179.8c-0.3,0.6-0.4,0.6-0.8,1.2
	c1,0.3,1.5,0.4,2.8,0.9c0.7-0.7,1-1.1,1.4-2.1L181.4,179.8L181.4,179.8z"/>
<path class="st14" d="M192,183.7c1-2.1,1.4-4.6,1.6-7.8l3.2,0.8c-0.1,3.7-0.6,6.5-1.5,8.8L192,183.7z M203.4,175.9
	c-1.5-1-3.6-1.8-6.7-2.8l1.9-2.9c2.4,0.6,4.9,1.5,6.7,2.4L203.4,175.9z M200.6,184.1c0,0.3,0.2,0.3,1,0.3s1.2-0.1,1.3-0.3
	c0.3-0.5,0.4-1.5,0.4-3.7c1.1,0.5,1.7,0.7,2.5,1c-0.5-1.7-1-2.9-1.8-4.6l3.2-1.4c1.4,2.8,2.3,5.3,3,8.2l-3.4,1.6
	c-0.1-0.7-0.2-1-0.3-1.5c-0.1,1.2-0.3,2-0.7,2.6c-0.3,0.5-0.8,0.9-1.3,1.1c-0.7,0.2-1.6,0.3-3.3,0.3c-2.1,0-2.8-0.1-3.3-0.4
	c-0.6-0.4-0.8-0.9-0.8-2.2v-8.5c0-0.9,0-1.4-0.1-2.1h3.8c-0.1,0.8-0.1,1.2-0.1,1.9L200.6,184.1L200.6,184.1z"/>
<path class="st14" d="M214.8,181.9c0-0.4,0-0.5,0-1c0-0.2,0-0.2-0.1-1.3l-0.4-5.6c-0.1-0.9-0.1-1.5-0.3-2.6h5.1
	c-0.1,1.1-0.2,1.6-0.3,2.6l-0.4,5.6c-0.1,0.7-0.1,1.1-0.1,1.5c0,0.3,0,0.5,0,0.8H214.8z M214.4,187v-4.1h4.3v4.1H214.4z"/>
<rect x="304.6" y="198.8" class="st7" width="66.3" height="22.1"/>
<g>
	<path class="st2" d="M320,209.1c0.5,0,0.8,0,1.2-0.1v1.8c-0.4-0.1-0.7-0.1-1.2-0.1h-1.4l-0.4,0.7v0.2h1.7c0.5,0,0.8,0,1.2-0.1v1.8
		c-0.4-0.1-0.7-0.1-1.2-0.1h-1.7v0.3c0,0.9,0,1.3,0.1,1.9h-3c0.1-0.7,0.1-1.2,0.1-1.9v-0.3h-1.8c-0.5,0-0.8,0-1.2,0.1v-1.8
		c0.4,0.1,0.7,0.1,1.2,0.1h1.8v-0.2l-0.4-0.7h-1.4c-0.5,0-0.8,0-1.2,0.1V209c0.4,0.1,0.7,0.1,1.2,0.1h0.4l-1.3-2.3
		c-0.3-0.6-0.7-1.2-1-1.6h3.6c0.1,0.4,0.3,0.7,0.5,1.3l1,2l1-2c0.4-0.7,0.4-0.9,0.5-1.3h3.6c-0.3,0.5-0.9,1.4-1,1.6l-1.3,2.3H320z"
		/>
	<path class="st2" d="M331.3,213.4c-0.4,0-0.6-0.1-1.4-0.1v0.4c0,0.7,0,1,0.1,1.5h-2.9c0.1-0.4,0.1-0.9,0.1-1.5v-0.4h-3.3
		c-0.8,0-1.1,0-1.6,0v-2.5c0.5-0.6,0.5-0.6,1.3-1.4l2.4-2.7c0.5-0.6,0.8-1,1.1-1.5h2.9c-0.1,0.7-0.1,1.2-0.1,1.9v3.8
		c0.7,0,0.9,0,1.4-0.1V213.4z M325.2,211h2v-1.5c0-0.3,0-0.6,0-0.9L325.2,211z"/>
	<path class="st2" d="M332.2,215.3v-2.8h2.8v2.8c0,0.7-0.3,1.3-0.9,1.7c-0.3,0.2-0.6,0.4-1.3,0.5l-0.6-1c0.6-0.1,0.8-0.2,1.1-0.4
		c0.3-0.2,0.4-0.4,0.4-0.8H332.2z"/>
	<path class="st2" d="M339,212c0,0.3,0.1,0.5,0.2,0.7c0.3,0.3,0.7,0.5,1.2,0.5c0.7,0,1.2-0.4,1.2-1c0-0.7-0.3-0.9-1.2-0.9
		c-0.8,0-1.2,0-1.8,0.1V209c0.4,0,0.9,0.1,1.4,0.1c1,0,1.4-0.3,1.4-0.9c0-0.5-0.3-0.8-1-0.8s-1.1,0.3-1.2,0.9l-3.1-0.4
		c0.2-0.7,0.4-1.1,0.8-1.5c0.3-0.4,0.8-0.7,1.2-0.9c0.7-0.3,1.5-0.5,2.4-0.5c1.7,0,3,0.6,3.6,1.5c0.2,0.3,0.3,0.8,0.3,1.2
		c0,0.8-0.3,1.5-0.8,1.9c-0.4,0.3-0.7,0.4-1.5,0.6c0.9,0.1,1.4,0.3,1.8,0.7c0.5,0.4,0.8,1,0.8,1.8c0,0.7-0.2,1.3-0.7,1.8
		c-0.7,0.7-1.9,1.1-3.4,1.1c-0.5,0-1.2-0.1-1.7-0.2c-1.2-0.2-1.9-0.7-2.4-1.6c-0.2-0.3-0.3-0.6-0.5-1.2L339,212z"/>
	<path class="st2" d="M354,207.5c-1,1.1-1.3,1.7-1.8,2.8c-0.7,1.5-1.1,2.8-1.3,5h-3.2c0.3-1.9,0.5-2.5,1-3.8
		c0.6-1.4,1.1-2.3,2.2-3.8h-3.2c-0.9,0-1.4,0-1.9,0.1v-2.6c0.6,0.1,1.2,0.1,2.1,0.1h4.1c1.2,0,1.6,0,2.1,0v2.2H354z"/>
	<path class="st2" d="M355.7,208.9c-0.1-0.3-0.2-0.7-0.2-1.1c0-0.6,0.2-1.1,0.6-1.6c0.7-0.7,1.8-1.1,3.4-1.1c1.7,0,3.1,0.5,3.7,1.5
		c0.2,0.4,0.3,0.7,0.3,1.1c0,0.6-0.1,1-0.4,1.4s-0.6,0.7-1.3,0.9c0.7,0.1,1.1,0.4,1.5,0.8c0.4,0.4,0.6,1,0.6,1.7
		c0,0.8-0.3,1.4-0.8,1.9c-0.3,0.3-0.7,0.6-1.1,0.7c-0.8,0.3-1.6,0.4-2.6,0.4c-1.2,0-2.4-0.3-3-0.7c-0.9-0.5-1.4-1.3-1.4-2.4
		c0-0.7,0.2-1.2,0.6-1.7c0.4-0.4,0.8-0.6,1.5-0.8C356.4,209.7,355.9,209.4,355.7,208.9z M360.9,212.2c0-0.7-0.5-1-1.4-1
		s-1.5,0.4-1.5,1.1c0,0.6,0.5,1,1.5,1C360.3,213.3,360.9,212.9,360.9,212.2z M360.5,208.1c0-0.5-0.4-0.8-1.1-0.8s-1.1,0.3-1.1,0.8
		s0.5,0.8,1.1,0.8C360.1,208.9,360.5,208.6,360.5,208.1z"/>
</g>
<g>
	<path class="st14" d="M273.4,142.8c-0.7-0.1-1.3-0.1-2.1-0.1h-6.8c-0.7,0-1.4,0-2.1,0.1v-2.1c0.6,0.1,1.2,0.1,2.1,0.1h6.8
		c0.9,0,1.5,0,2.1-0.1V142.8z"/>
	<path class="st14" d="M275.1,140.8v-0.4c0-1.8,0-2.5-0.1-3.1c0.3,0,0.5,0,0.7,0h0.6c0.2-0.4,0.4-0.9,0.4-1.2l1.9,0.2
		c0,0.1,0,0.1,0,0.1c-0.2,0.4-0.3,0.6-0.4,0.9h0.6c0.3,0,0.7,0,0.9,0c0,0.3,0,0.4,0,0.7v1.7c0.6-0.4,0.9-1.2,0.9-2.4
		c0-0.3,0-0.5,0-0.7c0.3,0,0.6,0,0.9,0h1.8c0.4,0,0.7,0,1,0c0,0.2,0,0.5,0,0.9v1.8c0,0.1,0,0.1,0.1,0.1c0.2,0,0.2,0,0.3-0.1
		c0-0.2,0.1-0.6,0.1-1.2c0.4,0.2,0.6,0.3,1.1,0.5c-0.1,0.9-0.1,1.4-0.3,1.7c-0.2,0.5-0.4,0.6-1.5,0.6c-1.2,0-1.4-0.1-1.4-0.9v-1.8
		H282c0,0.9-0.2,1.4-0.5,2c-0.2,0.5-0.5,0.7-0.9,1.1c-0.4-0.7-0.6-1-1.1-1.4v0.9l0.3,0v1.5l-0.3,0.1v3.7c0.7-0.3,1.1-0.5,1.6-0.9
		c-0.4-0.5-0.7-0.9-1.1-1.7l1.5-0.6H281c-0.5,0-0.7,0-0.9,0v-1.6c0.2,0,0.4,0,0.7,0h2.8c0.4,0,0.6,0,0.8,0l0.8,0.9
		c-0.1,0.1-0.1,0.2-0.2,0.6c-0.3,0.9-0.7,1.6-1.3,2.3c0.7,0.4,1.2,0.6,2.1,0.8c-0.4,0.7-0.6,1.1-0.8,1.8c-1-0.3-1.7-0.7-2.5-1.3
		c-0.6,0.5-1.1,0.9-1.9,1.3c-0.2-0.6-0.5-0.9-0.9-1.4c0,0.5,0,0.7-0.2,0.9c-0.2,0.3-0.7,0.4-1.5,0.4c-0.2,0-0.4,0-0.7,0
		c0-0.6-0.1-1-0.3-1.7c0.5,0.1,0.8,0.1,1.1,0.1c0.2,0,0.2,0,0.2-0.2v-3.2c-0.1,0-0.2,0-0.3,0v1.7c0,0.6,0,0.7,0,1h-1
		c0-0.3,0-0.4,0-1v-1.6l-0.3,0c-0.1,2.2-0.3,3.5-1,4.9c-0.5-0.6-0.8-0.9-1.4-1.4c0.5-0.7,0.8-1.6,0.9-3.3c-0.3,0-0.4,0.1-0.6,0.1
		l-0.2-1.8c0.2,0,0.2,0,0.2,0c0.1,0,0.3,0,0.6,0V140.8z M278.1,138.8h-1.5v0.5l0.9-0.4c0.3,0.5,0.5,0.8,0.6,1.4V138.8z M276.6,139.6
		c0,0.4,0,0.6,0,0.9c0,0.1,0,0.2,0,0.5c0.7-0.1,0.7-0.1,1.5-0.2v-0.5l-1,0.5c-0.2-0.6-0.4-1.1-0.6-1.5V139.6z M281.5,142.8
		c0.4,0.6,0.5,0.7,0.9,1.1c0.3-0.4,0.4-0.6,0.7-1.1H281.5z"/>
	<path class="st14" d="M293.3,144.6c-0.3-1.2-0.7-2.1-1.3-3c-0.1,0.1-0.1,0.1-0.2,0.2c-0.3-0.3-0.4-0.4-0.6-0.6v4.6
		c0,0.4,0,0.8,0,1.1h-1.7v-0.7h-1.1v1.1h-1.8c0-0.4,0.1-0.9,0.1-1.6v-6.4c0-0.7,0-1,0-1.3c0.3,0,0.4,0,1,0h0.3
		c0.3-0.6,0.4-1,0.5-1.7l1.9,0.2c-0.3,0.8-0.3,0.8-0.6,1.5h0.5c0.4,0,0.7,0,1,0c0,0.1,0,0.1,0,0.4c0,0,0,0.3,0,0.6v0.7
		c0.5-0.7,1-1.6,1.2-2.5c0.1-0.3,0.2-0.6,0.2-0.8l1.9,0.3c-0.1,0.1-0.1,0.3-0.2,0.6c-0.1,0.3-0.1,0.4-0.2,0.7h2.2c0.5,0,0.8,0,1,0
		c0,0.4,0,0.5-0.1,0.8c0,0.5,0,0.8-0.1,3.8c0,1.3-0.2,2.8-0.3,3.5c-0.2,0.9-0.4,1.2-0.9,1.5c-0.3,0.2-1,0.3-1.8,0.3
		c-0.2,0-0.5,0-0.9,0c-0.1-0.7-0.2-1.2-0.5-1.9c0.7,0.1,1,0.1,1.4,0.1c0.6,0,0.8-0.1,0.9-0.4c0.2-0.6,0.3-2.3,0.3-5.7h-2.1
		c-0.4,0.8-0.8,1.3-1.3,1.8l1.5-0.7c0.6,1,1,1.8,1.4,3L293.3,144.6z M288.4,141.2h1.1v-1.6h-1.1V141.2z M288.4,144.5h1.1v-1.8h-1.1
		V144.5z"/>
	<path class="st14" d="M303.4,136.6c-0.1,0.2-0.1,0.2-0.2,1c-0.1,0.3-0.1,0.4-0.1,0.7c0.8-0.1,1.3-0.2,1.7-0.3l0,1.9
		c-0.3,0-0.3,0-0.9,0.1c-0.3,0-1,0.1-1.3,0.1c-0.4,1.4-0.7,2.2-1.3,3.5c-0.3,0.6-0.4,0.8-0.8,1.7c-0.2,0.3-0.2,0.3-0.2,0.5l-2-1.1
		c0.9-1.1,1.7-2.8,2.2-4.5c-0.2,0-0.2,0-0.7,0c-0.3,0-0.3,0-0.6,0c0,0-0.1,0-0.5,0v-1.9c0.5,0.1,1,0.1,1.8,0.1c0.1,0,0.2,0,0.4,0
		c0-0.1,0-0.1,0.1-0.5c0.1-0.4,0.2-1,0.2-1.4L303.4,136.6z M308.6,146.7c-0.4-0.5-0.9-0.9-1.5-1.3c0,0.6-0.2,0.9-0.5,1.2
		c-0.5,0.5-1.3,0.7-2.3,0.7c-1,0-1.8-0.3-2.3-0.8c-0.4-0.4-0.6-0.9-0.6-1.5c0-1.4,1.2-2.4,2.8-2.4c0.3,0,0.4,0,0.8,0.1
		c0-0.5,0-0.7,0-1c0-0.5,0-0.9,0.1-1.4l2,0.1c-0.1,0.4-0.1,0.8-0.1,1.4c0,0.4,0,0.8,0.1,1.4c0.7,0.3,1.3,0.6,1.8,1.1
		c0,0,0.2,0.2,0.6,0.5L308.6,146.7z M304.3,144.5c-0.6,0-0.9,0.2-0.9,0.6c0,0.3,0.3,0.6,0.9,0.6c0.6,0,0.9-0.3,0.9-0.8
		c0-0.1,0-0.3,0-0.3C304.8,144.5,304.5,144.5,304.3,144.5z M308.7,141.1c-1.1-0.7-2.3-1.2-3.7-1.7l1-1.7c1.5,0.5,2.5,1,3.6,1.6
		L308.7,141.1z"/>
	<path class="st14" d="M314.8,137.7c0-0.5,0-1-0.1-1.3h2c0,0.3-0.1,0.8-0.1,1.3v2.7h1.9l-1.3-0.7c0.7-0.9,1.2-1.7,1.7-2.9l1.8,0.8
		c-0.6,1.2-1.1,2.1-1.7,2.9h0.6c0.5,0,1,0,1.5-0.1v1.9c-0.4,0-0.8-0.1-1.5-0.1H318v3.3c0,0.3,0.1,0.3,0.7,0.3c0.6,0,0.8,0,0.9-0.3
		c0.1-0.3,0.1-0.6,0.1-1.7c0.6,0.3,1,0.5,1.8,0.6c-0.1,1.7-0.3,2.3-0.8,2.7c-0.3,0.3-0.8,0.3-2.2,0.3c-2,0-2.3-0.2-2.3-1.2v-4.1
		h-1.1c-0.1,1.8-0.3,2.7-1,3.6c-0.3,0.4-0.8,0.9-1.3,1.2c-0.5,0.3-0.9,0.5-1.6,0.7c-0.3-0.7-0.6-1.1-1.1-1.7
		c1.1-0.2,1.8-0.6,2.4-1.2c0.5-0.6,0.7-1.2,0.8-2.5h-1.3c-0.5,0-1,0-1.5,0.1v-1.9c0.5,0,1,0.1,1.5,0.1h0.5c-0.6-1.2-1-1.9-1.6-2.8
		l1.6-0.8c0.8,1,1.1,1.5,1.7,2.8l-1.4,0.8h2.1V137.7z"/>
	<path class="st14" d="M331.3,147.6V147h-6.8v0.6h-1.9c0-0.4,0.1-0.9,0.1-1.7v-7.8c0-0.6,0-0.9-0.1-1.4c0.4,0,0.8,0.1,1.4,0.1h7.8
		c0.6,0,1,0,1.4-0.1c0,0.4-0.1,0.8-0.1,1.4v7.8c0,0.7,0,1.3,0.1,1.7H331.3z M324.5,145.3h6.8v-6.9h-6.8V145.3z M329.3,139.3
		c0.5,0,0.8,0,1.1,0c0,0.3,0,0.6,0,1v3.1c0,0.4,0,0.7,0,1c-0.3,0-0.6,0-1.1,0h-3c-0.5,0-0.8,0-1.1,0c0-0.3,0-0.6,0-1v-3.1
		c0-0.3,0-0.6,0-1c0.3,0,0.6,0,1.1,0H329.3z M327,142.8h1.6v-1.9H327V142.8z"/>
	<path class="st14" d="M334.3,141.3c0.2,0,0.4,0,0.7,0c0,0,0.1,0,0.3,0c0.2-0.2,0.3-0.3,0.4-0.6c-0.6-0.8-0.9-1.2-1.5-1.8l0.8-1.5
		l0.3,0.4c0.3-0.6,0.6-1.3,0.7-1.7l1.6,0.6c-0.1,0.1-0.1,0.2-0.3,0.5c-0.3,0.6-0.6,1.3-1,1.8c0.1,0.2,0.2,0.2,0.3,0.4
		c0.5-0.8,0.9-1.5,1.1-2l1.3,0.8c-0.1,0.1-0.1,0.1-0.6,0.9c-0.2,0.3-0.4,0.6-0.8,1.1l0.9-0.3c0.3,0.7,0.3,1,0.5,1.5
		c0-0.5,0-0.5,0-0.8v-2.3c0-0.4,0-0.9,0-1.2c0.3,0,0.6,0,1.2,0h0.6c0.2-0.4,0.2-0.6,0.3-1l1.9,0.2c-0.1,0.4-0.2,0.5-0.3,0.8h1.1
		c0.6,0,0.9,0,1.2,0c0,0.4,0,0.6,0,1.3v2.3c0,0.6,0,0.9,0,1.2c-0.2,0-0.2,0-0.5,0l1.1,1c-0.6,0.6-1,0.9-1.5,1.3c0.5,0.6,1,1,1.6,1.4
		c-0.4,0.5-0.7,0.9-1,1.7c-0.9-0.8-1.4-1.3-1.9-2.5c0,0.1,0,0.3,0,0.3c0,0.2,0,0.6,0,0.6v0.5c0,0.9-0.5,1.3-1.8,1.3
		c-0.2,0-0.6,0-0.8,0c-0.1-0.5-0.1-0.9-0.3-1.2c-0.3,0.4-0.5,0.6-1,1.1c-0.3-0.5-0.6-0.9-1.1-1.4c0.3-0.2,0.4-0.3,0.6-0.5l-0.8,0.1
		c0-0.9-0.1-1.5-0.2-2.3l0.9-0.2c0.1,0.8,0.2,1.4,0.3,2.2c0.4-0.4,0.6-0.8,0.8-1.4h-0.3c-0.3,0-0.4,0-0.6,0v-1.2l-0.6,0.2
		c0-0.1,0-0.1,0-0.3c-0.3,0-0.6,0.1-0.7,0.1v3.6c0,0.7,0,1,0.1,1.3h-1.7c0-0.4,0.1-0.8,0.1-1.3v-3.5c-0.4,0-0.5,0-0.8,0
		c-0.4,0-0.5,0-0.8,0.1L334.3,141.3z M335.7,143.3c0,2.1-0.1,2.8-0.4,3.8l-1.1-0.7c0.2-0.8,0.3-1.4,0.4-3.2L335.7,143.3z M337,141.3
		c0.4,0,0.6,0,0.9,0c-0.1-0.4-0.1-0.4-0.3-0.8C337.3,140.8,337.3,140.9,337,141.3z M339.4,142.3h0.9c0.2,0,0.4,0,0.5,0l0.4,0.5v-1
		h-0.9c-0.3,0-0.8,0-1.1,0c0,0.1,0,0.1,0.1,0.5H339.4z M341.2,143.6c0,0.1,0,0.1,0,0.2c-0.2,0.7-0.5,1.4-0.9,2.1c0.2,0,0.3,0,0.5,0
		c0.3,0,0.4-0.1,0.4-0.3V143.6z M340.8,138.9h2.5v-0.4h-2.5V138.9z M340.8,140.5h2.5v-0.5h-2.5V140.5z M342.9,141.8
		c0.1,0.5,0.2,0.7,0.4,1.1c0.4-0.3,0.6-0.5,1.1-1.1c-0.3,0-0.3,0-0.5,0H342.9z"/>
</g>
</svg>
