<?xml version="1.0" encoding="utf-8"?>
<!-- Generator: Adobe Illustrator 24.3.0, SVG Export Plug-In . SVG Version: 6.00 Build 0)  -->
<svg version="1.1" id="Layer_1" xmlns="http://www.w3.org/2000/svg" xmlns:xlink="http://www.w3.org/1999/xlink" x="0px" y="0px"
	 viewBox="0 0 500 500" style="enable-background:new 0 0 500 500;" xml:space="preserve">
<style type="text/css">
	.st0{fill-rule:evenodd;clip-rule:evenodd;fill:url(#SVGID_1_);}
	.st1{fill:#FCB120;}
	.st2{fill:#FFFFFF;}
	.st3{fill:#1E4C4C;}
	.st4{fill:#1A7C7B;}
	.st5{fill:#FCC020;}
	.st6{fill:#54636A;}
	.st7{fill:#9EC10D;}
	.st8{fill:#FFB900;}
	.st9{fill:#EC7103;}
	.st10{font-family:'KozGoPr6N-Heavy-83pv-RKSJ-H';}
	.st11{font-size:13px;}
	.st12{font-size:12.9992px;}
</style>
<linearGradient id="SVGID_1_" gradientUnits="userSpaceOnUse" x1="0" y1="260.5" x2="486" y2="260.5" gradientTransform="matrix(1 0 0 -1 0 500)">
	<stop  offset="0" style="stop-color:#FFD300"/>
	<stop  offset="1" style="stop-color:#EC7103"/>
</linearGradient>
<path class="st0" d="M166.92,0C263.62,40,360.31,80,457,120c9.67,52,19.33,104,29,156c-23,50.67-46,101.33-69,152
	c-84.33,17-168.67,34-253,51C109.33,423.33,54.67,367.67,0,312c7.33-62,14.67-124,22-186C70.31,84,118.62,42,166.92,0z"/>
<g>
	<g>
		<g id="paper_clip_8_">
			<g>
				<path class="st1" d="M356.4,338.9l-0.2-0.1c-3.9-1.5-6-5.9-4.5-9.8l6.3-17c0.2-0.5,0.7-0.7,1.1-0.5s0.7,0.7,0.5,1.1l-6.3,17
					c-1.1,3.1,0.4,6.5,3.5,7.6l0.2,0.1c3,1.1,6.5-0.4,7.6-3.5l8.3-22.3c0.9-2.3-0.3-4.8-2.6-5.7c-2.3-0.9-4.8,0.3-5.7,2.6l-6.5,17.3
					c-0.5,1.2,0.2,2.6,1.4,3.1l0.3,0.1c1.2,0.5,2.6-0.2,3.1-1.4l4.2-11.3c0.2-0.5,0.7-0.7,1.1-0.5c0.5,0.2,0.7,0.7,0.5,1.1
					l-4.2,11.3c-0.8,2.1-3.2,3.2-5.3,2.4l-0.3-0.1c-2.1-0.8-3.2-3.2-2.4-5.3l6.5-17.3c1.2-3.2,4.7-4.8,7.9-3.6
					c3.2,1.2,4.8,4.7,3.6,7.9l-8.3,22.3C364.8,338.4,360.4,340.4,356.4,338.9z"/>
			</g>
		</g>
		<g>
			<g>
				
					<rect x="186.9" y="213.9" transform="matrix(1 -1.951835e-03 1.951835e-03 1 -0.5586 0.4822)" class="st1" width="119.7" height="145.1"/>
			</g>
		</g>
		<g>
			<g>
				
					<rect x="184.9" y="211.6" transform="matrix(1 -1.951835e-03 1.951835e-03 1 -0.5541 0.4783)" class="st2" width="119.7" height="145.1"/>
			</g>
		</g>
		<g>
			<g>
				<g>
					<path class="st2" d="M180.1,391.9l-14.1-9.7l-3.6,5.3c-0.6,0.9-0.4,2.2,0.6,2.8l10.8,7.5c0.9,0.6,2.2,0.4,2.8-0.6L180.1,391.9z
						"/>
				</g>
			</g>
			<g>
				<g>
					<polygon class="st3" points="216.4,335 210.7,334.5 207.6,329 204.3,328 166,382.2 180.1,391.9 218.3,337.7 					"/>
				</g>
			</g>
			<g>
				<g>
					<polygon class="st4" points="177.4,390.1 180.1,391.9 218.3,337.7 218.4,337.6 216.3,335 210.1,334.6 173.1,387 					"/>
				</g>
			</g>
			<g>
				<g>
					<polygon points="222.2,318 215.3,320.9 221.6,325.2 					"/>
				</g>
			</g>
		</g>
		<g>
			<g>
				<g>
					<path class="st3" d="M228.7,254.6l0.5-20l26.1,0.6l-0.5,20L228.7,254.6z M231,236.5l-0.4,16.2l22.3,0.5l0.4-16.3L231,236.5z"/>
				</g>
			</g>
			<g>
				<g>
					<path class="st3" d="M196.2,284.9l0.5-20l26.1,0.6l-0.5,20L196.2,284.9z M198.6,266.8l-0.4,16.3l22.3,0.5l0.4-16.3L198.6,266.8
						z"/>
				</g>
			</g>
			<g>
				<g>
					<path class="st3" d="M237.5,317.9l0.5-20l26.1,0.6l-0.5,20L237.5,317.9z M239.8,299.8l-0.4,16.3l22.3,0.5l0.4-16.2L239.8,299.8
						z"/>
				</g>
			</g>
			<g>
				<g>
					<path class="st3" d="M271.1,277.8l0.4-16l20.7,0.5l-0.4,16L271.1,277.8z M273.3,263.7l-0.3,12.2l16.9,0.4l0.3-12.2L273.3,263.7
						z"/>
				</g>
			</g>
			<g>
				<g>
					<g>
						<path class="st3" d="M207.2,257.3c2.2-13.2,15.4-14.9,15.9-15l-0.2-1.9c-0.1,0-15.1,1.9-17.6,16.5L207.2,257.3z"/>
					</g>
				</g>
				<g>
					<g>
						<polygon class="st3" points="206,258.5 209.5,256.5 208.6,254.9 206.6,256 205.3,254 203.7,255 						"/>
					</g>
				</g>
			</g>
			<g>
				<g>
					<g>
						<path class="st3" d="M230.9,306.1l0.2-1.9c-13.3-1.5-15.7-14.6-15.8-15.1l-1.9,0.3C213.5,289.6,216.2,304.5,230.9,306.1z"/>
					</g>
				</g>
				<g>
					<g>
						<polygon class="st3" points="229.1,307.8 232.4,305.4 230.3,302 228.7,303 229.9,304.9 228,306.3 						"/>
					</g>
				</g>
			</g>
			<g>
				<g>
					<g>
						<path class="st3" d="M270.7,304.8c0.1,0,14.5-4.7,14.3-19.5h-1.9c0.2,13.4-12.8,17.6-12.9,17.6L270.7,304.8z"/>
					</g>
				</g>
				<g>
					<g>
						<polygon class="st3" points="285.6,288.2 286.9,286.9 284,283.9 281,286.5 282.2,287.9 283.9,286.5 						"/>
					</g>
				</g>
			</g>
			<g>
				<g>
					<g>
						<path class="st3" d="M283.5,257l1.7-0.7c-0.1-0.1-6.1-14-20.8-12.3l0.2,1.9C278,244.3,283.3,256.5,283.5,257z"/>
					</g>
				</g>
				<g>
					<g>
						<polygon class="st3" points="266,247.9 267.4,246.6 265.8,245 267.3,243.1 265.9,241.9 263.2,245.1 						"/>
					</g>
				</g>
			</g>
		</g>
		<g id="paper_clip_6_">
			<g>
				<path class="st2" d="M355.3,338.6l-0.2-0.1c-3.9-1.5-6-5.9-4.5-9.8l6.3-17c0.2-0.5,0.7-0.7,1.1-0.5c0.5,0.2,0.7,0.7,0.5,1.1
					l-6.3,17c-1.1,3.1,0.4,6.5,3.5,7.6l0.2,0.1c3,1.1,6.5-0.4,7.6-3.5l8.3-22.3c0.9-2.3-0.3-4.8-2.6-5.7c-2.3-0.9-4.8,0.3-5.7,2.6
					l-6.5,17.3c-0.5,1.2,0.2,2.6,1.4,3.1l0.3,0.1c1.2,0.5,2.6-0.2,3.1-1.4l4.2-11.3c0.2-0.5,0.7-0.7,1.1-0.5
					c0.5,0.2,0.7,0.7,0.5,1.1l-4.2,11.3c-0.8,2.1-3.2,3.2-5.3,2.4l-0.3-0.1c-2.1-0.8-3.2-3.2-2.4-5.3l6.5-17.3
					c1.2-3.2,4.7-4.8,7.9-3.6c3.2,1.2,4.8,4.7,3.6,7.9l-8.3,22.3C363.6,338.1,359.2,340.1,355.3,338.6z"/>
			</g>
		</g>
	</g>
	<g>
		
			<rect x="104.2" y="151.62" transform="matrix(0.733 -0.6802 0.6802 0.733 -84.6714 132.8093)" class="st2" width="45.3" height="45.3"/>
	</g>
	<g>
		
			<rect x="215.11" y="114.61" transform="matrix(0.965 -0.2624 0.2624 0.965 -27.6844 67.1949)" class="st2" width="45.3" height="45.3"/>
	</g>
	<g>
		
			<rect x="314.1" y="135.47" transform="matrix(0.4939 -0.8695 0.8695 0.4939 32.3934 374.9007)" class="st2" width="48.3" height="48.3"/>
	</g>
	<g>
		<path class="st5" d="M351.4,153.4l-0.6-0.3c0.4-3-1.2-5.2-4.4-6.9c-3.5-1.9-6.7-0.7-9.4,3.4c-1-0.1-2.2,0.8-3,2.2
			c-0.9,1.6-0.9,3.3,0,4c-0.5,1.7-0.6,3.2,0,4.7l-1.7,3l2,6.2l4.5-2.7l0.9-1.6l0,0c3,1.6,5.4-1,7.7-4.7l0.9,0.5L351.4,153.4z"/>
	</g>
	<g>
		<rect x="360.6" y="236.8" class="st2" width="45.3" height="45.3"/>
	</g>
	<g>
		
			<rect x="88.71" y="279.21" transform="matrix(0.1842 -0.9829 0.9829 0.1842 -205.8406 355.7138)" class="st2" width="45.3" height="45.3"/>
	</g>
	<g>
		<path class="st2" d="M178.2,236.6l-7.2-7.8l3.9-3.6l7.2,7.8L178.2,236.6z M163.9,220.9l-7.2-7.8l3.9-3.6l7.2,7.8L163.9,220.9z
			 M149.6,205.2l-5.9-6.5l3.9-3.6l5.9,6.5L149.6,205.2z"/>
	</g>
	<g>
		<path class="st2" d="M212.6,210.3l-4.7-2.5l5-9.4l4.7,2.5L212.6,210.3z M222.5,191.5l-4.7-2.5l5-9.4l4.7,2.5L222.5,191.5z
			 M232.5,172.7l-4.7-2.5l1.4-2.7l4.7,2.5L232.5,172.7z"/>
	</g>
	<g>
		<path class="st2" d="M375.1,233.7l-3.7-9.3l4.9-1.9l3.7,9.3L375.1,233.7z M367.5,214.5l-3.9-9.9l4.9-2l3.9,9.9L367.5,214.5z
			 M359.7,194.7l-3.9-9.9l4.9-1.9l3.9,9.9L359.7,194.7z"/>
	</g>
	<g>
		<path class="st2" d="M249.9,212l-2.3-4.8l7.3-3.6l2.3,4.8L249.9,212z M266.7,203.7l-2.3-4.8l9.5-4.7l2.3,4.8L266.7,203.7z
			 M285.8,194.3l-2.3-4.8l9.5-4.7l2.3,4.8L285.8,194.3z M304.8,184.9l-2.3-4.8l9.5-4.7l2.3,4.8L304.8,184.9z"/>
	</g>
	<g>
		<path class="st2" d="M139.2,298.6l-1.8-5l5-1.8l1.8,5L139.2,298.6z M154.2,293.1l-1.8-5l10-3.7l1.8,5L154.2,293.1z M174.2,285.8
			l-1.8-5l10-3.7l1.8,5L174.2,285.8z"/>
	</g>
	<g>
		<path class="st2" d="M149.4,162.6l-1.3-5.1l5.2-1.3l1.3,5.1L149.4,162.6z M164.9,158.7l-1.3-5.1l10.3-2.6l1.3,5.1L164.9,158.7z
			 M185.5,153.6l-1.3-5.1l10.3-2.6l1.3,5.1L185.5,153.6z M206.1,148.4l-1.3-5.1l10.3-2.6l1.3,5.1L206.1,148.4z"/>
	</g>
	<g>
		<path class="st2" d="M110.2,265.6h-5.3V255h5.3V265.6z M110.2,244.4h-5.3v-10.6h5.3V244.4z M110.2,223.1h-5.3v-10.6h5.3V223.1z
			 M110.2,201.9h-5.3v-10.6h5.3V201.9z"/>
	</g>
	<g>
		<path class="st2" d="M359.8,267.4h-10.6V262h10.6V267.4z M338.6,267.4H328V262h10.6V267.4z M317.3,267.4H311V262h6.3V267.4z"/>
	</g>
	<g>
		<path class="st2" d="M314,150.5l-7.5-1.9l1.3-5.1l7.5,1.9L314,150.5z M296.2,145.9l-10.3-2.6l1.3-5.1l10.3,2.6L296.2,145.9z
			 M275.6,140.7l-10.3-2.6l1.3-5.1l10.3,2.6L275.6,140.7z"/>
	</g>
	<g>
		<g>
			<path class="st6" d="M347.9,155.9c0.4-0.6,0.1-1.5-0.5-1.8s-1.4-0.1-1.8,0.5s-0.1,1.5,0.5,1.8
				C346.7,156.8,347.5,156.6,347.9,155.9z"/>
		</g>
		<g>
			<path class="st6" d="M350.5,153.1l-3.6-1.9c0,0-4.3-3-5.3-1.7s-1.4,1.1-1.7,2.1c-0.5,1.8-1,2.3-1,2.3l-1.4-1c0,0,1.7-1.5,0.6-2.6
				c-0.8-0.8-1.5-0.8-2-0.5c1.7-2.5,3.9-8.2,8.6-5.6c4.7,2.6,7.9,3.4,9.4,4.6C355.1,149.6,354.5,154,350.5,153.1z"/>
		</g>
		<g>
			<path class="st6" d="M319.2,167.2l25.5,13.8c1.3-2.3,1.6-5.1,0.8-7.7c-0.8-2.6-2.5-4.7-4.9-6l-7.8-4.2c-2.3-1.3-5.1-1.6-7.7-0.8
				C322.6,163.1,320.5,164.8,319.2,167.2z"/>
		</g>
	</g>
	<g id="icon_2_">
		<g>
			<path class="st4" d="M124.4,169.1c2.2-1.4,5.1-0.8,6.5,1.3c1.4,2.2,0.8,5.1-1.3,6.5c-2.2,1.4-5.1,0.8-6.5-1.3
				C121.7,173.4,122.3,170.5,124.4,169.1L124.4,169.1z M122.6,166.3c-3.7,2.4-4.7,7.4-2.2,11.1s7.4,4.7,11.1,2.2
				c3.7-2.4,4.7-7.4,2.2-11.1C131.3,164.9,126.3,163.9,122.6,166.3L122.6,166.3z"/>
		</g>
		<g>
			
				<rect x="119.7" y="161.49" transform="matrix(0.8327 -0.5537 0.5537 0.8327 -70.0117 93.8437)" class="st4" width="1.2" height="2.6"/>
		</g>
		<g>
			
				<rect x="114.53" y="169.26" transform="matrix(0.1974 -0.9803 0.9803 0.1974 -74.8017 249.7613)" class="st4" width="1.2" height="2.6"/>
		</g>
		<g>
			
				<rect x="115.53" y="179.21" transform="matrix(0.8329 -0.5534 0.5534 0.8329 -79.9893 94.6981)" class="st4" width="2.6" height="1.2"/>
		</g>
		<g>
			<g>
				
					<rect x="130.22" y="180.6" transform="matrix(0.8328 -0.5535 0.5535 0.8328 -78.5273 104.0886)" class="st4" width="5.7" height="2.9"/>
			</g>
			<g>
				<path class="st4" d="M135.2,181.9c-0.4-0.7-1.5-0.7-2.4-0.1c-0.9,0.6-1.2,1.6-0.8,2.2c0.4,0.7,1.5,0.7,2.4,0.1
					C135.3,183.6,135.7,182.6,135.2,181.9z"/>
			</g>
			<g>
				
					<rect x="132.69" y="181.11" transform="matrix(0.8329 -0.5534 0.5534 0.8329 -78.6757 104.2445)" class="st4" width="1.2" height="2.6"/>
			</g>
		</g>
		<g>
			
				<rect x="135.9" y="165.62" transform="matrix(0.8329 -0.5535 0.5535 0.8329 -69.0682 103.7188)" class="st4" width="2.6" height="1.2"/>
		</g>
		<g>
			
				<rect x="128.2" y="160.41" transform="matrix(0.1974 -0.9803 0.9803 0.1974 -53.9086 256.1806)" class="st4" width="2.6" height="1.2"/>
		</g>
	</g>
	<g>
		<polygon class="st7" points="368.9,274.7 369.5,273.9 376.2,266.2 382.9,269 384.5,269.7 396.1,252.8 396.7,251.9 399.1,253.7 
			398.6,245.7 391.2,247.8 393.6,249.9 382.7,264 382.5,264.4 382.1,264.2 375.5,261.4 368.8,269.2 		"/>
	</g>
	<g id="icon_1_">
		<path class="st8" d="M118.3,303.6c0.7-2.5,2.3-4.4,4-5c-0.5-1.9-1.5-3.7-2.9-5.2c-1.4,1-3.8,1.3-6.3,0.5c-2.5-0.7-4.3-2.3-5-3.9
			c-2,0.5-3.8,1.4-5.3,2.7c1.1,1.4,1.4,3.8,0.6,6.4c-0.8,2.7-2.5,4.6-4.3,5.1c0.5,2,1.4,3.9,2.8,5.4c1.3-1.3,3.9-1.6,6.7-0.8
			c2.7,0.8,4.7,2.6,5.1,4.3c2-0.5,3.8-1.6,5.3-3C117.8,308.8,117.5,306.2,118.3,303.6z M109.2,306.6c-2.8-0.8-4.3-3.7-3.5-6.5
			c0.8-2.7,3.7-4.3,6.5-3.5s4.3,3.7,3.5,6.5C114.9,305.8,112,307.4,109.2,306.6z"/>
	</g>
	<g>
		<g>
			<path class="st2" d="M237.8,121.7c-8.6,0-15.6,7-15.6,15.6s7,15.6,15.6,15.6s15.6-7,15.6-15.6
				C253.5,128.7,246.5,121.7,237.8,121.7z M237.8,149.1c-6.5,0-11.7-5.2-11.7-11.7s5.2-11.7,11.7-11.7s11.7,5.2,11.7,11.7
				C249.5,143.8,244.3,149.1,237.8,149.1z"/>
		</g>
	</g>
	<g>
		<g>
			<path class="st2" d="M237.8,129.1c-4.5,0-8.2,3.7-8.2,8.2s3.7,8.2,8.2,8.2c4.6,0,8.2-3.7,8.2-8.2
				C246.1,132.8,242.4,129.1,237.8,129.1z M237.8,141.6c-2.3,0-4.2-1.9-4.2-4.2s1.9-4.2,4.2-4.2s4.2,1.9,4.2,4.2
				C242,139.7,240.1,141.6,237.8,141.6z"/>
		</g>
	</g>
	<g>
		<g>
			<path class="st5" d="M237.8,133.2c-2.3,0-4.2,1.9-4.2,4.2s1.9,4.2,4.2,4.2s4.2-1.9,4.2-4.2C242,135.1,240.1,133.2,237.8,133.2z"
				/>
		</g>
	</g>
	<g>
		<g>
			<g>
				<path class="st5" d="M237.8,125.7c-6.5,0-11.7,5.2-11.7,11.7s5.2,11.7,11.7,11.7s11.7-5.2,11.7-11.7S244.3,125.7,237.8,125.7z
					 M237.8,145.6c-4.5,0-8.2-3.7-8.2-8.2s3.7-8.2,8.2-8.2c4.6,0,8.2,3.7,8.2,8.2C246.1,141.9,242.4,145.6,237.8,145.6z"/>
			</g>
		</g>
	</g>
</g>
<text transform="matrix(1 0 0 1 204.7 280.1)" class="st9 st10 st11">？</text>
<text transform="matrix(0.9372 -0.3488 0.3488 0.9372 239.7329 251.1075)" class="st9 st10 st11">？</text>
<text transform="matrix(0.8625 0.5061 -0.5061 0.8625 244.5034 311.2176)" class="st9 st10 st11">？</text>
<text transform="matrix(0.7539 0.6569 -0.6569 0.7539 274.5189 272.2464)" class="st9 st10 st12">？</text>
</svg>
