<?xml version="1.0" encoding="utf-8"?>
<!-- Generator: Adobe Illustrator 24.3.0, SVG Export Plug-In . SVG Version: 6.00 Build 0)  -->
<svg version="1.1" id="_x31_" xmlns="http://www.w3.org/2000/svg" xmlns:xlink="http://www.w3.org/1999/xlink" x="0px" y="0px"
	 viewBox="0 0 512 512" style="enable-background:new 0 0 512 512;" xml:space="preserve">
<style type="text/css">
	.st0{fill:#EAE2E0;}
	.st1{fill:#494F4C;}
	.st2{fill:url(#SVGID_1_);}
	.st3{fill:#FFFFFF;}
	.st4{fill:url(#SVGID_2_);}
	.st5{opacity:5.000000e-02;fill:#FFFFFF;enable-background:new    ;}
</style>
<g>
	<g>
		<path class="st0" d="M173.8,387.7v10.1H289v71.8H115.5v-71.8h49.4v-10.1h-59.5v92h193.7v-92H173.8z"/>
	</g>
	<path class="st1" d="M164.9,83.2v348.2c0,10.2-8.2,18.4-18.4,18.4H62.9c-8,0-14.8-5.1-17.3-12.3c-0.7-1.9-1-4-1-6.1V83.2
		c0-10.2,8.2-18.4,18.3-18.4h83.6c4.7,0,9,1.8,12.3,4.7C162.5,72.9,164.9,77.8,164.9,83.2z"/>
	<rect x="173.8" y="163.6" class="st1" width="241.9" height="283.6"/>
	<linearGradient id="SVGID_1_" gradientUnits="userSpaceOnUse" x1="173.7695" y1="261.3774" x2="415.6202" y2="261.3774">
		<stop  offset="0" style="stop-color:#FFD300"/>
		<stop  offset="1" style="stop-color:#EC7103"/>
	</linearGradient>
	<rect x="173.8" y="92" class="st2" width="241.9" height="338.8"/>
	<g>
		<rect x="216.8" y="237.1" class="st0" width="35.5" height="35.5"/>
		<rect x="276.3" y="237.1" class="st0" width="35.5" height="35.5"/>
		<rect x="335.8" y="237.1" class="st0" width="35.5" height="35.5"/>
		<rect x="216.8" y="291.5" class="st0" width="35.5" height="35.5"/>
		<rect x="276.3" y="291.5" class="st0" width="35.5" height="35.5"/>
		<rect x="335.8" y="291.5" class="st0" width="35.5" height="35.5"/>
		<rect x="216.8" y="346" class="st0" width="35.5" height="35.5"/>
		<rect x="276.3" y="346" class="st0" width="35.5" height="35.5"/>
		<rect x="335.8" y="346" class="st0" width="35.5" height="35.5"/>
	</g>
	<path class="st3" d="M361.3,204.1H226.8c-5.5,0-10-6.5-10-14.5v-52c0-8,4.5-14.5,10-14.5h134.6c5.5,0,10,6.5,10,14.5v52
		C371.3,197.6,366.8,204.1,361.3,204.1z"/>
	<linearGradient id="SVGID_2_" gradientUnits="userSpaceOnUse" x1="39.5492" y1="249.7232" x2="159.8396" y2="249.7232">
		<stop  offset="0" style="stop-color:#FFD300"/>
		<stop  offset="1" style="stop-color:#EC7103"/>
	</linearGradient>
	<path class="st4" d="M141.5,442.2H57.9c-10.1,0-18.4-8.2-18.4-18.4V75.6c0-10.1,8.2-18.4,18.4-18.4h83.6c10.1,0,18.4,8.2,18.4,18.4
		v348.2C159.8,434,151.6,442.2,141.5,442.2z"/>
	<path class="st5" d="M159.6,72c-1.3-0.3-2.6-0.5-4-0.5H72.1c-10.2,0-18.4,8.3-18.4,18.4v348.2c0,1.3,0.2,2.6,0.4,3.8
		c-8.2-1.8-14.3-9.2-14.3-17.9V75.8c0-10.1,8.2-18.3,18.3-18.3h83.6C150.5,57.5,157.9,63.7,159.6,72z"/>
</g>
</svg>
