<?xml version="1.0" encoding="utf-8"?>
<!-- Generator: Adobe Illustrator 24.3.0, SVG Export Plug-In . SVG Version: 6.00 Build 0)  -->
<svg version="1.1" id="_x32_" xmlns="http://www.w3.org/2000/svg" xmlns:xlink="http://www.w3.org/1999/xlink" x="0px" y="0px"
	 viewBox="0 0 512 512" style="enable-background:new 0 0 512 512;" xml:space="preserve">
<style type="text/css">
	.st0{fill:url(#SVGID_1_);}
	.st1{fill:#FFFFFF;}
</style>
<linearGradient id="SVGID_1_" gradientUnits="userSpaceOnUse" x1="0.5001" y1="256.4228" x2="512.4996" y2="256.4228">
	<stop  offset="0" style="stop-color:#FFD300"/>
	<stop  offset="1" style="stop-color:#EC7103"/>
</linearGradient>
<circle class="st0" cx="256.5" cy="256.4" r="256"/>
<g>
	<path class="st1" d="M418,186.7l-12.1-12.9c-7.3-7.9-19.3-7.8-26.6,0l-11.3,12.1l38.7,41.4l11.3-12.1
		C425.3,207.3,425.3,194.6,418,186.7z"/>
	<polygon class="st1" points="261.8,299.3 261.8,340.7 300.5,340.7 396.1,238.5 357.4,197.2 	"/>
	<rect x="168.5" y="177.2" class="st1" width="109.3" height="19.5"/>
	<rect x="168.5" y="248.6" class="st1" width="109.3" height="19.5"/>
	<rect x="168.5" y="320" class="st1" width="66.8" height="19.5"/>
	<path class="st1" d="M332.6,394.9c0,3-2.3,5.4-5.1,5.4H118.9c-2.8,0-5.1-2.4-5.1-5.4V118c0-3,2.3-5.4,5.1-5.4h208.6
		c2.8,0,5.1,2.4,5.1,5.4v78.2l24.3-26V118c0-17.3-13.1-31.4-29.4-31.4H118.9c-16.2,0-29.4,14-29.4,31.4v276.9
		c0,17.3,13.1,31.4,29.4,31.4h208.6c16.2,0,29.4-14,29.4-31.4V308l-24.3,26V394.9z"/>
</g>
</svg>
