<?xml version="1.0" encoding="utf-8"?>
<!-- Generator: Adobe Illustrator 24.3.0, SVG Export Plug-In . SVG Version: 6.00 Build 0)  -->
<svg version="1.1" id="_x32_" xmlns="http://www.w3.org/2000/svg" xmlns:xlink="http://www.w3.org/1999/xlink" x="0px" y="0px"
	 viewBox="0 0 512 512" style="enable-background:new 0 0 512 512;" xml:space="preserve">
<style type="text/css">
	.st0{fill:url(#SVGID_1_);}
	.st1{fill:#FFFFFF;}
</style>
<linearGradient id="SVGID_1_" gradientUnits="userSpaceOnUse" x1="-0.9998" y1="255" x2="510.9998" y2="255">
	<stop  offset="0" style="stop-color:#FFD300"/>
	<stop  offset="1" style="stop-color:#EC7103"/>
</linearGradient>
<circle class="st0" cx="255" cy="255" r="256"/>
<g>
	<path class="st1" d="M414.5,351.7l-50-50c-7.3-7.3-19-7.3-26.3,0l-22.7,22.7c-6.6,6.6-17.2,7.3-24.6,1.5c0,0-21.7-14.3-57.2-49.8
		c-35.5-35.5-49.8-57.2-49.8-57.2c-5.7-7.4-5.1-17.9,1.6-24.6l22.7-22.7c7.3-7.3,7.3-19.1,0-26.3l-50-50c-7.3-7.3-19-7.3-26.3,0
		c-0.2,0.2-2.7,2.7-30.2,30.2c-32,32,10.3,129.9,81.5,201.1c71.2,71.1,169.1,113.4,201.1,81.5c27.5-27.5,30-30,30.2-30.2
		C421.8,370.7,421.8,359,414.5,351.7z"/>
</g>
</svg>
