<?xml version="1.0" encoding="utf-8"?>
<!-- Generator: Adobe Illustrator 24.3.0, SVG Export Plug-In . SVG Version: 6.00 Build 0)  -->
<svg version="1.1" id="レイヤー_1" xmlns="http://www.w3.org/2000/svg" xmlns:xlink="http://www.w3.org/1999/xlink" x="0px"
	 y="0px" viewBox="0 0 400 400" style="enable-background:new 0 0 400 400;" xml:space="preserve">
<style type="text/css">
	.st0{fill:#FFFFFF;}
</style>
<path class="st0" d="M200,0C89.54,0,0,89.54,0,200s89.54,200,200,200s200-89.54,200-200S310.46,0,200,0z M299.4,149.1
	c0.1,2.2,0.1,4.4,0.1,6.6c0,67.7-51.6,145.9-145.9,145.9c-27.9,0-55.1-8-78.7-23c4,0.5,8.1,0.7,12.2,0.7c23.1,0,45.5-7.7,63.7-22
	c-21.9-0.4-41.2-14.7-47.9-35.6c7.7,1.5,15.6,1.2,23.2-0.9c-24-4.9-41.2-25.9-41.2-50.3c0-0.2,0-0.4,0-0.6c7.1,4,15.1,6.2,23.3,6.4
	c-22.6-15.1-29.5-45.1-15.9-68.5c26,32,64.5,51.5,105.7,53.6c-4.2-17.8,1.5-36.5,14.8-49c20.7-19.5,53.2-18.5,72.6,2.2
	c11.5-2.2,22.5-6.4,32.6-12.4c-3.8,11.9-11.8,22-22.5,28.4c10.2-1.2,20.1-3.9,29.5-8.1C318.1,132.9,309.4,141.8,299.4,149.1z"/>
</svg>
